<?xml version="1.0" encoding="UTF-8"?><svg id="_이어_2" xmlns="http://www.w3.org/2000/svg" viewBox="0 0 22.27 11.96"><defs><style>.cls-1{fill:#a10136;}</style></defs><g id="Czech"><polygon id="czech_republic" class="cls-1" points="6.41 11.62 6.73 11.88 7.23 11.96 8.39 11.76 8.62 11.69 8.7 11.58 9.02 11.04 9.1 11 9.2 11.01 9.3 11 9.4 10.92 9.43 10.8 9.44 10.53 9.48 10.42 9.68 10.14 9.76 10.07 9.9 10.12 10.27 10.23 10.42 10.23 10.76 10.18 10.94 10.18 11.19 10.26 11.92 10.64 12.08 10.68 12.43 10.75 12.61 10.8 12.87 10.93 13.09 11.06 13.33 11.16 13.64 11.2 14.02 11.17 14.62 11.04 14.99 11.06 15.33 11.16 15.65 11.33 15.91 11.56 16.06 11.86 16.15 11.54 16.3 11.19 16.5 10.89 16.75 10.68 17.03 10.64 17.72 10.76 18.04 10.76 18.44 10.62 18.94 10.36 19.41 10.06 19.71 9.78 19.8 9.57 19.87 9.13 19.96 8.92 20.12 8.73 21.16 7.99 21.49 7.82 22.27 7.56 22.23 7.29 22.13 7.09 21.83 6.71 21.42 5.99 21.16 5.77 20.9 5.65 20.3 5.44 20.15 5.35 19.82 5.09 19.68 5.03 19.56 5.08 19.42 5.19 19.27 5.3 19.1 5.32 18.85 5.18 18.58 4.93 18.16 4.41 18.36 4.35 18.52 4.24 18.62 4.08 18.62 3.88 18.52 3.72 18.38 3.75 18.2 3.85 17.97 3.9 17.5 3.75 16.63 3.23 16.15 3.13 15.85 3.16 15.85 3.21 15.96 3.34 16 3.59 16 3.87 16.06 3.92 16.05 3.96 15.83 4.21 15.57 4.46 15.34 4.59 15.09 4.6 14.83 4.49 13.72 3.27 13.73 2.98 13.9 2.84 14.1 2.71 14.23 2.47 14.12 2.07 13.76 2.02 13.31 2.12 12.94 2.15 12.85 2.1 12.66 1.9 12.56 1.83 11.69 1.45 10.99 1.26 10.81 1.17 10.67 .97 10.51 .54 10.41 .38 9.88 .1 9.64 .35 9.42 .75 8.98 .91 8.6 1.08 7.81 0 7.27 .03 7.19 .17 7.23 .27 7.29 .35 7.3 .43 7.33 .46 7.43 .53 7.51 .61 7.53 .7 7.44 .77 7.1 .85 6.97 .89 6.49 1.13 5.43 1.46 4.97 1.67 4.85 1.78 4.66 2.04 4.57 2.13 4.48 2.14 4.37 2.14 4.28 2.12 4.24 2.1 3.98 2.29 3.45 2.57 2.91 2.94 2.69 3.04 2.44 3.11 2.04 3.17 1.55 3.3 1.19 3.53 .89 3.86 .62 4.29 .51 4.08 .34 3.82 .15 3.67 0 3.78 .05 4.01 .22 4.36 .56 4.91 .84 5.17 1.09 5.35 1.27 5.57 1.33 5.93 1.27 6.06 1.04 6.33 .99 6.45 1.03 6.56 1.12 6.65 1.22 6.74 1.28 6.84 1.69 7.6 2.22 8.2 3.47 9.24 4.15 9.93 4.36 10.11 4.7 10.32 5.05 10.49 5.39 10.71 5.7 11.07 6.12 11.32 6.41 11.62"/></g></svg>