<?xml version="1.0" encoding="UTF-8"?><svg id="_이어_2" xmlns="http://www.w3.org/2000/svg" viewBox="0 0 26.38 33.68"><defs><style>.cls-1{fill:#a10136;}</style></defs><g id="Kenya"><path id="kenya" class="cls-1" d="M25.24,23.53v.23l-.29,.33-.28,.24-.31,.18-.39,.16-.23,.02-.19-.03-.14,.04-.08,.24-.17-.09h-.04l.07,.33-.03,.29-.11,.27-.18,.27-.34,.33-.31,.12-.34,.05-.42,.12-.35,.22-.17,.26-.08,.31-.06,.38-.1,.42-.12,.32-.67,1.2-.84,2.04-.45,.9-.25,.35-.26,.22-.26,.18-.25,.24-1.37-.96-2.03-1.46-1.03-.68-.53-.42-.29-.38,.02-.42,.12-.51-.03-.48-.41-.32-.7-.39-.7-.39-.7-.39-1.41-.79-1.41-.79-.7-.39-.7-.39-.7-.39-.57-.32-.17-.09-2.08-1.16-1.04-.65-.57-.28-.55-.12-.04-1.18,.05-1.18,.19-1.14,.39-1.07,.25-.44,.84-1.17,.24-.49,.13-.22,.2-.21,.16-.08,.39-.13,.12-.08,.06-.14v-.36l.05-.17,.1-.16,.25-.3,.09-.16,.1-.46v-.48l-.34-1.83-.11-.39-.21-.41-.9-1.19-.22-.41-.1-.49v-.87l-.18-.38-.09-.06-.27-.11-.11-.07-.09-.1v-.14l-.02-.07-.37-.54-.33-.62,1-.99,1.59-1.57L3.94,.6l.61-.6,.1,.31,.32,.05,.43-.03,.4,.07,.41,.38,.02,.44-.09,.51,.07,.58,.3,.54,.39,.35,.48,.19,2.05,.17,.65,.17,.7,.36,2.56,1.65,.65,.3,.66,.16,1.4,.2,1.34,.29,.71,.07,.59-.11,.29-.22,.22-.31,.19-.33,.21-.28,.29-.23,2.24-1.09,.38-.08,.33,.08,.26,.19,.25,.25,.29,.23,.64,.23,.69,.02,1.41-.1-.2,.29-.45,.64-1.14,1.64-.34,.34-.73,.72-.05,.05-.05,.05-.04,.06-.03,.06v1.96l.02,3.53v1.29l.02,3.53v1.78l.05,.14,.08,.12,.11,.11,.45,.58,.81,1.04,.17,.17,.12,.2,.06,.22Zm-1.9,1.79l.49-.17v-.18h-.23l-.26,.35Z"/></g></svg>