<?xml version="1.0" encoding="UTF-8"?><svg id="_이어_2" xmlns="http://www.w3.org/2000/svg" viewBox="0 0 110.23 63.98"><defs><style>.cls-1{fill:#a2b1ab;}.cls-2{fill:#090405;}.cls-3{fill:#26312b;}.cls-4{fill:#879487;}.cls-5{fill:#5d6765;}.cls-6{fill:#9da89a;}.cls-7{fill:#afbeb7;}.cls-8{fill:#c0cac2;}.cls-9{fill:#abbdba;}.cls-10{fill:#aab4ad;}.cls-11{fill:#94a394;}.cls-12{fill:none;}.cls-13{fill:#6a7b6f;}.cls-14{fill:#49544e;}.cls-15{fill:#485d58;}</style></defs><g id="Mexico"><g><polygon class="cls-12" points="23.05 50.53 21.55 49.51 23.18 50.51 23.05 50.53"/><polygon class="cls-12" points="17.07 55.27 19.91 57.49 19.91 57.5 19.55 57.54 17.07 55.27"/><polygon class="cls-12" points="19.92 57.49 19.91 57.5 19.91 57.49 19.92 57.49"/><polygon class="cls-11" points="17.79 61.77 19.91 57.5 19.92 57.49 106.87 46.3 109.01 50.15 17.79 61.77"/><polygon class="cls-4" points="19.91 57.5 17.87 61.71 1.93 44.16 3.27 41.14 19.91 57.5"/><polygon class="cls-11" points="101.36 41.78 103.62 45.25 21.32 54.5 23.22 50.54 101.36 41.78"/><polygon class="cls-4" points="6.49 37.79 23.22 50.54 21.32 54.5 5.28 40.69 6.49 37.79"/><polygon class="cls-4" points="10.16 34.71 26.12 44.32 24.32 48.03 8.91 37.63 10.16 34.71"/><polygon class="cls-11" points="95.73 37.51 98.11 41.04 24.32 48.03 26.12 44.32 95.73 37.51"/><polygon class="cls-11" points="30.14 35.99 31.88 32.39 38.74 31.95 84.9 28.96 86.05 28.89 87.5 32.59 40 35.52 30.14 35.99"/><polygon class="cls-4" points="16.06 30.81 17.72 27.59 31.84 32.39 31.88 32.39 30.14 35.99 16.06 30.81"/><polygon class="cls-4" points="21.52 23.83 34.8 26.26 32.74 30.57 19.97 27.08 21.52 23.83"/><polygon class="cls-11" points="80.97 24.53 82.58 28 32.74 30.57 34.8 26.26 80.97 24.53"/><polygon class="cls-11" points="35.22 25.39 37.26 21.11 37.28 21.11 75.87 20.53 77.49 23.75 35.22 25.39"/><polygon class="cls-11" points="39.36 16.71 43.54 16.62 68.56 16.26 70.61 16.23 72.34 19.74 61.27 20.06 37.88 19.83 39.36 16.71"/><polygon class="cls-11" points="41.33 12.58 41.71 12.6 66.38 12.44 67.8 15.78 39.82 15.81 41.33 12.58"/><polygon class="cls-8" points="19.91 57.49 21.37 54.42 103.59 45.22 106.86 46.3 19.92 57.49 19.91 57.49"/><polygon class="cls-10" points="3.27 41.14 5.44 40.9 21.37 54.42 19.91 57.49 3.27 41.14"/><polygon class="cls-10" points="6.49 37.79 8.91 37.63 24.32 48.03 23.16 50.66 6.49 37.79"/><polygon class="cls-8" points="24.32 48.01 98.13 41.03 101.34 41.78 23.16 50.63 24.32 48.01"/><polygon class="cls-8" points="92.82 36.87 95.73 37.51 26.12 44.32 27.5 41.58 92.82 36.87"/><polygon class="cls-10" points="12.45 34.19 27.5 41.58 26.12 44.32 10.16 34.73 12.45 34.19"/><polygon class="cls-10" points="13.73 31.65 16.08 30.8 30.14 35.99 29.13 38.17 13.73 31.65"/><polygon class="cls-8" points="31.88 32.39 32.74 30.58 82.46 27.96 86.01 28.88 31.88 32.39"/><polygon class="cls-10" points="17.71 27.6 19.95 27.05 32.74 30.58 31.88 32.39 17.71 27.6"/><polygon class="cls-8" points="35.21 25.39 77.55 23.74 80.97 24.53 34.8 26.26 35.21 25.39"/><polygon class="cls-10" points="34.8 26.26 21.52 23.85 23.76 23.61 35.21 25.39 34.8 26.26"/><polygon class="cls-8" points="72.33 19.76 75.85 20.52 37.26 21.11 37.88 19.83 72.33 19.76"/><polygon class="cls-10" points="37.88 19.82 37.25 21.14 25.27 20.46 27.93 19.93 37.88 19.82"/><polygon class="cls-8" points="39.35 16.71 39.82 15.81 67.8 15.78 70.64 16.23 39.35 16.71"/><polygon class="cls-10" points="31.74 16.41 39.82 15.81 39.35 16.72 29.38 16.84 31.74 16.41"/><polygon class="cls-10" points="0 45.01 1.93 44.16 17.89 61.72 16.81 63.98 0 45.01"/><polygon class="cls-8" points="108.94 50.08 110.23 51.05 16.81 63.98 17.89 61.72 108.94 50.08"/><polygon class="cls-8" points="89.53 33.24 87.47 32.6 30.14 35.99 29.1 38.16 89.53 33.24"/><polygon class="cls-11" points="29.13 38.15 89.55 33.24 92.76 36.87 27.49 41.58 29.13 38.14 29.13 38.15"/><polygon class="cls-4" points="12.45 34.19 13.72 31.65 29.13 38.16 27.49 41.58 12.45 34.19"/><polygon class="cls-4" points="37.88 19.83 27.81 20.04 29.38 16.83 39.36 16.71 37.88 19.83"/><polygon class="cls-4" points="23.76 23.61 25.27 20.46 37.26 21.11 35.22 25.39 23.76 23.61"/><polygon class="cls-4" points="41.33 12.58 39.82 15.81 31.74 16.41 33.43 13.09 41.33 12.58"/><polygon class="cls-9" points="63.28 12.48 84.81 56.25 66.79 59.15 47.89 12.64 63.28 12.48"/><polygon class="cls-13" points="62.06 12.48 82.99 56.58 68.85 58.83 49.7 12.64 62.06 12.48"/><g><polygon class="cls-9" points="68.68 58.56 82.81 56.32 82.8 56.26 68.67 58.5 68.68 58.56 68.68 58.56"/><polygon class="cls-9" points="68.47 58.06 82.58 55.84 82.57 55.78 68.46 58 68.47 58.06 68.47 58.06"/><polygon class="cls-9" points="68.26 57.56 82.35 55.37 82.34 55.31 68.26 57.5 68.26 57.56 68.26 57.56"/><polygon class="cls-9" points="68.06 57.05 82.12 54.89 82.12 54.83 68.05 56.99 68.06 57.05 68.06 57.05"/><polygon class="cls-9" points="67.85 56.55 81.9 54.41 81.89 54.35 67.84 56.49 67.85 56.55 67.85 56.55"/><polygon class="cls-9" points="67.64 56.05 81.67 53.93 81.66 53.87 67.63 55.99 67.64 56.05 67.64 56.05"/><polygon class="cls-9" points="67.43 55.55 81.44 53.45 81.43 53.39 67.42 55.49 67.43 55.55 67.43 55.55"/><polygon class="cls-9" points="67.22 55.05 81.21 52.97 81.21 52.91 67.22 54.99 67.22 55.05 67.22 55.05"/><polygon class="cls-9" points="67.02 54.55 80.99 52.5 80.98 52.44 67.01 54.49 67.02 54.55 67.02 54.55"/><polygon class="cls-9" points="66.81 54.04 80.76 52.02 80.75 51.96 66.8 53.98 66.81 54.04 66.81 54.04"/><polygon class="cls-9" points="66.6 53.54 80.53 51.54 80.52 51.48 66.59 53.48 66.6 53.54 66.6 53.54"/><polygon class="cls-9" points="66.39 53.04 80.3 51.06 80.3 51 66.38 52.98 66.39 53.04 66.39 53.04"/><polygon class="cls-9" points="66.19 52.54 80.08 50.58 80.07 50.52 66.18 52.48 66.19 52.54 66.19 52.54"/><polygon class="cls-9" points="65.98 52.04 79.85 50.1 79.84 50.04 65.97 51.98 65.98 52.04 65.98 52.04"/><polygon class="cls-9" points="65.77 51.54 79.62 49.63 79.61 49.57 65.76 51.48 65.77 51.54 65.77 51.54"/><polygon class="cls-9" points="65.56 51.04 79.39 49.15 79.39 49.09 65.55 50.98 65.56 51.04 65.56 51.04"/><polygon class="cls-9" points="65.35 50.53 79.17 48.67 79.16 48.61 65.34 50.47 65.35 50.53 65.35 50.53"/><polygon class="cls-9" points="65.14 50.03 78.94 48.19 78.93 48.13 65.14 49.97 65.14 50.03 65.14 50.03"/><polygon class="cls-9" points="64.94 49.53 78.71 47.71 78.7 47.65 64.93 49.47 64.94 49.53 64.94 49.53"/><polygon class="cls-9" points="64.73 49.03 78.48 47.23 78.48 47.17 64.72 48.97 64.73 49.03 64.73 49.03"/><polygon class="cls-9" points="64.52 48.53 78.26 46.76 78.25 46.7 64.51 48.47 64.52 48.53 64.52 48.53"/><polygon class="cls-9" points="64.31 48.03 78.03 46.28 78.02 46.22 64.3 47.97 64.31 48.03 64.31 48.03"/><polygon class="cls-9" points="64.11 47.52 77.8 45.8 77.8 45.74 64.1 47.46 64.11 47.52 64.11 47.52"/><polygon class="cls-9" points="63.9 47.02 77.57 45.32 77.57 45.26 63.89 46.96 63.9 47.02 63.9 47.02"/><polygon class="cls-9" points="63.69 46.52 77.35 44.84 77.34 44.78 63.68 46.46 63.69 46.52 63.69 46.52"/><polygon class="cls-9" points="63.48 46.02 77.12 44.36 77.11 44.3 63.47 45.96 63.48 46.02 63.48 46.02"/><polygon class="cls-9" points="63.27 45.52 76.89 43.89 76.89 43.83 63.27 45.46 63.27 45.52 63.27 45.52"/><polygon class="cls-9" points="63.07 45.02 76.66 43.41 76.66 43.35 63.06 44.96 63.07 45.02 63.07 45.02"/><polygon class="cls-9" points="62.86 44.51 76.44 42.93 76.43 42.87 62.85 44.46 62.86 44.51 62.86 44.51"/><polygon class="cls-9" points="62.65 44.01 76.21 42.45 76.2 42.39 62.64 43.95 62.65 44.01 62.65 44.01"/><polygon class="cls-9" points="62.44 43.51 75.98 41.97 75.98 41.91 62.43 43.45 62.44 43.51 62.44 43.51"/><polygon class="cls-9" points="62.23 43.01 75.76 41.49 75.75 41.43 62.23 42.95 62.23 43.01 62.23 43.01"/><polygon class="cls-9" points="62.03 42.51 75.53 41.02 75.52 40.96 62.02 42.45 62.03 42.51 62.03 42.51"/><polygon class="cls-9" points="61.82 42.01 75.3 40.54 75.29 40.48 61.81 41.95 61.82 42.01 61.82 42.01"/><polygon class="cls-9" points="61.61 41.5 75.07 40.06 75.07 40 61.6 41.45 61.61 41.5 61.61 41.5"/><polygon class="cls-9" points="61.4 41 74.85 39.58 74.84 39.52 61.4 40.94 61.4 41 61.4 41"/><polygon class="cls-9" points="61.19 40.5 74.62 39.1 74.61 39.04 61.19 40.44 61.19 40.5 61.19 40.5"/><polygon class="cls-9" points="60.99 40 74.39 38.62 74.38 38.56 60.98 39.94 60.99 40 60.99 40"/><polygon class="cls-9" points="60.78 39.5 74.16 38.15 74.16 38.09 60.77 39.44 60.78 39.5 60.78 39.5"/><polygon class="cls-9" points="60.57 39 73.94 37.67 73.93 37.61 60.56 38.94 60.57 39 60.57 39"/><polygon class="cls-9" points="60.36 38.5 73.71 37.19 73.7 37.13 60.36 38.44 60.36 38.5 60.36 38.5"/><polygon class="cls-9" points="60.15 37.99 73.48 36.71 73.47 36.65 60.15 37.93 60.15 37.99 60.15 37.99"/><polygon class="cls-9" points="59.95 37.49 73.25 36.23 73.25 36.17 59.94 37.43 59.95 37.49 59.95 37.49"/><polygon class="cls-9" points="59.74 36.99 73.03 35.75 73.02 35.69 59.73 36.93 59.74 36.99 59.74 36.99"/><polygon class="cls-9" points="59.53 36.49 72.8 35.28 72.79 35.22 59.52 36.43 59.53 36.49 59.53 36.49"/><polygon class="cls-9" points="59.32 35.99 72.57 34.8 72.56 34.74 59.32 35.93 59.32 35.99 59.32 35.99"/><polygon class="cls-9" points="59.11 35.49 72.34 34.32 72.34 34.26 59.11 35.43 59.11 35.49 59.11 35.49"/><polygon class="cls-9" points="58.91 34.98 72.12 33.84 72.11 33.78 58.9 34.92 58.91 34.98 58.91 34.98"/><polygon class="cls-9" points="58.7 34.48 71.89 33.36 71.88 33.3 58.69 34.42 58.7 34.48 58.7 34.48"/><polygon class="cls-9" points="58.49 33.98 71.66 32.88 71.66 32.82 58.48 33.92 58.49 33.98 58.49 33.98"/><polygon class="cls-9" points="58.28 33.48 71.43 32.41 71.43 32.35 58.28 33.42 58.28 33.48 58.28 33.48"/><polygon class="cls-9" points="58.07 32.98 71.21 31.93 71.2 31.87 58.07 32.92 58.07 32.98 58.07 32.98"/><polygon class="cls-9" points="57.87 32.48 70.98 31.45 70.97 31.39 57.86 32.42 57.87 32.48 57.87 32.48"/><polygon class="cls-9" points="57.66 31.98 70.75 30.97 70.75 30.91 57.65 31.92 57.66 31.98 57.66 31.98"/><polygon class="cls-9" points="57.45 31.47 70.52 30.49 70.52 30.43 57.44 31.41 57.45 31.47 57.45 31.47"/><polygon class="cls-9" points="57.24 30.97 70.3 30.01 70.29 29.95 57.24 30.91 57.24 30.97 57.24 30.97"/><polygon class="cls-9" points="57.03 30.47 70.07 29.54 70.06 29.48 57.03 30.41 57.03 30.47 57.03 30.47"/><polygon class="cls-9" points="56.83 29.97 69.84 29.06 69.84 29 56.82 29.91 56.83 29.97 56.83 29.97"/><polygon class="cls-9" points="56.62 29.47 69.61 28.58 69.61 28.52 56.61 29.41 56.62 29.47 56.62 29.47"/><polygon class="cls-9" points="56.41 28.97 69.39 28.1 69.38 28.04 56.41 28.91 56.41 28.97 56.41 28.97"/><polygon class="cls-9" points="56.2 28.46 69.16 27.62 69.15 27.56 56.2 28.4 56.2 28.46 56.2 28.46"/><polygon class="cls-9" points="55.99 27.96 68.93 27.14 68.93 27.08 55.99 27.9 55.99 27.96 55.99 27.96"/><polygon class="cls-9" points="55.79 27.46 68.7 26.67 68.7 26.61 55.78 27.4 55.79 27.46 55.79 27.46"/><polygon class="cls-9" points="55.58 26.96 68.48 26.19 68.47 26.13 55.57 26.9 55.58 26.96 55.58 26.96"/><polygon class="cls-9" points="55.37 26.46 68.25 25.71 68.25 25.65 55.37 26.4 55.37 26.46 55.37 26.46"/><polygon class="cls-9" points="55.16 25.96 68.02 25.23 68.02 25.17 55.16 25.9 55.16 25.96 55.16 25.96"/><polygon class="cls-9" points="54.95 25.45 67.79 24.75 67.79 24.69 54.95 25.39 54.95 25.45 54.95 25.45"/><polygon class="cls-9" points="54.75 24.95 67.57 24.27 67.56 24.21 54.74 24.89 54.75 24.95 54.75 24.95"/><polygon class="cls-9" points="54.54 24.45 67.34 23.8 67.34 23.74 54.53 24.39 54.54 24.45 54.54 24.45"/><polygon class="cls-9" points="54.33 23.95 67.11 23.32 67.11 23.26 54.33 23.89 54.33 23.95 54.33 23.95"/><polygon class="cls-9" points="54.12 23.45 66.88 22.84 66.88 22.78 54.12 23.39 54.12 23.45 54.12 23.45"/><polygon class="cls-9" points="53.91 22.95 66.66 22.36 66.65 22.3 53.91 22.89 53.91 22.95 53.91 22.95"/><polygon class="cls-9" points="53.71 22.45 66.43 21.88 66.43 21.82 53.7 22.39 53.71 22.45 53.71 22.45"/><polygon class="cls-9" points="53.5 21.94 66.2 21.4 66.2 21.34 53.5 21.88 53.5 21.94 53.5 21.94"/><polygon class="cls-9" points="53.29 21.44 65.97 20.93 65.97 20.87 53.29 21.38 53.29 21.44 53.29 21.44"/><polygon class="cls-9" points="53.08 20.94 65.75 20.45 65.74 20.39 53.08 20.88 53.08 20.94 53.08 20.94"/><polygon class="cls-9" points="52.87 20.44 65.52 19.97 65.52 19.91 52.87 20.38 52.87 20.44 52.87 20.44"/><polygon class="cls-9" points="52.67 19.94 65.29 19.49 65.29 19.43 52.66 19.88 52.67 19.94 52.67 19.94"/><polygon class="cls-9" points="52.46 19.44 65.06 19.01 65.06 18.95 52.46 19.38 52.46 19.44 52.46 19.44"/><polygon class="cls-9" points="52.25 18.93 64.84 18.54 64.84 18.47 52.25 18.87 52.25 18.93 52.25 18.93"/><polygon class="cls-9" points="52.04 18.43 64.61 18.06 64.61 18 52.04 18.37 52.04 18.43 52.04 18.43"/><polygon class="cls-9" points="51.83 17.93 64.38 17.58 64.38 17.52 51.83 17.87 51.83 17.93 51.83 17.93"/><polygon class="cls-9" points="51.63 17.43 64.15 17.1 64.15 17.04 51.62 17.37 51.63 17.43 51.63 17.43"/><polygon class="cls-9" points="51.42 16.93 63.93 16.62 63.93 16.56 51.42 16.87 51.42 16.93 51.42 16.93"/><polygon class="cls-9" points="51.21 16.43 63.7 16.14 63.7 16.08 51.21 16.37 51.21 16.43 51.21 16.43"/><polygon class="cls-9" points="51 15.92 63.47 15.66 63.47 15.6 51 15.86 51 15.92 51 15.92"/><polygon class="cls-9" points="50.79 15.42 63.24 15.19 63.24 15.13 50.79 15.36 50.79 15.42 50.79 15.42"/><polygon class="cls-9" points="50.59 14.92 63.02 14.71 63.02 14.65 50.58 14.86 50.59 14.92 50.59 14.92"/><polygon class="cls-9" points="50.38 14.42 62.79 14.23 62.79 14.17 50.38 14.36 50.38 14.42 50.38 14.42"/><polygon class="cls-9" points="50.17 13.92 62.56 13.75 62.56 13.69 50.17 13.86 50.17 13.92 50.17 13.92"/><polygon class="cls-9" points="49.96 13.42 62.33 13.27 62.33 13.21 49.96 13.36 49.96 13.42 49.96 13.42"/><polygon class="cls-9" points="49.75 12.92 62.11 12.79 62.11 12.73 49.75 12.86 49.75 12.92 49.75 12.92"/></g><polygon class="cls-15" points="40.13 12.98 39.06 15.91 37.36 16.83 35.86 19.95 34.06 20.87 31.82 24.92 30.19 25.14 28.27 29.23 25.92 30.34 24.49 33.89 22.14 35.31 21.32 38.6 18.68 39.89 17.35 43.44 14.95 44.33 13.32 47.66 10.73 48.77 8.91 51.97 6.24 52.15 4.87 52.01 40.13 12.98"/><polygon class="cls-9" points="40.42 12.64 4.84 52.08 1.57 48.59 34.94 13.13 40.42 12.64"/><polygon class="cls-13" points="39.66 12.78 4.29 51.48 1.87 49 35.43 13.09 39.66 12.78"/><polygon class="cls-15" points="47.94 12.79 48.11 15.81 48.69 16.57 49.35 19.77 50.45 21.01 51.33 24.69 52.39 25.61 53.02 29.47 54.08 30.97 54.58 34.53 55.86 35.94 56.71 39.51 57.89 41.25 57.89 41.25 58.27 44.89 59.69 46.47 60.35 50.12 61.78 52.2 62.51 57.72 66.81 59.19 47.94 12.79"/><g><polygon class="cls-1" points="63.31 1.34 62.96 3.5 62.89 11.47 63.53 12.64 42.33 12.9 42.32 0 63.31 1.34"/><polygon class="cls-5" points="36.17 11.24 36.07 3.77 35.68 1.94 42.3 0 42.32 0 42.33 12.9 35.59 12.98 36.17 11.24"/><polygon class="cls-7" points="63 3.07 42.31 2.24 36.08 3.75 36.08 4.2 42.31 2.76 63.16 3.77 63 3.07"/><polygon class="cls-14" points="63.27 2.71 42.32 1.75 35.97 3.2 36.07 3.75 42.31 2.24 63.03 3.09 63.27 2.71"/><polygon class="cls-14" points="63.14 6.74 42.37 6.02 36.1 7.12 36.08 7.96 42.44 7.06 62.93 7.65 63.14 6.74"/><polygon class="cls-6" points="62.93 7.65 63.19 8.28 42.36 7.64 36.13 8.58 36.08 7.96 42.49 7.06 62.93 7.65"/><polygon class="cls-2" points="54.51 8.53 51.37 8.51 51.34 11.33 51.72 12.78 54.9 12.75 54.48 11.27 54.51 8.53"/><polygon class="cls-3" points="39.77 9.06 39.79 11.51 39.22 12.91 38.09 12.96 38.59 11.54 38.73 9.21 39.77 9.06"/></g></g></g></svg>