<?xml version="1.0" encoding="UTF-8"?><svg id="_이어_2" xmlns="http://www.w3.org/2000/svg" viewBox="0 0 38.96 42.73"><defs><style>.cls-1{fill:#a10136;}</style></defs><g id="Italy"><path id="italy" class="cls-1" d="M24,27.02l-.06-.03-.02-.19,.3,.09-.22,.14Zm-11.45-8.52l.02-.08-.04-.14-.03-.06-.05-.06-.2,.07-.58,.12-.15,.09,.09,.15,.31,.06,.37,.04,.24,.08-.02-.11,.02-.08,.03-.08ZM23.71,6.12l-.68-.61-.05-.18-.04-.58h-.18l-.11-.02-.03-.11,.04-.08,.11-.17,.02-.05,.04-.07,.22-.14,.04-.08-.04-.11-.07-.02h-.08l-.08-.08-.11-.07h-.29l-.08-.05v-.38l.33-.3,.41-.27,.25-.31-3.47-.57-.61-.24-.65-.44-.39-.57,.15-.61-.38,.05-.75,.25-.38,.09h-.42l-.44-.02h-.44l-.41,.11-.3,.23-.2,.27-.21,.23-.33,.12-.35-.04-1.13-.37-.03,.27v.95l-.23,.15-.22-.09-.22-.16-.24-.06-.41,.29,.09,.46,.23,.48v.37l-.21,.09-.15-.15-.12-.22-.12-.14-.25-.03-.21,.06-.21,.08-.25,.05h-.32l-.13-.08-.09-.14-.22-.22-.23-.31-.17-.09-.23,.12-.06,.19-.11,.72-.08,.26-.15,.21-.18,.19-.16,.2-.11,.24,.02,.22,.08,.21,.02,.18-.16,.14-.17-.04-.17-.17-.27-.4-.04-.13,.07-.2-.06-.11-.13-.07-.4-.13-.17-.08-.23-.25-.09-.26-.05-.25-.11-.2-.11-.18v-.08h-.08l-.28,.12-.55,.49-.04,.11v.25l-.21,.45-.14,.24-.19,.2-.32,.19-.23,.02-.23-.04-.33-.02-.48,.1-.54,.16-.53,.07-.44-.17-.64,.58v.21l.25,.45,.6,.8,.15,.4-.14,.46-.12,.13-.18,.14-.2,.13-.18,.08-.18,.02H.39l-.25,.05-.14,.1,.03,.4,.33,.32,.69,.42,.24,.39-.08,.29-.23,.28-.21,.36-.03,.42,.15,.38,.27,.33,.35,.26,.48,.27,.25,.1,.26,.05,.26-.04,.25-.09,.22-.02,.17,.16v.38l-.5,.72-.05,.43,.64-.13,.57-.17,.52-.27,.48-.42,.86-1.08,.52-.47,.62-.24,.53,.03,.56,.17,2.77,1.29,.49,.3,.4,.45,.18,.53,.1,.58,.16,.6,.15,.3,.34,.55,.11,.34v.23l-.06,.57,.04,.2,.11,.04,.44,.12,.14,.05,.09,.1,.29,.45,.85,.74,.26,.42-.23,.38,.22,.06h.48l.27,.03,.47,.22,.31,.32,.26,.37,.32,.39,1.28,1.07,1.04,1.13,.38,.3,1.35,.78,.25,.05h.93l.84,.17,.6,.38,.45,.59,.37,.79,.45-.13,.5,.12,.24,.32-.31,.47,.63-.19,.36-.07h.29l.19,.06,.15,.08,.13,.12,.13,.17,.11,.29v.28l-.04,.25v.18l.52,.59,.72,.25,.75,.18,.6,.38,.47,.82,.83,2.9,.11,.19,.12,.1,.08,.13v.27l-.05,.27-.06,.05h-.12l-.37,.22-.14,.05-.13,.07-.12,.15-.07,.22v.5l-.06,.26-.25,.31-.31,.29-.21,.33,.05,.44,.31,.34,.43,.06,.44-.12,.35-.22,.13-.17,.23-.43,.13-.19,.17-.15,.38-.26,.16-.15,.21-.39,.06-.8,.14-.41,.14-.17,.18-.14,.2-.11,.2-.08,.19-.03,.53-.02,.14-.02,.16-.3,.07-.52-.02-.56-.1-.43-.32-.38-.42-.22-.45-.17-.4-.22-.29-.39-.04-.43,.13-.45,.59-1.27,.24-.39,.29-.31,.38-.24h.25l.5,.31,.37,.18,1.14,.32,.47,.24,.23,.33,.18,.4,.32,.46,.72,.37,.4-.48,.03-.87-.39-.81-.78-.68-3.36-2.13-3.06-1.26-.4-.2-.28-.28-.03-.4,.24-.27,.38-.25,.28-.28-.07-.39-.39-.19-.6-.02-1.03,.11h-.54l-.49-.06-.48-.13-.49-.23-.85-.53-.83-.64-.75-.73-.6-.8-.4-.97-.29-1.07-.36-1.03-.61-.85-.9-.62-1.98-1.14-.76-.78-.23-.45-.18-.56-.11-.57-.02-.5,.1-.48,.16-.08h.22l.27-.25,.04-.44-.28-.38-.37-.38-.23-.41,.02-.48,.21-.41,.35-.3,.45-.14-.34,.34,.35-.03,.33-.12,.64-.33,.28-.17,.56-.44,.23-.14,.27-.04h.34l.57,.07h.17l.09-.05h.1l.19,.12,.18,.16,.1,.15v.15l-.14,.15,.47-.04-.18-.32Zm-4.56,16.03l.04,.02v-.03h-.04Zm.04-8.67l.08-.05,.13-.02-.02,.22-.06,.12h-.11l-.17-.11,.14-.17Zm4.5,24.31l.94-.18h1.2l.4-.11,.61-.25,.28-.09,.91-.12,1.1-.35,.33-.04,.29,.08-.67,.77-.7,1.14-.35,1.17,.38,.84-.19,.13,.33,.49-.15,.43-.29,.46-.1,.59h-.44l-.49-.06-.47-.1-.4-.17-.29-.24-.48-.58-.31-.24-.38-.15-.77-.11-.39-.11-.43-.21-2.09-1.29-.29-.11-.34-.04h-.29l-.28-.06-.3-.2-.36-.59,.15-.51,.8-.94,.29,.37,.21,.12,.23-.05,.85-.36h.21l.32,.1,.82,.47,.28,.1h.31Zm-5.95,4.69l-.12-.03-.06-.09,.02-.18,.15,.03,.09,.07,.05,.1,.05,.13-.17-.02Zm-11.81-8.99l.12,.1v.17l-.13,.24-.1-.12-.06-.12-.03-.13-.02-.15h.21Zm-.75-6.98l.1-.28,.73,.32,.78-.22,.73-.49,.99-.89h.18l.31,.13,.26,.17,.41,.42,.22,.19-.08,.36,.53,1.05,.14,.52-.07,.27-.29,.44-.1,.25v.28l.11,.53,.04,.28-.04,1.66-.14,.91-.27,.64-.32,.15h-.47l-.5-.11-.41-.16-.26,.78-.45,.44-.55-.02-.56-.61-.25-.64-.06-.65,.07-.66,.13-.66h.21l.03-.14-.16-.46-.06-.09-.09-.06-.09-.1-.06-.19,.02-.12,.14-.2,.04-.12v-.37l-.04-.37-.11-.36-.17-.33-.44-.55-.16-.29-.03-.37v-.14l.04-.15Zm.18-.68l-.15,.05,.07-.2,.1-.15,.13-.08h.16l-.09,.16-.1,.13-.12,.09Z"/></g></svg>