<?xml version="1.0" encoding="UTF-8"?><svg id="_이어_2" xmlns="http://www.w3.org/2000/svg" viewBox="0 0 64.82 21.36"><defs><style>.cls-1{fill:#a10136;}</style></defs><g id="Malaysia"><path id="malaysia" class="cls-1" d="M5.48,14.43h-.13l.04-.05,.02-.06,.03-.06,.06-.06,.02,.18-.04,.06ZM1.83,6.27l-.03,.6,.43-.07-.12-.37-.28-.15ZM0,3.09l.34-.02,.15-.04,.17-.1,.14,.36-.19,.21-.34-.04-.28-.37Zm59.98,7.24l.25,.17-.39,.05h-.39l.1-.23,.19-.06,.24,.07Zm-27.16,8.15l.24,.45,.26,.37,.32,.36,1.66,1.4,.39,.25,.44,.05,1.22-.33,.53-.06,1.6,.06,.38-.06,.36-.13,.38-.21,.27-.17,.15-.13,.61-.84,.18-.13,.33-.11,1.04-.11,.79,.21,.76,.35,1.34,.43h.15l.24-.05,.24-.12,.43-.32,.26-.12,.49-.05h1.01l.37-.14,.16-.22,.08-.25,.05-.25,.09-.24,.09-.1,.25-.17,.07-.09,.02-.3-.06-.28-.03-.27,.1-.29,.3-.28,.37-.2,.33-.23,.18-.34-.05-.15-.12-.21-.1-.25,.03-.3,.28-.38,.71-.24,.32-.32,.12-.35,.11-1.84,.1-.65,.24-.58,.47-.4,.4-.11,.45-.03h3.29l.36,.04,.35,.09,.25,.12,.22,.14,.23,.12,.28,.05,.28-.42,.27-.06,.33,.11,.47,.09,.38-.04,1.21-.25,.32-.15,.03-.35-.31-.28-.42-.27-.31-.3-.15-.55,.25-.21h.47l.51,.03,.51-.03,.65-.12,.61-.22,.39-.33,.14-.38-.1-.21-.24-.11-1.55-.53-.38-.21-.56-.47-.29-.12h-.44l-.5,.24-.24,.03-.13-.22,.08-.06,.18-.09,.18-.13,.07-.2-.25-.25-.55,.05-1.14,.33,.2-.08,.12-.11,.08-.14,.08-.17,.09-.72-.03-.44-.12-.25-.85-.6-.14-.14-.26-.37-.04-.17,.02-.16-.03-.13-.19-.08-.32,.13-.59,.78-.39,.25,.11-.36,.08-.42-.05-.32-.29-.07-2.5,3.87-.69,.78-.56-.14-.36,.29-.17,.18-.08,.16,.04,.28,.16,.16,.18,.12,.1,.15-.1,.46-.36,.29-.48,.17-.48,.09,.24,.42,.22,.59,.09,.54-.16,.27-.46-.15-.23-.52-.07-.64v-.52l-.5,.29-.25,.26-.07,.34,.11,1.2-.08,.33-.26,.28h-.56l-.54-.53-.52-.68-.51-.48-.2,.16-.06,.21-.02,.25-.06,.28-.19,.36-.26,.33-.59,.6-1.84,2.22-.75,.5-.96,.29-2.01,.33-.94,.29-.19,.09-.18,.1-.16,.13-.13,.17-.06,.19v.41l-.05,.16-.12,.18-.13,.12h-.17l-.26-.22-.1,.28,.03,.23,.08,.21,.04,.22-.03,.22-.07,.23-.4,.93-.16,.46,.08,.39,.48,.28-.33-.02-2.16-.93-.39-.12-1.39-.1-.6-.25-.39-.66-.22,.39,.08,.46ZM7.97,4.03l.13-.35,.66,.25,.47,.47,.42,.56,.5,.52,.92,.75,.4,.41,.35,.51,.35,.66,.25,.65,.15,.68,.03,.75-.25,1.65v.33l.06,.26,.08,.26,.07,.32v.64l-.04,.63,.03,.62,.28,.58,.22,.21,.51,.35,.21,.2,.16,.25,1.07,2.2,.29,.81-.06,.51-.3,.08-.23-.22-.2-.33-.21-.26,.07,.38-.13,.1-.24-.02-.25,.02-.64,.31-.28,.07-.28-.06-.13-.12-.33-.43-.16-.16-.32-.2-1.05-.51-4.9-3.31-.15-.18-.03-.17,.06-.46v-.24l-.22-.58-.39-.54-.89-.96-.18-.24-.11-.22-.11-.36-.32-.74-.18-.6-.65-3.19-.12-1.25-.12-.64-.5-1.08-.21-.58,.13-.58,.12-.14,.26-.03,.64,.5,.21,.12,.17,.02h.5l.12,.14,.11,.3,.09,.11,.15,.06,.39,.1,.12,.06,.19,.38-.07,.34-.16,.33-.08,.35,.25,.53,.52-.17,.62-.41,.55-.19,.23,.12,.11,.18,.15,.11,.35-.09,.26-.24,.27-.42,.22-.45Zm6.96,10.9l.06-.08,.11,.25v.15l-.1,.04-.19-.09,.03-.09,.04-.09,.05-.09Zm23.63,1.26l-.13-.35v-.38l.13-.25,.12,.1,.06,.37,.04,.67-.22-.17ZM57.79,.03l.38-.03-.03,.23-.26,.32-.31,.22-.06-.22v-.2l.11-.18,.17-.15Z"/></g></svg>