<?xml version="1.0" encoding="UTF-8"?><svg id="_이어_2" xmlns="http://www.w3.org/2000/svg" viewBox="0 0 25.78 108.44"><defs><style>.cls-1{fill:#7d9499;}.cls-2{fill:#90a3a9;}.cls-3{fill:#e2e2e2;}.cls-4{fill:#ebeaea;}.cls-5{fill:#373838;}.cls-6{fill:#b2b2b2;}.cls-7{fill:#d7d7d7;}.cls-8{fill:#8a9fa5;}.cls-9{fill:#647d81;}.cls-10{fill:#4f4e4f;}.cls-11{fill:#e5e5e4;}.cls-12{fill:#b4c2c6;}.cls-13{fill:#889595;}</style></defs><g id="UAE"><g><polygon class="cls-12" points="17.65 92.99 17.65 104.38 18.52 104.38 18.52 92.99 17.65 92.99 17.65 92.99"/><polyline class="cls-4" points="13.62 0 13.62 104.38 13.03 104.38 13.03 .76"/><polygon class="cls-2" points="16.79 81.59 16.79 92.99 16.79 104.38 17.65 104.38 17.65 92.99 17.65 81.59 16.79 81.59 16.79 81.59"/><polygon class="cls-12" points="15.92 70.19 15.92 81.59 15.92 92.99 15.92 104.38 16.79 104.38 16.79 92.99 16.79 81.59 16.79 70.19 15.92 70.19 15.92 70.19"/><polygon class="cls-2" points="15.05 58.79 15.05 70.19 15.05 81.59 15.05 92.99 15.05 104.38 15.92 104.38 15.92 92.99 15.92 81.59 15.92 70.19 15.92 58.79 15.05 58.79 15.05 58.79"/><polygon class="cls-12" points="14.19 47.39 14.19 58.79 14.19 70.18 14.19 81.59 14.19 92.99 14.19 104.38 15.05 104.38 15.05 92.99 15.05 81.59 15.05 70.18 15.05 58.79 15.05 47.7 14.19 47.39 14.19 47.39"/><polygon class="cls-2" points="13.32 30.4 13.32 41.8 13.32 47.39 13.32 58.79 13.32 70.19 13.32 81.59 13.32 92.99 13.32 104.38 14.19 104.38 14.19 92.99 14.19 81.59 14.19 70.19 14.19 58.79 14.19 47.39 14.19 41.8 14.19 30.4 13.32 30.4 13.32 30.4"/><rect class="cls-1" x="7.26" y="95.41" width=".87" height="11.4"/><polygon class="cls-8" points="8.12 84.01 8.12 95.41 8.12 106.81 8.99 106.81 8.99 95.41 8.99 84.01 8.12 84.01 8.12 84.01"/><polygon class="cls-1" points="8.99 72.62 8.99 84.01 8.99 95.41 8.99 106.81 9.86 106.81 9.86 95.41 9.86 84.01 9.86 72.62 8.99 72.62 8.99 72.62"/><polygon class="cls-2" points="9.86 61.22 9.86 72.62 9.86 84.01 9.86 95.41 9.86 106.81 10.72 106.81 10.72 95.41 10.72 84.01 10.72 72.62 10.72 61.22 9.86 61.22 9.86 61.22"/><path class="cls-1" d="M13.32,19v11.4h.87v-11.09l-.87-.31Zm.87,11.4v16.99l.86,.31v11.09l.87,.31v11.09l.87,.31v11.09l.86,.31v11.09l.87,.31v11.09h1.73v-11.09l-.86-.31v-11.09l-.87-.31v-11.09l-.87-.31v-11.09l-.86-.31v-11.09l-.87-.31v-5.27l-.87-.31v-11.09l-.86-.31Z"/><polygon class="cls-1" points="10.72 44.23 10.72 49.82 10.72 61.22 10.72 72.62 10.72 84.01 10.72 95.41 10.72 106.81 11.59 106.81 11.59 95.41 11.59 84.01 11.59 72.62 11.59 61.22 11.59 49.82 11.59 44.23 10.72 44.23 10.72 44.23"/><polygon class="cls-8" points="11.59 32.83 11.59 44.23 11.59 49.82 11.59 61.22 11.59 72.62 11.59 84.01 11.59 95.41 11.59 106.81 12.45 106.81 12.45 95.41 12.45 84.01 12.45 72.62 12.45 61.22 12.45 49.82 12.45 44.23 12.45 32.83 11.59 32.83 11.59 32.83"/><polygon class="cls-1" points="12.45 21.43 12.45 32.83 12.45 44.23 12.45 49.82 12.45 61.22 12.45 72.62 12.45 84.01 12.45 95.41 12.45 106.81 13.32 106.81 13.32 95.41 13.32 84.01 13.32 72.62 13.32 61.22 13.32 49.82 13.32 44.23 13.32 32.83 13.32 21.43 12.45 21.43 12.45 21.43"/><path class="cls-13" d="M8.12,61.69v1.21h9.53v-1.68H8.98l-.85,.47Zm0,4.39v1.68h9.53v-1.68H8.12Zm-.87,11.4v1.68h11.27v-1.68H7.26Zm-.87,11.4v1.68h13.01v-1.68H6.39Zm-.86,10.15v1.67h14.73v-1.67H5.52Z"/><path class="cls-12" d="M12.45,12.42v9.02h.87V12.11l-.87,.31Zm0,9.02l-.87,.31v11.38l.87-.3v-11.4Zm-.87,11.4l-.86,.31v11.32l.86-.23v-11.4Zm-.86,11.41l-1.74,.3v16.68l-.86,.48v10.91l-.87,.31v11.09l-.87,.31v11.09l-.86,.31v11.09h1.73v-11.09l.87-.31v-11.09l.86-.31v-11.09l.87-.31v-11.4h.87v-16.98Z"/><path class="cls-7" d="M8.12,61.7v1.19h1.73v-1.19l.87-.48h-1.74l-.86,.48Zm5.2-.48v1.68h2.6v-1.68h-2.6Zm-5.2,4.86v1.68h1.73v-1.68h-1.73Zm5.2,0v1.68h2.6v-1.68h-2.6Zm-6.07,11.4v1.68h1.73v-1.68h-1.73Zm6.07,0v1.68h3.47v-1.68h-3.47Zm-6.94,11.4v1.67h1.74v-1.67h-1.74Zm6.94,0v1.67h4.33v-1.67h-4.33Zm-7.8,10.15v1.67h1.73v-1.67h-1.73Zm7.8,0v1.67h5.2v-1.67h-5.2Z"/><polygon class="cls-9" points="3.39 104.36 3.39 105.32 14.78 105.32 16.9 105.32 22.38 105.32 22.38 104.36 16.9 104.36 14.78 104.36 3.39 104.36 3.39 104.36"/><polygon class="cls-12" points="2.13 105.32 2.13 106.4 14.78 106.4 16.72 106.4 23.66 106.4 23.66 105.32 16.72 105.32 14.78 105.32 2.13 105.32 2.13 105.32"/><rect class="cls-8" y="106.22" width="25.78" height="2.22"/><polygon class="cls-1" points="3.4 104.35 3.4 105.31 12.27 105.31 12.27 104.35 3.4 104.35 3.4 104.35"/><polygon class="cls-12" points="2.12 105.31 2.12 106.4 12.27 106.4 12.27 105.31 2.12 105.31 2.12 105.31"/><polygon class="cls-8" points="0 106.22 0 108.44 12.89 108.44 12.89 106.22 0 106.22 0 106.22"/><polygon class="cls-7" points="9.51 103.9 9.51 106.17 9.51 108.44 9.9 108.44 9.9 107.3 15.88 107.3 15.88 108.44 16.26 108.44 16.26 106.17 16.26 103.9 12.94 103.9 9.51 103.9 9.51 103.9"/><polygon class="cls-5" points="9.51 103.9 9.51 104.43 16.26 104.43 16.26 103.9 12.94 103.9 9.51 103.9 9.51 103.9"/><polygon class="cls-3" points="9.51 103.9 9.51 106.17 9.51 108.44 9.9 108.44 9.9 107.3 12.89 107.3 12.89 103.9 9.51 103.9 9.51 103.9"/><polygon class="cls-10" points="9.51 103.9 9.51 104.43 12.89 104.43 12.89 103.9 9.51 103.9 9.51 103.9"/><path class="cls-3" d="M12.45,61.22h0v1.68h1.74v-1.68h-1.74Zm0,4.86v1.68h1.74v-1.68h-1.74Zm0,11.4v1.68h1.74v-1.68h-1.74Zm0,11.4v1.68h1.74v-1.68h-1.74Zm0,10.15v1.67h1.74v-1.67h-1.74Z"/><polygon class="cls-6" points="12.45 14.5 12.45 14.91 13.62 14.91 13.62 14.5 12.45 14.5 12.45 14.5"/><polygon class="cls-6" points="12.45 16.13 12.45 16.55 13.62 16.55 13.62 16.13 12.45 16.13 12.45 16.13"/><polygon class="cls-6" points="12.45 17.78 12.45 18.19 13.62 18.19 13.62 17.78 12.45 17.78 12.45 17.78"/><polygon class="cls-6" points="12.45 19.41 12.45 19.82 13.32 19.82 13.32 19.41 12.45 19.41 12.45 19.41"/><polygon class="cls-6" points="12.45 21.05 12.45 21.43 12.37 21.46 13.32 21.46 13.32 21.05 12.45 21.05 12.45 21.05"/><polygon class="cls-6" points="11.59 22.69 11.59 23.1 13.32 23.1 13.32 22.69 11.59 22.69 11.59 22.69"/><polygon class="cls-6" points="11.59 24.33 11.59 24.74 13.32 24.74 13.32 24.33 11.59 24.33 11.59 24.33"/><polygon class="cls-6" points="11.59 25.97 11.59 26.37 13.32 26.37 13.32 25.97 11.59 25.97 11.59 25.97"/><polygon class="cls-6" points="11.59 27.6 11.59 28.01 13.32 28.01 13.32 27.6 11.59 27.6 11.59 27.6"/><polygon class="cls-6" points="11.59 29.24 11.59 29.65 13.32 29.65 13.32 29.24 11.59 29.24 11.59 29.24"/><polygon class="cls-6" points="11.59 30.88 11.59 31.28 12.45 31.28 12.45 30.88 11.59 30.88 11.59 30.88"/><polygon class="cls-6" points="11.59 32.52 11.59 32.83 11.33 32.93 12.45 32.93 12.45 32.52 11.59 32.52 11.59 32.52"/><polygon class="cls-6" points="10.72 34.15 10.72 34.56 12.45 34.56 12.45 34.15 10.72 34.15 10.72 34.15"/><polygon class="cls-6" points="10.72 35.79 10.72 36.2 12.45 36.2 12.45 35.79 10.72 35.79 10.72 35.79"/><polygon class="cls-6" points="10.72 37.43 10.72 37.84 12.45 37.84 12.45 37.43 10.72 37.43 10.72 37.43"/><polygon class="cls-6" points="10.72 39.07 10.72 39.48 12.45 39.48 12.45 39.07 10.72 39.07 10.72 39.07"/><polygon class="cls-6" points="10.72 40.7 10.72 41.12 12.45 41.12 12.45 40.7 10.72 40.7 10.72 40.7"/><polygon class="cls-6" points="10.72 42.34 10.72 42.75 12.45 42.75 12.45 42.34 10.72 42.34 10.72 42.34"/><polygon class="cls-6" points="10.72 43.98 10.72 44.24 9.83 44.39 12.45 44.39 12.45 43.98 10.72 43.98 10.72 43.98"/><polygon class="cls-6" points="8.99 45.61 8.99 46.03 12.45 46.03 12.45 45.61 8.99 45.61 8.99 45.61"/><polygon class="cls-6" points="8.99 47.26 8.99 47.67 12.45 47.67 12.45 47.26 8.99 47.26 8.99 47.26"/><path class="cls-11" d="M15.92,47.39h0l.77,.28-.77-.28h0Zm-1.73,0v.28h.77l-.77-.28h0Zm0,1.5v.41h.86v-.41h-.86Zm0,1.64v.41h.86v-.41h-.86Zm0,1.63v.41h.86v-.41h-.86Zm0,1.64v.41h.86v-.41h-.86Zm0,1.64v.41h.86v-.41h-.86Zm0,1.64v.41h.86v-.41h-.86Zm0,1.64v.41h1.73v-.04l-.87-.31v-.07h-.86Zm0,1.64v.41h1.73v-.41h-1.73Zm0,1.64v.41h1.73v-.41h-1.73Zm0,1.63v.41h1.73v-.41h-1.73Zm0,1.64v.41h1.73v-.41h-1.73Zm0,1.64v.41h1.73v-.41h-1.73Zm0,1.64v.41h1.73v-.41h-1.73Zm0,1.64v.41h2.6v-.09l-.87-.32h-1.73Zm0,1.64v.41h2.6v-.41h-2.6Zm0,1.64v.41h2.6v-.41h-2.6Zm0,1.64v.41h2.6v-.41h-2.6Zm0,1.64v.41h2.6v-.41h-2.6Zm0,1.64v.41h2.6v-.41h-2.6Zm0,1.64v.41h2.6v-.41h-2.6Zm0,1.64v.41h3.47v-.16l-.69-.25h-2.78Zm0,1.64v.41h3.47v-.41h-3.47Zm0,1.64v.41h3.47v-.41h-3.47Zm0,1.64v.41h3.47v-.41h-3.47Zm0,1.64v.41h3.47v-.41h-3.47Zm0,1.64v.41h3.47v-.41h-3.47Zm0,1.64v.41h3.47v-.41h-3.47Zm0,1.63v.41h4.33v-.22l-.51-.19h-3.82Zm0,1.64v.41h4.33v-.41h-4.33Zm0,1.64v.41h4.33v-.41h-4.33Zm0,1.64v.41h4.33v-.41h-4.33Zm0,1.64v.41h4.33v-.41h-4.33Zm0,1.64v.41h4.33v-.41h-4.33Zm0,1.64v.41h4.33v-.41h-4.33Z"/><polygon class="cls-6" points="8.99 48.89 8.99 49.3 12.45 49.3 12.45 48.89 8.99 48.89 8.99 48.89"/><polygon class="cls-6" points="8.99 50.54 8.99 50.94 12.45 50.94 12.45 50.54 8.99 50.54 8.99 50.54"/><polygon class="cls-6" points="8.99 52.17 8.99 52.58 12.45 52.58 12.45 52.17 8.99 52.17 8.99 52.17"/><polygon class="cls-6" points="8.99 53.8 8.99 54.22 12.45 54.22 12.45 53.8 8.99 53.8 8.99 53.8"/><polygon class="cls-6" points="8.99 55.45 8.99 55.85 12.45 55.85 12.45 55.45 8.99 55.45 8.99 55.45"/><polygon class="cls-6" points="8.99 57.08 8.99 57.49 12.45 57.49 12.45 57.08 8.99 57.08 8.99 57.08"/><polygon class="cls-6" points="8.99 58.72 8.99 59.13 12.45 59.13 12.45 58.72 8.99 58.72 8.99 58.72"/><polygon class="cls-6" points="8.99 60.36 8.99 60.76 12.45 60.76 12.45 60.36 8.99 60.36 8.99 60.36"/><polygon class="cls-6" points="8.12 62 8.12 62.41 12.45 62.41 12.45 62 8.12 62 8.12 62"/><polygon class="cls-6" points="8.12 63.63 8.12 64.04 12.45 64.04 12.45 63.63 8.12 63.63 8.12 63.63"/><polygon class="cls-6" points="8.12 65.27 8.12 65.69 12.45 65.69 12.45 65.27 8.12 65.27 8.12 65.27"/><polygon class="cls-6" points="8.12 66.91 8.12 67.32 12.45 67.32 12.45 66.91 8.12 66.91 8.12 66.91"/><polygon class="cls-6" points="8.12 68.55 8.12 68.95 12.45 68.95 12.45 68.55 8.12 68.55 8.12 68.55"/><polygon class="cls-6" points="8.12 70.18 8.12 70.6 12.45 70.6 12.45 70.18 8.12 70.18 8.12 70.18"/><polygon class="cls-6" points="8.12 71.82 8.12 72.23 12.45 72.23 12.45 71.82 8.12 71.82 8.12 71.82"/><polygon class="cls-6" points="7.26 73.46 7.26 73.87 12.45 73.87 12.45 73.46 7.26 73.46 7.26 73.46"/><polygon class="cls-6" points="7.26 75.1 7.26 75.51 12.45 75.51 12.45 75.1 7.26 75.1 7.26 75.1"/><polygon class="cls-6" points="7.26 76.74 7.26 77.15 12.45 77.15 12.45 76.74 7.26 76.74 7.26 76.74"/><polygon class="cls-6" points="7.26 78.37 7.26 78.78 12.45 78.78 12.45 78.37 7.26 78.37 7.26 78.37"/><polygon class="cls-6" points="7.26 80.01 7.26 80.41 12.45 80.41 12.45 80.01 7.26 80.01 7.26 80.01"/><polygon class="cls-6" points="7.26 81.65 7.26 82.06 12.45 82.06 12.45 81.65 7.26 81.65 7.26 81.65"/><rect class="cls-6" x="19.05" y="81.4" width="0" height=".73" transform="translate(-64.27 71.38) rotate(-69.77)"/><polygon class="cls-6" points="7.26 83.28 7.26 83.7 12.45 83.7 12.45 83.28 7.26 83.28 7.26 83.28"/><polygon class="cls-6" points="6.39 84.93 6.39 85.33 12.45 85.33 12.45 84.93 6.39 84.93 6.39 84.93"/><polygon class="cls-6" points="6.39 86.56 6.39 86.97 12.45 86.97 12.45 86.56 6.39 86.56 6.39 86.56"/><polygon class="cls-6" points="6.39 88.2 6.39 88.61 12.45 88.61 12.45 88.2 6.39 88.2 6.39 88.2"/><polygon class="cls-6" points="6.39 89.84 6.39 90.24 12.45 90.24 12.45 89.84 6.39 89.84 6.39 89.84"/><polygon class="cls-6" points="6.39 91.48 6.39 91.88 12.45 91.88 12.45 91.48 6.39 91.48 6.39 91.48"/><polygon class="cls-6" points="6.39 93.11 6.39 93.52 12.45 93.52 12.45 93.11 6.39 93.11 6.39 93.11"/><polygon class="cls-6" points="19.75 93.11 20.26 93.3 20.26 93.29 19.76 93.11 19.75 93.11 19.75 93.11"/><polygon class="cls-6" points="6.39 94.75 6.39 95.16 12.45 95.16 12.45 94.75 6.39 94.75 6.39 94.75"/><polygon class="cls-6" points="5.52 96.39 5.52 96.79 12.45 96.79 12.45 96.39 5.52 96.39 5.52 96.39"/><polygon class="cls-6" points="5.52 98.03 5.52 98.43 12.45 98.43 12.45 98.03 5.52 98.03 5.52 98.03"/><polygon class="cls-6" points="5.52 99.66 5.52 100.08 12.45 100.08 12.45 99.66 5.52 99.66 5.52 99.66"/><polygon class="cls-6" points="5.52 101.3 5.52 101.71 12.45 101.71 12.45 101.3 5.52 101.3 5.52 101.3"/><polygon class="cls-6" points="5.52 102.94 5.52 103.35 12.45 103.35 12.45 102.94 5.52 102.94 5.52 102.94"/><path class="cls-4" d="M12.45,14.5v.41h.87v-.41h-.87Zm0,1.63v.41h.87v-.41h-.87Zm0,1.64v.41h.87v-.41h-.87Zm0,1.64v.41h.87v-.41h-.87Zm0,1.64v.38h.87v-.38h-.87Zm0,.38l-.09,.03h.09v-.03h0Zm-.87,1.25v.41h.87v-.41h-.87Zm0,1.64v.41h.87v-.41h-.87Zm0,1.64v.41h.87v-.41h-.87Zm0,1.63v.41h.87v-.41h-.87Zm0,1.64v.41h.87v-.41h-.87Zm0,1.64v.41h.87v-.41h-.87Zm0,1.64v.31l-.26,.09h.85l.28-.09v-.31h-.87Zm-.86,1.63v.41h.86v-.41h-.86Zm0,1.64v.41h.86v-.41h-.86Zm0,1.64v.41h.86v-.41h-.86Zm0,1.64v.41h.86v-.41h-.86Zm0,1.64v.41h.86v-.41h-.86Zm0,1.64v.41h.86v-.41h-.86Zm0,1.64v.25l-.87,.15h1.13l.6-.16v-.25h-.86Zm-1.74,1.63v.41h1.74v-.41h-1.74Zm0,1.64v.41h1.74v-.41h-1.74Zm0,1.64v.41h1.74v-.41h-1.74Zm0,1.64v.41h1.74v-.41h-1.74Zm0,1.63v.41h1.74v-.41h-1.74Zm0,1.64v.41h1.74v-.41h-1.74Zm0,1.64v.41h1.74v-.41h-1.74Zm0,1.64v.41h1.74v-.41h-1.74Zm0,1.64v.41h1.74v-.41h-1.74Zm0,1.64v.41h1.74v-.41h-1.74Zm-.86,1.64v.41h1.73v-.41h-1.73Zm0,1.63v.41h1.73v-.41h-1.73Zm0,1.64v.41h1.73v-.41h-1.73Zm0,1.64v.41h1.73v-.41h-1.73Zm0,1.64v.41h1.73v-.41h-1.73Zm0,1.64v.41h1.73v-.41h-1.73Zm0,1.64v.41h1.73v-.41h-1.73Zm-.87,1.64v.41h1.73v-.41h-1.73Zm0,1.64v.41h1.73v-.41h-1.73Zm0,1.64v.41h1.73v-.41h-1.73Zm0,1.64v.41h1.73v-.41h-1.73Zm0,1.64v.41h1.73v-.41h-1.73Zm0,1.64v.41h1.73v-.41h-1.73Zm0,1.64v.41h1.73v-.41h-1.73Zm-.87,1.64v.41h1.74v-.41h-1.74Zm0,1.64v.41h1.74v-.41h-1.74Zm0,1.64v.41h1.74v-.41h-1.74Zm0,1.64v.41h1.74v-.41h-1.74Zm0,1.64v.41h1.74v-.41h-1.74Zm0,1.63v.41h1.74v-.41h-1.74Zm0,1.64v.41h1.74v-.41h-1.74Zm-.87,1.64v.41h1.74v-.41h-1.74Zm0,1.64v.41h1.74v-.41h-1.74Zm0,1.64v.41h1.74v-.41h-1.74Zm0,1.64v.41h1.74v-.41h-1.74Zm0,1.64v.41h1.74v-.41h-1.74Z"/><path class="cls-6" d="M13.32,19.41v.41h.87v-.41h-.87Zm0,1.64v.41h.87v-.41h-.87Zm0,1.64v.41h.87v-.41h-.87Zm0,1.64v.41h.87v-.41h-.87Zm0,1.64v.41h.87v-.41h-.87Zm0,1.63v.41h.87v-.41h-.87Zm0,1.64v.41h.87v-.41h-.87Zm.87,1.64v.41h.86v-.41h-.86Zm0,1.64v.41h.86v-.41h-.86Zm0,1.63v.41h.86v-.41h-.86Zm0,1.64v.41h.86v-.41h-.86Zm0,1.64v.41h.86v-.41h-.86Zm0,1.64v.41h.86v-.41h-.86Zm0,1.64v.41h.86v-.41h-.86Zm0,1.64v.41h1.73v-.41h-1.73Zm0,1.64v.41h1.73v-.41h-1.73Zm0,1.63v.41h1.73v-.41h-1.73Zm0,1.64v.14l.77,.28h1.73l-.77-.28h0v-.14h-1.73Zm.86,1.64v.41h1.74v-.41h-1.74Zm0,1.64v.41h1.74v-.41h-1.74Zm0,1.63v.41h1.74v-.41h-1.74Zm0,1.64v.41h1.74v-.41h-1.74Zm0,1.64v.41h1.74v-.41h-1.74Zm0,1.64v.41h1.74v-.41h-1.74Zm0,1.64v.07l.87,.31v.04h1.74v-.04l-.87-.31v-.07h-1.74Zm.87,1.64v.41h1.74v-.41h-1.74Zm0,1.64v.41h1.74v-.41h-1.74Zm0,1.63v.41h1.74v-.41h-1.74Zm0,1.64v.41h1.74v-.41h-1.74Zm0,1.64v.41h1.74v-.41h-1.74Zm0,1.64v.41h1.74v-.41h-1.74Zm0,1.64l.87,.32v.09h1.73v-.09l-.86-.32h-1.74Zm.87,1.64v.41h1.73v-.41h-1.73Zm0,1.64v.41h1.73v-.41h-1.73Zm0,1.64v.41h1.73v-.41h-1.73Zm0,1.64v.41h1.73v-.41h-1.73Zm0,1.64v.41h1.73v-.41h-1.73Zm0,1.64v.41h1.73v-.41h-1.73Zm.18,1.64l.69,.25v.16h1.73v-.16l-.69-.25h-1.73Zm.69,1.64v.41h1.73v-.41h-1.73Zm0,1.64v.41h1.73v-.41h-1.73Zm0,1.64v.41h1.73v-.41h-1.73Zm0,1.64v.41h1.73v-.41h-1.73Zm0,1.64v.41h1.73v-.41h-1.73Zm0,1.64v.41h1.73v-.41h-1.73Zm.35,1.63l.51,.19v.22h1.74v-.22l-.51-.19h-1.74Zm.51,1.64v.41h1.74v-.41h-1.74Zm0,1.64v.41h1.74v-.41h-1.74Zm0,1.64v.41h1.74v-.41h-1.74Zm0,1.64v.41h1.74v-.41h-1.74Zm0,1.64v.41h1.74v-.41h-1.74Zm0,1.64v.41h1.74v-.41h-1.74Z"/><path class="cls-11" d="M12.45,30.88v.41h1.74v-.41h-1.74Zm0,1.64v.41h1.74v-.41h-1.74Zm0,1.63v.41h1.74v-.41h-1.74Zm0,1.64v.41h1.74v-.41h-1.74Zm0,1.64v.41h1.74v-.41h-1.74Zm0,1.64v.41h1.74v-.41h-1.74Zm0,1.64v.41h1.74v-.41h-1.74Zm0,1.64v.41h1.74v-.41h-1.74Zm0,1.64v.41h1.74v-.41h-1.74Zm0,1.63v.41h1.74v-.41h-1.74Zm0,1.64v.41h1.74v-.41h-1.74Zm0,1.64v.41h1.74v-.41h-1.74Zm0,1.64v.41h1.74v-.41h-1.74Zm0,1.63v.41h1.74v-.41h-1.74Zm0,1.64v.41h1.74v-.41h-1.74Zm0,1.64v.41h1.74v-.41h-1.74Zm0,1.64v.41h1.74v-.41h-1.74Zm0,1.64v.41h1.74v-.41h-1.74Zm0,1.64v.41h1.74v-.41h-1.74Zm0,1.64v.41h1.74v-.41h-1.74Zm0,1.63v.41h1.74v-.41h-1.74Zm0,1.64v.41h1.74v-.41h-1.74Zm0,1.64v.41h1.74v-.41h-1.74Zm0,1.64v.41h1.74v-.41h-1.74Zm0,1.64v.41h1.74v-.41h-1.74Zm0,1.64v.41h1.74v-.41h-1.74Zm0,1.64v.41h1.74v-.41h-1.74Zm0,1.64v.41h1.74v-.41h-1.74Zm0,1.64v.41h1.74v-.41h-1.74Zm0,1.64v.41h1.74v-.41h-1.74Zm0,1.64v.41h1.74v-.41h-1.74Zm0,1.64v.41h1.74v-.41h-1.74Zm0,1.64v.41h1.74v-.41h-1.74Zm0,1.64v.41h1.74v-.41h-1.74Zm0,1.64v.41h1.74v-.41h-1.74Zm0,1.64v.41h1.74v-.41h-1.74Zm0,1.64v.41h1.74v-.41h-1.74Zm0,1.64v.41h1.74v-.41h-1.74Zm0,1.63v.41h1.74v-.41h-1.74Zm0,1.64v.41h1.74v-.41h-1.74Zm0,1.64v.41h1.74v-.41h-1.74Zm0,1.64v.41h1.74v-.41h-1.74Zm0,1.64v.41h1.74v-.41h-1.74Zm0,1.64v.41h1.74v-.41h-1.74Zm0,1.64v.41h1.74v-.41h-1.74Z"/></g></g></svg>