<?xml version="1.0" encoding="UTF-8"?><svg id="_이어_2" xmlns="http://www.w3.org/2000/svg" viewBox="0 0 15.92 12.46"><defs><style>.cls-1{fill:#a10136;}</style></defs><g id="UAE"><path id="united_arab_emirates" class="cls-1" d="M.57,7.98l2.08,2.65,.58,.53,.74,.29,6.24,.93,1.11,.07,.62-.28,.08-.68,.12-.63,.17-.62,.24-.65,.43-.95,.09-.5-.18-.43,.36-.17,.79-.08,.33-.14,.2-.24-.08-.13-.21-.1-.19-.16-.08-.14-.05-.16-.03-.19v-1.09l.09-.81,.11-.22,.27-.12,.21,.04,.04,.14-.05,.15-.05,.06,.29,.35,.11-.02,.27-.15,.19-.13,.32-.32,.17-.14-.04-.61,.03-.68-.04-.65-.25-.51-.41-.04-.04-.55V.29l-.27-.29-.28,.65-.41,.47-1.04,.86-.39,.42-.69,.88-.4,.41-.95,.79-.39,.4-.66,1.03-.31,.39-.38,.32-.52,.29-1.33,.29-2.69-.26-1.34,.16-1.08,.46-.59,.11-.53-.2-.14-.21-.08-.49-.09-.2-.08-.05-.13-.05-.14-.07-.13-.11-.12,.19,.13,.77,.43,.73ZM15.4,2.82l.13,.02,.03,.18-.22,.08,.07-.29Zm-6.13,2.89h.09l.2,.2-.11,.02h-.11l-.11-.02-.11-.1,.14-.1Zm-3.43,.53l.18-.08,.18,.02-.14,.24-.21,.14-.24,.02-.25-.12,.27-.1,.21-.12Zm-2.44,0l.2,.08-.04,.03-.1,.11-.05,.04-.04-.21,.03-.05Zm4,.39l.25,.08,.15,.29h-.49l-.24-.03-.24-.07,.28-.2,.29-.08Z"/></g></svg>