<?xml version="1.0" encoding="UTF-8"?><svg id="_이어_2" xmlns="http://www.w3.org/2000/svg" viewBox="0 0 134.45 122.62"><defs><style>.cls-1{fill:#a10136;}</style></defs><g id="australia"><path id="australia-2" class="cls-1" d="M40.39,14.97l.14,.02,.02,.24-.18,.29-.14-.17,.16-.38Zm-1.94,3.23l.07-.24-.08-.27-.22,.21,.23,.3ZM8.01,36.78l-.08,.14,.2,.16,.17-.11,.09-.26-.04-.29-.23,.23-.1,.13Zm125.75,22.65h.17l-.07,.27-.04,.29-.04,.53-.08-.17-.06-.18-.04-.18v-.19l.02-.18,.04-.13,.09-.07Zm-.06,2.08v.26l.07,.11,.04,.04,.07,.02,.19-.55,.07-.31-.04-.21-.23-.07-.13,.3-.05,.41Zm-1.15-8.66l-.14,.44-.08,.53,.03,.53,.19,.43,.74-1.83,.15-.58,.03-.4-.03-.51-.15-.38h-.32l-.12,.18,.3,.37-.1,.43-.51,.78Zm-8.46-10.96l.14,.18,.02,.09-.08,.04-.16,.03,.03-.09,.03-.08,.02-.08v-.1Zm1.89,4.48l-.09,.25,.61,.69,.19-.12-.19-.47-.52-.35Zm-3.88-4.98l-.04,.08-.02,.21,.08,.26,.08-.14,.03-.14v-.15l-.05-.19-.09,.07Zm-3.03-6.97v-.2l-.09,.07-.07,.08-.05,.09-.05,.1,.22-.06,.05-.08Zm.22,.58l-.05-.18-.13-.22-.11,.34-.02,.11,.24,.04,.08-.09Zm-9.7-7.05l.37,.57,.22,.18,.18-.15,.02-.34-.19-.21-.3-.08-.32,.03ZM96.82,2.3l.08-.19-.18-.29-.09,.05-.06,.06-.05,.07-.04,.08,.15,.24h.19Zm-.28-1.88l-.15-.2,.17-.23,.06,.13,.02,.08-.03,.08-.08,.15Zm.45,.24l-.23-.22,.15-.11,.19,.05-.11,.28Zm-19.88,11.71l.03,.11,.02,.13-.3,.13-.15-.08,.03-.21,.22-.26,.09,.09,.06,.1Zm1.03,6.47l.08-.12-.07-.12-.24,.12,.23,.11Zm.08-14.37l.28-.35,.23-.49,.11-.42-.6,.96-.25,.32,.24-.02Zm1.42,14.97l.09,.11,.09-.19v-.2l-.08-.2-.14-.19-.18,.3-.04,.11,.07,.09,.2,.19Zm-2.79-14l.29-.12,.29-.15,.25-.19,.16-.25-.54,.3-.24,.17-.2,.24Zm1.98,8.43v-.47l.21-.57v-.37l-.16,.27h-.17l-.12-.21v-.3l-.6,.25-.22,.54-.12,.6-.29,.41,.5,.14,.65,.13,.58-.03,.3-.33-.57-.07Zm9.06,9.77l-.1-.08-.06,.1-.15,.16-.07,.09,.09,.08,.12,.03,.15-.02,.18-.08-.04-.12-.05-.09-.07-.07Zm-8.84-4.77l.1-.17v-.08l-.05-.02-.06-.02v.29Zm8.99,2.68l-.59,.1-.54,.41-.26,.55h.48l.83-.57,.5-.12-.43-.37ZM59.19,6.08l.29,.1h.33l.37-.17,.31-.26,.53-.59,.31-.23,.1-.15-.03-.24-.13-.2-.2-.18-.43-.32-.57,.35-.61,.18h-.62l-.58-.17-.29-.2-.14-.14-.04,.03v.32l.04,.43,.17,.4,.25,.36,.32,.29,.62,.39Zm5.7-2.89l.07-.11,.12,.6v.29l-.14,.28-.14-.21-.09-.25-.05-.26-.03-.23,.08-.05,.08-.02,.08-.05Zm-7.8,2.21l.03-.28-.08-.19-.03-.18,.17-.25,.31-.15,.16,.2,.11,.36,.13,.34,.23,.25,.21,.17,.04,.15-.28,.18-.11-.03-.81-.1h-.2l-.12,.05h-.11l-.16-.09,.09-.26,.14-.04h.15l.12-.13Zm59.33,104.64l-.06-.07-.1-.15,.1-.04,.1-.02h.09l.1,.03-.16,.31-.08-.06Zm.33-2.43l-.87-.73-.18-.09-.59,.42,.39,.44,.42,.7,.47,.4,.56-.44-.24-.18,.14-.29-.1-.23Zm-9.17-6.4l-.44-.18-.16,.23,.14,.21,.46-.25Zm26.79-36.84l-.08-.46-1.25-3.2-.19-1.1-.12-2.33,.03-.47,.15-1.01-.04-.41-.1-.14-.35-.29-.14-.16-.11-.3-.02-.29v-.29l-.05-.31-.23-.43-.69-.69-.3-.4-.37-.68-.2-.27-.71-.77-.6-.99-.36-.49-.45-.35-1.06-.49-.51-.33-.77-.68-.36-.39-.26-.41-.18-.66v-1.41l-.05-.68-.11-.53-.11-.26-.18-.16h-.2l-.09,.12v.22l.06,.24-.22-.07-.23-.12-.42-.29-.6-.69-.15-.13-.38,.04-.06,.38,.06,.49-.02,.38-.43-.33-.35-.2-.29-.27-.27-.54-.2-.67-.21-1.06-.1-.24-.28-.51-.45-1.07-.27-.47-.8-.91-.42-.58-.1-.45,.57-.03-.62-.85-.88-.62-2.39-1.2-.21-.16-.22-.25-.11-.2-.1-.23-.12-.21-.18-.15h-.16l-.5,.07h-.2l-.21-.11-.49-.32-.24-.12-1.07-.44-.46-.34-.31-.5-.03-.28,.1-.6-.03-.25-.19-.21-.61-.45-.2-.31-.03-.55,.27-1.19,.04-.57-.17-.61-.28-.59-.23-.59v-.62l-.68-.22-.46-.64-.27-.79-.61-3.23-.07-.87v-.39l-.02-.32-.1-.29-.21-.29-.3-.25-.7-.44-.32-.24-.76-1-.26-.2-.43,.03-.42,.26-.4,.31-.38,.16-.57-.27-.43-.72-.28-.86-.13-.68-.11-1.79-.12-.9-.27-.86-.19-.37-.12-.19-.12-.16-.45-.38-.09-.11-.03-.36,.16-.59-.09-.28-.12-.06-.36-.06-.15-.08-.13-.15-.06-.13-.12-.76-.04-.8-.08-.41-.15-.39-.2-.36-.09-.1-.25-.16-.09-.1v-.2l.03-.11,.03-.03-.25-.12-.27,.03-.29,.19-.31,.34-.35,.72-.33,1.08-.23,1.14-.03,.89-.07-.07-.16-.13-.07-.07-.29,.48-.19,.48-.05,.47,.13,.45,.18,.22,.19,.15,.15,.19,.06,.36-.61-.02-.29,.64-.19,1.48-.34,.94-.04,.32,.06,.35,.25,.63,.07,.33v.38l-.12,.72v.39l.21,1.2v.41l-.15,.77-.41,1.53-.28,1.53-.21,.74-.29,.71-.76,1.41-.3,.72-.38,.65-.64,.52-.78,.3-.72,.05-.71-.16-1.86-.88-.28-.18-.2-.26-.2-.61-.15-.28-.6-.44-.72-.2-.77-.12-.73-.21-.64-.41-1.08-1.04-.61-.43-1.36-.72-.32-.1-.7-.12-.27-.12-.12-.17v-.34l-.08-.13-.16-.04-.58-.07-.26-.11-.23-.2-.61-.67-.34-.26-1.12-.68-.65-.62-.08-.61,.32-.66,.99-1.38,.23-.56,.06-.59-.09-1.21,.08-.35,.23-.26,.73-.32,.1-.02,.13,.04,.17,.1,.14,.1,.05,.05,.35-.23,.1-.32v-.68l.13-.36,.23-.31,.28-.31,.29-.37,.27-.46-.04-.17-.26-.07-.39-.18-.25-.28-.16-.3-.19-.22-.32-.02-.43,.24-.04,.3,.11,.32,.03,.28-.23,.38-.25,.03-.26-.19-.26-.26-.12-.16-.04-.11-.07-.08-.19-.08-.12,.03-.27,.22h-.12l-.13-.21,.15-.26,.48-.43-.2-.06,.07-.11,.06-.11,.07-.11,.1-.1-1.78,.99-.51,.2-.38,.04-.38-.1-.51-.23-.08-.06-.14-.18-.09-.05h-.13l-.24,.1-.13,.02h-.75l-.27-.06-.28-.12-.54-.3-.29-.12-.3-.07-.9-.08-.47-.13-.46-.18-.3-.16-.17-.14-.38-.42-.2-.18-.14-.09-.16-.03-.25-.03-.09,.04-.19,.18-.09,.03-.14-.05-.09-.08-.09-.1-.77-.6-.22-.08-.17,.04-.11,.11-.09,.11-.09,.04-.73-.31-.32-.02v.36l.13,.13,.59,.4,.2,.1h.26l.58-.08,.29,.05,.51,.45,.02,.57-.05,.59,.31,.53-.34-.03-.32,.07-.24,.19-.1,.34-.18-.21-.18-.06-.4,.04-.97,.02-1.19,.16-.48-.15-.29-.56-.13,.22-.17,.06-.18,.02-.18,.09-.13,.2-.06,.11v.04l-.24,.18-.16,.17-.1,.23-.05,.33-.22-.23-.19-.16-.2-.05-.22,.11-.05,.13,.04,.38-.03,.14-.13,.06-.33-.03-.14,.05-.11,.15-.14,.35-.09,.16-.15,.13-.16,.08-.14,.09-.11,.17-.03,.41,.14,.29,.11,.27-.14,.36-.26,.21-.63,.22-.28,.22-.14,.29-.13,.68-.12,.3-.26,.28-.33,.28-.29,.31-.13,.38,.07,.3,.21,.25,.31,.17,.37,.04-.23,.27,.1,.26,.29,.23,.34,.16-.5,.07-.17,.2-.03,.79-.36-.48-.22-.22-.26-.13h-.37l-.11,.18v.32l-.06,.4-.43-.61-.58-.48-.71-.23-.83,.13-.16,.11-.49,.42-.13,.15-.07,.27,.05,.23,.1,.23,.07,.26-.18-.17-.16-.02-.15,.1-.13,.19,.05-.42,.17-.81,.08-.75-.04-.17-.49-.44-1.52-1.61-.63-.45-.84-.5-.25-.11-.39-.08-.18,.05-.41,.77-.15,.22-.19,.13-.3,.04-.28-.08-.2-.11-.18,.02-.22,.32-.07-.21-.12-.24-.17-.18-.21-.03-.09,.11,.04,.18,.08,.2,.03,.18-.11,.41-.17,.4-.43,.73-.13-.28-.17-.19-.21-.03-.24,.2,.11-.42,.04-.24v-.16l-.18-.17-.11,.1-.06,.2-.02,.11-.11,.15-.07,.13-.08,.14-.16,.16-.19,.11-.16,.05-.15,.06-.16,.14-.19,.22-.08,.13,.02,.15,.09,.26,.1,.16,.34,.39,.08,.06-.16,.24-.3-.03-.67-.3-.12,.23-.38,.21-.1,.17,.04,.25,.18,.16,.25,.06,.25-.03,.02,.18-.02,.14-.07,.12-.11,.11-.17-.2-.26-.22-.29-.17-.25-.04-.09,.08-.18,.36-.12,.17-.22,.13-.18,.02-.15,.09-.13,.33-.02,.34,.1,.27,.15,.27,.13,.31,.08-.17,.11-.16,.13-.14,.15-.11-.07,.46-.06,.26-.08,.18-.13,.08-.32,.07-.1,.08-.06,.48,.35,.18,.5,.08,.39,.19-.41-.05h-.84l-.4-.05-.16-.08-.29-.22-.16-.05-.17,.05-.19,.11-.15,.11-.05,.05-.31-.17-.21-.25-.2-.13-.26,.18,.02,.07-.06,.58-.07,.09-.23,.02-.05,.1,.12,.31,.27,.34,.31,.33,.23,.28,.09,.09h.07l.05,.02,.03,.2v.14l-.04,.19-.05,.17-.06,.08-.27-.04-.14-.18-.12-.11-.2,.19-.06,.26-.02,1.25-.29-.4-1.58-3.06-.18-.29-.2,.19-.59,.91-.24,.31-.85,.65-.37,.38-.27,.49-.1,.48v.56l.08,.56,.16,.46,.22,.38,.1,.23-.08,.22-.33,.35-1.18,1.02-.33,.4-.31,.53-.52,1.1-.32,.52-.77,.83-.93,.65-1.04,.48-2.72,.74-.51,.08h-.55l-.47-.06h-.45l-.5,.2-.98,.56-.48,.2-1.2,.38-1.65,.85-1,.2-1.92-.08-1,.33-1.24,.78-2.08,1.62-.49,.33-.53,.28-1.07,.46-.46,.3-.42,.44-.59,1.1-.35,.47-.55,.3,.05-.33-.05-.26-.09-.25-.06-.3,.02-.31,.1-.59-.02-.31-.48,.34-.31,.54-.39,1.19-.13,.67,.04,.62,.09,.63,.02,.69-.29,1.16-.5,1.14-.4,1.16v1.22l.18,.51,2.28,4.49,.23,.65,.08,.67-.19,.55-.44,.23-.3-.34-.39-.99-.07,.26-.12,.17-.16,.03-.18-.18-.04-.21,.11-.52v-.23l-.12-.23-.24-.29-.27-.25-.23-.08-.19,.21,.08,.35,.52,.95,.78,1.15,.13,.32v.32l-.26,.27-.48-.04-.36-.54-.53-1.23v.34l-.12,.17h-.19l-.26-.14,1.82,2.51,.77,1.36,.45,1.42,.08,1.33,.12,.42,.19,.32,.74,.94,.18,.33,.3,.95,.19,.37,.49,.65,.22,.35,.25,.75,.07,.77,.03,1.57,.21,1.39,.18,.69,.26,.64,1.43,2.74,.42,1.43v1.59l-.08,.35-.17,.58-.06,.33v.43l.15,.86-.02,.43-.31,.87-.5,.48-.65,.08-.78-.33-.07,1.91,.03,.34,.03,.18,.05,.14,.15,.27,.12,.09h.14l.21,.05,.66,.2,.32,.13,.32,.18,.36,.31,.61,.72,.34,.31,.86,.44,.94,.25,3.57,.36,.8-.05,.82-.25,.83-.5,1.52-1.15,.89-.36,.76-.16,.31-.15,.31-.29,.53-.72,.29-.29,.44-.22,.47-.09,1.4,.02,1.9-.36,1.79-.07,.89,.07,.82,.19,.23,.11,.04,.07,.06,.05,.27,.04h.29l1.39-.3,.16-.02,.33,.03,.55,.2,.27,.05,.8-.12,.7-.4,.59-.6,.49-.74,.52-1.15,.25-.34,.4-.29,.44-.15,.94-.23,1.54-.7,1.48-.82,.97-.44,.85-.15,1.96,.05,.97-.06,.93-.18,2.73-.81,2.53-1.11,.91-.22,2-.19,1.47-.02,1.09,.08,.54-.02,.44-.09,.4-.12,.41-.09h.45l.98,.38,1.77,1.14,.96,.2,.6-.05h.43l.43,.1,.57,.26,.5,.18,1.43,.19,.4,.17,1.05,.78,.49,.24,.15,.16,.03,.29-.05,.16-.11,.1-.15,.05h-.18l.21,.77,.16,.38,.23,.29,.31,.13,.71,.1,.34,.15,.24,.24,.14,.27,.21,.6,.17,.32,.64,.83,.33,.51,.31,.61,.23,.65,.11,.61-.09,.45-.6-.38-.25,.34,.4,.02,.36,.24,.71,.73,.17,.25,.1,.09,.07-.03,.2-.17,.08-.03,.72,.38,.06-.24-.13-.83v-.3l.24-.45,1.08-1.36,.78-.65,1.76-1.02,.64-.71,.61-1.28,.63-.83,.19-.36,.09-.4,.04-.54,.23,.31,.18,.35,.12,.38,.05,.39-.03,.38-.1,.26-.12,.25-.08,.34v.38l.08,.28,.02,.27-.12,.35-.23,.35-.5,.66-.21,.38-.19,.72-.05,1.42-.15,.69-.2,.41-.19,.12h-.27l-.62,.11h-.08l-.06,.03-.12,.14-.12,.2-.23,.77h.63l.85-.14,.8-.2,.47-.23,.22-.35,.15-.46,.2-.91,.28-.88,.38-.85,.82,1.23,.34,.66,.19,.68-.05,.83-.28,.68-.38,.64-.33,.71,.66,.07,.61-.08,.58-.19,.56-.26,.59-.38,.32-.12,.3,.08,.1,.18v.23l-.06,.25-.02,.23-.3-.21h-.21l-.22,.08h-.32l.3,.49,.46,.41,.5,.38,.43,.39,.39,.51,.4,.63,.32,.67,.15,.62-.07,.65-.17,.57-.07,.56,.22,.64,.22,.29,.78,.76,.21,.28,.38,.6,.21,.28,.53,.39,.58,.18,.6,.12,.61,.19,.31,.21,.52,.54,.28,.2,.36,.09,.21-.09,.18-.17,.28-.14h.34l.29,.08,.28,.14,.3,.11,.31,.05,.62,.03,.32,.06,.6,.24,1.75,1.02,.71,.24h.59l.55-.22,1.19-.9,1.28-.69,.56-.41-.21-.11-.21-.07-.47-.09,1.12-.68,.56-.13,.48,.33,.12,.51-.21,.45-.44,.29-.56,.02,.39,.34,.35,.17,.37-.04,.45-.3,.27-.27,.34-.28,.31-.04,.2,.47-.1,.3-.2,.24-.02,.25,.46,.31,.43,.18,.3,.15,.24,.25,.24,.48,.55-.24,.33,.33,.25,.52,.3,.31,.32-.22,.1-.53-.14-.39-.39,.2-.35-.53,.42-.21,1.37-.14,.67-.38,1.78-1.7,1.46-.8,1.46-.29,3.13-.23,.37-.11,.27-.16,.56-.41,.36-.22,.23-.17,.15-.23,.1-.4,.13-2.11,.44-2.94,.2-.71,.31-.64,1.14-1.83h.03l.2-.12,.06-.05-.03-.03-.04-.09-.03-.11v-.09l.09-.07,.12-.04,.16-.03,.02-.19v-.66l.15-.83,.28-.72,.41-.66,.55-.63-.08-.03-.09-.03-.09-.02h-.09l.31-.13,.17-.21,.09-.3,.11-.91,.05-.16,1.25-1.97,.37-.37,.81-.46,.37-.29-.08-.04-.03-.03-.02-.03-.04-.05,.4-.18,.38-.34,.32-.43,.2-.44,.03-.21v-.44l.06-.2,.16-.26,.43-.48,.19-.25,.24-.5,.17-.52,.23-1.08,.06-.55v-1.09l.07-.54,.13-.5,.51-1.51,.41-2.42,.17-.47,.51-.87,.18-.45,.05-.47v-.61l-.07-.6Zm-17.41,44.59l-.18,.03-.86,.27,.28,.24,.63,.04,.22,.19,.27-.15,.05-.22-.13-.23-.28-.16Zm-11.72,.84l.03-.15,.02-.16-.15,.09-.08,.13v.17l.09,.2,.06-.15,.04-.15Zm8.7,10.87l-.08-.16-.11-.15-.1,.18-.02,.17,.06,.16,.13,.15h.21l-.02-.19-.05-.18Zm2.28-2.31l-.12,.05-.14,.1,.06,.24,.11,.06,.14-.08,.16-.18-.12-.16-.11-.04Zm-9.61-16.68l-.21,.2,.2-.03h.19l.18,.06,.17,.09-.14-.24-.19-.11-.21,.03Zm10.34,11.03l-.07-.89-.29-.65-.38-.27-.28,.03-.25,.17-.3,.14h-.19l-.4-.1-.18,.02-.12,.1-.17,.3-.11,.09-1.32,.04-.65,.19-.14,.57-.34-.26-.44,.04-.49,.14-.48,.06-.52-.11-.5-.2-1.59-.9-.36-.17-.34-.11-.98-.13-.5-.12-.5-.25-.02,.32-.22,.93,.1,.61,.16,.61,.21,.6,.26,.56,.87,1.26,.35,.69v.66l.08-.05,.07-.03,.08-.04,.09-.08,.18,.39,.28,.32,.16,.33-.17,.41-.12-.35-.21-.29-.27-.25-.3-.21,.17,.87,.26,.8,.36,.74,.95,1.44,.27,.34,.31,.24,.29,.06h.3l.27,.03,.22,.19h-.47l-.23,.13-.03,.26,.12,.41,.33-.1,.38-.06h.39l.34,.03,.27,.12,.31,.18,.32,.14h.3l.21-.18,.18-.32,.13-.36,.06-.29,.05-.39h-.01l-.05,.02-.04-.15-.03-.26,.58,.3,.33-.43,.13-.75-.04-.66,.2,.21,.15,.25,.1,.27,.05,.29,.25-.2,.09-.44,.26-.09,.25,.04,.16,.12,.09,.17,.04,.19-.09,.04h-.18l-.13,.13,.07,.35,.15,.23,.23,.17,.26,.03,.25-.18,.08-.31-.06-.41-.18-.76v-.36l.04-.31,.47-1.8,.21-.53,.27-.52v.2l-.02,.07-.08,.13,.22,.18,.1,.22,.06,.23,.11,.2,.03-.62-.14-1.92,.09-1.68Zm-3.45,8.58l-.32,.38-.25,.08,.24,.36,.36-.06,.24-.31-.11-.41-.17-.05Zm-10.67-15.12l-.26,.06-.24,.5-.19,.61,.1,.33,.04,.29,.11,.16,.31-.05,.28-.21,.12-.31,.02-.35-.05-.34-.25-.7Zm-20.21-14.87l-1.08-.04v-.41l-.39-.11-.56,.06-1.67,.32-.56,.25-.3,.46,.41,.34,.42,.17,.46,.05,.99-.04,.43,.02,.41-.03,.41-.16,.18-.14,.12-.13,.16-.1,.3-.06,.21,.04,.23,.08,.22,.03,.19-.11-.03-.34-.53-.14ZM.65,54.9l-.4-1.06-.08,.03-.06,.04-.11,.11,.15,.52,.19,.47,.48,.94-.03-.5-.15-.54Z"/></g></svg>