<?xml version="1.0" encoding="UTF-8"?><svg id="_이어_2" xmlns="http://www.w3.org/2000/svg" viewBox="0 0 136.07 136.07"><defs><style>.cls-1{fill:#a10136;}</style></defs><g id="korea"><g id="_"><path class="cls-1" d="M110.39,25.9c-.2-.03-.39-.12-.54-.28-.39-.39-.4-1.02-.01-1.41l4.55-4.62c.39-.39,1.02-.4,1.41-.01,.39,.39,.4,1.02,.01,1.41l-4.55,4.62c-.24,.24-.56,.33-.87,.29Z"/><path class="cls-1" d="M20.81,116.76c-.2-.03-.39-.12-.54-.28-.39-.39-.4-1.02,0-1.41l4.55-4.62c.39-.39,1.02-.4,1.41-.01,.39,.39,.4,1.02,0,1.41l-4.55,4.62c-.24,.24-.56,.33-.87,.29Z"/><path class="cls-1" d="M115.62,116.09c-.2-.03-.39-.12-.54-.28l-4.62-4.55c-.39-.39-.4-1.02,0-1.41,.39-.39,1.02-.4,1.41-.01l4.62,4.55c.39,.39,.4,1.02,0,1.41-.24,.24-.56,.33-.87,.29Z"/><path class="cls-1" d="M24.76,26.52c-.2-.03-.39-.12-.54-.28l-4.62-4.55c-.39-.39-.4-1.02,0-1.41,.39-.39,1.02-.4,1.41-.01l4.62,4.55c.39,.39,.4,1.02,0,1.41-.24,.24-.56,.33-.87,.29Z"/><path class="cls-1" d="M67.44,8.47c-.47-.08-.84-.48-.84-.98l-.05-6.49c0-.55,.44-1,.99-1.01,.56,0,1,.44,1.01,.99l.05,6.49c0,.55-.44,1-.99,1.01-.06,0-.11,0-.17-.01Z"/><path class="cls-1" d="M68.36,136.06c-.47-.08-.84-.48-.84-.98l-.05-6.49c0-.55,.44-1,.99-1.01,.56,0,1,.44,1.01,.99l.05,6.49c0,.55-.44,1-.99,1.01-.06,0-.11,0-.17-.01Z"/><path class="cls-1" d="M128.43,68.59c-.47-.08-.84-.48-.84-.98,0-.55,.44-1,.99-1.01l6.49-.05c.55,0,1,.44,1.01,.99,0,.55-.44,1-.99,1.01l-6.49,.05c-.06,0-.11,0-.17-.01Z"/><path class="cls-1" d="M.84,69.5c-.47-.08-.84-.48-.84-.98,0-.55,.44-1,.99-1.01l6.49-.05c.56,0,1,.44,1.01,.99s-.44,1-.99,1.01l-6.49,.05c-.06,0-.11,0-.17-.01Z"/><path class="cls-1" d="M120.1,38.37c-.28-.05-.55-.21-.71-.48-.28-.48-.12-1.09,.36-1.37l5.59-3.28c.48-.28,1.09-.12,1.37,.36s.12,1.09-.36,1.37l-5.59,3.28c-.21,.12-.44,.16-.66,.12Z"/><path class="cls-1" d="M10.06,102.96c-.28-.05-.55-.21-.71-.48-.28-.48-.12-1.09,.36-1.37l5.6-3.28c.48-.28,1.09-.12,1.37,.36s.12,1.09-.36,1.37l-5.6,3.28c-.21,.12-.44,.16-.66,.12Z"/><path class="cls-1" d="M101.81,126.84c-.28-.05-.55-.21-.71-.48l-3.28-5.6c-.28-.48-.12-1.09,.36-1.37,.48-.28,1.09-.12,1.37,.36l3.28,5.6c.28,.48,.12,1.09-.36,1.37-.21,.12-.44,.16-.66,.12Z"/><path class="cls-1" d="M37.23,16.8c-.28-.05-.55-.21-.71-.48l-3.28-5.6c-.28-.48-.12-1.09,.36-1.37,.48-.28,1.09-.12,1.37,.36l3.28,5.6c.28,.48,.12,1.09-.36,1.37-.21,.12-.44,.16-.66,.12Z"/><path class="cls-1" d="M83.13,10.43s-.06-.01-.1-.02c-.53-.14-.86-.69-.72-1.22l1.63-6.28c.14-.53,.68-.86,1.22-.72,.53,.14,.86,.69,.72,1.22l-1.63,6.28c-.13,.5-.62,.82-1.12,.74Z"/><path class="cls-1" d="M50.99,133.9s-.06-.01-.1-.02c-.53-.14-.86-.69-.72-1.22l1.63-6.28c.14-.53,.68-.85,1.22-.72,.53,.14,.86,.69,.72,1.22l-1.63,6.28c-.13,.5-.62,.82-1.12,.74Z"/><path class="cls-1" d="M132.75,85.91s-.06-.01-.1-.02l-6.28-1.63c-.53-.14-.86-.69-.72-1.22,.14-.53,.68-.85,1.22-.72l6.28,1.63c.53,.14,.86,.69,.72,1.22-.13,.5-.62,.82-1.12,.74Z"/><path class="cls-1" d="M9.28,53.77s-.06-.01-.1-.02l-6.28-1.63c-.53-.14-.86-.69-.72-1.22,.14-.53,.69-.85,1.22-.72l6.28,1.63c.53,.14,.86,.69,.72,1.22-.13,.5-.62,.82-1.12,.74Z"/><path class="cls-1" d="M97.78,16.37c-.12-.02-.23-.06-.34-.12-.48-.27-.65-.88-.38-1.36l3.2-5.64c.27-.48,.88-.65,1.36-.38,.48,.27,.65,.88,.38,1.36l-3.2,5.64c-.21,.37-.63,.56-1.03,.49Z"/><path class="cls-1" d="M34.78,127.32c-.12-.02-.23-.06-.34-.12-.48-.27-.65-.88-.38-1.36l3.2-5.64c.27-.48,.88-.65,1.36-.38,.48,.27,.65,.88,.38,1.36l-3.2,5.64c-.21,.37-.63,.56-1.03,.49Z"/><path class="cls-1" d="M15.22,39.12c-.12-.02-.23-.06-.34-.12l-5.64-3.2c-.48-.27-.65-.88-.38-1.36,.27-.48,.88-.65,1.36-.38l5.64,3.2c.48,.27,.65,.88,.38,1.36-.21,.37-.63,.56-1.03,.49Z"/><path class="cls-1" d="M126.17,102.13c-.12-.02-.23-.06-.34-.12l-5.64-3.2c-.48-.27-.65-.88-.38-1.36,.27-.48,.88-.65,1.36-.38l5.64,3.2c.48,.27,.65,.88,.38,1.36-.21,.37-.63,.56-1.03,.49Z"/><path class="cls-1" d="M126.25,52.93c-.38-.06-.7-.33-.81-.72-.15-.53,.17-1.08,.7-1.23l6.25-1.72c.53-.15,1.08,.17,1.23,.7s-.17,1.08-.7,1.23l-6.25,1.72c-.14,.04-.29,.05-.42,.02Z"/><path class="cls-1" d="M3.25,86.84c-.38-.06-.7-.33-.81-.72-.15-.53,.17-1.08,.7-1.23l6.25-1.72c.53-.15,1.08,.17,1.23,.7s-.17,1.08-.7,1.23l-6.25,1.72c-.14,.04-.29,.05-.42,.02Z"/><path class="cls-1" d="M51.79,10.65c-.38-.06-.7-.33-.81-.72l-1.72-6.25c-.15-.53,.17-1.08,.7-1.23,.53-.15,1.08,.17,1.23,.7l1.72,6.25c.15,.53-.17,1.08-.7,1.23-.14,.04-.29,.05-.42,.02Z"/><path class="cls-1" d="M85.69,133.65c-.38-.06-.7-.33-.81-.72l-1.72-6.25c-.15-.53,.17-1.08,.7-1.23,.53-.15,1.08,.17,1.23,.7l1.72,6.25c.15,.53-.17,1.08-.7,1.23-.14,.04-.29,.05-.42,.02Z"/></g></g></svg>