<?xml version="1.0" encoding="UTF-8"?><svg id="_이어_2" xmlns="http://www.w3.org/2000/svg" viewBox="0 0 68.8 64.94"><defs><style>.cls-1{fill:#c79e73;}.cls-2{fill:#6e573f;}.cls-3{fill:#54402c;}.cls-4{fill:#947556;}.cls-5{fill:#ebd3bc;}.cls-6{fill:#a88b6d;}.cls-7{fill:#fcf1e6;}.cls-8{fill:#b58e65;}.cls-9{fill:#d9ba9a;}</style></defs><g id="france"><g><rect class="cls-5" x="1.68" y="2.38" width="65.44" height="6.71"/><rect class="cls-7" x="1.68" y="2.38" width="32.72" height="6.71"/><rect class="cls-9" x="1.64" y="1.93" width="2.25" height="7.41"/><rect class="cls-9" x="7.39" y="1.93" width="2.25" height="7.41"/><rect class="cls-9" x="13.14" y="1.93" width="2.25" height="7.41"/><rect class="cls-9" x="18.89" y="1.93" width="2.25" height="7.41"/><rect class="cls-9" x="24.64" y="1.93" width="2.25" height="7.41"/><rect class="cls-9" x="30.4" y="1.93" width="2.25" height="7.41"/><rect class="cls-1" x="36.15" y="1.93" width="2.25" height="7.41"/><rect class="cls-1" x="41.9" y="1.93" width="2.25" height="7.41"/><rect class="cls-1" x="47.65" y="1.93" width="2.25" height="7.41"/><rect class="cls-1" x="53.4" y="1.93" width="2.25" height="7.41"/><rect class="cls-1" x="59.16" y="1.93" width="2.25" height="7.41"/><rect class="cls-1" x="64.91" y="1.93" width="2.25" height="7.41"/><path class="cls-9" d="M6.74,5.65c0,.61-.49,1.11-1.11,1.11s-1.11-.49-1.11-1.11,.49-1.11,1.11-1.11,1.11,.49,1.11,1.11Z"/><path class="cls-9" d="M12.5,5.65c0,.61-.49,1.11-1.11,1.11s-1.11-.49-1.11-1.11,.49-1.11,1.11-1.11,1.11,.49,1.11,1.11Z"/><path class="cls-9" d="M18.25,5.65c0,.61-.49,1.11-1.11,1.11s-1.11-.49-1.11-1.11,.49-1.11,1.11-1.11,1.11,.49,1.11,1.11Z"/><path class="cls-9" d="M24,5.65c0,.61-.49,1.11-1.11,1.11s-1.11-.49-1.11-1.11,.49-1.11,1.11-1.11,1.11,.49,1.11,1.11Z"/><path class="cls-9" d="M29.75,5.65c0,.61-.49,1.11-1.11,1.11s-1.11-.49-1.11-1.11,.49-1.11,1.11-1.11,1.11,.49,1.11,1.11Z"/><path class="cls-1" d="M35.5,5.65c0,.61-.49,1.11-1.11,1.11s-1.11-.49-1.11-1.11,.49-1.11,1.11-1.11,1.11,.49,1.11,1.11Z"/><path class="cls-1" d="M41.25,5.65c0,.61-.49,1.11-1.11,1.11s-1.11-.49-1.11-1.11,.49-1.11,1.11-1.11,1.11,.49,1.11,1.11Z"/><path class="cls-1" d="M47.01,5.65c0,.61-.49,1.11-1.11,1.11s-1.11-.49-1.11-1.11,.49-1.11,1.11-1.11,1.11,.49,1.11,1.11Z"/><path class="cls-1" d="M52.76,5.65c0,.61-.49,1.11-1.11,1.11s-1.11-.49-1.11-1.11,.49-1.11,1.11-1.11,1.11,.49,1.11,1.11Z"/><path class="cls-1" d="M58.51,5.65c0,.61-.49,1.11-1.11,1.11s-1.11-.49-1.11-1.11,.49-1.11,1.11-1.11,1.11,.49,1.11,1.11Z"/><path class="cls-8" d="M64.26,5.65c0,.61-.49,1.11-1.11,1.11s-1.11-.49-1.11-1.11,.49-1.11,1.11-1.11,1.11,.49,1.11,1.11Z"/><path class="cls-4" d="M1.68,13.75v51.19H23.08v-31.72c0-6.24,5.08-11.31,11.31-11.31s11.31,5.08,11.31,11.31v31.72h21.41V13.75H1.68Z"/><rect class="cls-1" x="1.68" y="17.52" width="65.44" height="2.46"/><path class="cls-6" d="M34.4,13.75H1.68v51.19H23.08v-31.72c0-6.24,5.08-11.31,11.31-11.31V13.75Z"/><polygon class="cls-4" points="67.44 0 34.4 0 1.36 0 0 2.38 34.4 2.38 68.8 2.38 67.44 0"/><rect class="cls-3" x="1.68" y="13.75" width="65.44" height="3.78"/><path class="cls-1" d="M24.89,64.94v-31.47c0-5.29,4.26-9.58,9.5-9.58s9.5,4.29,9.5,9.58v31.47h3.62v-31.47c0-7.29-5.89-13.22-13.12-13.22s-13.12,5.93-13.12,13.22v31.47h3.62Z"/><rect class="cls-5" x="47.22" y="19.98" width="20.26" height="44.96"/><path class="cls-9" d="M34.4,20.25c-7.24,0-13.12,5.93-13.12,13.22v31.47h3.62v-31.47c0-5.29,4.26-9.58,9.5-9.58v-3.64Z"/><rect class="cls-4" x="43.9" y="34.88" width="23.58" height="2.43"/><rect class="cls-3" x="43.9" y="33.76" width="23.58" height="1.16"/><polygon class="cls-4" points="67.43 62.77 58.32 62.77 57.19 62.77 54.13 62.77 53.39 62.77 43.9 62.77 42.92 63.45 42.92 64.94 53.39 64.94 54.13 64.94 57.19 64.94 58.32 64.94 68.4 64.94 68.4 63.45 67.43 62.77"/><rect class="cls-7" x="1.34" y="19.98" width="20.26" height="44.96"/><rect class="cls-6" x="1.34" y="56.91" width="20.26" height="1.94"/><path class="cls-6" d="M8.2,46.39c0-2.48,1.47-4.49,3.27-4.49s3.27,2.01,3.27,4.49c0,.07,0,.13,0,.2h0v10.82h-6.55v-10.82h0c0-.07,0-.13,0-.2Z"/><rect class="cls-4" x="47.28" y="56.91" width="20.26" height="1.94"/><path class="cls-4" d="M54.08,46.39c0-2.48,1.47-4.49,3.27-4.49s3.27,2.01,3.27,4.49c0,.07,0,.13,0,.2h0v10.82h-6.55v-10.82h0c0-.07,0-.13,0-.2Z"/><path class="cls-2" d="M15.18,57.84H7.77v-11.68c.1-2.6,1.72-4.68,3.7-4.68s3.7,2.21,3.7,4.92c0,.03,0,.06,0,.09v11.36Zm-6.54-.86h5.68v-10.48s0-.07,0-.1c0-2.24-1.27-4.05-2.84-4.05s-2.84,1.82-2.84,4.05c0,.03,0,.07,0,.1l.02,.53h-.02v9.96Z"/><path class="cls-3" d="M61.05,57.84h-7.41v-11.68c.1-2.6,1.72-4.68,3.7-4.68s3.7,2.21,3.7,4.92c0,.03,0,.06,0,.09v11.36Zm-6.54-.86h5.68v-10.48s0-.07,0-.1c0-2.24-1.27-4.05-2.84-4.05s-2.84,1.82-2.84,4.05c0,.03,0,.07,0,.1l.02,.52h-.02v9.96Z"/><rect class="cls-9" x="7.23" y="56.86" width="8.48" height="5.91" transform="translate(22.94 119.63) rotate(180)"/><rect class="cls-1" x="53.11" y="56.86" width="8.48" height="5.91" transform="translate(114.7 119.63) rotate(180)"/><rect class="cls-6" x="1.34" y="34.88" width="23.55" height="2.43" transform="translate(26.23 72.19) rotate(180)"/><rect class="cls-2" x="1.34" y="33.76" width="23.55" height="1.16"/><polygon class="cls-6" points="1.39 62.77 10.43 62.77 11.55 62.77 14.59 62.77 15.33 62.77 24.74 62.77 25.72 63.45 25.72 64.94 15.33 64.94 14.59 64.94 11.55 64.94 10.43 64.94 .42 64.94 .42 63.45 1.39 62.77"/><rect class="cls-4" y="9.09" width="68.8" height="2.38"/><rect class="cls-1" y="11.47" width="68.8" height="2.38"/><path class="cls-4" d="M36.72,20.46c-.75-.14-1.53-.21-2.32-.21s-1.57,.08-2.32,.21c.06,2,1.08,3.6,2.32,3.6s2.26-1.59,2.32-3.6Z"/><path class="cls-2" d="M19.18,31.75H3.77c-.24,0-.43-.19-.43-.43v-8.92c0-.24,.19-.43,.43-.43h15.41c.24,0,.43,.19,.43,.43v8.92c0,.24-.19,.43-.43,.43Zm-14.98-.86h14.55v-8.06H4.2v8.06Z"/><rect class="cls-6" x="5.4" y="24.04" width="12.14" height="5.63" transform="translate(22.94 53.7) rotate(180)"/><path class="cls-2" d="M17.54,30.1H5.4c-.24,0-.43-.19-.43-.43v-5.63c0-.24,.19-.43,.43-.43h12.14c.24,0,.43,.19,.43,.43v5.63c0,.24-.19,.43-.43,.43Zm-11.71-.86h11.28v-4.76H5.83v4.76Z"/><rect class="cls-4" x="51.28" y="24.04" width="12.14" height="5.63" transform="translate(114.7 53.7) rotate(180)"/><path class="cls-3" d="M63.42,30.1h-12.14c-.24,0-.43-.19-.43-.43v-5.63c0-.24,.19-.43,.43-.43h12.14c.24,0,.43,.19,.43,.43v5.63c0,.24-.19,.43-.43,.43Zm-11.71-.86h11.28v-4.76h-11.28v4.76Z"/><path class="cls-3" d="M65.05,31.75h-15.41c-.24,0-.43-.19-.43-.43v-8.92c0-.24,.19-.43,.43-.43h15.41c.24,0,.43,.19,.43,.43v8.92c0,.24-.19,.43-.43,.43Zm-14.98-.86h14.55v-8.06h-14.55v8.06Z"/><polygon class="cls-6" points="34.4 0 1.36 0 0 2.38 34.4 2.38 34.4 0"/><path class="cls-9" d="M34.4,4.54c-.61,0-1.11,.49-1.11,1.11s.49,1.11,1.11,1.11v-2.21Z"/><rect class="cls-6" y="9.09" width="34.4" height="2.38"/><rect class="cls-9" y="11.47" width="34.4" height="2.38"/><rect class="cls-2" x="1.68" y="13.75" width="32.72" height="3.78"/><rect class="cls-9" x="1.68" y="17.52" width="32.72" height="2.46"/><path class="cls-6" d="M34.4,20.25c-.79,0-1.57,.08-2.32,.21,.06,2,1.08,3.6,2.32,3.6v-3.81Z"/></g></g></svg>