<?xml version="1.0" encoding="UTF-8"?><svg id="_이어_2" xmlns="http://www.w3.org/2000/svg" viewBox="0 0 21.7 38.21"><defs><style>.cls-1{fill:#a10136;}</style></defs><g id="korea"><g id="_지"><g><path id="north_korea" class="cls-1" d="M20.79,2.71l.1,.11-.22,.06h-.44l-.23,.04-.26,.14-.19,.2-.34,.42-.76,.74-.35,.41-.29,.44-.17,.53v.58l.07,1.46,.04,.29v.29l-.07,.26-.22,.2-.32,.13-.35,.11-.29,.14-.44,.36-.81,.78-1.63,1.32-.46,.23-.95,.32-.42,.19-.76,.43-.24,.11-.19,.15-.15,.27-.04,.28,.06,.67-.04,.32h-.24l-.18,.15-.07,.24,.07,.28,.23,.16,.78,.21,.29,.12,.28,.24,.83,.82,.46,.34,.21,.19,.17,.23-.27,.31-.2,.34-.22,.32-.36,.24-.39,.07-1.34-.04-1.04,.12-.83,.36-.64,.62-.47,.9-.49-.17-.43-.1-.4,.07-.39,.35-.16-.27-.32-.31-.37-.25-.3-.09-.22,.1-.18,.21-.16,.24-.18,.19-.35,.23h-.12l-.07-.16-.2-.17-.83-.3-.27-.13,.85-.48-.41-.15-1.43-.13,.43-.29,.21-.38,.16-.42,.29-.42,.4-.3,.43-.19,.46-.11,.48-.06-.39-.2-.4-.07-.32-.13-.17-.39,.1-.5,.57-.98,.05-.56-.2-.42-.33-.25-1.38-.58-.13,.04-.08,.17-.34,.19-.22-.46L.04,12.57l-.04-.39,.33-.73,.76-.67,3.97-2.21,.65-.5,.3-.29,.57-.63,.25-.35,.13-.26,.24-.61,.15-.28,.18-.18,.3-.23,.32-.19,.24-.07,.32,.14,.17,.26,.12,.29,.16,.24,.33,.17,.45,.13,.85,.13h.28l.55-.04h.28l.11,.05,.27,.19,.1,.03,.6-.43-.22-.63-.48-.68-.17-.57,.32-.25,.57-.07,1.08,.03,.43-.03,.38-.07,.35-.15,.34-.26,.19-.27,.36-.65,.23-.21,.27-.08,.45,.04,.25-.05,.42-.5,.33-1.42,.48-.34,.3,.03,.24,.12,.19,.19,.15,.23,.09,.22,.05,.21,.07,.21,.16,.23,.13,.11,.42,.29,.09,.25,.13,.13,.1,.15,.07,.16,.04,.17ZM1.84,13.9l.05-.14-.1,.02-.07,.04-.13,.13v.2l.18-.17,.06-.09Z"/><path id="south_korea" class="cls-1" d="M12.98,17.97l.27-.31,1.14,2.19,1.51,2.07,.44,.75,.3,.8,.12,.69,.04,.68-.17,2.38,.13,.37,.44-.11-.12,.88-.26,.98-.42,.9-.6,.63-.75,.17h-.84l-.62,.17-.11,.72-1.05-.34-.45-.08-.51,.07-.32,.1-.11,.06-.03,.09-.09,.2,.04,.15,.12,.17v.12h-.37l-.11-.14-.14-.22-.18-.14-.21,.12-.08,.26,.17,.46-.1,.3-.15,.17-.2,.13h-.21l-.18-.29,.02-.18,.12-.17,.11-.19v-.24l-1.02,.95-.31,.21-.06-.03-.07-.09-.09-.08h-.11l-.14,.11-.36,.5-.17-.07-.2-.22-.2-.29-.35-.64v-.16l.24-.02,.45,.05-.17-.22,.1-.06,.2-.14,.1-.05h-.39l-.3-.28-.2-.41-.07-.45,.09-.42,.25-.5,.34-.46,.35-.3-.34-.1-.02-.12,.36-.35,.24-.32,.08-.16-.04-.15-.14-.28-.2-.58-.16-.69-.2-1.49-.56,.17-.35-.21-.02-.43,.42-.48,.5-.2,.51,.02,.45,.23,.32,.41,.26-.25v-.12l-.15-.1-.15-.17-.13-.35-.05-.29-.03-.27-.06-.3-.51-.93-.16-.49,.2-.38,.47-.9,.64-.62,.83-.36,1.04-.12,1.34,.04,.39-.07,.36-.24,.22-.32,.2-.34Zm.86,13.76l-.03,.39,.28,.23,.37-.15-.06-.81-.56,.34Zm-6.95-10.21l.22,.06,.02-.32-.08-.3-.17-.15-.25,.13,.03,.24,.09,.2,.15,.14Zm-.15,4.53l.03-.21-.04-.19-.1-.16-.17-.13v.22l.03,.19,.1,.16,.15,.13Zm1.04,8l.17,.03-.06-.15-.07-.11-.1-.07-.15-.02,.02,.17,.08,.1,.13,.05Zm-1.56,3.4l-.14,.56,.5,.21,.77-.12,.73-.34,.39-.45-.55-.4-.92,.12-.79,.44Zm5.76-4.94l.12,.03,.08-.11,.05-.26-.34-.44-.28,.2-.08,.36,.29,.02,.16,.18Zm-.67,.13l-.09,.18v.06h.13l-.04-.25Zm-5.45-.7l-.18-.09-.24,.08,.24,.4,.13,.13h.17v-.31l-.12-.21Zm.26,1.24l-.25,.15-.08,.28,.15,.22,.27-.05,.28-.21,.18-.24-.24-.15h-.31Zm15.24-11.15l.13,.05,.22-.22-.3,.03-.04,.13Z"/></g></g></g></svg>