<?xml version="1.0" encoding="UTF-8"?><svg id="_이어_2" xmlns="http://www.w3.org/2000/svg" viewBox="0 0 88.75 61.85"><defs><style>.cls-1{fill:#eadeca;}.cls-2{fill:#ddd;}.cls-3{fill:#394476;}.cls-4{fill:#fff;}.cls-5{fill:#9b6013;}.cls-6{fill:#ddc6a4;}.cls-7{fill:#ba8332;}.cls-8{fill:#eae9e8;}.cls-9{fill:#687175;}.cls-10{fill:#c9923a;}.cls-11{fill:#d1b693;}.cls-12{fill:#e5ac45;}.cls-13{fill:#e2bd81;}.cls-14{fill:#ceb38e;}.cls-15{fill:#2b2b2b;}.cls-16{fill:#26325e;}.cls-17{fill:#afafaf;}.cls-18{fill:#ffebc2;}.cls-19{fill:#b7936c;}.cls-20{fill:#999;}.cls-21{fill:#e8e8e8;}.cls-22{fill:#c9a981;}.cls-23{fill:#fff3d7;}.cls-24{fill:#f2deb6;}.cls-25{fill:#b2751d;}.cls-26{fill:#f2d49e;}.cls-27{fill:#f2e6d3;}.cls-28{fill:#505e91;}.cls-29{fill:#d8c6ad;}.cls-30{fill:#ad8663;}.cls-31{fill:#ddb992;}</style></defs><g id="taiwan"><g><g><g><g><path class="cls-17" d="M52.9,21.66s-3.45,.94-8.9,.94-8.69-.94-8.69-.94l2.59,4.53h12.5l2.51-4.53Z"/><path class="cls-20" d="M37.9,26.19l-2.59-4.53s-.75,1.2-5.7,1.45c-3.29,.16-8.16-1.45-8.16-1.45l7.21,4.53h9.23Z"/><path class="cls-20" d="M50.32,26.19l2.59-4.53s.75,1.2,5.7,1.45c3.29,.16,8.16-1.45,8.16-1.45l-7.21,4.53h-9.23Z"/><path class="cls-3" d="M49.81,18.4c1.44,1.74,3.1,3.26,3.1,3.26,0,0,.75,1.2,5.7,1.45,3.05,.15,7.46-1.22,8.08-1.43l.05-.02s-5.53-.81-9.71-3.26h-7.22Z"/><path class="cls-28" d="M49.85,18.4h-11.28c-1.54,1.94-3.26,3.26-3.26,3.26,0,0,3.23,.94,8.69,.94s8.9-.94,8.9-.94h0s-1.61-1.54-3.06-3.26Z"/><path class="cls-3" d="M31.17,18.4c-5.22,2.87-9.72,3.26-9.72,3.26,0,0,4.86,1.61,8.16,1.45,4.95-.25,5.7-1.45,5.7-1.45,0,0,1.75-1.3,3.28-3.26h-7.42Z"/><path class="cls-9" d="M52.9,21.66h-.02v.03l.03-.03h0Z"/><g><path class="cls-16" d="M52.79,21.74c-.06,0-.12-.03-.16-.09-.03-.04-.18-.2-.35-.37-.49-.5-1.41-1.42-2.5-2.78-.07-.08-.05-.21,.03-.27,.08-.07,.21-.05,.27,.03,1.08,1.34,1.98,2.26,2.47,2.75,.24,.24,.35,.35,.4,.42,.06,.09,.04,.21-.05,.27-.03,.02-.07,.03-.11,.03Z"/><path class="cls-16" d="M66.16,21.8s-.09-.02-.13-.05c-.89-.15-5.69-1.01-9.32-3.13-.09-.05-.12-.17-.07-.27,.05-.09,.17-.12,.27-.07,3.93,2.3,9.27,3.09,9.33,3.1,.09,.01,.15,.08,.17,.17,.01,.09-.03,.17-.11,.21l-.05,.02s-.05,.02-.08,.02Z"/></g><path class="cls-16" d="M22.33,21.77c-.1,0-.18-.07-.19-.17-.01-.11,.07-.2,.17-.22,.04,0,4.01-.45,8.97-3.13,.1-.05,.21-.02,.26,.08s.02,.21-.08,.27c-2.63,1.42-4.96,2.21-6.46,2.62-1.63,.45-2.62,.55-2.66,.56h-.02Z"/><path class="cls-16" d="M35.53,21.77c-.06,0-.11-.02-.15-.07-.07-.08-.05-.21,.03-.27,.02-.01,1.62-1.31,3.1-3.12,.07-.08,.19-.1,.28-.03,.08,.07,.1,.19,.03,.28-1.51,1.85-3.15,3.17-3.16,3.18-.04,.03-.08,.04-.12,.04Z"/><path class="cls-4" d="M59.1,23.38c-.17,0-.34,0-.51-.01-4.09-.2-5.4-1.06-5.78-1.42-.75,.18-3.99,.91-8.82,.91s-7.88-.72-8.6-.91c-.38,.36-1.69,1.21-5.78,1.42-3.3,.16-8.05-1.4-8.25-1.46-.14-.05-.21-.19-.17-.33,.05-.14,.19-.21,.33-.17,.05,.02,4.86,1.6,8.06,1.44,4.66-.23,5.49-1.32,5.5-1.33,.06-.1,.18-.14,.29-.11,.03,0,3.26,.93,8.61,.93s8.46-.83,8.82-.92h.03s.04-.01,.06-.01c.09,0,.18,.04,.23,.12,0,0,.83,1.09,5.49,1.33,3,.15,7.42-1.23,7.98-1.41l.04-.02c.13-.06,.29,0,.34,.14,.06,.13,0,.29-.14,.34l-.05,.02h-.02c-.78,.26-4.66,1.46-7.67,1.46Z"/></g><g><path class="cls-17" d="M51.48,14.89s-2.89,.72-7.47,.72-7.28-.72-7.28-.72l2.17,3.49h10.48l2.1-3.49Z"/><path class="cls-20" d="M38.9,18.38l-2.17-3.49s-.63,.93-4.78,1.12c-2.76,.13-6.84-1.12-6.84-1.12l6.05,3.49h7.74Z"/><path class="cls-20" d="M49.32,18.38l2.17-3.49s.63,.93,4.78,1.12c2.76,.13,6.84-1.12,6.84-1.12l-6.05,3.49h-7.74Z"/><path class="cls-28" d="M51.48,14.89h0s-2.17-2.04-3.56-3.68c-1.31-1.55-3.13-5.48-3.13-5.48h-1.39s-1.53,3.62-3.06,5.49c-1.6,1.95-3.61,3.67-3.61,3.67,0,0,2.71,.72,7.28,.72s7.47-.72,7.47-.72Z"/><g><path class="cls-9" d="M51.48,14.89h-.02v.02l.02-.02h0Z"/><path class="cls-3" d="M45.94,5.73h-1.14c.04,.05,1.27,3.23,3.03,5.47,1.82,2.31,3.65,3.68,3.65,3.68,0,0,.63,.93,4.78,1.12,2.56,.12,6.25-.94,6.78-1.1l.04-.02s-5.3-.67-8.82-2.72c-3.52-2.05-8.33-6.44-8.33-6.44Z"/></g><path class="cls-3" d="M40.44,11.22c2.27-3.17,2.97-5.49,2.97-5.49h-1.06s-4.59,4.05-9.16,6.44c-4.57,2.39-8.08,2.72-8.08,2.72,0,0,4.08,1.24,6.84,1.12,4.15-.19,4.78-1.12,4.78-1.12,0,0,2.24-1.61,3.71-3.67Z"/><g><path class="cls-16" d="M51.44,15.06c-.06,0-.12-.03-.15-.07-.03-.03-.16-.15-.31-.28-.65-.58-2.17-1.94-3.79-4.03-.65-.85-1.62-2.36-2.53-4.75-.02-.05-.03-.09-.04-.11-.04-.09-.02-.2,.06-.25,.09-.06,.21-.04,.27,.05,.02,.02,.02,.04,.07,.17,.89,2.34,1.84,3.82,2.47,4.65,1.59,2.06,3.09,3.4,3.74,3.98,.22,.19,.31,.28,.35,.33,.07,.08,.05,.21-.03,.27-.04,.03-.08,.04-.12,.04Z"/><path class="cls-16" d="M63.04,15.1s-.08-.01-.11-.04c-.83-.12-5.56-.86-8.76-2.73-3.49-2.03-8.31-6.42-8.36-6.46-.08-.07-.09-.2-.01-.28,.07-.08,.2-.09,.28-.01,.05,.04,4.84,4.4,8.3,6.42,3.44,2,8.69,2.69,8.74,2.69,.09,.01,.16,.08,.17,.17,.01,.09-.04,.17-.12,.21l-.04,.02s-.05,.01-.07,.01Z"/></g><path class="cls-16" d="M25.11,15.08c-.1,0-.19-.08-.19-.18,0-.11,.07-.2,.18-.21,.03,0,3.53-.35,8.01-2.69,4.5-2.36,9.07-6.38,9.12-6.42,.08-.07,.2-.06,.28,.02,.07,.08,.06,.2-.02,.28-.05,.04-4.66,4.09-9.2,6.47-4.55,2.38-8.12,2.73-8.15,2.74h-.02Z"/><path class="cls-16" d="M36.73,15.08c-.06,0-.12-.03-.16-.08-.06-.09-.04-.21,.04-.27,.02-.02,2.23-1.62,3.66-3.62,2.22-3.11,2.94-5.41,2.94-5.43,.03-.1,.14-.16,.24-.13,.1,.03,.16,.14,.13,.24-.03,.1-.74,2.38-3,5.55-1.47,2.06-3.66,3.65-3.75,3.71-.03,.02-.07,.04-.11,.04Z"/><path class="cls-4" d="M56.68,16.27c-.14,0-.29,0-.43,0-3.37-.15-4.5-.8-4.85-1.09-.65,.15-3.36,.7-7.39,.7s-6.58-.55-7.2-.69c-.35,.3-1.49,.93-4.85,1.09-2.77,.13-6.76-1.08-6.93-1.13-.14-.04-.22-.19-.17-.33,.04-.14,.19-.22,.33-.17,.04,.01,4.07,1.23,6.75,1.11,3.87-.18,4.58-1,4.58-1.01,.06-.09,.17-.13,.28-.1,.03,0,2.73,.71,7.22,.71s7.09-.64,7.39-.71h.02s.04-.01,.05-.01c.09,0,.17,.04,.22,.11h0s.71,.83,4.58,1c2.51,.12,6.21-.95,6.68-1.08h.03c.13-.06,.29,0,.34,.13,.05,.13-.01,.29-.15,.34l-.04,.02h-.02c-.66,.2-3.91,1.13-6.44,1.13Z"/></g><rect class="cls-6" x="26.21" y="24.69" width="35.79" height="22.98"/><rect class="cls-14" x="44.34" y="24.69" width="17.66" height="22.98"/><g><rect class="cls-10" x="42.01" y="4.53" width="4.23" height="1.26"/><rect class="cls-7" x="44.09" y="4.53" width="2.15" height="1.26"/><rect class="cls-10" x="42.8" y="3.89" width="2.5" height=".64"/><rect class="cls-7" x="44.09" y="3.89" width="1.35" height=".64"/><path class="cls-10" d="M46.08,1.3c0-.72-.88-1.3-1.96-1.3s-1.96,.58-1.96,1.3c0,.23,.97,2.28,.97,2.28h1.97s.98-2.04,.98-2.28Z"/><rect class="cls-25" x="42.24" y="3.18" width="3.77" height=".7" rx=".16" ry=".16"/><path class="cls-7" d="M44.12,0h-.02V3.58h1s.98-2.04,.98-2.28c0-.72-.88-1.3-1.96-1.3Z"/><path class="cls-5" d="M45.6,3.18h-1.5v.7h1.5c.23,0,.41-.16,.41-.35h0c0-.19-.18-.35-.41-.35Z"/><polygon class="cls-4" points="42.79 .9 43.35 .9 42.79 1.96 42.79 .9"/><polygon class="cls-25" points="44.09 4.53 42.01 5.79 42.01 4.53 44.09 4.53"/><polygon class="cls-5" points="44.09 4.53 46.24 4.53 46.24 5.79 44.09 4.53"/></g><path class="cls-15" d="M49.2,47.67v-8.39c0-2.52-2.19-4.58-4.87-4.58h0c-2.68,0-4.87,2.06-4.87,4.58v8.39h9.73Z"/><g><rect class="cls-27" x="41.18" y="22.75" width="6.32" height="7.88"/><rect class="cls-6" x="41.77" y="23.26" width="5.13" height="6.86"/><polyline class="cls-11" points="46.9 30.12 46.9 23.26 41.77 30.12"/><rect class="cls-5" x="42.79" y="23.91" width="3.1" height="5.51"/><rect class="cls-12" x="43.84" y="24.61" width="1" height="1"/><rect class="cls-12" x="43.84" y="26.19" width="1" height="1"/><rect class="cls-12" x="43.84" y="27.77" width="1" height="1"/></g><g><polygon class="cls-18" points="21.37 47.67 34.43 47.67 34.41 28.63 24.04 28.63 21.37 47.67"/><polygon class="cls-23" points="23.1 26.45 25.78 26.45 25.78 27.1 34.42 27.1 34.42 28.64 24.03 28.64 23.1 26.45"/><polygon class="cls-31" points="25.97 28.01 24.54 28.01 24.54 26.86 25.25 26.86 25.25 27.25 24.93 27.25 24.93 27.62 25.58 27.62 25.58 26.65 23.1 26.65 23.1 26.26 25.97 26.26 25.97 28.01"/><polygon class="cls-23" points="21.37 47.67 34.5 28.93 23.93 28.93 21.37 47.67"/><rect class="cls-31" x="23.93" y="28.54" width="10.57" height=".39"/><rect class="cls-31" x="25.06" y="31.49" width=".87" height=".39"/><rect class="cls-31" x="24.41" y="44.48" width=".87" height=".39"/><rect class="cls-31" x="28.88" y="33.66" width=".87" height=".39"/><rect class="cls-31" x="27.49" y="42" width=".87" height=".39"/><rect class="cls-31" x="31.32" y="38.79" width=".87" height=".39"/><rect class="cls-31" x="24.89" y="37.4" width=".87" height=".39"/><rect class="cls-31" x="31.23" y="45.56" width=".87" height=".39"/></g><g><polygon class="cls-18" points="66.91 47.67 53.85 47.67 53.87 28.63 64.24 28.63 66.91 47.67"/><polygon class="cls-23" points="65.18 26.45 62.5 26.45 62.5 27.1 53.86 27.1 53.86 28.64 64.25 28.64 65.18 26.45"/><polygon class="cls-31" points="63.74 28.01 62.31 28.01 62.31 26.26 65.18 26.26 65.18 26.65 62.7 26.65 62.7 27.62 63.35 27.62 63.35 27.25 63.03 27.25 63.03 26.86 63.74 26.86 63.74 28.01"/><polygon class="cls-23" points="66.91 47.67 53.78 28.93 64.35 28.93 66.91 47.67"/><rect class="cls-31" x="53.78" y="28.54" width="10.57" height=".39"/><rect class="cls-31" x="62.35" y="31.49" width=".87" height=".39"/><rect class="cls-31" x="63.66" y="45.65" width=".87" height=".39"/><rect class="cls-31" x="58.53" y="33.66" width=".87" height=".39"/><rect class="cls-31" x="59.92" y="42" width=".87" height=".39"/><rect class="cls-31" x="56.1" y="38.79" width=".87" height=".39"/><rect class="cls-31" x="62.53" y="37.4" width=".87" height=".39"/><rect class="cls-31" x="56.18" y="45.56" width=".87" height=".39"/></g><path d="M44.35,34.7v12.97h4.85v-8.39c0-2.51-2.18-4.57-4.85-4.58Z"/><path class="cls-22" d="M49.9,47.67h-1.4v-8.39c0-2.16-1.87-3.92-4.16-3.92s-4.16,1.76-4.16,3.92v8.39h-1.4v-8.39c0-2.89,2.5-5.24,5.57-5.24s5.57,2.35,5.57,5.24v8.39Z"/><path class="cls-19" d="M44.35,34.04v1.32c2.29,0,4.15,1.76,4.15,3.92v8.39h1.4v-8.39c0-2.88-2.49-5.23-5.55-5.24Z"/></g><g><rect class="cls-19" x="38.46" y="43.83" width="2.06" height=".48"/><rect class="cls-19" x="38.77" y="44.31" width="1.4" height=".51"/><polygon class="cls-1" points="40.53 43.83 38.46 44.31 38.46 43.83 40.53 43.83"/><polygon class="cls-1" points="40.17 44.31 38.77 44.31 38.77 44.82 40.17 44.31"/></g><g><rect class="cls-19" x="48.14" y="43.83" width="2.06" height=".48" transform="translate(98.34 88.14) rotate(180)"/><rect class="cls-19" x="48.5" y="44.31" width="1.4" height=".51" transform="translate(98.4 89.13) rotate(180)"/><polygon class="cls-29" points="48.14 43.83 50.2 44.31 50.2 43.83 48.14 43.83"/><polygon class="cls-29" points="48.5 44.31 49.9 44.31 49.9 44.82 48.5 44.31"/></g></g><rect class="cls-23" x="12.04" y="47.72" width="63.8" height="4.89"/><rect class="cls-26" x="6.73" y="52.54" width="74.41" height="4.85"/><rect class="cls-23" x=".01" y="57.35" width="87.85" height="4.42"/><rect class="cls-24" x="44.28" y="47.72" width="32.42" height="4.89"/><rect class="cls-13" x="44.28" y="52.54" width="37.73" height="4.85"/><rect class="cls-24" x="44.28" y="57.35" width="44.45" height="4.42"/><rect class="cls-22" x="6.73" y="52.31" width="75.29" height=".46"/><rect class="cls-22" x="12" y="47.76" width="64.66" height=".46"/><rect class="cls-22" x="0" y="56.98" width="88.74" height=".46"/><rect class="cls-4" x="37.84" y="47.68" width="13.08" height="14.17"/><rect class="cls-21" x="44.39" y="47.68" width="6.52" height="14.17"/><rect class="cls-22" x="26.43" y="47.68" width="11.4" height="14.17"/><rect class="cls-4" x="26.39" y="47.68" width=".58" height="14.17"/><rect class="cls-30" x="50.96" y="47.68" width="11.4" height="14.17"/><rect class="cls-4" x="61.79" y="47.68" width=".58" height="14.17"/><g><rect class="cls-4" x="37.82" y="45.93" width=".63" height="1.85"/><g><rect class="cls-4" x="41.13" y="45.95" width=".46" height="1.85"/><rect class="cls-4" x="44.15" y="45.95" width=".46" height="1.85"/><rect class="cls-4" x="47.36" y="45.95" width=".46" height="1.85"/></g><rect class="cls-4" x="50.31" y="45.93" width=".63" height="1.85"/><rect class="cls-4" x="44.21" y="40.12" width=".58" height="12.79" transform="translate(-2.02 91.01) rotate(-90)"/></g><g><rect class="cls-22" x="6.74" y="50.57" width=".63" height="1.85"/><g><rect class="cls-22" x="9.19" y="50.58" width=".46" height="1.85"/><rect class="cls-22" x="12" y="50.58" width=".46" height="1.85"/><rect class="cls-22" x="14.88" y="50.58" width=".46" height="1.85"/><rect class="cls-22" x="17.7" y="50.58" width=".46" height="1.85"/><rect class="cls-22" x="20.52" y="50.58" width=".46" height="1.85"/><rect class="cls-22" x="23.44" y="50.58" width=".46" height="1.85"/></g><rect class="cls-22" x="25.76" y="50.57" width=".63" height="1.85"/><rect class="cls-22" x="16.1" y="41.78" width=".58" height="18.73" transform="translate(-34.76 67.53) rotate(-90)"/></g><g><rect class="cls-22" y="55.15" width=".63" height="1.85"/><g><rect class="cls-22" x="8.87" y="55.17" width=".46" height="1.85"/><rect class="cls-22" x="11.68" y="55.17" width=".46" height="1.85"/><rect class="cls-22" x="3.12" y="55.17" width=".46" height="1.85"/><rect class="cls-22" x="6.04" y="55.17" width=".46" height="1.85"/><rect class="cls-22" x="14.56" y="55.17" width=".46" height="1.85"/><rect class="cls-22" x="17.37" y="55.17" width=".46" height="1.85"/><rect class="cls-22" x="20.19" y="55.17" width=".46" height="1.85"/><rect class="cls-22" x="23.12" y="55.17" width=".46" height="1.85"/></g><rect class="cls-22" x="25.76" y="55.15" width=".63" height="1.85"/><rect class="cls-22" x="12.81" y="43.07" width=".58" height="25.32" transform="translate(-42.64 68.83) rotate(-90)"/></g><g><rect class="cls-22" x="12.04" y="45.91" width=".63" height="1.85"/><g><rect class="cls-22" x="14.69" y="45.93" width=".46" height="1.85"/><rect class="cls-22" x="17.5" y="45.93" width=".46" height="1.85"/><rect class="cls-22" x="20.38" y="45.93" width=".46" height="1.85"/><rect class="cls-22" x="23.31" y="45.93" width=".46" height="1.85"/></g><rect class="cls-22" x="25.72" y="45.91" width=".63" height="1.85"/><rect class="cls-22" x="18.83" y="39.68" width=".58" height="13.61" transform="translate(-27.37 65.62) rotate(-90)"/></g><g><rect class="cls-22" x="81.38" y="50.73" width=".63" height="1.85" transform="translate(163.39 103.32) rotate(180)"/><g><rect class="cls-22" x="79.1" y="50.75" width=".46" height="1.85" transform="translate(158.65 103.35) rotate(180)"/><rect class="cls-22" x="76.29" y="50.75" width=".46" height="1.85" transform="translate(153.03 103.35) rotate(180)"/><rect class="cls-22" x="73.41" y="50.75" width=".46" height="1.85" transform="translate(147.28 103.35) rotate(180)"/><rect class="cls-22" x="70.59" y="50.75" width=".46" height="1.85" transform="translate(141.64 103.35) rotate(180)"/><rect class="cls-22" x="67.77" y="50.75" width=".46" height="1.85" transform="translate(136 103.35) rotate(180)"/><rect class="cls-22" x="64.84" y="50.75" width=".46" height="1.85" transform="translate(130.15 103.35) rotate(180)"/></g><rect class="cls-22" x="62.37" y="50.73" width=".63" height="1.85" transform="translate(125.36 103.32) rotate(180)"/><rect class="cls-22" x="72.07" y="41.95" width=".58" height="18.73" transform="translate(21.05 123.67) rotate(-90)"/></g><g><rect class="cls-22" x="88.12" y="55.32" width=".63" height="1.85" transform="translate(176.87 112.5) rotate(180)"/><g><rect class="cls-22" x="79.42" y="55.34" width=".46" height="1.85" transform="translate(159.3 112.53) rotate(180)"/><rect class="cls-22" x="76.61" y="55.34" width=".46" height="1.85" transform="translate(153.68 112.53) rotate(180)"/><rect class="cls-22" x="85.17" y="55.34" width=".46" height="1.85" transform="translate(170.79 112.53) rotate(180)"/><rect class="cls-22" x="82.25" y="55.34" width=".46" height="1.85" transform="translate(164.96 112.53) rotate(180)"/><rect class="cls-22" x="73.73" y="55.34" width=".46" height="1.85" transform="translate(147.93 112.53) rotate(180)"/><rect class="cls-22" x="70.91" y="55.34" width=".46" height="1.85" transform="translate(142.29 112.53) rotate(180)"/><rect class="cls-22" x="68.1" y="55.34" width=".46" height="1.85" transform="translate(136.65 112.53) rotate(180)"/><rect class="cls-22" x="65.17" y="55.34" width=".46" height="1.85" transform="translate(130.8 112.53) rotate(180)"/></g><rect class="cls-22" x="62.37" y="55.32" width=".63" height="1.85" transform="translate(125.36 112.5) rotate(180)"/><rect class="cls-22" x="75.36" y="43.24" width=".58" height="25.32" transform="translate(19.75 131.55) rotate(-90)"/></g><g><rect class="cls-22" x="76.07" y="46.08" width=".63" height="1.85" transform="translate(152.77 94.01) rotate(180)"/><g><rect class="cls-22" x="73.58" y="46.1" width=".46" height="1.85" transform="translate(147.63 94.04) rotate(180)"/><rect class="cls-22" x="70.77" y="46.1" width=".46" height="1.85" transform="translate(142.01 94.04) rotate(180)"/><rect class="cls-22" x="67.9" y="46.1" width=".46" height="1.85" transform="translate(136.25 94.04) rotate(180)"/><rect class="cls-22" x="64.97" y="46.1" width=".46" height="1.85" transform="translate(130.4 94.04) rotate(180)"/></g><rect class="cls-22" x="62.4" y="46.08" width=".63" height="1.85" transform="translate(125.42 94.01) rotate(180)"/><rect class="cls-22" x="69.32" y="39.85" width=".58" height="13.61" transform="translate(22.95 116.27) rotate(-90)"/></g><path class="cls-8" d="M47.56,55.03c0,1.65-1.34,2.98-2.98,2.98s-2.98-1.34-2.98-2.98,1.34-2.98,2.98-2.98,2.98,1.34,2.98,2.98Z"/><path class="cls-2" d="M44.57,52.04c-.06,0-.12,0-.18,0v5.95c.06,0,.12,0,.18,0,1.65,0,2.98-1.34,2.98-2.98s-1.34-2.98-2.98-2.98Z"/></g></g></svg>