<?xml version="1.0" encoding="UTF-8"?><svg id="_이어_2" xmlns="http://www.w3.org/2000/svg" viewBox="0 0 27.27 50.03"><defs><style>.cls-1{fill:#a10136;}</style></defs><g id="_도"><path id="thailand" class="cls-1" d="M16.62,28.77l.07,.2-.25-.03-.17-.12-.09-.21v-.27l.18,.11,.14,.15,.11,.18Zm.45,1.27v.08l.15,.17,.05-.35-.12,.05-.08,.05Zm.64-1.5l-.02-.27,.07-.57v-.22l-.15-.23-.4-.36-.17-.21-.11-.28-.07-.65-.06-.32-.4-.97-.06-.45,.2-.44,.1-.04,.35-.06,.12-.04,.03-.05v-.15l.06-.08,.21-.23,.98-1.31,.49-.44,.58-.3,.73-.15h.46l.93,.1,.48,.02,2.13-.24,.59,.1,.25,.23,.23,.27,.24,.07,.29-.36,.86-.58,.21-.8-.06-.93,.05-.96,.16-.37,.19-.33,.09-.34-.13-.4-.14-.14-.4-.24-.16-.15-.07-.15v-.24l-.14-.18-.21-.15-.49-.23-.22-.16-.35-.42-.31-.44-.22-.54-.08-.57,.02-.59,.06-.59v-.7l-.19-.46-.36-.37-.52-.45-.37-.45-.61-1.01-.36-.43-.41-.25-.65-.27-.69-.17-.53,.03-.18,.12-.05,.12v.16l-.17,.13-.17,.11-.16,.14-.13,.2h0l-.14,.32-.3,.23-.37,.15-.35,.1-.09,.06-.07,.1-.05,.1-.05,.04-.11-.05-.05-.09-.02-.09-.03-.05-.24-.14-.59-.45-.28-.18-.35-.18-.15-.02-.14,.1-.72,.39-2.12,1.72-.58,.2-.39-.39,.05-.32,.6-1.18,.05-.31v-.25l-.06-.23-.05-.49-.02-.11v-.12l.05-.23,.1-.3,.28-.61,.1-.32,.03-.5-.02-.73-.09-.71-.15-.43-.5-.21-.55,.14-.55,.2-.52-.05-.41-.47,.08-.55,.23-.59,.04-.6-.11-.18-.22-.25-.25-.23-.18-.1-.15,.06-.44,.38,.03-.21L8.52,0h-.52l-.54,.09h-.62l.17,.65-.44,.21-.65,.06-.49,.18-.2,.34-.05,.23-.09,.17-.32,.18-.36,.13-.42,.11-.43,.07h-.39l-.17-.04-.44-.18-.12-.03-.21,.05-.03,.06v.1l-.52,.61-.14,.42-.11,.98-.07,.2-.18,.36-.06,.21,.02,.24,.14,.57-.03,.23-.22,.2-.34,.13-.38,.05-.31-.05,.17,.36,.23,.2,.24,.13,.2,.16,.19,.4,.03,.44v.43l.03,.38,.46,.78,1.41,1.35,.55,.71,.15,.38,.21,.81,.15,.4,.3,.52,.14-.02,.15-.17,.33,.09,.13,.3-.22,.3-.56,.43-.25,.45-.08,.47-.05,1.05-.09,.41-.12,.13-.22,.07-.39,.23-.29,.29-.12,.31,.03,.37,.15,.46,.47,.83,1.91,2.01,.48,.85,.13,.81-.05,1.71,.11,.43,.22,.36,.26,.34,.23,.35,.15,.38,.51,1.81,.05,.34-.06,.31-.18,.4-1.07,1.77-.34,.36-.83,.75-.26,.39-.07,.34-.05,.85-.05,.39-1.22,3.62-.34,2.11,.58,.99,.23-.11,.13-.24,.18-.14,.38,.19,.14,.16,.22,.42,.12,.18,.16,.13,.39,.23,.17,.15,.02,.09-.05,.25,.03,.11,.07,.05,.08,.03,.07,.02,.04,.02,.09,.08,.29,.22,.12,.13,.34,.7,.25,.19,.45-.1-.12,.28,.04,.15,.11,.1,.09,.14h.04l.09,.05,.1,.06,.05,.05v.15l-.08,.34v.15l.26,.37,1.14,1.2,.13-.58,.12-.14,.26-.03,.64,.5,.21,.12,.17,.02h.5l.12,.14,.11,.3,.09,.11,.15,.06,.39,.1,.12,.06,.19,.38-.07,.34-.16,.33-.08,.35,.25,.53,.52-.17,.62-.41,.55-.19,.23,.12,.11,.18,.15,.11,.35-.09,.26-.24,.27-.42,.22-.45,.13-.35-.8-.61-.24-.23-.22-.31-.2-.35-.23-.33-.3-.25-.6-.17h-1.14l-.63-.3-1.03-.64-.44-.37-.38-.56-.15-.64,.21-.2,.23,.16-.09,.45,.34,.11,.23,.71,.3,.26-.75-3.38-.51-.89-.02,.08-.09,.19-.39-.75-.2-.95-.25-.83-.54-.42-.41,.06-.38,.16-.36,.07-.34-.21v-.66l-.07-.22-.19-.43-.06-.23-.04-.7,.06-.73,.15-.7,.23-.61,.58-1.14,.15-.41,.4-1.45,1.05-2.1,.18-.75v-.4l-.09-.78,.03-.39,.07-.21,.2-.42,.05-.21-.02-.15-.1-.31-.02-.13,.02-.38,.08-.27,.22-.2,.44-.17,.37-.08,.35-.04h.33l.28,.02,.69,.23,.24,.43-.04,.6-.19,1.18v.25l.15,.14,.32,.11,.31,.05,.41,.03h.77l.76-.1,.3,.05,.4,.19,.56,.35,.24,.21,.23,.27,.1-.21,.2,.35,.33,.37,.34,.17,.24-.25,.34,.4,.51,.88,.27,.4-.53-.96-.12-.33Zm-9.19,8.51l.39-.09v.19l-.22,.3-.19-.14,.02-.27Zm.32-.5l.09,.04-.06-.25-.07-.06h-.17l.06,.13,.07,.09,.08,.05Zm-5.84,2.17l-.09,.06,.03-.11v-.09l.04-.07,.09-.06,.04,.15-.03,.07-.08,.04Zm1.07,3.62l-.07,.2-.17-.64,.16,.12,.08,.15v.17Zm-1.01,.67l-.1-.38v-.12l.05-.41,.05-.2,.07-.19,.25,.28,.08,.39-.11,.38-.31,.25Zm2.59,.96l-.05-.06-.09-.15v-.22l.02-.07,.12,.26,.04,.13,.03,.15-.07-.05Zm1.99,2.76l.03,.18-.04,.16-.13,.13-.12-.27,.03-.1,.12-.29,.1,.19Z"/></g></svg>