<svg xmlns="http://www.w3.org/2000/svg" width="145.948" height="30" viewBox="0 0 145.948 30">
  <g id="Layer_2" data-name="Layer 2" transform="translate(0.48)">
    <g id="invisible_box" data-name="invisible box">
      <rect id="사각형_23" data-name="사각형 23" width="30" height="30" transform="translate(-0.48)" fill="none"/>
    </g>
    <g id="Q3_icons" data-name="Q3 icons" transform="translate(-15.992 9.527)">
      <path id="패스_11" data-name="패스 11" d="M134.974,22.965l5.631-5.678a.9.9,0,0,0,0-1.325l-5.631-5.678a.994.994,0,0,0-1.278-.095.9.9,0,0,0-.095,1.42l4.069,4.069H-.054A.946.946,0,0,0-1,16.625a.946.946,0,0,0,.946.946H137.671L133.6,21.64a.9.9,0,0,0,.095,1.42.994.994,0,0,0,1.278-.095Z" transform="translate(20.563 -11.152)" fill="#ae0c1e"/>
    </g>
  </g>
</svg>
