<?xml version="1.0" encoding="UTF-8"?><svg id="_레이어_2" xmlns="http://www.w3.org/2000/svg" viewBox="0 0 176.31 176.32"><defs><style>.cls-1{fill:#fff;}</style></defs><g id="_레이어_1-2"><g><g><path class="cls-1" d="M131.07,63.83c-4.1-.9-8.18-1.94-12.56-2.99l-3.73-.98c-3.82-.78-7.6-1.73-10.64-2.45,1.09-4.03,2.56-7.54,2.87-11.15,.32-3.68-2.88-5.83-6.53-5.23-.67,.11-1.62,.35-2.02,.02-2.65-2.18-5.45-1.78-8.41-.56v-6.23h3.64v-2.73h-3.64v-3.43h-2.73v3.43h-3.54v2.73h3.54v6.24c-3.01-1.27-5.78-1.58-8.44,.5-.43,.33-1.36,.11-2.04,.02-3.5-.48-6.25,1.28-6.49,4.78-.15,2.14,.45,4.42,1.11,6.51,.52,1.65,1.64,3.1,2.63,4.88-3.41,.83-6.58,1.48-9.68,2.39l-5.4,1.2c-4.55,1.1-8.63,2.15-12.74,3.04-1.63,.35-2.22,1.12-2.19,2.77,.17,11.74,.97,23.4,4.05,34.81,5.66,20.97,18.19,36.11,38.17,44.9,1.24,.55,3.1,.74,4.29,.22,16.38-7.06,28.37-18.59,35.25-35.16,5.99-14.43,7.36-29.63,7.37-45.05,0-1.62-.68-2.17-2.13-2.49Zm-32.59-12.26c.67-2.01,1.08-4.11,1.66-6.15,.22-.76,.66-2.12,.9-2.1,1.06,.09,2.57,.29,3.02,1.01,.69,1.11,1.06,2.76,.81,4.03-.38,1.87-1.22,3.73-2.22,5.39-1.88,3.13-2.32,3.16-6.04,1.61,.64-1.26,1.43-2.46,1.87-3.78Zm-4.17-9.93c2.28,.07,4.06,1.68,3.53,4.08-.64,2.89-1.97,5.68-3.37,8.32-.28,.54-2.22,.45-3.3,.22-.42-.09-.87-.69-1.13-1.28v-8.68c.57-1.71,2.13-2.73,4.27-2.67Zm-11.12,.02c2.03,0,3.51,.92,4.13,2.49v9.58c-.26,.37-.7,.64-1.43,.77-1.49,.27-2.89,.67-3.62-1.15-.98-2.47-2.28-4.89-2.77-7.46-.49-2.53,1.32-4.22,3.69-4.22Zm-10.72,4.83c-.28-1.78,.97-3.32,3.09-3.3,.58,0,1.5,.68,1.65,1.21,1.02,3.65,1.87,7.34,2.8,11.16-2.71,1.4-3.49,1.42-5.1-1.57-1.24-2.29-2.04-4.93-2.44-7.5Zm51.15,66.68c-6.93,15.13-18.42,25.56-33.52,32.18-.89,.39-2.3,.21-3.25-.21-21.7-9.55-34.08-26.5-38.65-49.36-1-5-1.59-10.08-2.2-15.17l-.35-6.53c0-2.78-1-6.25,.3-8.15,1.17-1.7,4.84-1.75,7.45-2.38,11.04-2.67,22.09-5.31,33.16-7.87,1.34-.31,2.88-.31,4.22,0,12.91,2.99,25.8,6.08,38.7,9.13,1.35,.32,2.55,.5,2.51,2.45-.33,15.75-1.69,31.31-8.36,45.9Z"/><path class="cls-1" d="M128.02,66.04c-12.38-2.88-24.74-5.89-37.13-8.77-1.35-.31-2.9-.35-4.24-.04-12.47,2.89-24.92,5.93-37.39,8.82-1.77,.41-2.28,1.21-2.24,2.95,.18,10.39,1.08,20.68,3.67,30.78,5.09,19.85,16.58,34.52,35.29,43.26,1.3,.6,3.27,.91,4.48,.37,15.98-7.14,27.3-18.78,33.53-35.23,4.04-10.66,5.59-21.76,6.33-33.06,0-2.07-.13-4.15,.04-6.21,.15-1.86-.64-2.47-2.34-2.87Zm-.34,5.62c-.2,1.59-.04,3.23-.04,4.85-.99,12.65-2.99,25.03-8.65,36.56-6.25,12.71-16.07,21.74-28.86,27.61-.94,.43-2.48,.21-3.47-.26-18.08-8.55-29.23-22.86-33.47-42.17-1.96-8.9-2.29-18.15-3.42-27.23-.23-1.84,.6-2.49,2.29-2.88,11.75-2.74,23.48-5.58,35.24-8.32,1-.23,2.16-.14,3.17,.09,11.49,2.69,22.94,5.5,34.44,8.12,2.21,.5,3.05,1.39,2.78,3.63Z"/></g><g><path class="cls-1" d="M88.16,176.32C39.55,176.32,0,136.77,0,88.16S39.55,0,88.16,0s88.16,39.55,88.16,88.16-39.55,88.16-88.16,88.16ZM88.16,1.08C40.14,1.08,1.08,40.14,1.08,88.16s39.06,87.08,87.08,87.08,87.08-39.06,87.08-87.08S136.17,1.08,88.16,1.08Z"/><path class="cls-1" d="M88.16,154.31c-36.48,0-66.16-29.68-66.16-66.16S51.68,22,88.16,22s66.16,29.68,66.16,66.16-29.68,66.16-66.16,66.16Zm0-131.24c-35.88,0-65.08,29.2-65.08,65.08s29.2,65.08,65.08,65.08,65.08-29.2,65.08-65.08S124.04,23.08,88.16,23.08Z"/><g><path class="cls-1" d="M18.23,88.98l-14.38-.88,.11-1.76,11.71-6.11-11.29-.69,.1-1.64,14.38,.88-.11,1.76-11.72,6.11,11.3,.69-.1,1.64Z"/><path class="cls-1" d="M19.18,76.84l-14.03-3.27,2.13-9.13,1.66,.39-1.74,7.46,4.3,1,1.63-6.99,1.65,.38-1.63,6.99,4.78,1.11,1.81-7.75,1.66,.39-2.19,9.42Z"/><path class="cls-1" d="M21.34,67.26l-5.04-7.49-8.06,1.47,.77-1.89,4.31-.77c.9-.16,1.57-.26,2.03-.3-.38-.47-.75-.99-1.13-1.57l-2.55-3.87,.71-1.73,4.55,6.79,8.91-1.65-.81,1.96-6,1.07c-.34,.06-.71,.11-1.11,.16,.38,.47,.63,.79,.77,.98l3.41,4.92-.78,1.91Z"/><path class="cls-1" d="M27.96,52.95l-10.89-6.55-2.2,3.66-1.46-.88,5.3-8.81,1.46,.88-2.21,3.68,10.89,6.55-.88,1.47Z"/><path class="cls-1" d="M36.79,33.65l1.53-.91c.89,1.34,1.31,2.63,1.26,3.87-.05,1.24-.54,2.36-1.47,3.34-.96,1.01-1.97,1.62-3.04,1.82-1.06,.2-2.18,.05-3.37-.44-1.18-.49-2.28-1.22-3.27-2.16-1.09-1.03-1.86-2.12-2.31-3.26-.45-1.14-.56-2.26-.33-3.35,.24-1.09,.75-2.05,1.54-2.88,.89-.94,1.91-1.48,3.05-1.62,1.14-.14,2.31,.13,3.52,.79l-.84,1.53c-.97-.5-1.82-.71-2.56-.63-.74,.09-1.41,.44-2.01,1.07-.69,.72-1.07,1.51-1.14,2.36-.08,.85,.12,1.68,.58,2.5,.46,.81,1.04,1.55,1.73,2.2,.89,.84,1.77,1.46,2.66,1.86,.88,.4,1.72,.5,2.52,.32,.79-.18,1.46-.56,2.01-1.13,.66-.7,1-1.5,1.01-2.41,.01-.91-.34-1.86-1.06-2.87Z"/><path class="cls-1" d="M42.56,35.15l-8.59-11.57,1.38-1.02,3.53,4.75,5.41-4.02-3.53-4.75,1.38-1.02,8.59,11.57-1.38,1.02-4.05-5.45-5.41,4.02,4.05,5.45-1.38,1.02Z"/><path class="cls-1" d="M51.11,28.75l-2.1-15.1,1.65-.84,11.27,10.43-1.74,.89-3.33-3.2-4.83,2.46,.71,4.53-1.62,.83Zm.65-6.97l3.92-1.99-3.02-2.94c-.92-.89-1.64-1.64-2.17-2.25,.27,.9,.48,1.82,.63,2.77l.65,4.41Z"/><path class="cls-1" d="M62.37,23.24l-4.59-13.66,1.63-.55,4.05,12.05,6.05-2.03,.54,1.61-7.68,2.58Z"/><path class="cls-1" d="M71.17,20.42l-2.74-14.14,1.68-.33,2.42,12.47,6.27-1.22,.33,1.67-7.95,1.54Z"/><path class="cls-1" d="M80.34,18.71l-.68-14.39,9.36-.44,.08,1.7-7.65,.36,.21,4.41,7.17-.34,.08,1.69-7.17,.34,.23,4.9,7.95-.38,.08,1.7-9.67,.46Z"/><path class="cls-1" d="M91.41,18.3l1.72-14.3,1.75,.21,5.41,12.04,1.35-11.23,1.63,.2-1.72,14.3-1.75-.21-5.41-12.05-1.35,11.24-1.63-.2Z"/><path class="cls-1" d="M110.86,16.26l.5-1.61,5.25,1.62-1.59,5.11c-1.03,.46-2.02,.74-2.99,.84-.97,.09-1.9,0-2.8-.28-1.22-.38-2.23-1.01-3.05-1.9-.82-.89-1.3-1.96-1.47-3.21-.17-1.25-.04-2.56,.38-3.91,.42-1.34,1.05-2.51,1.92-3.52,.86-1,1.86-1.64,2.98-1.91,1.12-.27,2.3-.21,3.53,.17,.9,.28,1.66,.69,2.28,1.24,.62,.55,1.05,1.17,1.28,1.88,.23,.7,.31,1.55,.24,2.54h-1.62c.03-.77-.03-1.39-.18-1.88-.15-.49-.45-.93-.88-1.33-.44-.4-.97-.7-1.59-.89-.75-.23-1.44-.31-2.06-.22-.62,.08-1.17,.28-1.63,.59-.46,.31-.86,.68-1.2,1.12-.58,.75-1.02,1.63-1.33,2.62-.38,1.23-.51,2.31-.38,3.25,.12,.94,.49,1.73,1.09,2.35,.6,.63,1.31,1.07,2.13,1.32,.71,.22,1.45,.28,2.22,.19,.77-.09,1.38-.26,1.84-.49l.8-2.56-3.64-1.13Z"/><path class="cls-1" d="M115.86,23.99l6.58-12.81,8.34,4.28-.78,1.51-6.81-3.5-2.02,3.92,6.38,3.28-.77,1.5-6.38-3.28-2.24,4.36,7.08,3.64-.78,1.51-8.61-4.42Z"/><path class="cls-1" d="M131.89,27.79l1.34,.92c-.4,.6-.65,1.17-.73,1.7-.08,.53,.01,1.1,.28,1.7,.27,.6,.69,1.13,1.25,1.6,.5,.42,1.01,.71,1.54,.86,.52,.16,1,.17,1.43,.04,.43-.13,.79-.37,1.07-.71,.29-.35,.45-.73,.49-1.14,.04-.41-.08-.88-.35-1.4-.17-.34-.61-1.01-1.32-2.02-.71-1.01-1.16-1.77-1.34-2.3-.24-.67-.31-1.31-.2-1.92,.11-.6,.38-1.16,.8-1.67,.47-.56,1.05-.96,1.74-1.21,.69-.25,1.42-.27,2.17-.06,.76,.21,1.47,.59,2.14,1.15,.74,.62,1.28,1.29,1.62,2.03,.34,.73,.45,1.48,.32,2.25-.13,.77-.45,1.48-.97,2.15l-1.35-.95c.52-.75,.73-1.47,.64-2.16-.09-.68-.52-1.35-1.29-1.99-.79-.67-1.51-.99-2.15-.97-.63,.02-1.14,.26-1.53,.72-.33,.4-.48,.83-.43,1.3,.04,.47,.48,1.28,1.32,2.45,.84,1.16,1.38,2.01,1.61,2.55,.33,.78,.44,1.51,.34,2.2-.11,.68-.41,1.32-.9,1.92-.49,.59-1.11,1.02-1.85,1.28-.74,.27-1.51,.31-2.32,.12-.81-.19-1.57-.58-2.28-1.17-.9-.75-1.53-1.53-1.9-2.33-.36-.8-.47-1.64-.33-2.51,.14-.87,.52-1.69,1.12-2.44Z"/><path class="cls-1" d="M147.7,42.7l.75,1.62c-1.42,.74-2.75,1.03-3.98,.85-1.23-.18-2.29-.78-3.16-1.8-.91-1.06-1.41-2.13-1.5-3.21-.09-1.08,.17-2.18,.79-3.31,.61-1.13,1.44-2.14,2.49-3.03,1.14-.98,2.3-1.63,3.49-1.96,1.18-.34,2.31-.33,3.37,.02,1.06,.35,1.96,.95,2.71,1.82,.84,.99,1.27,2.05,1.29,3.2,.02,1.15-.37,2.29-1.15,3.42l-1.43-1c.6-.91,.9-1.74,.89-2.48,0-.75-.29-1.45-.86-2.11-.65-.76-1.39-1.22-2.23-1.38-.84-.16-1.68-.06-2.54,.32-.86,.38-1.64,.87-2.37,1.49-.93,.8-1.64,1.61-2.12,2.45-.49,.84-.68,1.66-.58,2.47,.1,.81,.4,1.51,.92,2.11,.62,.73,1.39,1.15,2.29,1.25,.9,.11,1.89-.14,2.96-.75Z"/><path class="cls-1" d="M145.62,48.29l12.4-7.34,.87,1.48-5.09,3.01,3.43,5.8,5.09-3.01,.87,1.48-12.4,7.34-.87-1.48,5.84-3.46-3.43-5.8-5.84,3.46-.87-1.48Z"/><path class="cls-1" d="M158.05,55.81c2.24-.82,4.2-.93,5.87-.31,1.67,.62,2.82,1.78,3.45,3.5,.41,1.12,.49,2.25,.22,3.37-.26,1.12-.84,2.11-1.74,2.98-.89,.87-2.02,1.55-3.37,2.04-1.37,.5-2.69,.71-3.95,.61-1.27-.1-2.34-.5-3.24-1.21-.89-.71-1.53-1.59-1.92-2.65-.42-1.15-.49-2.28-.21-3.41,.28-1.13,.87-2.12,1.76-2.98,.89-.86,1.93-1.5,3.12-1.94Zm.58,1.67c-1.63,.6-2.77,1.47-3.42,2.6-.65,1.13-.75,2.29-.32,3.48,.45,1.21,1.29,2.04,2.52,2.47,1.24,.44,2.72,.33,4.46-.31,1.1-.41,2-.93,2.7-1.56,.7-.64,1.15-1.36,1.37-2.17,.21-.81,.17-1.62-.12-2.42-.42-1.14-1.22-1.96-2.39-2.46-1.17-.5-2.78-.38-4.81,.37Z"/><path class="cls-1" d="M162.83,69.35c2.36-.4,4.3-.13,5.83,.78,1.52,.92,2.44,2.28,2.74,4.08,.2,1.18,.06,2.3-.41,3.35-.47,1.05-1.22,1.92-2.26,2.61-1.04,.68-2.27,1.15-3.69,1.38-1.44,.24-2.77,.2-4-.14-1.23-.33-2.21-.93-2.96-1.79-.74-.86-1.21-1.85-1.4-2.96-.2-1.2-.06-2.33,.43-3.39,.49-1.06,1.25-1.92,2.29-2.6,1.04-.68,2.18-1.12,3.43-1.33Zm.26,1.75c-1.71,.29-2.99,.93-3.84,1.92-.85,.99-1.17,2.12-.96,3.37,.21,1.27,.89,2.24,2.02,2.89,1.13,.66,2.61,.83,4.44,.53,1.16-.19,2.14-.54,2.94-1.04,.8-.5,1.39-1.12,1.75-1.88,.36-.76,.47-1.56,.33-2.4-.2-1.2-.83-2.15-1.89-2.86-1.06-.71-2.66-.89-4.8-.53Z"/><path class="cls-1" d="M157.87,83.99l14.41-.11v1.71s-12.69,.1-12.69,.1l.05,6.39h-1.7s-.06-8.09-.06-8.09Z"/><circle class="cls-1" cx="12.86" cy="105.22" r="2.58"/></g><g><path class="cls-1" d="M31.89,150.32l9.09-11.17,8.29,6.74-1.54,1.89-6.03-4.91-2.02,2.48,5.61,4.57-1.53,1.88-5.61-4.56-2.48,3.04,6.24,5.08-1.53,1.88-8.5-6.92Z"/><path class="cls-1" d="M49.71,157.63l2.68,.95c-.25,.93-.23,1.71,.05,2.34,.28,.62,.83,1.12,1.63,1.5,.85,.4,1.57,.52,2.17,.36,.6-.16,1.01-.48,1.23-.96,.14-.31,.18-.61,.1-.91-.08-.3-.31-.64-.69-1.01-.26-.25-.87-.77-1.85-1.55-1.25-1.01-2.04-1.9-2.37-2.68-.47-1.09-.46-2.16,.02-3.19,.31-.66,.79-1.2,1.44-1.6,.65-.4,1.4-.59,2.25-.56,.85,.03,1.78,.28,2.78,.74,1.64,.76,2.7,1.7,3.2,2.8,.49,1.1,.48,2.27-.04,3.48l-2.69-1.11c.2-.72,.18-1.32-.05-1.79-.23-.47-.72-.88-1.46-1.22-.77-.36-1.44-.48-2.02-.37-.37,.07-.64,.28-.8,.62-.14,.31-.14,.63,.02,.98,.2,.43,.87,1.1,2.02,2,1.14,.9,1.94,1.66,2.41,2.27,.46,.61,.74,1.28,.82,2,.09,.72-.06,1.5-.45,2.32-.35,.75-.88,1.35-1.6,1.81-.72,.46-1.53,.67-2.44,.63-.91-.04-1.93-.32-3.06-.85-1.65-.77-2.74-1.74-3.27-2.92-.53-1.17-.54-2.53-.03-4.07Z"/><path class="cls-1" d="M70.4,170.26l2.39-11.73-4.19-.85,.49-2.39,11.22,2.28-.49,2.39-4.18-.85-2.39,11.73-2.85-.58Z"/><path class="cls-1" d="M77.37,171.49l.32-2.74,2.74,.32-.32,2.74-2.74-.32Z"/><path class="cls-1" d="M104.45,168.19l.36,2.54-10.55,1.47c-.02-.98,.2-1.93,.65-2.87,.45-.94,1.42-2.24,2.91-3.89,1.2-1.34,1.92-2.23,2.17-2.68,.33-.62,.46-1.21,.39-1.76-.09-.61-.33-1.05-.74-1.33-.41-.28-.93-.37-1.56-.28-.63,.09-1.1,.33-1.43,.72-.32,.4-.46,1-.4,1.8l-3.04,.15c-.03-1.53,.38-2.69,1.23-3.48,.85-.79,1.98-1.28,3.4-1.48,1.55-.22,2.82,0,3.81,.63,.99,.63,1.57,1.52,1.72,2.65,.09,.64,.05,1.27-.12,1.89-.17,.62-.49,1.28-.95,1.99-.31,.47-.88,1.17-1.72,2.09-.84,.92-1.37,1.54-1.58,1.83-.22,.29-.39,.58-.51,.84l5.97-.83Z"/><path class="cls-1" d="M113.35,153.02c1.43-.56,2.73-.54,3.9,.07,1.39,.72,2.59,2.35,3.59,4.89,1,2.54,1.24,4.55,.71,6.04-.44,1.23-1.37,2.12-2.8,2.69-1.43,.57-2.79,.52-4.06-.14-1.27-.66-2.42-2.27-3.43-4.84-1-2.52-1.23-4.53-.7-6.02,.44-1.23,1.37-2.12,2.8-2.69Zm.84,2.13c-.34,.14-.61,.35-.8,.66-.19,.3-.26,.74-.2,1.31,.07,.74,.41,1.9,1.03,3.47,.62,1.57,1.13,2.62,1.54,3.14,.41,.52,.78,.83,1.12,.92,.34,.09,.68,.07,1.03-.07,.34-.14,.61-.36,.8-.66,.19-.3,.26-.74,.2-1.31-.06-.74-.41-1.89-1.03-3.46-.62-1.57-1.13-2.62-1.54-3.14-.41-.52-.78-.83-1.12-.92-.34-.09-.69-.07-1.03,.06Z"/><path class="cls-1" d="M138.62,152.2l1.47,2.1-8.72,6.1c-.46-.86-.71-1.81-.73-2.85-.03-1.04,.25-2.64,.82-4.79,.46-1.74,.69-2.86,.71-3.38,.02-.71-.14-1.29-.46-1.75-.35-.5-.77-.79-1.26-.85-.49-.06-1,.09-1.52,.46-.52,.36-.83,.8-.94,1.29-.11,.5,.05,1.1,.46,1.79l-2.64,1.51c-.72-1.35-.89-2.57-.49-3.65,.4-1.09,1.19-2.04,2.36-2.86,1.28-.9,2.51-1.29,3.68-1.17,1.17,.12,2.09,.64,2.74,1.57,.37,.53,.62,1.11,.75,1.74,.13,.63,.15,1.36,.06,2.21-.06,.56-.25,1.44-.58,2.65-.33,1.2-.52,1.99-.58,2.35-.06,.36-.08,.69-.07,.98l4.94-3.46Z"/><path class="cls-1" d="M144.19,145.6l1.71-2.42c.57,.38,1.13,.54,1.67,.47,.54-.07,1.01-.32,1.39-.76,.42-.47,.6-1.01,.56-1.62-.04-.61-.33-1.16-.88-1.64-.52-.46-1.07-.67-1.65-.63-.58,.04-1.06,.28-1.45,.72-.26,.29-.51,.69-.77,1.18l-1.46-1.74c.56-.6,.85-1.18,.88-1.73,.03-.55-.17-1.02-.6-1.39-.36-.32-.76-.46-1.18-.41-.43,.05-.81,.27-1.16,.66-.34,.39-.51,.83-.51,1.32,0,.49,.21,.98,.63,1.45l-2.18,1.81c-.52-.72-.85-1.4-.98-2.04-.13-.64-.07-1.32,.17-2.04,.24-.72,.65-1.41,1.23-2.06,.99-1.12,2.11-1.73,3.35-1.83,1.02-.09,1.87,.16,2.53,.76,.95,.84,1.2,2.08,.75,3.71,.74-.56,1.51-.84,2.34-.84s1.56,.29,2.21,.87c.95,.84,1.42,1.93,1.41,3.28,0,1.35-.51,2.59-1.51,3.73-.95,1.07-2.02,1.72-3.21,1.93s-2.29-.03-3.29-.72Z"/></g><circle class="cls-1" cx="162.86" cy="107.22" r="2.58"/></g><g><polygon class="cls-1" points="62.58 77.46 62.58 110.73 68.94 115.02 69.68 89.59 73.07 91.25 73.07 116.84 87.84 125.67 103.12 117.42 103.12 111.22 96.26 107.26 96.26 113.04 88.75 117.33 80.83 112.88 80.83 78.2 88.75 74.07 96.1 78.37 96.1 87.12 103.03 91.41 103.03 74.16 88.17 65.57 73.23 74.82 73.23 82.99 62.58 77.46"/><polygon class="cls-1" points="83.22 89.1 83.22 96.69 113.93 114.36 114.67 80.93 107.16 76.88 107.16 102.97 83.22 89.1"/></g></g></g></svg>