<svg xmlns="http://www.w3.org/2000/svg" width="105.141" height="120" viewBox="0 0 105.141 120">
  <g id="people_icon01" transform="translate(0.053)">
    <circle id="타원_112" data-name="타원 112" cx="31.875" cy="31.875" r="31.875" transform="translate(20.625 28.125)" fill="#ffc9d4"/>
    <g id="그룹_2451" data-name="그룹 2451">
      <path id="패스_6247" data-name="패스 6247" d="M71.737,81c-2.981,21.731-10.481,37.125-19.237,37.125C41.1,118.125,31.875,92.1,31.875,60S41.1,1.875,52.5,1.875c8.531,0,15.844,14.588,18.994,35.4" fill="none" stroke="#383a3a" stroke-width="3.75"/>
      <path id="패스_6248" data-name="패스 6248" d="M72.694,48.225c.281,3.806.431,7.744.431,11.775s-.15,7.875-.413,11.644" fill="none" stroke="#383a3a" stroke-width="3.75"/>
      <path id="패스_6249" data-name="패스 6249" d="M60.713,33.225c20.1-8.269,37.031-9.506,41.363-1.969,5.606,9.75-12.037,30.544-39.431,46.425S8.513,98.513,2.906,88.762C-1.556,81,8.681,66.3,26.794,52.612" fill="none" stroke="#383a3a" stroke-width="3.75"/>
      <path id="패스_6250" data-name="패스 6250" d="M32.287,48.338c3.131-2.119,6.431-4.2,9.9-6.187,3.469-2.006,6.919-3.825,10.313-5.475" fill="none" stroke="#383a3a" stroke-width="3.75"/>
      <path id="패스_6251" data-name="패스 6251" d="M32.25,71.644c3.131,2.138,6.469,4.219,9.938,6.225s6.919,3.825,10.313,5.475" fill="none" stroke="#383a3a" stroke-width="3.75"/>
      <path id="패스_6252" data-name="패스 6252" d="M58.013,85.631c21.281,9.281,39.544,10.987,44.081,3.112C107.7,78.975,90.056,58.2,62.662,42.319,35.269,26.456,8.531,21.487,2.906,31.256c-4.5,7.837,5.981,22.763,24.45,36.562" fill="none" stroke="#383a3a" stroke-width="3.75"/>
    </g>
    <circle id="타원_113" data-name="타원 113" cx="5.625" cy="5.625" r="5.625" transform="translate(11.25 88.125)" fill="#a10136" stroke="#383a3a" stroke-width="3.75"/>
    <circle id="타원_114" data-name="타원 114" cx="5.625" cy="5.625" r="5.625" transform="translate(91.875 65.625)" fill="#a10136" stroke="#383a3a" stroke-width="3.75"/>
    <circle id="타원_115" data-name="타원 115" cx="5.625" cy="5.625" r="5.625" transform="translate(33.75 9.375)" fill="#a10136" stroke="#383a3a" stroke-width="3.75"/>
  </g>
</svg>
