<svg xmlns="http://www.w3.org/2000/svg" width="120" height="110.268" viewBox="0 0 120 110.268">
  <g id="people_icon03" transform="translate(0.059)">
    <circle id="타원_129" data-name="타원 129" cx="44.494" cy="44.494" r="44.494" transform="translate(1.935)" fill="#ffc9d4"/>
    <g id="그룹_2482" data-name="그룹 2482">
      <g id="그룹_2480" data-name="그룹 2480">
        <path id="패스_6278" data-name="패스 6278" d="M71.577,96.726H13.542a11.616,11.616,0,0,0,11.607,11.607H83.185A11.616,11.616,0,0,1,71.577,96.726Z" fill="#a10136" stroke="#383a3a" stroke-width="3.869"/>
        <path id="패스_6279" data-name="패스 6279" d="M94.792,19.345H48.363A11.616,11.616,0,0,0,36.756,30.952V96.726H71.577a11.607,11.607,0,1,0,23.214,0V30.952H106.4V19.345Z" fill="#fff"/>
        <path id="패스_6280" data-name="패스 6280" d="M36.756,85.255V96.726H71.577a11.607,11.607,0,1,0,23.214,0V30.952H106.4V19.345H48.363A11.616,11.616,0,0,0,36.756,30.952v8.222" fill="none" stroke="#383a3a" stroke-width="3.869"/>
        <path id="패스_6281" data-name="패스 6281" d="M94.792,30.952a11.607,11.607,0,0,1,23.214,0Z" fill="#fff"/>
        <path id="패스_6282" data-name="패스 6282" d="M94.792,30.952a11.607,11.607,0,0,1,23.214,0Z" fill="#fff" stroke="#383a3a" stroke-width="3.869"/>
      </g>
      <g id="그룹_2481" data-name="그룹 2481">
        <path id="패스_6283" data-name="패스 6283" d="M53.528,80.089C56.8,55.676,32.713,42.25,32.713,42.25l-1.025-.077c4.411,5.862,3.327,10.891,3.327,10.891h-.387c-.754-14.257-12.9-16.946-12.9-16.946C10.06,33.061,2.979,21.28,2.979,21.28s-6.926,26.426,14.8,33.7l-.271.387s-3.888-.31-8.531-4.449l-.484,1.315s6.249,20.7,23.446,15.36v.387a16.511,16.511,0,0,1-12.652-.89l-.271.89S29.656,83.01,52.871,80.728l.658-.658Z" fill="#a10136" stroke="#383a3a" stroke-width="3.869"/>
        <line id="선_105" data-name="선 105" x2="41.67" y2="41.65" transform="translate(22.17 49.272)" fill="none" stroke="#383a3a" stroke-width="3.869"/>
      </g>
    </g>
  </g>
</svg>
