<svg id="people_icon02" xmlns="http://www.w3.org/2000/svg" width="113.571" height="120" viewBox="0 0 113.571 120">
  <g id="그룹_2479" data-name="그룹 2479">
    <circle id="타원_128" data-name="타원 128" cx="32.143" cy="32.143" r="32.143" transform="translate(49.286)" fill="#ffc9d4"/>
    <g id="그룹_2478" data-name="그룹 2478">
      <g id="그룹_2476" data-name="그룹 2476">
        <path id="패스_6273" data-name="패스 6273" d="M94.821,74.893,85.029,58.414s.707-3.943.793-4.693c.986-9.107-2.979-21.279-9.321-27.686A33.5,33.5,0,0,0,70.65,21.3,41.67,41.67,0,0,0,48.643,15C17.207,15,6.429,32.143,6.429,57.857c0,14.764,2.036,23.7,8.679,30.9,1.65,1.779,6.021,5.229,6.021,5.336V120H69.75v-9.686h6.964c4.221,0,7.693-1.479,8.314-5.593V82.65h7.65a4.158,4.158,0,0,0,3.75-4.307,6.584,6.584,0,0,0-1.607-3.471Z" fill="#fff"/>
        <path id="패스_6274" data-name="패스 6274" d="M69.75,120v-9.686h6.964c4.221,0,7.693-1.479,8.314-5.593V82.65h7.65a4.158,4.158,0,0,0,3.75-4.307,6.584,6.584,0,0,0-1.607-3.471L85.029,58.393s.707-3.943.793-4.693c.986-9.107-2.979-21.279-9.321-27.686a33.5,33.5,0,0,0-5.85-4.736,41.67,41.67,0,0,0-22.007-6.3C17.207,15,6.429,32.143,6.429,57.857c0,14.764,2.036,23.7,8.679,30.9,1.65,1.779,6.021,5.229,6.021,5.336V120" fill="none" stroke="#383a3a" stroke-width="4.286"/>
        <line id="선_103" data-name="선 103" x1="10.436" transform="translate(74.593 92.957)" fill="#fff" stroke="#383a3a" stroke-width="4.286"/>
      </g>
      <g id="그룹_2477" data-name="그룹 2477">
        <path id="패스_6275" data-name="패스 6275" d="M34.286,12.857V49.286H21.429V17.143Z" fill="#fff" stroke="#383a3a" stroke-width="4.286"/>
        <path id="패스_6276" data-name="패스 6276" d="M97.307,81a9.746,9.746,0,0,1-7.286,2.529L51.386,78.086a5.1,5.1,0,0,1-4.243-4.95V46.864a5.118,5.118,0,0,1,4.243-4.95l38.636-5.443A9.832,9.832,0,0,1,97.307,39l.364.386a12.24,12.24,0,0,1,3.021,7.479V73.136a12.472,12.472,0,0,1-3.021,7.479Z" fill="#a10136" stroke="#383a3a" stroke-width="4.286"/>
        <path id="패스_6277" data-name="패스 6277" d="M38.571,64.993C38.571,70.5,33.75,75,27.857,75h0c-5.893,0-10.714-4.5-10.714-10.007V54.986c0-5.507,4.821-10.007,10.714-10.007h0c5.893,0,10.714,4.5,10.714,10.007Z" fill="#fff" stroke="#383a3a" stroke-width="4.286"/>
        <rect id="사각형_10601" data-name="사각형 10601" width="17.143" height="12.857" transform="translate(38.571 53.571)" fill="#fff" stroke="#383a3a" stroke-width="4.286"/>
        <rect id="사각형_10602" data-name="사각형 10602" width="15" height="12.857" transform="translate(2.143 53.571)" fill="#fff" stroke="#383a3a" stroke-width="4.286"/>
        <line id="선_104" data-name="선 104" y2="23.571" transform="translate(55.714 48.214)" fill="none" stroke="#383a3a" stroke-width="4.286"/>
      </g>
    </g>
  </g>
</svg>
