<?xml version="1.0" encoding="UTF-8"?><svg xmlns="http://www.w3.org/2000/svg" viewBox="0 0 96.41 77.8"><defs><style>.cls-1{fill:#2a7970;}.cls-2{fill:#bcb68a;}.cls-3{fill:#9b9fb6;}.cls-4{fill:#f2a523;}.cls-5{fill:#9b860f;}.cls-6{fill:#18a9ec;}.cls-7{fill:#e2c960;}.cls-8{fill:#f9d026;}.cls-9{fill:#e2e5f1;}.cls-10{fill:#0a2031;}.cls-10,.cls-11,.cls-12,.cls-13,.cls-14,.cls-15{mix-blend-mode:multiply;}.cls-10,.cls-12{opacity:.39;}.cls-16{fill:#f5c910;}.cls-17{fill:#dae8f7;}.cls-18{fill:#a1aac7;}.cls-19{fill:#757468;}.cls-20{fill:#12589e;}.cls-11{opacity:.18;}.cls-11,.cls-21,.cls-14{fill:#041a2d;}.cls-22{isolation:isolate;}.cls-23{fill:#193577;}.cls-24{fill:#2a4a6c;}.cls-25{fill:#00c4ff;}.cls-26{fill:#154465;}.cls-27{fill:#b2ad87;}.cls-12{fill:#0f3149;}.cls-28{fill:#21b7fc;}.cls-29{fill:#c4a40a;}.cls-30{fill:#fff7e7;}.cls-31{fill:#113d64;}.cls-32{fill:#885e3d;}.cls-33{fill:#284970;}.cls-34{fill:#f3e8e7;}.cls-35{fill:#ba861e;}.cls-36{fill:#f9bc43;}.cls-37{fill:#1a5b96;}.cls-38{fill:#1b65af;}.cls-39{fill:#1c548c;}.cls-40{fill:#6c7285;}.cls-41{fill:#929076;}.cls-42{fill:#1c514b;}.cls-43{fill:#e8f1f9;}.cls-44{fill:#167aa8;}.cls-45{fill:#d2bba7;}.cls-46{fill:#32629b;}.cls-47{fill:#b28b31;}.cls-48{fill:#ccc8a3;}.cls-49{fill:#878365;}.cls-50{fill:#1c3248;}.cls-13,.cls-14{opacity:.33;}.cls-51{fill:#afad9c;}.cls-52{fill:#648393;}.cls-53{fill:#0c7397;}.cls-54{fill:#3d7dc9;}.cls-55{fill:#9799a1;}.cls-56{fill:#c3daf4;}.cls-57{fill:#775d20;}.cls-58{fill:#11234f;}.cls-59{fill:#abb7c0;}.cls-60{fill:#95a6ba;}.cls-61{fill:#ddd9b6;}.cls-15{fill:#001200;opacity:.19;}.cls-62{fill:#e7c817;}.cls-63{fill:#12ace2;}.cls-64{fill:#a4870a;}.cls-65{fill:#d38e05;}.cls-66{fill:#c5c2bb;}.cls-67{fill:#4f5359;}.cls-68{fill:#fff46e;}.cls-69{fill:#002808;opacity:.11;}.cls-70{fill:#5b5841;}.cls-71{fill:#f1ede0;}</style></defs><g class="cls-22"><g id="_이어_2"><g id="Israel"><g><rect class="cls-27" x=".74" y="48.57" width="94.64" height="26.08"/><rect class="cls-48" x="24.83" y="48.57" width="47.08" height="26.08"/><rect class="cls-39" x=".74" y="48.57" width="94.64" height="18.47"/><polygon class="cls-38" points="24.38 48.57 24.38 62.91 24.38 67.04 71.75 67.04 71.75 62.91 71.75 48.57 24.38 48.57"/><rect class="cls-20" x="30.02" y="31.26" width="36.67" height="14.97"/><rect class="cls-54" x="41.09" y="31.26" width="14.97" height="14.97"/><rect class="cls-56" x="30.05" y="41.84" width="36.64" height=".36"/><rect class="cls-6" x="30.05" y="42.86" width="36.64" height=".36"/><rect class="cls-56" x="30.05" y="32.19" width="36.64" height=".36"/><rect class="cls-6" x="30.05" y="33.2" width="36.64" height=".36"/><g><path class="cls-7" d="M65.93,41.62h-4.01v-7.57h4.01v7.57Zm-3.61-.53h3.2v-6.51h-3.2v6.51Z"/><rect class="cls-26" x="62.14" y="34.45" width="3.55" height="6.87"/><path class="cls-8" d="M63.94,36.98l.56,.89-.56,.89-.56-.89,.56-.89Z"/><path class="cls-7" d="M63.94,34.81l-1.93,3.06,1.93,3.06,1.93-3.06-1.93-3.06Zm0,.88l1.38,2.18-1.38,2.18-1.38-2.18,1.38-2.18Z"/></g><g><path class="cls-17" d="M34.86,41.62h-4.27v-7.57h4.27v7.57Zm-3.84-.53h3.41v-6.51h-3.41v6.51Z"/><path class="cls-17" d="M32.75,34.81l-2.05,3.06,2.05,3.06,2.05-3.06-2.05-3.06Zm0,1.19l1.26,1.87-1.26,1.87-1.26-1.87,1.26-1.87Z"/><path class="cls-8" d="M32.75,36.98l.6,.89-.6,.89-.6-.89,.6-.89Z"/></g><g><path class="cls-7" d="M40.05,41.62h-4.27v-7.57h4.27v7.57Zm-3.84-.53h3.41v-6.51h-3.41v6.51Z"/><rect class="cls-26" x="36.01" y="34.45" width="3.77" height="6.87"/><path class="cls-8" d="M37.94,36.98l.6,.89-.6,.89-.6-.89,.6-.89Z"/><path class="cls-7" d="M37.94,34.81l-2.05,3.06,2.05,3.06,2.05-3.06-2.05-3.06Zm0,.88l1.47,2.18-1.47,2.18-1.47-2.18,1.47-2.18Z"/></g><g><path class="cls-56" d="M47.87,41.62h-5.85v-7.57h5.85v7.57Zm-5.27-.53h4.68v-6.51h-4.68v6.51Z"/><path class="cls-56" d="M44.97,34.81l-2.81,3.06,2.81,3.06,2.81-3.06-2.81-3.06Zm0,1.19l1.73,1.87-1.73,1.87-1.72-1.87,1.72-1.87Z"/><path class="cls-8" d="M44.97,36.98l.82,.89-.82,.89-.82-.89,.82-.89Z"/></g><g><path class="cls-7" d="M55.11,41.62h-5.85v-7.57h5.85v7.57Zm-5.26-.53h4.68v-6.51h-4.68v6.51Z"/><rect class="cls-26" x="49.57" y="34.45" width="5.17" height="6.87"/><path class="cls-8" d="M52.21,36.98l.82,.89-.82,.89-.82-.89,.82-.89Z"/><path class="cls-7" d="M52.21,34.81l-2.81,3.06,2.81,3.06,2.82-3.06-2.82-3.06Zm0,.88l2.01,2.18-2.01,2.18-2.01-2.18,2.01-2.18Z"/></g><g><path class="cls-43" d="M61.06,41.62h-4.01v-7.57h4.01v7.57Zm-3.61-.53h3.2v-6.51h-3.2v6.51Z"/><path class="cls-43" d="M59.07,34.81l-1.93,3.06,1.93,3.06,1.93-3.06-1.93-3.06Zm0,1.19l1.18,1.87-1.18,1.87-1.18-1.87,1.18-1.87Z"/><path class="cls-8" d="M59.07,36.98l.56,.89-.56,.89-.56-.89,.56-.89Z"/></g><g><rect class="cls-4" x="47.99" y="1.75" width=".32" height="7.31"/><path class="cls-35" d="M48.14,0c-.54,0-.97,.43-.97,.97s.43,.97,.97,.97,.97-.43,.97-.97-.43-.97-.97-.97Zm0,1.65c-.38,0-.68-.3-.68-.68s.3-.68,.68-.68,.68,.3,.68,.68-.3,.68-.68,.68Z"/><path class="cls-4" d="M48.8,4.71c0,.36-.29,.65-.65,.65s-.65-.29-.65-.65,.29-.65,.65-.65,.65,.29,.65,.65Z"/><path class="cls-4" d="M48.66,6.16c0,.28-.23,.5-.5,.5s-.5-.23-.5-.5,.23-.5,.5-.5,.5,.23,.5,.5Z"/><path class="cls-4" d="M48.86,9.08c0,.39-.32,.71-.71,.71h0c-.39,0-.71-.32-.71-.71v-1.35c0-.39,.32-.71,.71-.71h0c.39,0,.71,.32,.71,.71v1.35Z"/><path class="cls-8" d="M48.29,4.56c0,.17-.14,.31-.31,.31s-.31-.14-.31-.31,.14-.31,.31-.31,.31,.14,.31,.31Z"/><path class="cls-8" d="M48.29,6.04c0,.14-.12,.26-.26,.26s-.26-.12-.26-.26,.12-.26,.26-.26,.26,.12,.26,.26Z"/><path class="cls-4" d="M48.66,3.08c0,.28-.23,.5-.5,.5s-.5-.23-.5-.5,.23-.5,.5-.5,.5,.23,.5,.5Z"/><path class="cls-8" d="M48.29,2.96c0,.14-.12,.26-.26,.26s-.26-.12-.26-.26,.12-.26,.26-.26,.26,.12,.26,.26Z"/></g><path class="cls-65" d="M60.97,14.96c-4.93-5.96-11.76-6.62-12.69-6.68h-.11c-.93,.06-7.76,.72-12.69,6.68-6.3,7.61-5.67,16.06-5.67,16.06h36.83s.63-8.45-5.67-16.06Z"/><path class="cls-4" d="M60.97,14.96c-4.93-5.96-11.76-6.62-12.69-6.68h-.11c-.93,.06-7.76,.72-12.69,6.68-3.7,4.47-5.01,9.23-5.46,12.39,2.42,1.91,5.73,3.37,10.22,3.66h5.76c3.82-.23,8.77-1.24,12.44-5.4,2.07-2.34,3.61-4.98,4.33-8.18-.53-.83-1.12-1.66-1.8-2.48Z"/><path class="cls-4" d="M49.87,8.28c0,.15-.12,.27-.27,.27h-2.92c-.15,0-.27-.12-.27-.27h0c0-.15,.12-.27,.27-.27h2.92c.15,0,.27,.12,.27,.27h0Z"/><g><polygon class="cls-36" points="69.21 31.95 26.96 31.95 26.96 31.65 30.03 30.74 66.78 30.74 69.21 31.61 69.21 31.95"/><rect class="cls-67" x="26.96" y="31.68" width="42.25" height=".27"/></g><path class="cls-8" d="M40.6,28.15c2.66,0,8.03-.74,12.04-4.99,3.03-3.21,4.38-7.86,3.68-12.2-3.79-2.29-7.39-2.64-8.05-2.68h-.11c-.93,.06-7.76,.72-12.69,6.68-2.83,3.42-4.26,6.91-4.98,9.71,2.11,1.93,5.29,3.49,10.1,3.49Z"/><path class="cls-8" d="M40.6,28.15c2.66,0,8.03-.74,12.04-4.99,3.03-3.21,4.38-7.86,3.68-12.2-3.79-2.29-7.39-2.64-8.05-2.68h-.11c-.93,.06-7.76,.72-12.69,6.68-2.83,3.42-4.26,6.91-4.98,9.71,2.11,1.93,5.29,3.49,10.1,3.49Z"/><path class="cls-68" d="M35.73,14.66c.19,2.92,2.99,5.13,6.28,4.95,3.31-.18,5.86-2.71,5.7-5.65-.12-2.21-1.75-4.03-3.96-4.71-2.44,.85-5.46,2.44-8.02,5.41Z"/><g><polygon class="cls-52" points="95.44 48.58 .72 48.58 10.17 47.51 22.74 44.58 73.42 44.58 86.72 47.66 95.44 48.58"/><polygon class="cls-59" points="75.91 48.58 20.25 48.58 25.8 47.51 33.19 44.58 62.97 44.58 70.79 47.66 75.91 48.58"/></g><rect class="cls-3" x=".74" y="51.3" width="94.64" height="1.05"/><rect class="cls-33" x="1.29" y="51.02" width=".46" height="1.36"/><rect class="cls-33" x="2.81" y="51.02" width=".46" height="1.36"/><rect class="cls-33" x="4.34" y="51.02" width=".46" height="1.36"/><rect class="cls-33" x="5.87" y="51.02" width=".46" height="1.36"/><rect class="cls-33" x="7.4" y="51.02" width=".46" height="1.36"/><rect class="cls-33" x="8.92" y="51.02" width=".46" height="1.36"/><rect class="cls-33" x="10.45" y="51.02" width=".46" height="1.36"/><rect class="cls-33" x="11.98" y="51.02" width=".46" height="1.36"/><rect class="cls-33" x="13.51" y="51.02" width=".46" height="1.36"/><rect class="cls-33" x="15.04" y="51.02" width=".46" height="1.36"/><rect class="cls-33" x="16.56" y="51.02" width=".46" height="1.36"/><rect class="cls-33" x="18.09" y="51.02" width=".46" height="1.36"/><rect class="cls-33" x="19.62" y="51.02" width=".46" height="1.36"/><rect class="cls-33" x="21.15" y="51.02" width=".46" height="1.36"/><rect class="cls-33" x="22.67" y="51.02" width=".46" height="1.36"/><rect class="cls-33" x="24.2" y="51.02" width=".46" height="1.36"/><rect class="cls-46" x="25.73" y="51.02" width=".46" height="1.36"/><rect class="cls-46" x="27.26" y="51.02" width=".46" height="1.36"/><rect class="cls-46" x="28.79" y="51.02" width=".46" height="1.36"/><rect class="cls-46" x="30.31" y="51.02" width=".46" height="1.36"/><rect class="cls-46" x="31.84" y="51.02" width=".46" height="1.36"/><rect class="cls-46" x="33.37" y="51.02" width=".46" height="1.36"/><rect class="cls-46" x="34.9" y="51.02" width=".46" height="1.36"/><rect class="cls-46" x="36.42" y="51.02" width=".46" height="1.36"/><rect class="cls-46" x="37.95" y="51.02" width=".46" height="1.36"/><rect class="cls-46" x="39.48" y="51.02" width=".46" height="1.36"/><rect class="cls-46" x="41.01" y="51.02" width=".46" height="1.36"/><rect class="cls-46" x="42.54" y="51.02" width=".46" height="1.36"/><rect class="cls-46" x="44.06" y="51.02" width=".46" height="1.36"/><rect class="cls-46" x="45.59" y="51.02" width=".46" height="1.36"/><rect class="cls-46" x="47.12" y="51.02" width=".46" height="1.36"/><rect class="cls-46" x="48.65" y="51.02" width=".46" height="1.36"/><rect class="cls-46" x="50.17" y="51.02" width=".46" height="1.36"/><rect class="cls-46" x="51.7" y="51.02" width=".46" height="1.36"/><rect class="cls-46" x="53.23" y="51.02" width=".46" height="1.36"/><rect class="cls-46" x="54.76" y="51.02" width=".46" height="1.36"/><rect class="cls-46" x="56.29" y="51.02" width=".46" height="1.36"/><rect class="cls-46" x="57.81" y="51.02" width=".46" height="1.36"/><rect class="cls-46" x="59.34" y="51.02" width=".46" height="1.36"/><rect class="cls-46" x="60.87" y="51.02" width=".46" height="1.36"/><rect class="cls-46" x="62.4" y="51.02" width=".46" height="1.36"/><rect class="cls-46" x="63.93" y="51.02" width=".46" height="1.36"/><rect class="cls-46" x="65.45" y="51.02" width=".46" height="1.36"/><rect class="cls-46" x="66.98" y="51.02" width=".46" height="1.36"/><rect class="cls-46" x="68.51" y="51.02" width=".46" height="1.36"/><rect class="cls-46" x="70.04" y="51.02" width=".46" height="1.36"/><rect class="cls-46" x="71.56" y="51.02" width=".46" height="1.36"/><rect class="cls-46" x="73.09" y="51.02" width=".46" height="1.36"/><rect class="cls-33" x="74.62" y="51.02" width=".46" height="1.36"/><rect class="cls-33" x="76.15" y="51.02" width=".46" height="1.36"/><rect class="cls-33" x="77.68" y="51.02" width=".46" height="1.36"/><rect class="cls-33" x="79.2" y="51.02" width=".46" height="1.36"/><rect class="cls-33" x="80.73" y="51.02" width=".46" height="1.36"/><rect class="cls-33" x="82.26" y="51.02" width=".46" height="1.36"/><rect class="cls-33" x="83.79" y="51.02" width=".46" height="1.36"/><rect class="cls-33" x="85.31" y="51.02" width=".46" height="1.36"/><rect class="cls-33" x="86.84" y="51.02" width=".46" height="1.36"/><rect class="cls-33" x="88.37" y="51.02" width=".46" height="1.36"/><rect class="cls-33" x="89.9" y="51.02" width=".46" height="1.36"/><rect class="cls-33" x="91.43" y="51.02" width=".46" height="1.36"/><rect class="cls-33" x="92.95" y="51.02" width=".46" height="1.36"/><rect class="cls-33" x="94.48" y="51.02" width=".46" height="1.36"/><rect class="cls-6" x=".74" y="50.63" width="94.64" height=".39"/><rect class="cls-6" x=".74" y="52.57" width="94.64" height=".43"/><rect class="cls-6" x=".74" y="55.03" width="94.64" height=".43"/><rect class="cls-29" x=".74" y="53.68" width="94.64" height=".89"/><g><rect class="cls-53" x="11.61" y="57.7" width=".68" height=".22"/><rect class="cls-53" x="11.53" y="56.17" width=".75" height=".22"/><g><polygon class="cls-53" points="10.95 65.33 10.95 57.89 8.49 57.89 8.49 65.33 7.75 65.33 7.75 57.89 5.35 57.89 5.35 65.33 4.62 65.33 4.62 57.89 2.24 57.89 2.24 65.33 1.49 65.33 1.49 56.17 11.69 56.17 11.69 65.33 10.95 65.33"/><polygon class="cls-55" points="11.58 56.38 11.05 56.38 8.4 56.38 7.84 56.38 5.26 56.38 4.71 56.38 2.15 56.38 1.58 56.38 1.58 57.67 1.58 65.11 2.15 65.11 2.15 57.67 4.71 57.67 4.71 65.11 5.26 65.11 5.26 57.67 7.84 57.67 7.84 65.11 8.4 65.11 8.4 57.67 11.05 57.67 11.05 65.11 11.6 65.11 11.6 56.38 11.58 56.38"/><polygon class="cls-5" points="2.12 63.43 1.86 64.04 1.6 63.42 1.85 62.81 2.12 63.43"/><polygon class="cls-5" points="2.12 64.52 1.86 65.13 1.6 64.5 1.85 63.9 2.12 64.52"/><polygon class="cls-5" points="2.12 62.15 1.86 62.76 1.6 62.14 1.85 61.53 2.12 62.15"/><polygon class="cls-5" points="2.12 60.87 1.86 61.48 1.6 60.86 1.85 60.25 2.12 60.87"/><polygon class="cls-5" points="2.12 59.6 1.86 60.2 1.6 59.58 1.85 58.97 2.12 59.6"/><polygon class="cls-5" points="2.12 58.32 1.86 58.92 1.6 58.3 1.85 57.69 2.12 58.32"/><polygon class="cls-5" points="2.12 57.04 1.86 57.64 1.6 57.02 1.85 56.41 2.12 57.04"/><polygon class="cls-5" points="2.65 57.04 2.4 57.64 2.14 57.02 2.39 56.41 2.65 57.04"/><polygon class="cls-5" points="3.18 57.04 2.92 57.64 2.66 57.02 2.91 56.41 3.18 57.04"/><polygon class="cls-5" points="3.7 57.04 3.44 57.64 3.18 57.02 3.44 56.41 3.7 57.04"/><polygon class="cls-5" points="4.22 57.04 3.97 57.64 3.71 57.02 3.96 56.41 4.22 57.04"/><polygon class="cls-5" points="4.75 57.04 4.49 57.64 4.23 57.02 4.49 56.41 4.75 57.04"/><polygon class="cls-5" points="5.23 57.04 4.98 57.64 4.71 57.02 4.97 56.41 5.23 57.04"/><polygon class="cls-40" points="5.23 58.28 4.98 58.89 4.71 58.27 4.97 57.66 5.23 58.28"/><polygon class="cls-40" points="5.23 59.53 4.98 60.14 4.71 59.52 4.97 58.91 5.23 59.53"/><polygon class="cls-40" points="5.23 60.78 4.98 61.39 4.71 60.76 4.97 60.16 5.23 60.78"/><polygon class="cls-40" points="5.23 62.03 4.98 62.63 4.71 62.01 4.97 61.4 5.23 62.03"/><polygon class="cls-40" points="5.23 63.27 4.98 63.88 4.71 63.26 4.97 62.65 5.23 63.27"/><polygon class="cls-40" points="5.23 64.52 4.98 65.13 4.71 64.5 4.97 63.9 5.23 64.52"/><polygon class="cls-40" points="8.38 58.28 8.12 58.89 7.86 58.27 8.12 57.66 8.38 58.28"/><polygon class="cls-40" points="8.38 59.53 8.12 60.14 7.86 59.52 8.12 58.91 8.38 59.53"/><polygon class="cls-40" points="8.38 60.78 8.12 61.39 7.86 60.76 8.12 60.16 8.38 60.78"/><polygon class="cls-40" points="8.38 62.03 8.12 62.63 7.86 62.01 8.12 61.4 8.38 62.03"/><polygon class="cls-40" points="8.38 63.27 8.12 63.88 7.86 63.26 8.12 62.65 8.38 63.27"/><polygon class="cls-40" points="8.38 64.52 8.12 65.13 7.86 64.5 8.12 63.9 8.38 64.52"/><polygon class="cls-5" points="5.79 57.04 5.54 57.64 5.28 57.02 5.53 56.41 5.79 57.04"/><polygon class="cls-5" points="6.32 57.04 6.06 57.64 5.8 57.02 6.06 56.41 6.32 57.04"/><polygon class="cls-5" points="6.84 57.04 6.59 57.64 6.33 57.02 6.58 56.41 6.84 57.04"/><polygon class="cls-5" points="7.37 57.04 7.11 57.64 6.85 57.02 7.1 56.41 7.37 57.04"/><polygon class="cls-5" points="7.88 57.04 7.62 57.64 7.36 57.02 7.61 56.41 7.88 57.04"/><polygon class="cls-5" points="8.38 57.04 8.12 57.64 7.86 57.02 8.12 56.41 8.38 57.04"/><polygon class="cls-5" points="8.93 57.01 8.67 57.62 8.41 57 8.66 56.39 8.93 57.01"/><polygon class="cls-5" points="9.46 57.04 9.21 57.64 8.94 57.02 9.2 56.41 9.46 57.04"/><polygon class="cls-5" points="9.98 57.04 9.73 57.64 9.47 57.02 9.72 56.41 9.98 57.04"/><polygon class="cls-5" points="10.51 57.04 10.25 57.64 9.99 57.02 10.25 56.41 10.51 57.04"/><polygon class="cls-5" points="11.03 57.04 10.78 57.64 10.51 57.02 10.77 56.41 11.03 57.04"/><polygon class="cls-5" points="11.58 57.04 11.33 57.64 11.07 57.02 11.32 56.41 11.58 57.04"/><polygon class="cls-5" points="11.58 58.25 11.33 58.86 11.07 58.24 11.32 57.63 11.58 58.25"/><polygon class="cls-5" points="11.58 59.47 11.33 60.08 11.07 59.45 11.32 58.84 11.58 59.47"/><polygon class="cls-5" points="11.58 60.68 11.33 61.29 11.07 60.67 11.32 60.06 11.58 60.68"/><polygon class="cls-5" points="11.58 61.9 11.33 62.51 11.07 61.88 11.32 61.27 11.58 61.9"/><polygon class="cls-5" points="11.58 63.11 11.33 63.72 11.07 63.1 11.32 62.49 11.58 63.11"/><polygon class="cls-5" points="11.58 64.36 11.33 64.97 11.07 64.35 11.32 63.74 11.58 64.36"/></g><g><path class="cls-44" d="M2.66,65.21v-5.06c0-1.12,.35-2.03,.78-2.03s.78,.91,.78,2.03v5.06h-1.56Z"/><path class="cls-31" d="M4.14,65.02v-4.87c0-1.02-.31-1.84-.7-1.84s-.7,.82-.7,1.84v4.87h1.4Z"/><rect class="cls-40" x="2.82" y="59.95" width="1.22" height="4.57"/><path class="cls-64" d="M4.12,59.75c-.07-.83-.35-1.45-.68-1.45s-.62,.62-.68,1.45h1.37Z"/><path class="cls-10" d="M3.55,58.34s-.07-.03-.11-.03c-.39,0-.7,.82-.7,1.84v4.87h.23v-4.87c0-.91,.25-1.67,.59-1.81Z"/></g><g><g><path class="cls-44" d="M5.8,65.31v-5.06c0-1.12,.35-2.03,.78-2.03s.78,.91,.78,2.03v5.06h-1.56Z"/><path class="cls-31" d="M7.28,65.11v-4.87c0-1.02-.31-1.84-.7-1.84s-.7,.82-.7,1.84v4.87h1.4Z"/><path class="cls-44" d="M7.2,64.63h-1.23v-4.13c0-.89,.28-1.61,.62-1.61s.62,.72,.62,1.61v4.13Zm-1.16-.17h1.09v-3.96c0-.79-.24-1.44-.55-1.44s-.55,.65-.55,1.44v3.96Z"/><path class="cls-19" d="M6.03,64.46h1.09v-3.96c0-.79-.24-1.44-.55-1.44s-.55,.65-.55,1.44v3.96Z"/><path class="cls-10" d="M6.69,58.43s-.07-.03-.11-.03c-.39,0-.7,.82-.7,1.84v4.87h.23v-4.87c0-.91,.25-1.67,.59-1.81Z"/></g><polygon class="cls-50" points="6.97 62.26 6.59 63.15 6.19 62.26 6.19 61.19 6.59 60.36 6.97 61.19 6.97 62.26"/></g><g><path class="cls-44" d="M8.94,65.31v-5.06c0-1.12,.35-2.03,.78-2.03s.78,.91,.78,2.03v5.06h-1.56Z"/><path class="cls-31" d="M10.42,65.11v-4.87c0-1.02-.31-1.84-.7-1.84s-.7,.82-.7,1.84v4.87h1.4Z"/><path class="cls-44" d="M10.34,64.63h-1.23v-4.13c0-.89,.28-1.61,.62-1.61s.62,.72,.62,1.61v4.13Zm-1.16-.17h1.09v-3.96c0-.79-.24-1.44-.55-1.44s-.55,.65-.55,1.44v3.96Z"/><path class="cls-58" d="M9.17,64.46h1.09v-3.96c0-.79-.24-1.44-.55-1.44s-.55,.65-.55,1.44v3.96Z"/><path class="cls-10" d="M9.83,58.43s-.07-.03-.11-.03c-.39,0-.7,.82-.7,1.84v4.87h.23v-4.87c0-.91,.25-1.67,.59-1.81Z"/><polygon class="cls-19" points="10.11 62.43 9.73 63.63 9.33 62.43 9.33 60.97 9.73 59.85 10.11 60.97 10.11 62.43"/><polygon class="cls-58" points="9.93 62.11 9.73 62.76 9.51 62.11 9.51 61.33 9.73 60.72 9.93 61.33 9.93 62.11"/></g><g><polygon class="cls-53" points="23.04 65.33 23.04 57.89 20.58 57.89 20.58 65.33 19.84 65.33 19.84 57.89 17.43 57.89 17.43 65.33 16.71 65.33 16.71 57.89 14.32 57.89 14.32 65.33 13.57 65.33 13.57 56.17 23.78 56.17 23.78 65.33 23.04 65.33"/><polygon class="cls-55" points="23.66 56.38 23.13 56.38 20.48 56.38 19.93 56.38 17.34 56.38 16.8 56.38 14.23 56.38 13.66 56.38 13.66 57.67 13.66 65.11 14.23 65.11 14.23 57.67 16.8 57.67 16.8 65.11 17.34 65.11 17.34 57.67 19.93 57.67 19.93 65.11 20.48 65.11 20.48 57.67 23.13 57.67 23.13 65.11 23.69 65.11 23.69 56.38 23.66 56.38"/><polygon class="cls-5" points="14.2 63.43 13.95 64.04 13.68 63.42 13.94 62.81 14.2 63.43"/><polygon class="cls-5" points="14.2 64.52 13.95 65.13 13.68 64.5 13.94 63.9 14.2 64.52"/><polygon class="cls-5" points="14.2 62.15 13.95 62.76 13.68 62.14 13.94 61.53 14.2 62.15"/><polygon class="cls-5" points="14.2 60.87 13.95 61.48 13.68 60.86 13.94 60.25 14.2 60.87"/><polygon class="cls-5" points="14.2 59.6 13.95 60.2 13.68 59.58 13.94 58.97 14.2 59.6"/><polygon class="cls-5" points="14.2 58.32 13.95 58.92 13.68 58.3 13.94 57.69 14.2 58.32"/><polygon class="cls-5" points="14.2 57.04 13.95 57.64 13.68 57.02 13.94 56.41 14.2 57.04"/><polygon class="cls-5" points="14.74 57.04 14.48 57.64 14.22 57.02 14.48 56.41 14.74 57.04"/><polygon class="cls-5" points="15.26 57.04 15.01 57.64 14.74 57.02 15 56.41 15.26 57.04"/><polygon class="cls-5" points="15.78 57.04 15.53 57.64 15.27 57.02 15.52 56.41 15.78 57.04"/><polygon class="cls-5" points="16.31 57.04 16.05 57.64 15.79 57.02 16.05 56.41 16.31 57.04"/><polygon class="cls-5" points="16.83 57.04 16.58 57.64 16.32 57.02 16.57 56.41 16.83 57.04"/><polygon class="cls-5" points="17.32 57.04 17.06 57.64 16.8 57.02 17.05 56.41 17.32 57.04"/><polygon class="cls-40" points="17.32 58.28 17.06 58.89 16.8 58.27 17.05 57.66 17.32 58.28"/><polygon class="cls-40" points="17.32 59.53 17.06 60.14 16.8 59.52 17.05 58.91 17.32 59.53"/><polygon class="cls-40" points="17.32 60.78 17.06 61.39 16.8 60.76 17.05 60.16 17.32 60.78"/><polygon class="cls-40" points="17.32 62.03 17.06 62.63 16.8 62.01 17.05 61.4 17.32 62.03"/><polygon class="cls-40" points="17.32 63.27 17.06 63.88 16.8 63.26 17.05 62.65 17.32 63.27"/><polygon class="cls-40" points="17.32 64.52 17.06 65.13 16.8 64.5 17.05 63.9 17.32 64.52"/><polygon class="cls-40" points="20.46 58.28 20.21 58.89 19.95 58.27 20.2 57.66 20.46 58.28"/><polygon class="cls-40" points="20.46 59.53 20.21 60.14 19.95 59.52 20.2 58.91 20.46 59.53"/><polygon class="cls-40" points="20.46 60.78 20.21 61.39 19.95 60.76 20.2 60.16 20.46 60.78"/><polygon class="cls-40" points="20.46 62.03 20.21 62.63 19.95 62.01 20.2 61.4 20.46 62.03"/><polygon class="cls-40" points="20.46 63.27 20.21 63.88 19.95 63.26 20.2 62.65 20.46 63.27"/><polygon class="cls-40" points="20.46 64.52 20.21 65.13 19.95 64.5 20.2 63.9 20.46 64.52"/><polygon class="cls-5" points="17.88 57.04 17.62 57.64 17.36 57.02 17.62 56.41 17.88 57.04"/><polygon class="cls-5" points="18.4 57.04 18.15 57.64 17.89 57.02 18.14 56.41 18.4 57.04"/><polygon class="cls-5" points="18.93 57.04 18.67 57.64 18.41 57.02 18.67 56.41 18.93 57.04"/><polygon class="cls-5" points="19.45 57.04 19.2 57.64 18.93 57.02 19.19 56.41 19.45 57.04"/><polygon class="cls-5" points="19.96 57.04 19.71 57.64 19.44 57.02 19.7 56.41 19.96 57.04"/><polygon class="cls-5" points="20.46 57.04 20.21 57.64 19.95 57.02 20.2 56.41 20.46 57.04"/><polygon class="cls-5" points="21.01 57.01 20.76 57.62 20.5 57 20.75 56.39 21.01 57.01"/><polygon class="cls-5" points="21.55 57.04 21.29 57.64 21.03 57.02 21.28 56.41 21.55 57.04"/><polygon class="cls-5" points="22.07 57.04 21.81 57.64 21.55 57.02 21.81 56.41 22.07 57.04"/><polygon class="cls-5" points="22.59 57.04 22.34 57.64 22.08 57.02 22.33 56.41 22.59 57.04"/><polygon class="cls-5" points="23.12 57.04 22.86 57.64 22.6 57.02 22.86 56.41 23.12 57.04"/><polygon class="cls-5" points="23.67 57.04 23.41 57.64 23.15 57.02 23.41 56.41 23.67 57.04"/><polygon class="cls-5" points="23.67 58.25 23.41 58.86 23.15 58.24 23.41 57.63 23.67 58.25"/><polygon class="cls-5" points="23.67 59.47 23.41 60.08 23.15 59.45 23.41 58.84 23.67 59.47"/><polygon class="cls-5" points="23.67 60.68 23.41 61.29 23.15 60.67 23.41 60.06 23.67 60.68"/><polygon class="cls-5" points="23.67 61.9 23.41 62.51 23.15 61.88 23.41 61.27 23.67 61.9"/><polygon class="cls-5" points="23.67 63.11 23.41 63.72 23.15 63.1 23.41 62.49 23.67 63.11"/><polygon class="cls-5" points="23.67 64.36 23.41 64.97 23.15 64.35 23.41 63.74 23.67 64.36"/></g><g><path class="cls-44" d="M14.74,65.21v-5.06c0-1.12,.35-2.03,.78-2.03s.78,.91,.78,2.03v5.06h-1.56Z"/><path class="cls-31" d="M16.23,65.02v-4.87c0-1.02-.31-1.84-.7-1.84s-.7,.82-.7,1.84v4.87h1.4Z"/><rect class="cls-40" x="14.91" y="59.95" width="1.22" height="4.57"/><path class="cls-64" d="M16.21,59.75c-.07-.83-.35-1.45-.68-1.45s-.62,.62-.68,1.45h1.37Z"/><path class="cls-10" d="M15.64,58.34s-.07-.03-.11-.03c-.39,0-.7,.82-.7,1.84v4.87h.23v-4.87c0-.91,.25-1.67,.59-1.81Z"/></g><g><g><path class="cls-44" d="M17.88,65.31v-5.06c0-1.12,.35-2.03,.78-2.03s.78,.91,.78,2.03v5.06h-1.56Z"/><path class="cls-31" d="M19.37,65.11v-4.87c0-1.02-.31-1.84-.7-1.84s-.7,.82-.7,1.84v4.87h1.4Z"/><path class="cls-44" d="M19.28,64.63h-1.23v-4.13c0-.89,.28-1.61,.62-1.61s.62,.72,.62,1.61v4.13Zm-1.16-.17h1.09v-3.96c0-.79-.24-1.44-.55-1.44s-.55,.65-.55,1.44v3.96Z"/><path class="cls-19" d="M18.12,64.46h1.09v-3.96c0-.79-.24-1.44-.55-1.44s-.55,.65-.55,1.44v3.96Z"/><path class="cls-10" d="M18.78,58.43s-.07-.03-.11-.03c-.39,0-.7,.82-.7,1.84v4.87h.23v-4.87c0-.91,.25-1.67,.59-1.81Z"/></g><polygon class="cls-50" points="19.05 62.26 18.68 63.15 18.28 62.26 18.28 61.19 18.68 60.36 19.05 61.19 19.05 62.26"/></g><g><path class="cls-44" d="M21.02,65.31v-5.06c0-1.12,.35-2.03,.78-2.03s.78,.91,.78,2.03v5.06h-1.56Z"/><path class="cls-31" d="M22.51,65.11v-4.87c0-1.02-.31-1.84-.7-1.84s-.7,.82-.7,1.84v4.87h1.4Z"/><path class="cls-44" d="M22.42,64.63h-1.23v-4.13c0-.89,.28-1.61,.62-1.61s.62,.72,.62,1.61v4.13Zm-1.16-.17h1.09v-3.96c0-.79-.24-1.44-.55-1.44s-.55,.65-.55,1.44v3.96Z"/><path class="cls-58" d="M21.26,64.46h1.09v-3.96c0-.79-.24-1.44-.55-1.44s-.55,.65-.55,1.44v3.96Z"/><path class="cls-10" d="M21.92,58.43s-.08-.03-.11-.03c-.39,0-.7,.82-.7,1.84v4.87h.23v-4.87c0-.91,.25-1.67,.59-1.81Z"/><polygon class="cls-19" points="22.19 62.43 21.82 63.63 21.42 62.43 21.42 60.97 21.82 59.85 22.19 60.97 22.19 62.43"/><polygon class="cls-58" points="22.01 62.11 21.81 62.76 21.6 62.11 21.6 61.33 21.81 60.72 22.01 61.33 22.01 62.11"/></g><g><path class="cls-44" d="M11.83,65.31v-5.1c0-1.13,.35-2.05,.79-2.05s.79,.92,.79,2.05v5.1h-1.57Z"/><path class="cls-31" d="M13.32,65.11v-4.9c0-1.02-.32-1.85-.71-1.85s-.71,.83-.71,1.85v4.9h1.41Z"/><path class="cls-44" d="M13.24,64.62h-1.24v-4.16c0-.89,.28-1.62,.62-1.62s.62,.73,.62,1.62v4.16Zm-1.17-.17h1.1v-3.98c0-.8-.25-1.45-.55-1.45s-.55,.65-.55,1.45v3.98Z"/><path class="cls-57" d="M12.07,64.45h1.1v-3.98c0-.8-.25-1.45-.55-1.45s-.55,.65-.55,1.45v3.98Z"/><path class="cls-10" d="M12.73,58.38s-.08-.03-.11-.03c-.39,0-.71,.83-.71,1.85v4.9h.23v-4.9c0-.92,.26-1.68,.59-1.82Z"/><polygon class="cls-42" points="12.89 62.41 12.62 63.62 12.35 62.41 12.35 60.94 12.62 59.81 12.89 60.94 12.89 62.41"/></g><rect class="cls-55" x="11.58" y="56.39" width=".7" height="1.28"/><polygon class="cls-5" points="12.12 57.05 11.86 57.65 11.6 57.03 11.85 56.42 12.12 57.05"/><rect class="cls-53" x="12.9" y="57.7" width=".76" height=".22"/><rect class="cls-53" x="12.9" y="56.17" width=".83" height=".22"/><rect class="cls-55" x="12.91" y="56.39" width=".78" height="1.29"/><polygon class="cls-5" points="13.56 57.05 13.3 57.65 13.04 57.03 13.3 56.42 13.56 57.05"/></g><g><rect class="cls-53" x="82.7" y="57.7" width=".68" height=".22"/><rect class="cls-53" x="82.63" y="56.17" width=".75" height=".22"/><g><polygon class="cls-53" points="82.05 65.33 82.05 57.89 79.59 57.89 79.59 65.33 78.85 65.33 78.85 57.89 76.45 57.89 76.45 65.33 75.72 65.33 75.72 57.89 73.34 57.89 73.34 65.33 72.58 65.33 72.58 56.17 82.79 56.17 82.79 65.33 82.05 65.33"/><polygon class="cls-55" points="82.68 56.38 82.14 56.38 79.5 56.38 78.94 56.38 76.35 56.38 75.81 56.38 73.24 56.38 72.68 56.38 72.68 57.67 72.68 65.11 73.24 65.11 73.24 57.67 75.81 57.67 75.81 65.11 76.35 65.11 76.35 57.67 78.94 57.67 78.94 65.11 79.5 65.11 79.5 57.67 82.14 57.67 82.14 65.11 82.7 65.11 82.7 56.38 82.68 56.38"/><polygon class="cls-5" points="73.21 63.43 72.96 64.04 72.7 63.42 72.95 62.81 73.21 63.43"/><polygon class="cls-5" points="73.21 64.52 72.96 65.13 72.7 64.5 72.95 63.9 73.21 64.52"/><polygon class="cls-5" points="73.21 62.15 72.96 62.76 72.7 62.14 72.95 61.53 73.21 62.15"/><polygon class="cls-5" points="73.21 60.87 72.96 61.48 72.7 60.86 72.95 60.25 73.21 60.87"/><polygon class="cls-5" points="73.21 59.6 72.96 60.2 72.7 59.58 72.95 58.97 73.21 59.6"/><polygon class="cls-5" points="73.21 58.32 72.96 58.92 72.7 58.3 72.95 57.69 73.21 58.32"/><polygon class="cls-5" points="73.21 57.04 72.96 57.64 72.7 57.02 72.95 56.41 73.21 57.04"/><polygon class="cls-5" points="73.75 57.04 73.5 57.64 73.23 57.02 73.49 56.41 73.75 57.04"/><polygon class="cls-5" points="74.27 57.04 74.02 57.64 73.76 57.02 74.01 56.41 74.27 57.04"/><polygon class="cls-5" points="74.8 57.04 74.54 57.64 74.28 57.02 74.54 56.41 74.8 57.04"/><polygon class="cls-5" points="75.32 57.04 75.07 57.64 74.8 57.02 75.06 56.41 75.32 57.04"/><polygon class="cls-5" points="75.85 57.04 75.59 57.64 75.33 57.02 75.58 56.41 75.85 57.04"/><polygon class="cls-5" points="76.33 57.04 76.07 57.64 75.81 57.02 76.07 56.41 76.33 57.04"/><polygon class="cls-40" points="76.33 58.28 76.07 58.89 75.81 58.27 76.07 57.66 76.33 58.28"/><polygon class="cls-40" points="76.33 59.53 76.07 60.14 75.81 59.52 76.07 58.91 76.33 59.53"/><polygon class="cls-40" points="76.33 60.78 76.07 61.39 75.81 60.76 76.07 60.16 76.33 60.78"/><polygon class="cls-40" points="76.33 62.03 76.07 62.63 75.81 62.01 76.07 61.4 76.33 62.03"/><polygon class="cls-40" points="76.33 63.27 76.07 63.88 75.81 63.26 76.07 62.65 76.33 63.27"/><polygon class="cls-40" points="76.33 64.52 76.07 65.13 75.81 64.5 76.07 63.9 76.33 64.52"/><polygon class="cls-40" points="79.48 58.28 79.22 58.89 78.96 58.27 79.22 57.66 79.48 58.28"/><polygon class="cls-40" points="79.48 59.53 79.22 60.14 78.96 59.52 79.22 58.91 79.48 59.53"/><polygon class="cls-40" points="79.48 60.78 79.22 61.39 78.96 60.76 79.22 60.16 79.48 60.78"/><polygon class="cls-40" points="79.48 62.03 79.22 62.63 78.96 62.01 79.22 61.4 79.48 62.03"/><polygon class="cls-40" points="79.48 63.27 79.22 63.88 78.96 63.26 79.22 62.65 79.48 63.27"/><polygon class="cls-40" points="79.48 64.52 79.22 65.13 78.96 64.5 79.22 63.9 79.48 64.52"/><polygon class="cls-5" points="76.89 57.04 76.64 57.64 76.38 57.02 76.63 56.41 76.89 57.04"/><polygon class="cls-5" points="77.42 57.04 77.16 57.64 76.9 57.02 77.15 56.41 77.42 57.04"/><polygon class="cls-5" points="77.94 57.04 77.68 57.64 77.42 57.02 77.68 56.41 77.94 57.04"/><polygon class="cls-5" points="78.46 57.04 78.21 57.64 77.95 57.02 78.2 56.41 78.46 57.04"/><polygon class="cls-5" points="78.97 57.04 78.72 57.64 78.46 57.02 78.71 56.41 78.97 57.04"/><polygon class="cls-5" points="79.48 57.04 79.22 57.64 78.96 57.02 79.22 56.41 79.48 57.04"/><polygon class="cls-5" points="80.02 57.01 79.77 57.62 79.51 57 79.76 56.39 80.02 57.01"/><polygon class="cls-5" points="80.56 57.04 80.3 57.64 80.04 57.02 80.3 56.41 80.56 57.04"/><polygon class="cls-5" points="81.08 57.04 80.83 57.64 80.57 57.02 80.82 56.41 81.08 57.04"/><polygon class="cls-5" points="81.61 57.04 81.35 57.64 81.09 57.02 81.34 56.41 81.61 57.04"/><polygon class="cls-5" points="82.13 57.04 81.87 57.64 81.61 57.02 81.87 56.41 82.13 57.04"/><polygon class="cls-5" points="82.68 57.04 82.43 57.64 82.16 57.02 82.42 56.41 82.68 57.04"/><polygon class="cls-5" points="82.68 58.25 82.43 58.86 82.16 58.24 82.42 57.63 82.68 58.25"/><polygon class="cls-5" points="82.68 59.47 82.43 60.08 82.16 59.45 82.42 58.84 82.68 59.47"/><polygon class="cls-5" points="82.68 60.68 82.43 61.29 82.16 60.67 82.42 60.06 82.68 60.68"/><polygon class="cls-5" points="82.68 61.9 82.43 62.51 82.16 61.88 82.42 61.27 82.68 61.9"/><polygon class="cls-5" points="82.68 63.11 82.43 63.72 82.16 63.1 82.42 62.49 82.68 63.11"/><polygon class="cls-5" points="82.68 64.36 82.43 64.97 82.16 64.35 82.42 63.74 82.68 64.36"/></g><g><path class="cls-44" d="M73.76,65.21v-5.06c0-1.12,.35-2.03,.78-2.03s.78,.91,.78,2.03v5.06h-1.56Z"/><path class="cls-31" d="M75.24,65.02v-4.87c0-1.02-.31-1.84-.7-1.84s-.7,.82-.7,1.84v4.87h1.4Z"/><rect class="cls-40" x="73.92" y="59.95" width="1.22" height="4.57"/><path class="cls-64" d="M75.22,59.75c-.07-.83-.35-1.45-.68-1.45s-.62,.62-.68,1.45h1.37Z"/><path class="cls-10" d="M74.65,58.34s-.07-.03-.11-.03c-.39,0-.7,.82-.7,1.84v4.87h.23v-4.87c0-.91,.25-1.67,.59-1.81Z"/></g><g><g><path class="cls-44" d="M76.9,65.31v-5.06c0-1.12,.35-2.03,.78-2.03s.78,.91,.78,2.03v5.06h-1.56Z"/><path class="cls-31" d="M78.38,65.11v-4.87c0-1.02-.31-1.84-.7-1.84s-.7,.82-.7,1.84v4.87h1.4Z"/><path class="cls-44" d="M78.29,64.63h-1.23v-4.13c0-.89,.28-1.61,.62-1.61s.62,.72,.62,1.61v4.13Zm-1.16-.17h1.09v-3.96c0-.79-.24-1.44-.55-1.44s-.55,.65-.55,1.44v3.96Z"/><path class="cls-19" d="M77.13,64.46h1.09v-3.96c0-.79-.24-1.44-.55-1.44s-.55,.65-.55,1.44v3.96Z"/><path class="cls-10" d="M77.79,58.43s-.07-.03-.11-.03c-.39,0-.7,.82-.7,1.84v4.87h.23v-4.87c0-.91,.25-1.67,.59-1.81Z"/></g><polygon class="cls-50" points="78.07 62.26 77.69 63.15 77.29 62.26 77.29 61.19 77.69 60.36 78.07 61.19 78.07 62.26"/></g><g><path class="cls-44" d="M80.04,65.31v-5.06c0-1.12,.35-2.03,.78-2.03s.78,.91,.78,2.03v5.06h-1.56Z"/><path class="cls-31" d="M81.52,65.11v-4.87c0-1.02-.31-1.84-.7-1.84s-.7,.82-.7,1.84v4.87h1.4Z"/><path class="cls-44" d="M81.43,64.63h-1.23v-4.13c0-.89,.28-1.61,.62-1.61s.62,.72,.62,1.61v4.13Zm-1.16-.17h1.09v-3.96c0-.79-.24-1.44-.55-1.44s-.55,.65-.55,1.44v3.96Z"/><path class="cls-58" d="M80.27,64.46h1.09v-3.96c0-.79-.24-1.44-.55-1.44s-.55,.65-.55,1.44v3.96Z"/><path class="cls-10" d="M80.93,58.43s-.07-.03-.11-.03c-.39,0-.7,.82-.7,1.84v4.87h.23v-4.87c0-.91,.25-1.67,.59-1.81Z"/><polygon class="cls-19" points="81.21 62.43 80.83 63.63 80.43 62.43 80.43 60.97 80.83 59.85 81.21 60.97 81.21 62.43"/><polygon class="cls-58" points="81.03 62.11 80.82 62.76 80.61 62.11 80.61 61.33 80.82 60.72 81.03 61.33 81.03 62.11"/></g><g><polygon class="cls-53" points="94.14 65.33 94.14 57.89 91.67 57.89 91.67 65.33 90.93 65.33 90.93 57.89 88.53 57.89 88.53 65.33 87.81 65.33 87.81 57.89 85.42 57.89 85.42 65.33 84.67 65.33 84.67 56.17 94.88 56.17 94.88 65.33 94.14 65.33"/><polygon class="cls-55" points="94.76 56.38 94.23 56.38 91.58 56.38 91.03 56.38 88.44 56.38 87.9 56.38 85.33 56.38 84.76 56.38 84.76 57.67 84.76 65.11 85.33 65.11 85.33 57.67 87.9 57.67 87.9 65.11 88.44 65.11 88.44 57.67 91.03 57.67 91.03 65.11 91.58 65.11 91.58 57.67 94.23 57.67 94.23 65.11 94.78 65.11 94.78 56.38 94.76 56.38"/><polygon class="cls-5" points="85.3 63.43 85.04 64.04 84.78 63.42 85.04 62.81 85.3 63.43"/><polygon class="cls-5" points="85.3 64.52 85.04 65.13 84.78 64.5 85.04 63.9 85.3 64.52"/><polygon class="cls-5" points="85.3 62.15 85.04 62.76 84.78 62.14 85.04 61.53 85.3 62.15"/><polygon class="cls-5" points="85.3 60.87 85.04 61.48 84.78 60.86 85.04 60.25 85.3 60.87"/><polygon class="cls-5" points="85.3 59.6 85.04 60.2 84.78 59.58 85.04 58.97 85.3 59.6"/><polygon class="cls-5" points="85.3 58.32 85.04 58.92 84.78 58.3 85.04 57.69 85.3 58.32"/><polygon class="cls-5" points="85.3 57.04 85.04 57.64 84.78 57.02 85.04 56.41 85.3 57.04"/><polygon class="cls-5" points="85.84 57.04 85.58 57.64 85.32 57.02 85.57 56.41 85.84 57.04"/><polygon class="cls-5" points="86.36 57.04 86.1 57.64 85.84 57.02 86.1 56.41 86.36 57.04"/><polygon class="cls-5" points="86.88 57.04 86.63 57.64 86.37 57.02 86.62 56.41 86.88 57.04"/><polygon class="cls-5" points="87.41 57.04 87.15 57.64 86.89 57.02 87.14 56.41 87.41 57.04"/><polygon class="cls-5" points="87.93 57.04 87.68 57.64 87.41 57.02 87.67 56.41 87.93 57.04"/><polygon class="cls-5" points="88.41 57.04 88.16 57.64 87.9 57.02 88.15 56.41 88.41 57.04"/><polygon class="cls-40" points="88.41 58.28 88.16 58.89 87.9 58.27 88.15 57.66 88.41 58.28"/><polygon class="cls-40" points="88.41 59.53 88.16 60.14 87.9 59.52 88.15 58.91 88.41 59.53"/><polygon class="cls-40" points="88.41 60.78 88.16 61.39 87.9 60.76 88.15 60.16 88.41 60.78"/><polygon class="cls-40" points="88.41 62.03 88.16 62.63 87.9 62.01 88.15 61.4 88.41 62.03"/><polygon class="cls-40" points="88.41 63.27 88.16 63.88 87.9 63.26 88.15 62.65 88.41 63.27"/><polygon class="cls-40" points="88.41 64.52 88.16 65.13 87.9 64.5 88.15 63.9 88.41 64.52"/><polygon class="cls-40" points="91.56 58.28 91.31 58.89 91.05 58.27 91.3 57.66 91.56 58.28"/><polygon class="cls-40" points="91.56 59.53 91.31 60.14 91.05 59.52 91.3 58.91 91.56 59.53"/><polygon class="cls-40" points="91.56 60.78 91.31 61.39 91.05 60.76 91.3 60.16 91.56 60.78"/><polygon class="cls-40" points="91.56 62.03 91.31 62.63 91.05 62.01 91.3 61.4 91.56 62.03"/><polygon class="cls-40" points="91.56 63.27 91.31 63.88 91.05 63.26 91.3 62.65 91.56 63.27"/><polygon class="cls-40" points="91.56 64.52 91.31 65.13 91.05 64.5 91.3 63.9 91.56 64.52"/><polygon class="cls-5" points="88.98 57.04 88.72 57.64 88.46 57.02 88.72 56.41 88.98 57.04"/><polygon class="cls-5" points="89.5 57.04 89.25 57.64 88.98 57.02 89.24 56.41 89.5 57.04"/><polygon class="cls-5" points="90.03 57.04 89.77 57.64 89.51 57.02 89.76 56.41 90.03 57.04"/><polygon class="cls-5" points="90.55 57.04 90.29 57.64 90.03 57.02 90.29 56.41 90.55 57.04"/><polygon class="cls-5" points="91.06 57.04 90.8 57.64 90.54 57.02 90.8 56.41 91.06 57.04"/><polygon class="cls-5" points="91.56 57.04 91.31 57.64 91.05 57.02 91.3 56.41 91.56 57.04"/><polygon class="cls-5" points="92.11 57.01 91.85 57.62 91.59 57 91.85 56.39 92.11 57.01"/><polygon class="cls-5" points="92.64 57.04 92.39 57.64 92.13 57.02 92.38 56.41 92.64 57.04"/><polygon class="cls-5" points="93.17 57.04 92.91 57.64 92.65 57.02 92.91 56.41 93.17 57.04"/><polygon class="cls-5" points="93.69 57.04 93.44 57.64 93.17 57.02 93.43 56.41 93.69 57.04"/><polygon class="cls-5" points="94.21 57.04 93.96 57.64 93.7 57.02 93.95 56.41 94.21 57.04"/><polygon class="cls-5" points="94.77 57.04 94.51 57.64 94.25 57.02 94.5 56.41 94.77 57.04"/><polygon class="cls-5" points="94.77 58.25 94.51 58.86 94.25 58.24 94.5 57.63 94.77 58.25"/><polygon class="cls-5" points="94.77 59.47 94.51 60.08 94.25 59.45 94.5 58.84 94.77 59.47"/><polygon class="cls-5" points="94.77 60.68 94.51 61.29 94.25 60.67 94.5 60.06 94.77 60.68"/><polygon class="cls-5" points="94.77 61.9 94.51 62.51 94.25 61.88 94.5 61.27 94.77 61.9"/><polygon class="cls-5" points="94.77 63.11 94.51 63.72 94.25 63.1 94.5 62.49 94.77 63.11"/><polygon class="cls-5" points="94.77 64.36 94.51 64.97 94.25 64.35 94.5 63.74 94.77 64.36"/></g><g><path class="cls-44" d="M85.84,65.21v-5.06c0-1.12,.35-2.03,.78-2.03s.78,.91,.78,2.03v5.06h-1.56Z"/><path class="cls-31" d="M87.32,65.02v-4.87c0-1.02-.31-1.84-.7-1.84s-.7,.82-.7,1.84v4.87h1.4Z"/><rect class="cls-40" x="86.01" y="59.95" width="1.22" height="4.57"/><path class="cls-64" d="M87.31,59.75c-.07-.83-.35-1.45-.68-1.45s-.62,.62-.68,1.45h1.37Z"/><path class="cls-10" d="M86.74,58.34s-.07-.03-.11-.03c-.39,0-.7,.82-.7,1.84v4.87h.23v-4.87c0-.91,.25-1.67,.59-1.81Z"/></g><g><g><path class="cls-44" d="M88.98,65.31v-5.06c0-1.12,.35-2.03,.78-2.03s.78,.91,.78,2.03v5.06h-1.56Z"/><path class="cls-31" d="M90.46,65.11v-4.87c0-1.02-.31-1.84-.7-1.84s-.7,.82-.7,1.84v4.87h1.4Z"/><path class="cls-44" d="M90.38,64.63h-1.23v-4.13c0-.89,.28-1.61,.62-1.61s.62,.72,.62,1.61v4.13Zm-1.16-.17h1.09v-3.96c0-.79-.24-1.44-.55-1.44s-.55,.65-.55,1.44v3.96Z"/><path class="cls-19" d="M89.22,64.46h1.09v-3.96c0-.79-.24-1.44-.55-1.44s-.55,.65-.55,1.44v3.96Z"/><path class="cls-10" d="M89.88,58.43s-.07-.03-.11-.03c-.39,0-.7,.82-.7,1.84v4.87h.23v-4.87c0-.91,.25-1.67,.59-1.81Z"/></g><polygon class="cls-50" points="90.15 62.26 89.77 63.15 89.38 62.26 89.38 61.19 89.77 60.36 90.15 61.19 90.15 62.26"/></g><g><path class="cls-44" d="M92.12,65.31v-5.06c0-1.12,.35-2.03,.78-2.03s.78,.91,.78,2.03v5.06h-1.56Z"/><path class="cls-31" d="M93.6,65.11v-4.87c0-1.02-.31-1.84-.7-1.84s-.7,.82-.7,1.84v4.87h1.4Z"/><path class="cls-44" d="M93.52,64.63h-1.23v-4.13c0-.89,.28-1.61,.62-1.61s.62,.72,.62,1.61v4.13Zm-1.16-.17h1.09v-3.96c0-.79-.24-1.44-.55-1.44s-.55,.65-.55,1.44v3.96Z"/><path class="cls-58" d="M92.36,64.46h1.09v-3.96c0-.79-.24-1.44-.55-1.44s-.55,.65-.55,1.44v3.96Z"/><path class="cls-10" d="M93.02,58.43s-.07-.03-.11-.03c-.39,0-.7,.82-.7,1.84v4.87h.23v-4.87c0-.91,.25-1.67,.59-1.81Z"/><polygon class="cls-19" points="93.29 62.43 92.91 63.63 92.52 62.43 92.52 60.97 92.91 59.85 93.29 60.97 93.29 62.43"/><polygon class="cls-58" points="93.11 62.11 92.91 62.76 92.69 62.11 92.69 61.33 92.91 60.72 93.11 61.33 93.11 62.11"/></g><g><path class="cls-44" d="M82.93,65.31v-5.1c0-1.13,.35-2.05,.79-2.05s.79,.92,.79,2.05v5.1h-1.57Z"/><path class="cls-31" d="M84.42,65.11v-4.9c0-1.02-.32-1.85-.71-1.85s-.71,.83-.71,1.85v4.9h1.41Z"/><path class="cls-44" d="M84.34,64.62h-1.24v-4.16c0-.89,.28-1.62,.62-1.62s.62,.73,.62,1.62v4.16Zm-1.17-.17h1.1v-3.98c0-.8-.25-1.45-.55-1.45s-.55,.65-.55,1.45v3.98Z"/><path class="cls-57" d="M83.17,64.45h1.1v-3.98c0-.8-.25-1.45-.55-1.45s-.55,.65-.55,1.45v3.98Z"/><path class="cls-10" d="M83.83,58.38s-.08-.03-.11-.03c-.39,0-.71,.83-.71,1.85v4.9h.23v-4.9c0-.92,.26-1.68,.59-1.82Z"/><polygon class="cls-42" points="83.99 62.41 83.72 63.62 83.44 62.41 83.44 60.94 83.72 59.81 83.99 60.94 83.99 62.41"/></g><rect class="cls-55" x="82.68" y="56.39" width=".7" height="1.28"/><polygon class="cls-5" points="83.21 57.05 82.96 57.65 82.7 57.03 82.95 56.42 83.21 57.05"/><rect class="cls-53" x="84" y="57.7" width=".76" height=".22"/><rect class="cls-53" x="84" y="56.17" width=".83" height=".22"/><rect class="cls-55" x="84" y="56.39" width=".78" height="1.29"/><polygon class="cls-5" points="84.66 57.05 84.4 57.65 84.14 57.03 84.39 56.42 84.66 57.05"/></g><rect class="cls-63" x="45.95" y="57.7" width="1.41" height=".22"/><rect class="cls-63" x="45.81" y="56.17" width="1.56" height=".22"/><g><polygon class="cls-63" points="44.6 65.33 44.6 57.89 39.5 57.89 39.5 65.33 37.97 65.33 37.97 57.89 32.99 57.89 32.99 65.33 31.49 65.33 31.49 57.89 26.55 57.89 26.55 65.33 24.99 65.33 24.99 56.17 46.13 56.17 46.13 65.33 44.6 65.33"/><polygon class="cls-9" points="45.9 56.38 44.79 56.38 39.31 56.38 38.16 56.38 32.8 56.38 31.68 56.38 26.36 56.38 25.18 56.38 25.18 57.67 25.18 65.11 26.36 65.11 26.36 57.67 31.68 57.67 31.68 65.11 32.8 65.11 32.8 57.67 38.16 57.67 38.16 65.11 39.31 65.11 39.31 57.67 44.79 57.67 44.79 65.11 45.94 65.11 45.94 56.38 45.9 56.38"/><polygon class="cls-62" points="26.3 63.43 25.77 64.04 25.23 63.42 25.76 62.81 26.3 63.43"/><polygon class="cls-62" points="26.3 64.52 25.77 65.13 25.23 64.5 25.76 63.9 26.3 64.52"/><polygon class="cls-62" points="26.3 62.15 25.77 62.76 25.23 62.14 25.76 61.53 26.3 62.15"/><polygon class="cls-62" points="26.3 60.87 25.77 61.48 25.23 60.86 25.76 60.25 26.3 60.87"/><polygon class="cls-62" points="26.3 59.6 25.77 60.2 25.23 59.58 25.76 58.97 26.3 59.6"/><polygon class="cls-62" points="26.3 58.32 25.77 58.92 25.23 58.3 25.76 57.69 26.3 58.32"/><polygon class="cls-62" points="26.3 57.04 25.77 57.64 25.23 57.02 25.76 56.41 26.3 57.04"/><polygon class="cls-62" points="27.41 57.04 26.88 57.64 26.34 57.02 26.87 56.41 27.41 57.04"/><polygon class="cls-62" points="28.49 57.04 27.97 57.64 27.42 57.02 27.95 56.41 28.49 57.04"/><polygon class="cls-62" points="29.58 57.04 29.05 57.64 28.51 57.02 29.04 56.41 29.58 57.04"/><polygon class="cls-62" points="30.66 57.04 30.14 57.64 29.59 57.02 30.12 56.41 30.66 57.04"/><polygon class="cls-62" points="31.75 57.04 31.22 57.64 30.68 57.02 31.21 56.41 31.75 57.04"/><polygon class="cls-62" points="32.75 57.04 32.22 57.64 31.68 57.02 32.21 56.41 32.75 57.04"/><polygon class="cls-18" points="32.75 58.28 32.22 58.89 31.68 58.27 32.21 57.66 32.75 58.28"/><polygon class="cls-18" points="32.75 59.53 32.22 60.14 31.68 59.52 32.21 58.91 32.75 59.53"/><polygon class="cls-18" points="32.75 60.78 32.22 61.39 31.68 60.76 32.21 60.16 32.75 60.78"/><polygon class="cls-18" points="32.75 62.03 32.22 62.63 31.68 62.01 32.21 61.4 32.75 62.03"/><polygon class="cls-18" points="32.75 63.27 32.22 63.88 31.68 63.26 32.21 62.65 32.75 63.27"/><polygon class="cls-18" points="32.75 64.52 32.22 65.13 31.68 64.5 32.21 63.9 32.75 64.52"/><polygon class="cls-18" points="39.27 58.28 38.74 58.89 38.2 58.27 38.73 57.66 39.27 58.28"/><polygon class="cls-18" points="39.27 59.53 38.74 60.14 38.2 59.52 38.73 58.91 39.27 59.53"/><polygon class="cls-18" points="39.27 60.78 38.74 61.39 38.2 60.76 38.73 60.16 39.27 60.78"/><polygon class="cls-18" points="39.27 62.03 38.74 62.63 38.2 62.01 38.73 61.4 39.27 62.03"/><polygon class="cls-18" points="39.27 63.27 38.74 63.88 38.2 63.26 38.73 62.65 39.27 63.27"/><polygon class="cls-18" points="39.27 64.52 38.74 65.13 38.2 64.5 38.73 63.9 39.27 64.52"/><polygon class="cls-62" points="33.92 57.04 33.39 57.64 32.85 57.02 33.38 56.41 33.92 57.04"/><polygon class="cls-62" points="35 57.04 34.47 57.64 33.93 57.02 34.46 56.41 35 57.04"/><polygon class="cls-62" points="36.09 57.04 35.56 57.64 35.02 57.02 35.54 56.41 36.09 57.04"/><polygon class="cls-62" points="37.17 57.04 36.64 57.64 36.1 57.02 36.63 56.41 37.17 57.04"/><polygon class="cls-62" points="38.23 57.04 37.7 57.64 37.16 57.02 37.69 56.41 38.23 57.04"/><polygon class="cls-62" points="39.27 57.04 38.74 57.64 38.2 57.02 38.73 56.41 39.27 57.04"/><polygon class="cls-62" points="40.4 57.01 39.88 57.62 39.33 57 39.86 56.39 40.4 57.01"/><polygon class="cls-62" points="41.51 57.04 40.98 57.64 40.44 57.02 40.97 56.41 41.51 57.04"/><polygon class="cls-62" points="42.59 57.04 42.07 57.64 41.52 57.02 42.05 56.41 42.59 57.04"/><polygon class="cls-62" points="43.68 57.04 43.15 57.64 42.61 57.02 43.14 56.41 43.68 57.04"/><polygon class="cls-62" points="44.76 57.04 44.24 57.64 43.69 57.02 44.22 56.41 44.76 57.04"/><polygon class="cls-62" points="45.9 57.04 45.38 57.64 44.83 57.02 45.36 56.41 45.9 57.04"/><polygon class="cls-62" points="45.9 58.25 45.38 58.86 44.83 58.24 45.36 57.63 45.9 58.25"/><polygon class="cls-62" points="45.9 59.47 45.38 60.08 44.83 59.45 45.36 58.84 45.9 59.47"/><polygon class="cls-62" points="45.9 60.68 45.38 61.29 44.83 60.67 45.36 60.06 45.9 60.68"/><polygon class="cls-62" points="45.9 61.9 45.38 62.51 44.83 61.88 45.36 61.27 45.9 61.9"/><polygon class="cls-62" points="45.9 63.11 45.38 63.72 44.83 63.1 45.36 62.49 45.9 63.11"/><polygon class="cls-62" points="45.9 64.36 45.38 64.97 44.83 64.35 45.36 63.74 45.9 64.36"/></g><g><path class="cls-28" d="M27.42,65.21v-5.06c0-1.12,.73-2.03,1.62-2.03s1.62,.91,1.62,2.03v5.06h-3.24Z"/><path class="cls-37" d="M30.49,65.02v-4.87c0-1.02-.65-1.84-1.45-1.84s-1.45,.82-1.45,1.84v4.87h2.9Z"/><rect class="cls-18" x="27.76" y="59.95" width="2.52" height="4.57"/><path class="cls-16" d="M30.46,59.75c-.14-.83-.72-1.45-1.41-1.45s-1.27,.62-1.42,1.45h2.83Z"/><path class="cls-12" d="M29.28,58.34c-.08-.02-.15-.03-.23-.03-.8,0-1.45,.82-1.45,1.84v4.87h.47v-4.87c0-.91,.53-1.67,1.22-1.81Z"/></g><g><g><path class="cls-28" d="M33.92,65.31v-5.06c0-1.12,.73-2.03,1.62-2.03s1.62,.91,1.62,2.03v5.06h-3.24Z"/><path class="cls-37" d="M36.99,65.11v-4.87c0-1.02-.65-1.84-1.45-1.84s-1.45,.82-1.45,1.84v4.87h2.9Z"/><path class="cls-28" d="M36.82,64.63h-2.56v-4.13c0-.89,.57-1.61,1.28-1.61s1.28,.72,1.28,1.61v4.13Zm-2.41-.17h2.26v-3.96c0-.79-.51-1.44-1.13-1.44s-1.13,.65-1.13,1.44v3.96Z"/><path class="cls-51" d="M34.41,64.46h2.26v-3.96c0-.79-.51-1.44-1.13-1.44s-1.13,.65-1.13,1.44v3.96Z"/><path class="cls-12" d="M35.78,58.43c-.08-.02-.15-.03-.23-.03-.8,0-1.45,.82-1.45,1.84v4.87h.47v-4.87c0-.91,.53-1.67,1.22-1.81Z"/></g><polygon class="cls-24" points="36.35 62.26 35.57 63.15 34.74 62.26 34.74 61.19 35.57 60.36 36.35 61.19 36.35 62.26"/></g><g><path class="cls-28" d="M40.43,65.31v-5.06c0-1.12,.73-2.03,1.62-2.03s1.62,.91,1.62,2.03v5.06h-3.24Z"/><path class="cls-37" d="M43.5,65.11v-4.87c0-1.02-.65-1.84-1.45-1.84s-1.45,.82-1.45,1.84v4.87h2.9Z"/><path class="cls-28" d="M43.32,64.63h-2.56v-4.13c0-.89,.57-1.61,1.28-1.61s1.28,.72,1.28,1.61v4.13Zm-2.41-.17h2.26v-3.96c0-.79-.51-1.44-1.13-1.44s-1.13,.65-1.13,1.44v3.96Z"/><path class="cls-23" d="M40.92,64.46h2.26v-3.96c0-.79-.51-1.44-1.13-1.44s-1.13,.65-1.13,1.44v3.96Z"/><path class="cls-12" d="M42.28,58.43c-.08-.02-.15-.03-.23-.03-.8,0-1.45,.82-1.45,1.84v4.87h.47v-4.87c0-.91,.53-1.67,1.22-1.81Z"/><polygon class="cls-51" points="42.85 62.43 42.07 63.63 41.24 62.43 41.24 60.97 42.07 59.85 42.85 60.97 42.85 62.43"/><polygon class="cls-23" points="42.48 62.11 42.06 62.76 41.61 62.11 41.61 61.33 42.06 60.72 42.48 61.33 42.48 62.11"/></g><g><polygon class="cls-63" points="69.63 65.33 69.63 57.89 64.53 57.89 64.53 65.33 63 65.33 63 57.89 58.02 57.89 58.02 65.33 56.52 65.33 56.52 57.89 51.58 57.89 51.58 65.33 50.02 65.33 50.02 56.17 71.16 56.17 71.16 65.33 69.63 65.33"/><polygon class="cls-9" points="70.93 56.38 69.82 56.38 64.34 56.38 63.19 56.38 57.83 56.38 56.71 56.38 51.39 56.38 50.21 56.38 50.21 57.67 50.21 65.11 51.39 65.11 51.39 57.67 56.71 57.67 56.71 65.11 57.83 65.11 57.83 57.67 63.19 57.67 63.19 65.11 64.34 65.11 64.34 57.67 69.82 57.67 69.82 65.11 70.97 65.11 70.97 56.38 70.93 56.38"/><polygon class="cls-62" points="51.33 63.43 50.8 64.04 50.26 63.42 50.78 62.81 51.33 63.43"/><polygon class="cls-62" points="51.33 64.52 50.8 65.13 50.26 64.5 50.78 63.9 51.33 64.52"/><polygon class="cls-62" points="51.33 62.15 50.8 62.76 50.26 62.14 50.78 61.53 51.33 62.15"/><polygon class="cls-62" points="51.33 60.87 50.8 61.48 50.26 60.86 50.78 60.25 51.33 60.87"/><polygon class="cls-62" points="51.33 59.6 50.8 60.2 50.26 59.58 50.78 58.97 51.33 59.6"/><polygon class="cls-62" points="51.33 58.32 50.8 58.92 50.26 58.3 50.78 57.69 51.33 58.32"/><polygon class="cls-62" points="51.33 57.04 50.8 57.64 50.26 57.02 50.78 56.41 51.33 57.04"/><polygon class="cls-62" points="52.44 57.04 51.91 57.64 51.37 57.02 51.9 56.41 52.44 57.04"/><polygon class="cls-62" points="53.52 57.04 53 57.64 52.45 57.02 52.98 56.41 53.52 57.04"/><polygon class="cls-62" points="54.61 57.04 54.08 57.64 53.54 57.02 54.07 56.41 54.61 57.04"/><polygon class="cls-62" points="55.69 57.04 55.16 57.64 54.62 57.02 55.15 56.41 55.69 57.04"/><polygon class="cls-62" points="56.78 57.04 56.25 57.64 55.71 57.02 56.24 56.41 56.78 57.04"/><polygon class="cls-62" points="57.78 57.04 57.25 57.64 56.71 57.02 57.24 56.41 57.78 57.04"/><polygon class="cls-18" points="57.78 58.28 57.25 58.89 56.71 58.27 57.24 57.66 57.78 58.28"/><polygon class="cls-18" points="57.78 59.53 57.25 60.14 56.71 59.52 57.24 58.91 57.78 59.53"/><polygon class="cls-18" points="57.78 60.78 57.25 61.39 56.71 60.76 57.24 60.16 57.78 60.78"/><polygon class="cls-18" points="57.78 62.03 57.25 62.63 56.71 62.01 57.24 61.4 57.78 62.03"/><polygon class="cls-18" points="57.78 63.27 57.25 63.88 56.71 63.26 57.24 62.65 57.78 63.27"/><polygon class="cls-18" points="57.78 64.52 57.25 65.13 56.71 64.5 57.24 63.9 57.78 64.52"/><polygon class="cls-18" points="64.3 58.28 63.77 58.89 63.23 58.27 63.76 57.66 64.3 58.28"/><polygon class="cls-18" points="64.3 59.53 63.77 60.14 63.23 59.52 63.76 58.91 64.3 59.53"/><polygon class="cls-18" points="64.3 60.78 63.77 61.39 63.23 60.76 63.76 60.16 64.3 60.78"/><polygon class="cls-18" points="64.3 62.03 63.77 62.63 63.23 62.01 63.76 61.4 64.3 62.03"/><polygon class="cls-18" points="64.3 63.27 63.77 63.88 63.23 63.26 63.76 62.65 64.3 63.27"/><polygon class="cls-18" points="64.3 64.52 63.77 65.13 63.23 64.5 63.76 63.9 64.3 64.52"/><polygon class="cls-62" points="58.95 57.04 58.42 57.64 57.88 57.02 58.4 56.41 58.95 57.04"/><polygon class="cls-62" points="60.03 57.04 59.5 57.64 58.96 57.02 59.49 56.41 60.03 57.04"/><polygon class="cls-62" points="61.12 57.04 60.59 57.64 60.05 57.02 60.57 56.41 61.12 57.04"/><polygon class="cls-62" points="62.2 57.04 61.67 57.64 61.13 57.02 61.66 56.41 62.2 57.04"/><polygon class="cls-62" points="63.26 57.04 62.73 57.64 62.19 57.02 62.72 56.41 63.26 57.04"/><polygon class="cls-62" points="64.3 57.04 63.77 57.64 63.23 57.02 63.76 56.41 64.3 57.04"/><polygon class="cls-62" points="65.43 57.01 64.91 57.62 64.36 57 64.89 56.39 65.43 57.01"/><polygon class="cls-62" points="66.54 57.04 66.01 57.64 65.47 57.02 66 56.41 66.54 57.04"/><polygon class="cls-62" points="67.62 57.04 67.1 57.64 66.55 57.02 67.08 56.41 67.62 57.04"/><polygon class="cls-62" points="68.71 57.04 68.18 57.64 67.64 57.02 68.17 56.41 68.71 57.04"/><polygon class="cls-62" points="69.79 57.04 69.26 57.64 68.72 57.02 69.25 56.41 69.79 57.04"/><polygon class="cls-62" points="70.93 57.04 70.41 57.64 69.86 57.02 70.39 56.41 70.93 57.04"/><polygon class="cls-62" points="70.93 58.25 70.41 58.86 69.86 58.24 70.39 57.63 70.93 58.25"/><polygon class="cls-62" points="70.93 59.47 70.41 60.08 69.86 59.45 70.39 58.84 70.93 59.47"/><polygon class="cls-62" points="70.93 60.68 70.41 61.29 69.86 60.67 70.39 60.06 70.93 60.68"/><polygon class="cls-62" points="70.93 61.9 70.41 62.51 69.86 61.88 70.39 61.27 70.93 61.9"/><polygon class="cls-62" points="70.93 63.11 70.41 63.72 69.86 63.1 70.39 62.49 70.93 63.11"/><polygon class="cls-62" points="70.93 64.36 70.41 64.97 69.86 64.35 70.39 63.74 70.93 64.36"/></g><g><path class="cls-28" d="M52.45,65.21v-5.06c0-1.12,.73-2.03,1.62-2.03s1.62,.91,1.62,2.03v5.06h-3.24Z"/><path class="cls-37" d="M55.52,65.02v-4.87c0-1.02-.65-1.84-1.45-1.84s-1.45,.82-1.45,1.84v4.87h2.9Z"/><rect class="cls-18" x="52.79" y="59.95" width="2.52" height="4.57"/><path class="cls-16" d="M55.48,59.75c-.14-.83-.72-1.45-1.42-1.45s-1.27,.62-1.42,1.45h2.83Z"/><path class="cls-12" d="M54.3,58.34c-.08-.02-.15-.03-.23-.03-.8,0-1.45,.82-1.45,1.84v4.87h.47v-4.87c0-.91,.53-1.67,1.22-1.81Z"/></g><g><g><path class="cls-28" d="M58.95,65.31v-5.06c0-1.12,.73-2.03,1.62-2.03s1.62,.91,1.62,2.03v5.06h-3.24Z"/><path class="cls-37" d="M62.02,65.11v-4.87c0-1.02-.65-1.84-1.45-1.84s-1.45,.82-1.45,1.84v4.87h2.9Z"/><path class="cls-28" d="M61.85,64.63h-2.56v-4.13c0-.89,.57-1.61,1.28-1.61s1.28,.72,1.28,1.61v4.13Zm-2.41-.17h2.26v-3.96c0-.79-.51-1.44-1.13-1.44s-1.13,.65-1.13,1.44v3.96Z"/><path class="cls-51" d="M59.44,64.46h2.26v-3.96c0-.79-.51-1.44-1.13-1.44s-1.13,.65-1.13,1.44v3.96Z"/><path class="cls-12" d="M60.81,58.43c-.08-.02-.15-.03-.23-.03-.8,0-1.45,.82-1.45,1.84v4.87h.47v-4.87c0-.91,.53-1.67,1.22-1.81Z"/></g><polygon class="cls-24" points="61.38 62.26 60.6 63.15 59.77 62.26 59.77 61.19 60.6 60.36 61.38 61.19 61.38 62.26"/></g><g><path class="cls-28" d="M65.46,65.31v-5.06c0-1.12,.73-2.03,1.62-2.03s1.62,.91,1.62,2.03v5.06h-3.24Z"/><path class="cls-37" d="M68.53,65.11v-4.87c0-1.02-.65-1.84-1.45-1.84s-1.45,.82-1.45,1.84v4.87h2.9Z"/><path class="cls-28" d="M68.35,64.63h-2.56v-4.13c0-.89,.57-1.61,1.28-1.61s1.28,.72,1.28,1.61v4.13Zm-2.41-.17h2.26v-3.96c0-.79-.51-1.44-1.13-1.44s-1.13,.65-1.13,1.44v3.96Z"/><path class="cls-23" d="M65.95,64.46h2.26v-3.96c0-.79-.51-1.44-1.13-1.44s-1.13,.65-1.13,1.44v3.96Z"/><path class="cls-12" d="M67.31,58.43c-.08-.02-.15-.03-.23-.03-.8,0-1.45,.82-1.45,1.84v4.87h.47v-4.87c0-.91,.53-1.67,1.22-1.81Z"/><polygon class="cls-51" points="67.88 62.43 67.1 63.63 66.27 62.43 66.27 60.97 67.1 59.85 67.88 60.97 67.88 62.43"/><polygon class="cls-23" points="67.51 62.11 67.09 62.76 66.64 62.11 66.64 61.33 67.09 60.72 67.51 61.33 67.51 62.11"/></g><g><path class="cls-28" d="M46.42,65.31v-5.1c0-1.13,.73-2.05,1.63-2.05s1.63,.92,1.63,2.05v5.1h-3.26Z"/><path class="cls-37" d="M49.51,65.11v-4.9c0-1.02-.65-1.85-1.46-1.85s-1.46,.83-1.46,1.85v4.9h2.92Z"/><path class="cls-28" d="M49.33,64.62h-2.57v-4.16c0-.89,.58-1.62,1.29-1.62s1.29,.73,1.29,1.62v4.16Zm-2.42-.17h2.27v-3.98c0-.8-.51-1.45-1.14-1.45s-1.14,.65-1.14,1.45v3.98Z"/><path class="cls-47" d="M46.91,64.45h2.27v-3.98c0-.8-.51-1.45-1.14-1.45s-1.14,.65-1.14,1.45v3.98Z"/><path class="cls-12" d="M48.28,58.38c-.08-.02-.16-.03-.24-.03-.81,0-1.46,.83-1.46,1.85v4.9h.47v-4.9c0-.92,.53-1.68,1.22-1.82Z"/><polygon class="cls-1" points="48.61 62.41 48.06 63.62 47.49 62.41 47.49 60.94 48.06 59.81 48.61 60.94 48.61 62.41"/></g><rect class="cls-9" x="45.91" y="56.39" width="1.44" height="1.28"/><polygon class="cls-62" points="47.01 57.05 46.48 57.65 45.94 57.03 46.47 56.42 47.01 57.05"/><rect class="cls-63" x="48.64" y="57.7" width="1.58" height=".22"/><rect class="cls-63" x="48.64" y="56.17" width="1.72" height=".22"/><rect class="cls-9" x="48.65" y="56.39" width="1.61" height="1.29"/><polygon class="cls-62" points="50 57.05 49.47 57.65 48.93 57.03 49.45 56.42 50 57.05"/><g><rect class="cls-49" x="25.18" y="67.04" width="2.16" height="8.13"/><rect class="cls-61" x="24.38" y="67.04" width="2.16" height="8.13"/></g><g><rect class="cls-2" x="70.43" y="67.04" width="2.16" height="8.13"/><rect class="cls-61" x="69.63" y="67.04" width="2.16" height="8.13"/></g><g><rect class="cls-49" x="75.08" y="67.04" width="1.28" height="8.13"/><rect class="cls-41" x="75.56" y="67.04" width="1.28" height="8.13"/></g><g><rect class="cls-49" x="78.36" y="67.04" width="1.28" height="8.13"/><rect class="cls-41" x="78.84" y="67.04" width="1.28" height="8.13"/></g><g><rect class="cls-49" x="81.65" y="67.04" width="1.28" height="8.13"/><rect class="cls-41" x="82.12" y="67.04" width="1.28" height="8.13"/></g><g><rect class="cls-49" x="84.31" y="67.04" width="1.28" height="8.13"/><rect class="cls-41" x="84.79" y="67.04" width="1.28" height="8.13"/></g><g><rect class="cls-49" x="87.23" y="67.04" width="1.28" height="8.13"/><rect class="cls-41" x="87.71" y="67.04" width="1.28" height="8.13"/></g><g><rect class="cls-49" x="90.42" y="67.04" width="1.28" height="8.13"/><rect class="cls-41" x="90.9" y="67.04" width="1.28" height="8.13"/></g><g><rect class="cls-49" x="93.43" y="67.04" width="1.28" height="8.13"/><rect class="cls-41" x="93.91" y="67.04" width="1.28" height="8.13"/></g><g><rect class="cls-49" x="19.87" y="67.04" width="1.28" height="8.13"/><rect class="cls-41" x="19.4" y="67.04" width="1.28" height="8.13"/></g><g><rect class="cls-49" x="22.61" y="67.04" width="1.28" height="8.13"/><rect class="cls-41" x="22.14" y="67.04" width="1.28" height="8.13"/></g><g><rect class="cls-49" x="16.59" y="67.04" width="1.28" height="8.13"/><rect class="cls-41" x="16.11" y="67.04" width="1.28" height="8.13"/></g><g><rect class="cls-49" x="13.57" y="67.04" width="1.28" height="8.13"/><rect class="cls-41" x="13.1" y="67.04" width="1.28" height="8.13"/></g><g><rect class="cls-49" x="10.91" y="67.04" width="1.28" height="8.13"/><rect class="cls-41" x="10.43" y="67.04" width="1.28" height="8.13"/></g><g><rect class="cls-49" x="7.72" y="67.04" width="1.28" height="8.13"/><rect class="cls-41" x="7.24" y="67.04" width="1.28" height="8.13"/></g><g><rect class="cls-49" x="4.53" y="67.04" width="1.28" height="8.13"/><rect class="cls-41" x="4.06" y="67.04" width="1.28" height="8.13"/></g><g><rect class="cls-49" x="1.19" y="67.04" width="1.35" height="8.13"/><rect class="cls-41" x=".69" y="67.04" width="1.35" height="8.13"/></g><rect class="cls-48" y="74.59" width="96.41" height="2.28"/><rect class="cls-61" x="24.27" y="74.59" width="47.61" height="2.28"/><path class="cls-14" d="M53.96,76.14v-.11h0s-.02-.09-.06-.12l-.04-.03s-.03-.03-.05-.05c-.02-.03-.04-.06-.06-.09-.02-.03-.03-.07-.03-.11v-5.5h.03c.14,0,.25-.1,.25-.23,0-.03,0-.05-.02-.07h.14v-.19h-2.03v.19h.24s-.02,.05-.02,.07c0,.13,.11,.23,.25,.23h.09v5.53h0s-.01,.08-.03,.11c-.02,.03-.04,.07-.06,.09h0s-.03,.03-.05,.05l-.04,.04s-.05,.07-.05,.12h0v.09c-.11,.04-.19,.14-.19,.27v1.38h1.96v-1.38c0-.14-.1-.24-.22-.27Z"/><rect class="cls-48" x="43.62" y="61.8" width="8.14" height="5.52"/><path class="cls-60" d="M53.61,62.95c-.63,0-1.19-.35-1.6-.82-.94-1.1-2.34-1.8-3.9-1.8h-.19c-1.56,0-2.96,.7-3.91,1.8-.41,.48-.97,.82-1.6,.82h-.72c-.27,0-.49,.22-.49,.49v3.89c0,.27,.22,.49,.49,.49h2.72c0-2.38-.15-3.22,.63-4.33h0c.63-.9,1.68-1.5,2.86-1.5h.19c.94,0,1.79,.37,2.41,.97,.7,.67,1.08,1.58,1.08,2.53v2.33h3.21v-4.37c0-.27-.22-.49-.49-.49h-.72Z"/><rect class="cls-70" x="45.96" y="67.5" width="4.29" height="9.38"/><path class="cls-14" d="M44.75,67.86c.02-.91,.12-1.45,.57-2.08l.07-.08v-.02c.6-.77,1.53-1.23,2.52-1.23h.19c.81,0,1.59,.3,2.18,.85,.62,.58,.98,1.38,.98,2.21v.34h3.89v-2.32c0-.44-.37-.8-.83-.8h-.72c-.64,0-1.11-.43-1.34-.68-1.05-1.19-2.57-1.86-4.17-1.86h-.19c-1.6,0-3.12,.68-4.17,1.86-.22,.25-.7,.68-1.34,.68h-.72c-.46,0-.83,.36-.83,.8v1.41l3.89,.91Z"/><g class="cls-13"><path class="cls-21" d="M32.6,76.14v-.11h0s-.02-.09-.06-.12l-.04-.03s-.03-.03-.05-.05c-.02-.03-.04-.06-.06-.09-.02-.03-.03-.07-.03-.11v-5.51h.03c.14,0,.25-.1,.25-.23,0-.03,0-.05-.02-.07h.14v-.19h-2.03v.19h.24s-.02,.05-.02,.07c0,.13,.11,.23,.25,.23h.09v5.53h0s-.01,.08-.03,.11c-.02,.03-.04,.07-.06,.09h0s-.03,.03-.05,.05l-.04,.04s-.05,.07-.05,.12h0v.09c-.11,.04-.19,.14-.19,.27v1.38h1.96v-1.38c0-.14-.1-.24-.22-.27Z"/><path class="cls-21" d="M35.87,76.14v-.11h0s-.02-.09-.06-.12l-.04-.03s-.03-.03-.05-.05c-.02-.03-.04-.06-.06-.09-.02-.03-.03-.07-.03-.11v-5.5h.03c.14,0,.25-.1,.25-.23,0-.03,0-.05-.02-.07h.14v-.19h-2.03v.19h.24s-.02,.05-.02,.07c0,.13,.11,.23,.25,.23h.09v5.53h0s-.01,.08-.03,.11c-.02,.03-.04,.07-.06,.09h0s-.03,.03-.05,.05l-.04,.04s-.05,.07-.05,.12h0v.09c-.11,.04-.19,.14-.19,.27v1.38h1.95v-1.38c0-.14-.1-.24-.22-.27Z"/><path class="cls-21" d="M41.1,76.14v-.11h0s-.02-.09-.06-.12l-.04-.03s-.03-.03-.05-.05c-.02-.03-.04-.06-.06-.09-.02-.03-.03-.07-.03-.11v-5.5h.03c.14,0,.25-.1,.25-.23,0-.03,0-.05-.02-.07h.14v-.19h-2.03v.19h.24s-.02,.05-.02,.07c0,.13,.11,.23,.25,.23h.09v5.53h0s-.02,.08-.03,.11c-.02,.03-.04,.07-.06,.09h0s-.03,.03-.05,.05l-.04,.04s-.05,.07-.05,.12h0v.09c-.11,.04-.19,.14-.19,.27v1.38h1.96v-1.38c0-.14-.1-.24-.22-.27Z"/><path class="cls-21" d="M55.59,68.15v-4.72c0-.46-.37-.83-.83-.83h-.72c-.64,0-1.11-.44-1.34-.7-1.05-1.22-2.57-1.92-4.17-1.92h-.19c-1.6,0-3.12,.7-4.17,1.92-.22,.26-.7,.7-1.34,.7h-.72c-.46,0-.83,.37-.83,.83v3.89c0,.46,.37,.83,.83,.83h0v.94c0,.26,.19,.48,.43,.53h-.07v.19h.24s-.02,.05-.02,.07c0,.13,.11,.23,.25,.23h.09v5.53h0s-.01,.08-.03,.11c-.02,.03-.04,.07-.06,.09h0s-.03,.03-.05,.05l-.04,.04s-.05,.07-.05,.12h0v.09c-.11,.04-.19,.14-.19,.27v1.38h1.96v-1.38c0-.14-.1-.24-.22-.27v-.11h0s-.02-.09-.06-.12l-.04-.03s-.03-.03-.05-.05c-.02-.03-.04-.06-.06-.09-.02-.03-.03-.07-.03-.11v-5.5h.03c.14,0,.25-.1,.25-.23,0-.03,0-.05-.02-.07h.14v-.18h.64v-1.49h.03v-.34c0-.36,0-.68,0-.98-.02-1.62-.02-2.29,.57-3.14l.07-.08v-.02c.6-.79,1.53-1.26,2.52-1.26h.19c.81,0,1.59,.31,2.18,.88,.62,.59,.98,1.42,.98,2.28v2.68h.02v1.49h2.85c.3,0,.18-.24,.18-.54v-.94h.84Z"/></g><g class="cls-13"><path class="cls-21" d="M57.49,69.63h.43v.19h-.14s.02,.05,.02,.07c0,.13-.11,.23-.25,.23h-.02v5.51s0,.07,.02,.11c.02,.03,.04,.06,.06,.09,.02,.02,.03,.03,.05,.05l.04,.03s.06,.08,.06,.12h0v.12c.13,.03,.22,.14,.22,.27v1.38h-1.96v-1.38c0-.12,.08-.23,.19-.27v-.08h0s.02-.09,.05-.12l.04-.04s.03-.03,.05-.05h0s.04-.06,.06-.09c.02-.04,.03-.07,.03-.11h0v-5.53h-.09c-.14,0-.25-.1-.25-.23,0-.03,0-.05,.02-.07h-.24v-.19h1.6Z"/><path class="cls-21" d="M60.76,69.63h.43v.19h-.14s.02,.05,.02,.07c0,.13-.11,.23-.25,.23h-.02v5.5s0,.07,.03,.11c.02,.03,.04,.06,.06,.09,.02,.02,.03,.03,.05,.05l.04,.03s.06,.08,.06,.12h0v.12c.13,.03,.22,.14,.22,.27v1.38h-1.95v-1.38c0-.12,.08-.23,.19-.27v-.08h0s.02-.09,.05-.12l.04-.04s.03-.03,.05-.05h0s.04-.06,.06-.09c.02-.04,.03-.07,.03-.11h0v-5.53h-.09c-.14,0-.25-.1-.25-.23,0-.03,0-.05,.02-.07h-.24v-.19h1.6Z"/><path class="cls-21" d="M65.99,69.63h.43v.19h-.14s.02,.05,.02,.07c0,.13-.11,.23-.25,.23h-.02v5.5s0,.07,.03,.11c.02,.03,.04,.06,.06,.09,.02,.02,.03,.03,.05,.05l.04,.03s.06,.08,.06,.12h0v.12c.13,.03,.22,.14,.22,.27v1.38h-1.96v-1.38c0-.12,.08-.23,.19-.27v-.08h0s.02-.09,.05-.12l.04-.04s.03-.03,.05-.05h0s.04-.06,.06-.09c.02-.04,.03-.07,.03-.11h0v-5.53h-.09c-.14,0-.25-.1-.25-.23,0-.03,0-.05,.02-.07h-.24v-.19h1.6Z"/><rect class="cls-21" x="55.77" y="68.87" width="11.23" height=".76"/></g><rect class="cls-11" x="43.5" y="61.86" width="9.64" height="15.06"/><rect class="cls-11" x="43.5" y="61.86" width="9.64" height="15.06"/><rect class="cls-11" x="31.14" y="69.24" width="11.6" height="1.9"/><rect class="cls-11" x="53.21" y="69.24" width="11.6" height="1.9"/><g><polygon class="cls-71" points="43.69 75.66 42.63 75.69 42.63 69.94 43.69 69.94 43.69 75.66"/><polygon class="cls-15" points="43.69 69.94 43.34 69.94 43.33 75.66 43.69 75.66 43.69 69.94"/><g><path class="cls-45" d="M43.96,69.89c0,.13-.11,.23-.25,.23h-.81c-.14,0-.25-.1-.25-.23h0c0-.13,.11-.23,.25-.23h.81c.14,0,.25,.1,.25,.23h0Z"/><path class="cls-71" d="M43.59,69.89c0,.13-.11,.23-.25,.23h-.81c-.14,0-.25-.1-.25-.23h0c0-.13,.11-.23,.25-.23h.81c.14,0,.25,.1,.25,.23h0Z"/></g><path class="cls-45" d="M43.69,75.62l-.87,.03h0c.04,.09-.05,.19-.13,.25l-.05,.04s-.06,.07-.06,.09v.18l1.35-.03v-.15s-.02-.09-.06-.12l-.04-.03c-.07-.06-.14-.15-.14-.25h0Z"/><path class="cls-71" d="M43.33,75.62l-.7,.03h-.01c0,.1-.09,.2-.14,.25l-.04,.04s-.05,.07-.05,.12v.15l1.16-.03v-.15s-.02-.09-.05-.12l-.03-.03c-.07-.06-.12-.17-.13-.25h0Z"/><g><rect class="cls-45" x="42.39" y="69.63" width="1.69" height=".19"/><rect class="cls-71" x="42.06" y="69.63" width="1.6" height=".19"/></g><path class="cls-69" d="M42.53,75.86l1.25-.03s-.05-.06-.07-.1l-1.12,.03s-.04,.07-.07,.1Z"/><polygon class="cls-69" points="42.39 76.06 42.39 76.22 43.93 76.18 43.93 76.03 43.93 76.03 42.39 76.06 42.39 76.06"/><path class="cls-45" d="M44.15,77.8h-1.96v-1.38c0-.16,.13-.29,.29-.29h1.38c.16,0,.29,.13,.29,.29v1.38Z"/><path class="cls-71" d="M43.29,76.13h-.81c-.16,0-.29,.13-.29,.29v1.38h1.38v-1.38c0-.16-.13-.29-.29-.29Z"/></g><g><polygon class="cls-71" points="53.36 75.66 52.3 75.69 52.3 69.94 53.36 69.94 53.36 75.66"/><polygon class="cls-15" points="53.37 69.94 53.02 69.94 53.01 75.66 53.36 75.66 53.37 69.94"/><g><path class="cls-45" d="M53.64,69.89c0,.13-.11,.23-.25,.23h-.81c-.14,0-.25-.1-.25-.23h0c0-.13,.11-.23,.25-.23h.81c.14,0,.25,.1,.25,.23h0Z"/><path class="cls-71" d="M53.26,69.89c0,.13-.11,.23-.25,.23h-.81c-.14,0-.25-.1-.25-.23h0c0-.13,.11-.23,.25-.23h.81c.14,0,.25,.1,.25,.23h0Z"/></g><path class="cls-45" d="M53.36,75.62l-.87,.03h0c.04,.09-.05,.19-.13,.25l-.05,.04s-.06,.07-.06,.09v.18l1.35-.03v-.15s-.02-.09-.06-.12l-.04-.03c-.07-.06-.14-.15-.14-.25h0Z"/><path class="cls-71" d="M53.01,75.62l-.7,.03h-.01c0,.1-.08,.2-.14,.25l-.04,.04s-.05,.07-.05,.12v.15l1.16-.03v-.15s-.02-.09-.05-.12l-.03-.03c-.07-.06-.12-.17-.13-.25h0Z"/><g><rect class="cls-45" x="52.07" y="69.63" width="1.69" height=".19"/><rect class="cls-71" x="51.73" y="69.63" width="1.6" height=".19"/></g><path class="cls-69" d="M52.2,75.86l1.25-.03s-.05-.06-.07-.1l-1.12,.03s-.04,.07-.07,.1Z"/><polygon class="cls-69" points="52.06 76.06 52.06 76.22 53.6 76.18 53.6 76.03 53.6 76.03 52.06 76.06 52.06 76.06"/><path class="cls-45" d="M53.82,77.8h-1.96v-1.38c0-.16,.13-.29,.29-.29h1.38c.16,0,.29,.13,.29,.29v1.38Z"/><path class="cls-71" d="M52.96,76.13h-.81c-.16,0-.29,.13-.29,.29v1.38h1.38v-1.38c0-.16-.13-.29-.29-.29Z"/></g><g><polygon class="cls-71" points="31.93 75.66 30.87 75.69 30.87 69.94 31.93 69.94 31.93 75.66"/><polygon class="cls-15" points="31.93 69.94 31.58 69.94 31.57 75.66 31.92 75.66 31.93 69.94"/><g><path class="cls-45" d="M32.2,69.89c0,.13-.11,.23-.25,.23h-.81c-.14,0-.25-.1-.25-.23h0c0-.13,.11-.23,.25-.23h.81c.14,0,.25,.1,.25,.23h0Z"/><path class="cls-71" d="M31.83,69.89c0,.13-.11,.23-.25,.23h-.81c-.14,0-.25-.1-.25-.23h0c0-.13,.11-.23,.25-.23h.81c.14,0,.25,.1,.25,.23h0Z"/></g><path class="cls-45" d="M31.93,75.62l-.87,.03h0c.04,.09-.05,.19-.13,.25l-.05,.04s-.06,.07-.06,.09v.18l1.35-.03v-.15s-.02-.09-.06-.12l-.04-.03c-.07-.06-.14-.15-.14-.25h0Z"/><path class="cls-71" d="M31.57,75.62l-.7,.03h-.01c0,.1-.08,.2-.14,.25l-.04,.04s-.05,.07-.05,.12v.15l1.16-.03v-.15s-.02-.09-.05-.12l-.03-.03c-.07-.06-.12-.17-.13-.25h0Z"/><g><rect class="cls-45" x="30.63" y="69.63" width="1.69" height=".19"/><rect class="cls-71" x="30.3" y="69.63" width="1.6" height=".19"/></g><path class="cls-69" d="M30.77,75.86l1.25-.03s-.05-.06-.07-.1l-1.12,.03s-.04,.07-.07,.1Z"/><polygon class="cls-69" points="30.63 76.06 30.63 76.22 32.17 76.18 32.17 76.03 32.17 76.03 30.63 76.06 30.63 76.06"/><path class="cls-45" d="M32.39,77.8h-1.96v-1.38c0-.16,.13-.29,.29-.29h1.38c.16,0,.29,.13,.29,.29v1.38Z"/><path class="cls-71" d="M31.53,76.13h-.81c-.16,0-.29,.13-.29,.29v1.38h1.38v-1.38c0-.16-.13-.29-.29-.29Z"/></g><g><polygon class="cls-71" points="35.19 75.66 34.13 75.69 34.13 69.94 35.19 69.94 35.19 75.66"/><polygon class="cls-15" points="35.2 69.94 34.85 69.94 34.84 75.66 35.19 75.66 35.2 69.94"/><g><path class="cls-45" d="M35.47,69.89c0,.13-.11,.23-.25,.23h-.81c-.14,0-.25-.1-.25-.23h0c0-.13,.11-.23,.25-.23h.81c.14,0,.25,.1,.25,.23h0Z"/><path class="cls-71" d="M35.1,69.89c0,.13-.11,.23-.25,.23h-.81c-.14,0-.25-.1-.25-.23h0c0-.13,.11-.23,.25-.23h.81c.14,0,.25,.1,.25,.23h0Z"/></g><path class="cls-45" d="M35.19,75.62l-.87,.03h0c.04,.09-.05,.19-.13,.25l-.05,.04s-.06,.07-.06,.09v.18l1.35-.03v-.15s-.02-.09-.06-.12l-.04-.03c-.07-.06-.14-.15-.14-.25h0Z"/><path class="cls-71" d="M34.84,75.62l-.7,.03h0c0,.1-.08,.2-.14,.25l-.04,.04s-.05,.07-.05,.12v.15l1.16-.03v-.15s-.02-.09-.05-.12l-.03-.03c-.07-.06-.12-.17-.13-.25h0Z"/><g><rect class="cls-45" x="33.9" y="69.63" width="1.69" height=".19"/><rect class="cls-71" x="33.57" y="69.63" width="1.6" height=".19"/></g><path class="cls-69" d="M34.04,75.86l1.25-.03s-.05-.06-.07-.1l-1.12,.03s-.04,.07-.07,.1Z"/><polygon class="cls-69" points="33.89 76.06 33.89 76.22 35.43 76.18 35.43 76.03 35.43 76.03 33.89 76.06 33.89 76.06"/><path class="cls-45" d="M35.66,77.8h-1.96v-1.38c0-.16,.13-.29,.29-.29h1.38c.16,0,.29,.13,.29,.29v1.38Z"/><path class="cls-71" d="M34.8,76.13h-.81c-.16,0-.29,.13-.29,.29v1.38h1.38v-1.38c0-.16-.13-.29-.29-.29Z"/></g><g><polygon class="cls-71" points="40.42 75.66 39.36 75.69 39.36 69.94 40.42 69.94 40.42 75.66"/><polygon class="cls-15" points="40.43 69.94 40.08 69.94 40.07 75.66 40.42 75.66 40.43 69.94"/><g><path class="cls-45" d="M40.7,69.89c0,.13-.11,.23-.25,.23h-.81c-.14,0-.25-.1-.25-.23h0c0-.13,.11-.23,.25-.23h.81c.14,0,.25,.1,.25,.23h0Z"/><path class="cls-71" d="M40.33,69.89c0,.13-.11,.23-.25,.23h-.81c-.14,0-.25-.1-.25-.23h0c0-.13,.11-.23,.25-.23h.81c.14,0,.25,.1,.25,.23h0Z"/></g><path class="cls-45" d="M40.42,75.62l-.87,.03h0c.04,.09-.05,.19-.13,.25l-.05,.04s-.06,.07-.06,.09v.18l1.35-.03v-.15s-.02-.09-.06-.12l-.04-.03c-.08-.06-.14-.15-.14-.25h0Z"/><path class="cls-71" d="M40.07,75.62l-.7,.03h-.01c0,.1-.09,.2-.14,.25l-.04,.04s-.05,.07-.05,.12v.15l1.16-.03v-.15s-.02-.09-.05-.12l-.03-.03c-.07-.06-.12-.17-.13-.25h0Z"/><g><rect class="cls-45" x="39.13" y="69.63" width="1.69" height=".19"/><rect class="cls-71" x="38.8" y="69.63" width="1.6" height=".19"/></g><path class="cls-69" d="M39.26,75.86l1.25-.03s-.05-.06-.07-.1l-1.12,.03s-.04,.07-.07,.1Z"/><polygon class="cls-69" points="39.12 76.06 39.12 76.22 40.66 76.18 40.66 76.03 40.66 76.03 39.12 76.06 39.12 76.06"/><path class="cls-45" d="M40.88,77.8h-1.96v-1.38c0-.16,.13-.29,.29-.29h1.38c.16,0,.29,.13,.29,.29v1.38Z"/><path class="cls-71" d="M40.02,76.13h-.81c-.16,0-.29,.13-.29,.29v1.38h1.38v-1.38c0-.16-.13-.29-.29-.29Z"/></g><rect class="cls-32" x="30.17" y="68.87" width="12.97" height=".76"/><g><polygon class="cls-71" points="57.04 75.66 55.98 75.69 55.98 69.94 57.04 69.94 57.04 75.66"/><polygon class="cls-15" points="57.05 69.94 56.69 69.94 56.69 75.66 57.04 75.66 57.05 69.94"/><g><path class="cls-45" d="M57.32,69.89c0,.13-.11,.23-.25,.23h-.81c-.14,0-.25-.1-.25-.23h0c0-.13,.11-.23,.25-.23h.81c.14,0,.25,.1,.25,.23h0Z"/><path class="cls-71" d="M56.94,69.89c0,.13-.11,.23-.25,.23h-.81c-.14,0-.25-.1-.25-.23h0c0-.13,.11-.23,.25-.23h.81c.14,0,.25,.1,.25,.23h0Z"/></g><path class="cls-45" d="M57.04,75.62l-.87,.03h0c.04,.09-.05,.19-.13,.25l-.05,.04s-.06,.07-.06,.09v.18l1.35-.03v-.15s-.02-.09-.06-.12l-.04-.03c-.07-.06-.14-.15-.14-.25h0Z"/><path class="cls-71" d="M56.68,75.62l-.7,.03h0c0,.1-.08,.2-.14,.25l-.04,.04s-.05,.07-.05,.12v.15l1.16-.03v-.15s-.02-.09-.05-.12l-.03-.03c-.07-.06-.12-.17-.13-.25h0Z"/><g><rect class="cls-45" x="55.75" y="69.63" width="1.69" height=".19"/><rect class="cls-71" x="55.41" y="69.63" width="1.6" height=".19"/></g><path class="cls-69" d="M55.88,75.86l1.25-.03s-.05-.06-.07-.1l-1.12,.03s-.04,.07-.07,.1Z"/><polygon class="cls-69" points="55.74 76.06 55.74 76.22 57.28 76.18 57.28 76.03 57.28 76.03 55.74 76.06 55.74 76.06"/><path class="cls-45" d="M57.5,77.8h-1.95v-1.38c0-.16,.13-.29,.29-.29h1.38c.16,0,.29,.13,.29,.29v1.38Z"/><path class="cls-71" d="M56.64,76.13h-.81c-.16,0-.29,.13-.29,.29v1.38h1.38v-1.38c0-.16-.13-.29-.29-.29Z"/></g><g><polygon class="cls-71" points="60.31 75.66 59.25 75.69 59.25 69.94 60.31 69.94 60.31 75.66"/><polygon class="cls-15" points="60.31 69.94 59.96 69.94 59.95 75.66 60.31 75.66 60.31 69.94"/><g><path class="cls-45" d="M60.58,69.89c0,.13-.11,.23-.25,.23h-.81c-.14,0-.25-.1-.25-.23h0c0-.13,.11-.23,.25-.23h.81c.14,0,.25,.1,.25,.23h0Z"/><path class="cls-71" d="M60.21,69.89c0,.13-.11,.23-.25,.23h-.81c-.14,0-.25-.1-.25-.23h0c0-.13,.11-.23,.25-.23h.81c.14,0,.25,.1,.25,.23h0Z"/></g><path class="cls-45" d="M60.31,75.62l-.87,.03h0c.04,.09-.05,.19-.13,.25l-.05,.04s-.06,.07-.06,.09v.18l1.35-.03v-.15s-.02-.09-.06-.12l-.04-.03c-.07-.06-.14-.15-.14-.25h0Z"/><path class="cls-71" d="M59.95,75.62l-.7,.03h-.01c0,.1-.08,.2-.14,.25l-.04,.04s-.05,.07-.05,.12v.15l1.16-.03v-.15s-.02-.09-.05-.12l-.03-.03c-.07-.06-.12-.17-.13-.25h0Z"/><g><rect class="cls-45" x="59.01" y="69.63" width="1.69" height=".19"/><rect class="cls-71" x="58.68" y="69.63" width="1.6" height=".19"/></g><path class="cls-69" d="M59.15,75.86l1.25-.03s-.05-.06-.07-.1l-1.12,.03s-.04,.07-.07,.1Z"/><polygon class="cls-69" points="59.01 76.06 59.01 76.22 60.55 76.18 60.55 76.03 60.55 76.03 59.01 76.06 59.01 76.06"/><path class="cls-45" d="M60.77,77.8h-1.96v-1.38c0-.16,.13-.29,.29-.29h1.38c.16,0,.29,.13,.29,.29v1.38Z"/><path class="cls-71" d="M59.91,76.13h-.81c-.16,0-.29,.13-.29,.29v1.38h1.38v-1.38c0-.16-.13-.29-.29-.29Z"/></g><g><polygon class="cls-71" points="65.54 75.66 64.47 75.69 64.47 69.94 65.54 69.94 65.54 75.66"/><polygon class="cls-15" points="65.54 69.94 65.19 69.94 65.18 75.66 65.53 75.66 65.54 69.94"/><g><path class="cls-45" d="M65.81,69.89c0,.13-.11,.23-.25,.23h-.81c-.14,0-.25-.1-.25-.23h0c0-.13,.11-.23,.25-.23h.81c.14,0,.25,.1,.25,.23h0Z"/><path class="cls-71" d="M65.44,69.89c0,.13-.11,.23-.25,.23h-.81c-.14,0-.25-.1-.25-.23h0c0-.13,.11-.23,.25-.23h.81c.14,0,.25,.1,.25,.23h0Z"/></g><path class="cls-45" d="M65.53,75.62l-.87,.03h0c.04,.09-.05,.19-.13,.25l-.05,.04s-.06,.07-.06,.09v.18l1.35-.03v-.15s-.02-.09-.06-.12l-.04-.03c-.08-.06-.14-.15-.14-.25h0Z"/><path class="cls-71" d="M65.18,75.62l-.7,.03h0c0,.1-.08,.2-.14,.25l-.04,.04s-.05,.07-.05,.12v.15l1.16-.03v-.15s-.02-.09-.05-.12l-.03-.03c-.07-.06-.12-.17-.13-.25h0Z"/><g><rect class="cls-45" x="64.24" y="69.63" width="1.69" height=".19"/><rect class="cls-71" x="63.91" y="69.63" width="1.6" height=".19"/></g><path class="cls-69" d="M64.38,75.86l1.25-.03s-.05-.06-.07-.1l-1.12,.03s-.04,.07-.07,.1Z"/><polygon class="cls-69" points="64.24 76.06 64.24 76.22 65.77 76.18 65.77 76.03 65.77 76.03 64.24 76.06 64.24 76.06"/><path class="cls-45" d="M66,77.8h-1.96v-1.38c0-.16,.13-.29,.29-.29h1.38c.16,0,.29,.13,.29,.29v1.38Z"/><path class="cls-71" d="M65.14,76.13h-.81c-.16,0-.29,.13-.29,.29v1.38h1.38v-1.38c0-.16-.13-.29-.29-.29Z"/></g><rect class="cls-32" x="53.15" y="68.87" width="12.97" height=".76"/><g><g><path class="cls-30" d="M44.73,69.64h-2.49c-.3,0-.54-.24-.54-.54v-2.04h3.03v2.58Z"/><path class="cls-30" d="M51.28,69.64h2.85c.3,0,.18-.24,.18-.54v-2.04h-3.03v2.58Z"/><path class="cls-25" d="M51.26,68.15v-2.68c0-.85-.36-1.68-.98-2.28-.59-.57-1.36-.88-2.18-.88h-.19c-.99,0-1.92,.47-2.52,1.26v.02l-.07,.08c-.59,.85-.58,1.52-.57,3.14,0,.3,0,.62,0,.98v.34h-3.07c-.46,0-.83-.37-.83-.83v-3.89c0-.46,.37-.83,.83-.83h.72c.64,0,1.11-.44,1.34-.7,1.05-1.22,2.57-1.92,4.17-1.92h.19c1.6,0,3.12,.7,4.17,1.92,.23,.26,.7,.7,1.34,.7h.72c.46,0,.83,.37,.83,.83v4.72h-3.89Z"/><path class="cls-34" d="M53.61,62.95c-.63,0-1.19-.35-1.6-.82-.94-1.1-2.34-1.8-3.9-1.8h-.19c-1.56,0-2.96,.7-3.91,1.8-.41,.48-.97,.82-1.6,.82h-.72c-.27,0-.49,.22-.49,.49v3.89c0,.27,.22,.49,.49,.49h2.72c0-2.38-.15-3.22,.63-4.33h0c.63-.9,1.68-1.5,2.86-1.5h.19c.94,0,1.79,.37,2.41,.97,.7,.67,1.08,1.58,1.08,2.53v2.33h3.21v-4.37c0-.27-.22-.49-.49-.49h-.72Z"/></g><path class="cls-66" d="M53.26,67.81h1.03v-3.88c0-.25-.18-.46-.4-.46h-.85c-.52,0-1.2-.43-1.54-.88-.78-1.05-2.12-1.62-3.41-1.62h-.16c-1.29,0-2.66,.73-3.46,1.66-.38,.43-.73,.81-1.75,.84h-.59c-.22,0-.4,.21-.4,.46v3.7c0,.06,.01,.12,.03,.18h2.66c0-2.38-.15-3.22,.63-4.33h0c.63-.9,1.68-1.5,2.86-1.5h.19c.94,0,1.79,.37,2.41,.97,.7,.67,1.08,1.58,1.08,2.53v2.33h1.65Z"/></g></g></g></g></g></svg>