<?xml version="1.0" encoding="UTF-8"?><svg id="_이어_2" xmlns="http://www.w3.org/2000/svg" viewBox="0 0 5.65 14.19"><defs><style>.cls-1{fill:#a10136;}</style></defs><g id="_도"><polygon id="israel" class="cls-1" points="5.62 1.71 5.56 1.63 5.53 1.51 5.52 1.4 5.54 1.29 5.59 1.19 5.64 1.11 5.63 1.05 5.57 .86 5.48 .68 5.41 .58 5.41 .49 5.41 .4 5.43 .31 5.46 .23 5.52 0 5.47 .03 5.35 .13 5.25 .23 5.08 .34 4.78 .58 4.64 .72 4.59 .63 4.54 .63 4.48 .66 4.41 .68 4.28 1.17 4.14 1.27 3.99 1.32 3.83 1.34 3.67 1.32 3.55 1.3 3.43 1.28 3.31 1.28 3.2 1.29 3.01 1.31 2.81 2.14 1.59 5.51 1.16 6.26 .63 6.96 0 7.6 .05 7.71 .11 7.89 .55 9.07 .82 9.78 .96 10.19 1.04 10.46 1.09 10.73 1.52 11.64 2.22 13.88 2.33 14.19 2.56 13.91 2.73 13.08 2.88 12.4 3 12.11 3.06 11.99 3.1 11.87 3.11 11.75 3.09 11.62 3.17 10.63 3.43 9.91 3.53 9.68 3.71 9.25 3.81 9.03 3.9 8.86 3.96 8.68 4.1 8.28 4 7.98 3.97 7.93 3.98 7.9 4.05 7.59 4.09 7.32 4.14 7.04 4.18 6.79 4.24 6.55 4.27 6.45 4.3 6.36 4.35 6.27 4.4 6.19 4.46 6.06 4.49 5.92 4.49 5.78 4.45 5.63 4.41 5.24 4.41 5.03 4.42 4.86 4.45 4.68 4.49 4.51 4.54 4.34 4.47 3.78 4.53 2.98 4.54 2.94 4.56 2.89 4.58 2.85 4.61 2.81 4.67 2.77 4.74 2.73 4.8 2.7 4.87 2.68 5.08 2.6 5.25 2.58 5.26 2.54 5.29 2.45 5.32 2.36 5.37 2.28 5.43 2.2 5.57 1.97 5.63 1.88 5.65 1.8 5.62 1.71"/></g></svg>