<?xml version="1.0" encoding="UTF-8"?><svg id="_이어_2" xmlns="http://www.w3.org/2000/svg" viewBox="0 0 83.35 58.5"><defs><style>.cls-1,.cls-2{fill:#c08134;}.cls-3{fill:#fff;}.cls-4,.cls-5,.cls-2,.cls-6,.cls-7,.cls-8,.cls-9,.cls-10,.cls-11,.cls-12{fill-rule:evenodd;}.cls-4,.cls-13{fill:#837a5d;}.cls-5,.cls-14{fill:#fbd690;}.cls-15{fill:#fff0cf;}.cls-16,.cls-8{fill:#9b6d32;}.cls-17,.cls-9{fill:#825926;}.cls-18,.cls-11{fill:#4d300e;}.cls-19,.cls-6{fill:#99cdfd;}.cls-7{fill:#14100d;}.cls-20{fill:#ad9d7c;}.cls-21{fill:#c68e48;}.cls-22{fill:#bc8f56;}.cls-10{fill:#c48b46;}.cls-23{fill:#e1a14d;}.cls-12,.cls-24{fill:#f2b467;}</style></defs><g id="Italy"><g><rect class="cls-1" x="46.78" y="27.03" width="36.58" height="30.56"/><polygon class="cls-8" points="46.78 57.58 68.28 57.58 54.31 27.03 46.78 27.03 46.78 57.58"/><path class="cls-11" d="M59.41,52.67v4.92h3.91v-4.9c-.17-3.02-3.91-2.67-3.91-.01h0Z"/><path class="cls-11" d="M65.67,52.67v4.92h2.61v-4.9c-.12-3.02-2.62-2.67-2.61-.01h0Z"/><path class="cls-11" d="M70.76,52.67v4.92h2.49v-4.9c-.12-3.02-2.51-2.67-2.49-.01h0Z"/><path class="cls-11" d="M75.12,52.67v4.92h1.85v-4.9c-.08-3.02-1.85-2.67-1.85-.01h0Z"/><path class="cls-11" d="M78.36,52.67v4.92h1.36v-4.9c-.07-3.02-1.36-2.67-1.36-.01h0Z"/><path class="cls-11" d="M80.63,52.67v4.92h.61v-4.9c-.03-3.02-.63-2.67-.61-.01h0Z"/><path class="cls-11" d="M82.05,52.67v4.92h.48v-4.9c-.01-3.02-.48-2.67-.48-.01h0Z"/><path class="cls-11" d="M59.41,39.37v4.9h3.91v-4.9c-.17-3.02-3.91-2.67-3.91,0h0Z"/><path class="cls-11" d="M65.67,39.37v4.9h2.61v-4.9c-.12-3.02-2.62-2.67-2.61,0h0Z"/><path class="cls-11" d="M70.76,39.37v4.9h2.49v-4.9c-.12-3.02-2.51-2.67-2.49,0h0Z"/><path class="cls-11" d="M75.12,39.37v4.9h1.85v-4.9c-.08-3.02-1.85-2.67-1.85,0h0Z"/><path class="cls-11" d="M78.36,39.37v4.9h1.36v-4.9c-.07-3.02-1.36-2.67-1.36,0h0Z"/><path class="cls-11" d="M80.63,39.37v4.9h.61v-4.9c-.03-3.02-.63-2.67-.61,0h0Z"/><path class="cls-11" d="M82.05,39.37v4.9h.48v-4.9c-.01-3.02-.48-2.67-.48,0h0Z"/><path class="cls-11" d="M61.3,33.1c.73,0,1.32,.6,1.32,1.36,0,.09,0,.19-.03,.27-.12-.62-.65-1.07-1.29-1.07s-1.16,.46-1.29,1.07c-.01-.08-.03-.17-.03-.27,0-.75,.6-1.36,1.32-1.36h0Z"/><path class="cls-11" d="M79.04,35.81c.38,0,.68-.62,.68-1.36s-.3-1.36-.68-1.36-.68,.6-.68,1.36,.3,1.36,.68,1.36h0Z"/><rect class="cls-16" x="65.67" y="44.27" width="2.61" height="3.94"/><rect class="cls-16" x="70.76" y="44.27" width="2.49" height="3.94"/><rect class="cls-16" x="75.12" y="44.27" width="1.85" height="3.94"/><rect class="cls-16" x="78.36" y="44.27" width="1.36" height="3.94"/><rect class="cls-16" x="80.63" y="44.27" width=".61" height="3.94"/><rect class="cls-16" x="82.05" y="44.27" width=".48" height="3.94"/><rect class="cls-16" x="65.67" y="49.08" width="2.61" height=".31"/><rect class="cls-16" x="70.76" y="49.08" width="2.49" height=".31"/><rect class="cls-16" x="75.12" y="49.08" width="1.85" height=".31"/><rect class="cls-16" x="78.36" y="49.08" width="1.36" height=".31"/><rect class="cls-16" x="80.63" y="49.08" width=".61" height=".31"/><rect class="cls-16" x="82.05" y="49.08" width=".48" height=".31"/><rect class="cls-16" x="65.67" y="35.77" width="2.61" height=".31"/><rect class="cls-16" x="70.76" y="35.77" width="2.49" height=".31"/><rect class="cls-16" x="75.12" y="35.77" width="1.85" height=".31"/><rect class="cls-16" x="78.36" y="35.77" width="1.36" height=".31"/><rect class="cls-16" x="80.63" y="35.77" width=".61" height=".31"/><rect class="cls-16" x="82.05" y="35.77" width=".48" height=".31"/><path class="cls-6" d="M61.3,35.81c.73,0,1.32-.5,1.32-1.09s-.59-1.07-1.32-1.07-1.3,.48-1.3,1.07,.59,1.09,1.3,1.09h0Z"/><rect class="cls-17" x="59.41" y="44.27" width="3.91" height="3.94"/><rect class="cls-17" x="59.41" y="49.08" width="3.91" height=".31"/><polygon class="cls-8" points="62.19 44.27 63.32 44.27 63.32 46.76 62.19 44.27"/><rect class="cls-16" x="61.32" y="44.27" width="2.01" height=".31"/><rect class="cls-19" x="53.42" y="28.89" width="3.01" height="3.13"/><rect class="cls-19" x="65.67" y="28.89" width="2.61" height="3.13"/><rect class="cls-18" x="75.34" y="28.89" width="1.63" height="3.13"/><rect class="cls-18" x="80.63" y="28.89" width=".61" height="3.13"/><rect class="cls-18" x="53.42" y="28.89" width="3.01" height=".64"/><polygon class="cls-11" points="68.28 28.89 67.45 28.89 65.66 28.89 65.66 29.54 66.93 29.54 66.93 32.02 68.28 32.02 68.28 29.54 68.28 28.89"/><rect class="cls-13" x="60.47" y="57.58" width="22.89" height=".91"/><polygon class="cls-12" points="58.25 49.58 57.88 47.9 42.3 47.9 42.3 57.65 60.47 57.58 58.25 49.58"/><polygon class="cls-12" points="51.03 35.45 50.69 33.88 35.13 33.88 35.13 43.63 53.85 43.63 51.03 35.45"/><path class="cls-7" d="M55.98,51.63v5.25h-4.68v-5.24c.21-3.24,4.7-2.86,4.68-.01h0Z"/><path class="cls-7" d="M48.55,51.63v5.25h-4.7v-5.24c.21-3.24,4.71-2.86,4.7-.01h0Z"/><path class="cls-7" d="M48.55,37.93v5.06h-4.7v-5.05c.21-3.13,4.71-2.77,4.7-.01h0Z"/><polygon class="cls-10" points="36.07 33.88 51.35 33.88 51.35 29.99 35.14 31.24 35.47 33.37 36.07 33.88"/><rect class="cls-15" x="35.3" y="29.99" width="16.05" height=".83"/><polygon class="cls-12" points="35.07 30.83 51.35 30.83 51.35 29.98 34.93 29.98 35.07 30.83"/><polygon class="cls-8" points="35.14 31.24 51.35 31.24 51.35 30.83 35.07 30.83 35.14 31.24"/><polygon class="cls-5" points="35.07 30.83 51.35 30.83 51.35 30.61 35.04 30.6 35.07 30.83"/><rect class="cls-14" x="48.63" y="33.88" width="2.71" height=".79"/><rect class="cls-14" x="48.63" y="43" width="2.71" height=".62"/><rect class="cls-14" x="48.95" y="34.67" width="2.09" height=".78"/><rect class="cls-24" x="49.44" y="35.45" width="1.27" height="7.55"/><rect class="cls-17" x="49.22" y="35.45" width=".22" height="7.55"/><polygon class="cls-5" points="49.99 35.45 50.71 35.45 50.71 43 49.99 35.45"/><rect class="cls-14" x="40.91" y="33.88" width="2.71" height=".79"/><rect class="cls-14" x="40.91" y="43" width="2.71" height=".62"/><rect class="cls-14" x="41.21" y="34.67" width="2.1" height=".78"/><rect class="cls-24" x="41.72" y="35.45" width="1.25" height="7.55"/><rect class="cls-17" x="41.48" y="35.45" width=".23" height="7.55"/><polygon class="cls-5" points="42.26 35.45 42.97 35.45 42.97 43 42.26 35.45"/><path class="cls-7" d="M41.12,37.93v5.06h-4.68v-5.05c.21-3.13,4.7-2.77,4.68-.01h0Z"/><rect class="cls-21" x="42.39" y="43.61" width="15.95" height="3.96"/><polygon class="cls-5" points="41.94 44.1 58.34 44.1 58.34 43.64 41.91 43.61 41.94 44.1"/><polygon class="cls-8" points="41.89 48.05 58.34 48.05 58.34 47.16 41.82 47.16 41.89 48.05"/><rect class="cls-14" x="55.85" y="48.05" width="2.7" height=".78"/><rect class="cls-14" x="56.15" y="48.83" width="2.1" height=".75"/><rect class="cls-24" x="56.66" y="49.58" width="1.25" height="7.31"/><rect class="cls-17" x="56.42" y="49.58" width=".23" height="7.31"/><polygon class="cls-5" points="57.19 49.58 57.91 49.58 57.91 56.89 57.19 49.58"/><rect class="cls-14" x="48.76" y="48.05" width="2.71" height=".78"/><rect class="cls-14" x="49.08" y="48.83" width="2.1" height=".75"/><rect class="cls-24" x="49.58" y="49.58" width="1.25" height="7.31"/><rect class="cls-17" x="49.35" y="49.58" width=".23" height="7.31"/><polygon class="cls-5" points="50.12 49.58 50.84 49.58 50.84 56.89 50.12 49.58"/><rect class="cls-20" x="46.71" y="57.58" width="13.75" height=".91"/><polygon class="cls-4" points=".91 56.2 45.96 56.2 47.16 58.5 .91 58.5 .91 56.2"/><polygon class="cls-2" points=".91 56.2 42.17 56.21 45.96 56.23 43.82 51.18 44.61 49.91 42.99 48.1 42.99 46.95 .91 46.95 .91 56.2"/><polygon class="cls-2" points="1.32 43.63 43.41 43.63 42.09 41.91 37.79 41.91 36.08 35.43 34.3 33.37 34.3 31.67 1.32 31.67 1.32 43.63"/><polygon class="cls-2" points="2 28.49 27.08 28.49 34.3 28.45 33.97 27.07 29.65 27.82 28.03 20.99 27.08 19.91 27.08 18.01 2 18.01 2 28.49"/><polygon class="cls-2" points="2.14 14.69 22.46 14.69 26.87 14.69 27.4 13.28 26.04 13.32 23.15 5.1 22.46 3.32 2.14 3.32 2.14 14.69"/><rect class="cls-16" x=".52" y="43.63" width="42.89" height="3.32"/><rect class="cls-1" y="43.63" width="43.41" height=".71"/><rect class="cls-16" x=".93" y="28.46" width="33.38" height="3.32"/><rect class="cls-3" x=".4" y="28.46" width="33.9" height=".71"/><rect class="cls-16" x="1.37" y="14.69" width="25.5" height="3.32"/><rect class="cls-16" x="1.75" width="17.65" height="3.32"/><rect class="cls-23" x="1.23" width="18.18" height=".73"/><path class="cls-7" d="M40.09,51.35v6.5h-5.09v-6.5c.22-4,5.1-3.53,5.09,0h0Z"/><path class="cls-7" d="M32.13,51.35v6.5h-5.1v-6.5c.22-4,5.12-3.53,5.1,0h0Z"/><path class="cls-7" d="M24.67,51.35v6.5h-3.91v-6.5c.18-4,3.93-3.53,3.91,0h0Z"/><path class="cls-7" d="M18.41,51.35v6.5h-2.61v-6.5c.12-4,2.62-3.53,2.61,0h0Z"/><path class="cls-7" d="M13.32,51.35v6.5h-2.48v-6.5c.1-4,2.49-3.53,2.48,0h0Z"/><path class="cls-7" d="M8.96,51.35v6.5h-1.85v-6.5c.08-4,1.85-3.53,1.85,0h0Z"/><path class="cls-7" d="M5.73,51.35v6.5h-1.36v-6.5c.07-4,1.36-3.53,1.36,0h0Z"/><path class="cls-11" d="M3.47,51.35v6.5h-.63v-6.5c.03-4,.63-3.53,.63,0h0Z"/><path class="cls-11" d="M2.04,51.35v6.5h-.48v-6.5c.03-4,.48-3.53,.48,0h0Z"/><rect class="cls-24" x="41.14" y="47.35" width="1.03" height="10.5"/><rect class="cls-22" x="40.67" y="46.95" width="1.97" height=".4"/><rect class="cls-20" x="40.67" y="57.85" width="1.97" height=".64"/><rect class="cls-18" x="40.45" y="47.35" width=".69" height="10.5"/><rect class="cls-18" x=".91" y="46.95" width="39.76" height=".56"/><rect class="cls-24" x="32.95" y="47.35" width="1.04" height="10.5"/><rect class="cls-22" x="32.48" y="46.95" width="1.97" height=".4"/><rect class="cls-20" x="32.48" y="57.85" width="1.97" height=".64"/><rect class="cls-18" x="32.26" y="47.35" width=".69" height="10.5"/><rect class="cls-24" x="25.35" y="47.35" width="1.04" height="10.5"/><rect class="cls-22" x="24.88" y="46.95" width="1.97" height=".4"/><rect class="cls-20" x="24.88" y="57.85" width="1.97" height=".64"/><rect class="cls-18" x="24.67" y="47.35" width=".68" height="10.5"/><rect class="cls-24" x="18.82" y="47.35" width="1.04" height="10.5"/><rect class="cls-22" x="18.35" y="46.95" width="1.97" height=".4"/><rect class="cls-20" x="18.35" y="57.85" width="1.97" height=".64"/><rect class="cls-18" x="18.41" y="47.35" width=".4" height="10.5"/><rect class="cls-24" x="13.7" y="47.35" width=".93" height="10.5"/><rect class="cls-22" x="13.35" y="46.95" width="1.67" height=".4"/><rect class="cls-20" x="13.35" y="57.85" width="1.67" height=".64"/><rect class="cls-18" x="13.35" y="47.35" width=".39" height="10.5"/><rect class="cls-24" x="9.13" y="47.35" width=".8" height="10.5"/><rect class="cls-22" x="8.96" y="46.95" width="1.21" height=".4"/><rect class="cls-20" x="8.96" y="57.85" width="1.21" height=".64"/><rect class="cls-18" x="8.96" y="47.35" width=".22" height="10.5"/><rect class="cls-24" x="5.75" y="47.35" width=".78" height="10.5"/><rect class="cls-22" x="5.75" y="46.95" width=".78" height=".4"/><rect class="cls-20" x="5.75" y="57.85" width=".78" height=".64"/><rect class="cls-24" x="3.39" y="47.35" width=".73" height="10.5"/><rect class="cls-22" x="3.39" y="46.95" width=".73" height=".4"/><rect class="cls-20" x="3.39" y="57.85" width=".73" height=".64"/><rect class="cls-24" x="2.04" y="47.35" width=".63" height="10.5"/><rect class="cls-22" x="2.04" y="46.95" width=".63" height=".4"/><rect class="cls-20" x="2.04" y="57.85" width=".63" height=".64"/><rect class="cls-24" x=".91" y="47.35" width=".63" height="10.5"/><rect class="cls-22" x=".91" y="46.95" width=".63" height=".4"/><rect class="cls-20" x=".91" y="57.85" width=".63" height=".64"/><rect class="cls-18" y="44.34" width="43.41" height=".36"/><rect class="cls-24" y="44.17" width="43.41" height=".17"/><polygon class="cls-9" points="1.32 43.63 43.41 43.63 42.09 41.91 37.79 41.91 37.53 40.9 1.32 42.77 1.32 43.63"/><path class="cls-7" d="M32.01,36.17v6.5h-5.01v-6.49c.22-4,5.02-3.55,5.01-.01h0Z"/><path class="cls-7" d="M24.69,36.17v6.5h-3.85v-6.49c.17-4,3.85-3.55,3.85-.01h0Z"/><path class="cls-7" d="M18.53,36.17v6.5h-2.57v-6.49c.12-4,2.58-3.55,2.57-.01h0Z"/><path class="cls-7" d="M13.53,36.17v6.5h-2.45v-6.49c.1-4,2.45-3.55,2.45-.01h0Z"/><path class="cls-7" d="M9.24,36.17v6.5h-1.83v-6.49c.09-4,1.83-3.55,1.83-.01h0Z"/><path class="cls-7" d="M6.05,36.17v6.5h-1.33v-6.49c.05-4,1.33-3.55,1.33-.01h0Z"/><path class="cls-11" d="M3.82,36.17v6.5h-.61v-6.49c.03-4,.61-3.55,.61-.01h0Z"/><path class="cls-11" d="M2.43,36.17v6.5h-.48v-6.49c.03-4,.48-3.55,.48-.01h0Z"/><rect class="cls-24" x="32.82" y="32.17" width="1.03" height="10.5"/><rect class="cls-22" x="32.36" y="31.77" width="1.94" height=".4"/><rect class="cls-24" x="32.36" y="42.67" width="1.94" height=".95"/><rect class="cls-18" x="32.15" y="32.17" width=".67" height="10.5"/><rect class="cls-24" x="25.35" y="32.17" width="1.02" height="10.5"/><rect class="cls-24" x="24.9" y="42.67" width="1.93" height=".95"/><rect class="cls-18" x="24.69" y="32.17" width=".67" height="10.5"/><rect class="cls-24" x="18.92" y="32.17" width="1.03" height="10.5"/><rect class="cls-24" x="18.46" y="42.67" width="1.93" height=".95"/><rect class="cls-18" x="18.53" y="32.17" width=".39" height="10.5"/><rect class="cls-24" x="13.9" y="32.17" width=".9" height="10.5"/><rect class="cls-24" x="13.54" y="42.67" width="1.64" height=".95"/><rect class="cls-18" x="13.54" y="32.17" width=".39" height="10.5"/><rect class="cls-24" x="9.41" y="32.17" width=".77" height="10.5"/><rect class="cls-24" x="9.24" y="42.67" width="1.2" height=".95"/><rect class="cls-18" x="9.24" y="32.17" width=".21" height="10.5"/><rect class="cls-24" x="6.07" y="32.17" width=".78" height="10.5"/><rect class="cls-24" x="6.07" y="42.67" width=".78" height=".95"/><rect class="cls-24" x="3.76" y="32.17" width=".72" height="10.5"/><rect class="cls-24" x="3.76" y="42.67" width=".72" height=".95"/><rect class="cls-24" x="2.41" y="32.17" width=".63" height="10.5"/><rect class="cls-24" x="2.41" y="42.67" width=".63" height=".95"/><rect class="cls-24" x="1.32" y="32.17" width=".63" height="10.5"/><rect class="cls-24" x="1.32" y="42.67" width=".63" height=".95"/><rect class="cls-18" x=".91" y="31.77" width="31.45" height=".56"/><rect class="cls-22" x="24.9" y="31.77" width="1.93" height=".4"/><rect class="cls-22" x="18.46" y="31.77" width="1.93" height=".4"/><rect class="cls-22" x="13.54" y="31.77" width="1.64" height=".4"/><rect class="cls-22" x="9.24" y="31.77" width="1.2" height=".4"/><rect class="cls-22" x="6.07" y="31.77" width=".78" height=".4"/><rect class="cls-22" x="3.76" y="31.77" width=".72" height=".4"/><rect class="cls-22" x="2.41" y="31.77" width=".63" height=".4"/><rect class="cls-22" x="1.32" y="31.77" width=".63" height=".4"/><rect class="cls-23" x=".4" y="28.45" width="33.9" height=".73"/><rect class="cls-18" x=".4" y="29.17" width="33.9" height=".36"/><rect class="cls-24" x=".4" y="28.99" width="33.9" height=".19"/><path class="cls-6" d="M24.7,21.89v5.72h-3.81v-5.71c.17-3.53,3.82-3.13,3.81-.01h0Z"/><path class="cls-6" d="M18.61,21.89v5.72h-2.54v-5.71c.12-3.53,2.54-3.13,2.54-.01h0Z"/><path class="cls-6" d="M13.65,21.89v5.72h-2.43v-5.71c.1-3.53,2.43-3.13,2.43-.01h0Z"/><path class="cls-11" d="M6.25,21.89v5.72h-1.33v-5.71c.07-3.53,1.33-3.13,1.33-.01h0Z"/><path class="cls-11" d="M4.03,21.89v5.72h-.6v-5.71c.03-3.53,.61-3.13,.6-.01h0Z"/><path class="cls-11" d="M2.65,21.89v5.72h-.47v-5.71c.01-3.53,.47-3.13,.47-.01h0Z"/><rect class="cls-24" x="25.37" y="18.36" width="1.02" height="9.25"/><rect class="cls-24" x="24.91" y="27.62" width="1.92" height=".83"/><rect class="cls-18" x="24.7" y="18.36" width=".67" height="9.25"/><rect class="cls-24" x="19" y="18.36" width="1" height="9.25"/><rect class="cls-24" x="18.54" y="27.62" width="1.92" height=".83"/><rect class="cls-18" x="18.61" y="18.36" width=".39" height="9.25"/><rect class="cls-24" x="14.01" y="18.36" width=".9" height="9.25"/><rect class="cls-24" x="13.66" y="27.62" width="1.64" height=".83"/><rect class="cls-18" x="13.66" y="18.36" width=".39" height="9.25"/><rect class="cls-24" x="9.56" y="18.36" width=".77" height="9.25"/><rect class="cls-24" x="9.39" y="27.62" width="1.19" height=".83"/><rect class="cls-18" x="9.39" y="18.36" width=".21" height="9.25"/><rect class="cls-24" x="6.26" y="18.36" width=".77" height="9.25"/><rect class="cls-24" x="6.26" y="27.62" width=".77" height=".83"/><rect class="cls-24" x="3.97" y="18.36" width=".72" height="9.25"/><rect class="cls-24" x="3.97" y="27.62" width=".72" height=".83"/><rect class="cls-24" x="2.65" y="18.36" width=".61" height="9.25"/><rect class="cls-24" x="2.65" y="27.62" width=".61" height=".83"/><rect class="cls-24" x="1.55" y="18.36" width=".61" height="9.25"/><rect class="cls-24" x="1.55" y="27.62" width=".61" height=".83"/><rect class="cls-18" x=".91" y="18.01" width="24.34" height=".5"/><rect class="cls-22" x="24.91" y="18.01" width="1.92" height=".35"/><rect class="cls-22" x="18.54" y="18.01" width="1.92" height=".35"/><rect class="cls-22" x="13.66" y="18.01" width="1.64" height=".35"/><rect class="cls-22" x="9.39" y="18.01" width="1.19" height=".35"/><rect class="cls-22" x="6.26" y="18.01" width=".77" height=".35"/><rect class="cls-22" x="3.97" y="18.01" width=".72" height=".35"/><rect class="cls-22" x="2.65" y="18.01" width=".61" height=".35"/><rect class="cls-22" x="1.55" y="18.01" width=".61" height=".35"/><path class="cls-11" d="M24.7,21.89v.93c.01-3.1-1.83-3.52-1.92,.01v4.78h-1.91v-5.71c.17-3.53,3.84-3.13,3.82-.01h0Z"/><path class="cls-11" d="M18.61,21.89v.93c0-3.1-1.24-3.52-1.29,.01v4.78h-1.29v-5.71c.12-3.53,2.58-3.13,2.58-.01h0Z"/><path class="cls-11" d="M13.65,21.89v.93c0-3.1-1.17-3.52-1.23,.01v4.78h-1.23v-5.71c.1-3.53,2.45-3.13,2.45-.01h0Z"/><path class="cls-6" d="M9.39,21.89v5.72h-1.77v-5.71c.08-3.53,1.77-3.13,1.77-.01h0Z"/><path class="cls-11" d="M9.39,21.89v.93c0-3.1-.86-3.52-.9,.01v4.78h-.9v-5.71c.08-3.53,1.8-3.13,1.8-.01h0Z"/><path class="cls-11" d="M32.01,36.19v1.06c.01-3.53-2.4-4-2.51,0v5.44h-2.52v-6.49c.22-4.02,5.04-3.55,5.02-.01h0Z"/><path class="cls-11" d="M24.69,36.19v1.06c0-3.53-1.83-4-1.92,0v5.44h-1.91v-6.49c.17-4.02,3.82-3.55,3.82-.01h0Z"/><path class="cls-11" d="M18.53,36.19v1.06c0-3.53-1.23-4-1.28,0v5.44h-1.29v-6.49c.12-4.02,2.58-3.55,2.57-.01h0Z"/><path class="cls-11" d="M13.53,36.19v1.06c0-3.53-1.19-4-1.24,0v5.44h-1.23v-6.49c.1-4.02,2.47-3.55,2.47-.01h0Z"/><path class="cls-11" d="M9.24,36.19v1.06c0-3.53-.87-4-.91,0v5.44h-.91v-6.49c.08-4.02,1.83-3.55,1.83-.01h0Z"/><path class="cls-11" d="M6.05,36.19v1.06c0-3.53-.64-4-.67,0v5.44h-.67v-6.49c.07-4.02,1.33-3.55,1.33-.01h0Z"/><rect class="cls-23" x=".85" y="14.69" width="26.02" height=".71"/><rect class="cls-18" x=".85" y="15.41" width="26.02" height=".36"/><rect class="cls-24" x=".85" y="15.23" width="26.02" height=".17"/><rect class="cls-18" x="5.58" y="7.41" width=".67" height="1.84"/><rect class="cls-18" x="12.42" y="7.41" width="1.25" height="1.84"/><rect class="cls-18" x="12.59" y=".99" width="1.27" height=".93"/><rect class="cls-18" x="14.37" y=".99" width="1.25" height=".93"/><rect class="cls-18" x="16.06" y=".99" width="1.25" height=".93"/><rect class="cls-18" x="17.75" y=".99" width="1.27" height=".93"/><rect class="cls-18" x="5.78" y=".99" width="1.25" height=".93"/><rect class="cls-18" x="7.54" y=".99" width="1.25" height=".93"/><rect class="cls-18" x="9.24" y=".99" width="1.25" height=".93"/><rect class="cls-18" x="10.93" y=".99" width="1.25" height=".93"/><rect class="cls-18" x="2.21" y=".99" width="1.25" height=".93"/><rect class="cls-18" x="3.97" y=".99" width="1.25" height=".93"/><rect class="cls-18" x="1.75" y="1.92" width="17.65" height=".55"/><rect class="cls-24" x="1.23" y=".5" width="18.18" height=".23"/><polygon class="cls-12" points="2.14 3.6 22.56 3.59 22.46 3.32 2.14 3.32 2.14 3.6"/><rect class="cls-24" x="9.37" y="6.11" width=".85" height=".93"/><rect class="cls-24" x="10.56" y="6.11" width=".84" height=".93"/><rect class="cls-24" x="11.69" y="6.11" width=".85" height=".93"/><rect class="cls-24" x="12.83" y="6.11" width=".85" height=".93"/><rect class="cls-24" x="4.79" y="6.11" width=".85" height=".93"/><rect class="cls-24" x="5.98" y="6.11" width=".84" height=".93"/><rect class="cls-24" x="7.11" y="6.11" width=".85" height=".93"/><rect class="cls-24" x="8.25" y="6.11" width=".85" height=".93"/><rect class="cls-24" x="2.39" y="6.11" width=".85" height=".93"/><rect class="cls-24" x="3.58" y="6.11" width=".84" height=".93"/><rect class="cls-24" x="20.96" y="6.11" width=".85" height=".93"/><rect class="cls-24" x="16.38" y="6.11" width=".85" height=".93"/><rect class="cls-24" x="17.56" y="6.11" width=".84" height=".93"/><rect class="cls-24" x="18.7" y="6.11" width=".85" height=".93"/><rect class="cls-24" x="19.83" y="6.11" width=".85" height=".93"/><rect class="cls-24" x="13.97" y="6.11" width=".85" height=".93"/><rect class="cls-24" x="15.16" y="6.11" width=".84" height=".93"/><polygon class="cls-11" points="19.4 0 21.28 2.31 21.28 3.32 19.4 3.32 19.4 0"/><polygon class="cls-11" points="22.46 3.32 26.04 13.32 26.72 13.31 22.46 3.32"/><polygon class="cls-11" points="27.4 13.28 28.22 14.65 28.3 17.58 28.18 20.89 29.05 21.95 31.23 27.54 29.65 27.82 28.03 20.99 27.08 19.91 27.08 18.01 26.87 18.01 26.87 14.69 27.4 13.28"/><polygon class="cls-11" points="36.08 35.43 34.3 33.37 34.3 28.45 33.97 27.07 34.71 28.53 35.47 33.37 37.16 34.82 39.39 41.91 37.79 41.91 36.08 35.43"/><polygon class="cls-11" points="42.99 46.95 43.41 46.95 42.99 48.1 42.99 46.95"/><polygon class="cls-11" points="44.6 49.95 45.47 53.45 47.16 58.5 45.96 56.23 43.82 51.18 44.6 49.95"/></g></g></svg>