<?xml version="1.0" encoding="UTF-8"?><svg xmlns="http://www.w3.org/2000/svg" viewBox="0 0 62.65 86.13"><defs><style>.cls-1{opacity:.6;}.cls-1,.cls-2{mix-blend-mode:overlay;}.cls-1,.cls-3{fill:#2f5c8f;}.cls-4{fill:#1082b0;}.cls-5{fill:#95c3e7;}.cls-6{opacity:.1;}.cls-6,.cls-7{fill:#231f20;}.cls-8{isolation:isolate;}.cls-2{fill:#fff;}.cls-7{opacity:.3;}</style></defs><g class="cls-8"><g id="_이어_2"><g id="Malaysia"><g><rect class="cls-3" x="21.16" y="79.45" width="19.32" height="6.68"/><g><rect class="cls-3" x="38.26" y="52.66" width="1.17" height="2.69"/><polygon class="cls-3" points="40.61 55.12 39.9 55.12 32.88 49.03 33.58 49.03 40.61 55.12"/><g><rect class="cls-3" x="22.22" y="46.74" width="17.39" height="2.28"/><rect class="cls-3" x="23.86" y="45.69" width=".64" height="2.28"/><rect class="cls-3" x="25.61" y="45.69" width=".64" height="2.28"/><rect class="cls-3" x="27.37" y="45.69" width=".64" height="2.28"/><rect class="cls-3" x="29.13" y="45.69" width=".64" height="2.28"/><rect class="cls-3" x="30.88" y="45.69" width=".64" height="2.28"/><rect class="cls-3" x="32.64" y="45.69" width=".64" height="2.28"/><rect class="cls-3" x="34.4" y="45.69" width=".64" height="2.28"/><rect class="cls-3" x="36.15" y="45.69" width=".64" height="2.28"/><rect class="cls-3" x="37.91" y="45.69" width=".64" height="2.28"/><rect class="cls-3" x="22.75" y="45.65" width="17.39" height=".43"/></g><g><g><rect class="cls-3" x="14.99" width=".64" height="17.2"/><rect class="cls-3" x="7.15" y="42.41" width="16.34" height="37.45"/><rect class="cls-3" x="9.01" y="28.86" width="12.62" height="13.55"/><rect class="cls-3" x="10.73" y="20.59" width="9.18" height="8.54"/><rect class="cls-3" x="11.87" y="15.12" width="6.88" height="6.55"/><rect class="cls-3" x="13.02" y="10.8" width="4.59" height="4.35"/><circle class="cls-3" cx="15.32" cy="9.91" r="1.29"/></g><g><g><rect class="cls-5" x="7.2" y="78.25" width="1.91" height="1.29"/><rect class="cls-6" x="8.2" y="78.25" width=".91" height="1.29"/></g><g><rect class="cls-5" x="14.38" y="78.25" width="1.91" height="1.29"/><rect class="cls-6" x="15.38" y="78.25" width=".91" height="1.29"/></g><g><rect class="cls-5" x="21.57" y="78.25" width="1.91" height="1.29"/><rect class="cls-6" x="22.57" y="78.25" width=".91" height="1.29"/></g><g><rect class="cls-5" x="9.47" y="78.25" width="4.46" height="1.29"/><rect class="cls-7" x="11.81" y="78.25" width="2.12" height="1.29"/></g><g><rect class="cls-5" x="16.57" y="78.25" width="4.46" height="1.29"/><rect class="cls-7" x="18.9" y="78.25" width="2.12" height="1.29"/></g></g><g><g><rect class="cls-5" x="7.2" y="76.14" width="1.91" height="1.29"/><rect class="cls-6" x="8.2" y="76.14" width=".91" height="1.29"/></g><g><rect class="cls-5" x="14.38" y="76.14" width="1.91" height="1.29"/><rect class="cls-6" x="15.38" y="76.14" width=".91" height="1.29"/></g><g><rect class="cls-5" x="21.57" y="76.14" width="1.91" height="1.29"/><rect class="cls-6" x="22.57" y="76.14" width=".91" height="1.29"/></g><g><rect class="cls-5" x="9.47" y="76.14" width="4.46" height="1.29"/><rect class="cls-7" x="11.81" y="76.14" width="2.12" height="1.29"/></g><g><rect class="cls-5" x="16.57" y="76.14" width="4.46" height="1.29"/><rect class="cls-7" x="18.9" y="76.14" width="2.12" height="1.29"/></g></g><g><g><rect class="cls-5" x="7.2" y="74.03" width="1.91" height="1.29"/><rect class="cls-6" x="8.2" y="74.03" width=".91" height="1.29"/></g><g><rect class="cls-5" x="14.38" y="74.03" width="1.91" height="1.29"/><rect class="cls-6" x="15.38" y="74.03" width=".91" height="1.29"/></g><g><rect class="cls-5" x="21.57" y="74.03" width="1.91" height="1.29"/><rect class="cls-6" x="22.57" y="74.03" width=".91" height="1.29"/></g><g><rect class="cls-5" x="9.47" y="74.03" width="4.46" height="1.29"/><rect class="cls-7" x="11.81" y="74.03" width="2.12" height="1.29"/></g><g><rect class="cls-5" x="16.57" y="74.03" width="4.46" height="1.29"/><rect class="cls-7" x="18.9" y="74.03" width="2.12" height="1.29"/></g></g><g><g><rect class="cls-5" x="7.2" y="71.92" width="1.91" height="1.29"/><rect class="cls-6" x="8.2" y="71.92" width=".91" height="1.29"/></g><g><rect class="cls-5" x="14.38" y="71.92" width="1.91" height="1.29"/><rect class="cls-6" x="15.38" y="71.92" width=".91" height="1.29"/></g><g><rect class="cls-5" x="21.57" y="71.92" width="1.91" height="1.29"/><rect class="cls-6" x="22.57" y="71.92" width=".91" height="1.29"/></g><g><rect class="cls-5" x="9.47" y="71.92" width="4.46" height="1.29"/><rect class="cls-7" x="11.81" y="71.92" width="2.12" height="1.29"/></g><g><rect class="cls-5" x="16.57" y="71.92" width="4.46" height="1.29"/><rect class="cls-7" x="18.9" y="71.92" width="2.12" height="1.29"/></g></g><g><g><rect class="cls-5" x="7.2" y="69.81" width="1.91" height="1.29"/><rect class="cls-6" x="8.2" y="69.81" width=".91" height="1.29"/></g><g><rect class="cls-5" x="14.38" y="69.81" width="1.91" height="1.29"/><rect class="cls-6" x="15.38" y="69.81" width=".91" height="1.29"/></g><g><rect class="cls-5" x="21.57" y="69.81" width="1.91" height="1.29"/><rect class="cls-6" x="22.57" y="69.81" width=".91" height="1.29"/></g><g><rect class="cls-5" x="9.47" y="69.81" width="4.46" height="1.29"/><rect class="cls-7" x="11.81" y="69.81" width="2.12" height="1.29"/></g><g><rect class="cls-5" x="16.57" y="69.81" width="4.46" height="1.29"/><rect class="cls-7" x="18.9" y="69.81" width="2.12" height="1.29"/></g></g><g><g><rect class="cls-5" x="7.2" y="67.71" width="1.91" height="1.29"/><rect class="cls-6" x="8.2" y="67.71" width=".91" height="1.29"/></g><g><rect class="cls-5" x="14.38" y="67.71" width="1.91" height="1.29"/><rect class="cls-6" x="15.38" y="67.71" width=".91" height="1.29"/></g><g><rect class="cls-5" x="21.57" y="67.71" width="1.91" height="1.29"/><rect class="cls-6" x="22.57" y="67.71" width=".91" height="1.29"/></g><g><rect class="cls-5" x="9.47" y="67.71" width="4.46" height="1.29"/><rect class="cls-7" x="11.81" y="67.71" width="2.12" height="1.29"/></g><g><rect class="cls-5" x="16.57" y="67.71" width="4.46" height="1.29"/><rect class="cls-7" x="18.9" y="67.71" width="2.12" height="1.29"/></g></g><g><g><rect class="cls-5" x="7.2" y="65.6" width="1.91" height="1.29"/><rect class="cls-6" x="8.2" y="65.6" width=".91" height="1.29"/></g><g><rect class="cls-5" x="14.38" y="65.6" width="1.91" height="1.29"/><rect class="cls-6" x="15.38" y="65.6" width=".91" height="1.29"/></g><g><rect class="cls-5" x="21.57" y="65.6" width="1.91" height="1.29"/><rect class="cls-6" x="22.57" y="65.6" width=".91" height="1.29"/></g><g><rect class="cls-5" x="9.47" y="65.6" width="4.46" height="1.29"/><rect class="cls-7" x="11.81" y="65.6" width="2.12" height="1.29"/></g><g><rect class="cls-5" x="16.57" y="65.6" width="4.46" height="1.29"/><rect class="cls-7" x="18.9" y="65.6" width="2.12" height="1.29"/></g></g><g><g><rect class="cls-5" x="7.2" y="63.49" width="1.91" height="1.29"/><rect class="cls-6" x="8.2" y="63.49" width=".91" height="1.29"/></g><g><rect class="cls-5" x="14.38" y="63.49" width="1.91" height="1.29"/><rect class="cls-6" x="15.38" y="63.49" width=".91" height="1.29"/></g><g><rect class="cls-5" x="21.57" y="63.49" width="1.91" height="1.29"/><rect class="cls-6" x="22.57" y="63.49" width=".91" height="1.29"/></g><g><rect class="cls-5" x="9.47" y="63.49" width="4.46" height="1.29"/><rect class="cls-7" x="11.81" y="63.49" width="2.12" height="1.29"/></g><g><rect class="cls-5" x="16.57" y="63.49" width="4.46" height="1.29"/><rect class="cls-7" x="18.9" y="63.49" width="2.12" height="1.29"/></g></g><g><g><rect class="cls-5" x="7.2" y="61.38" width="1.91" height="1.29"/><rect class="cls-6" x="8.2" y="61.38" width=".91" height="1.29"/></g><g><rect class="cls-5" x="14.38" y="61.38" width="1.91" height="1.29"/><rect class="cls-6" x="15.38" y="61.38" width=".91" height="1.29"/></g><g><rect class="cls-5" x="21.57" y="61.38" width="1.91" height="1.29"/><rect class="cls-6" x="22.57" y="61.38" width=".91" height="1.29"/></g><g><rect class="cls-5" x="9.47" y="61.38" width="4.46" height="1.29"/><rect class="cls-7" x="11.81" y="61.38" width="2.12" height="1.29"/></g><g><rect class="cls-5" x="16.57" y="61.38" width="4.46" height="1.29"/><rect class="cls-7" x="18.9" y="61.38" width="2.12" height="1.29"/></g></g><g><g><rect class="cls-5" x="7.2" y="59.27" width="1.91" height="1.29"/><rect class="cls-6" x="8.2" y="59.27" width=".91" height="1.29"/></g><g><rect class="cls-5" x="14.38" y="59.27" width="1.91" height="1.29"/><rect class="cls-6" x="15.38" y="59.27" width=".91" height="1.29"/></g><g><rect class="cls-5" x="21.57" y="59.27" width="1.91" height="1.29"/><rect class="cls-6" x="22.57" y="59.27" width=".91" height="1.29"/></g><g><rect class="cls-5" x="9.47" y="59.27" width="4.46" height="1.29"/><rect class="cls-7" x="11.81" y="59.27" width="2.12" height="1.29"/></g><g><rect class="cls-5" x="16.57" y="59.27" width="4.46" height="1.29"/><rect class="cls-7" x="18.9" y="59.27" width="2.12" height="1.29"/></g></g><g><g><rect class="cls-5" x="7.2" y="57.17" width="1.91" height="1.29"/><rect class="cls-6" x="8.2" y="57.17" width=".91" height="1.29"/></g><g><rect class="cls-5" x="14.38" y="57.17" width="1.91" height="1.29"/><rect class="cls-6" x="15.38" y="57.17" width=".91" height="1.29"/></g><g><rect class="cls-5" x="21.57" y="57.17" width="1.91" height="1.29"/><rect class="cls-6" x="22.57" y="57.17" width=".91" height="1.29"/></g><g><rect class="cls-5" x="9.47" y="57.17" width="4.46" height="1.29"/><rect class="cls-7" x="11.81" y="57.17" width="2.12" height="1.29"/></g><g><rect class="cls-5" x="16.57" y="57.17" width="4.46" height="1.29"/><rect class="cls-7" x="18.9" y="57.17" width="2.12" height="1.29"/></g></g><g><g><rect class="cls-5" x="7.2" y="55.06" width="1.91" height="1.29"/><rect class="cls-6" x="8.2" y="55.06" width=".91" height="1.29"/></g><g><rect class="cls-5" x="14.38" y="55.06" width="1.91" height="1.29"/><rect class="cls-6" x="15.38" y="55.06" width=".91" height="1.29"/></g><g><rect class="cls-5" x="21.57" y="55.06" width="1.91" height="1.29"/><rect class="cls-6" x="22.57" y="55.06" width=".91" height="1.29"/></g><g><rect class="cls-5" x="9.47" y="55.06" width="4.46" height="1.29"/><rect class="cls-7" x="11.81" y="55.06" width="2.12" height="1.29"/></g><g><rect class="cls-5" x="16.57" y="55.06" width="4.46" height="1.29"/><rect class="cls-7" x="18.9" y="55.06" width="2.12" height="1.29"/></g></g><g><g><rect class="cls-5" x="7.2" y="52.95" width="1.91" height="1.29"/><rect class="cls-6" x="8.2" y="52.95" width=".91" height="1.29"/></g><g><rect class="cls-5" x="14.38" y="52.95" width="1.91" height="1.29"/><rect class="cls-6" x="15.38" y="52.95" width=".91" height="1.29"/></g><g><rect class="cls-5" x="21.57" y="52.95" width="1.91" height="1.29"/><rect class="cls-6" x="22.57" y="52.95" width=".91" height="1.29"/></g><g><rect class="cls-5" x="9.47" y="52.95" width="4.46" height="1.29"/><rect class="cls-7" x="11.81" y="52.95" width="2.12" height="1.29"/></g><g><rect class="cls-5" x="16.57" y="52.95" width="4.46" height="1.29"/><rect class="cls-7" x="18.9" y="52.95" width="2.12" height="1.29"/></g></g><g><g><rect class="cls-5" x="7.2" y="50.84" width="1.91" height="1.29"/><rect class="cls-6" x="8.2" y="50.84" width=".91" height="1.29"/></g><g><rect class="cls-5" x="14.38" y="50.84" width="1.91" height="1.29"/><rect class="cls-6" x="15.38" y="50.84" width=".91" height="1.29"/></g><g><rect class="cls-5" x="21.57" y="50.84" width="1.91" height="1.29"/><rect class="cls-6" x="22.57" y="50.84" width=".91" height="1.29"/></g><g><rect class="cls-5" x="9.47" y="50.84" width="4.46" height="1.29"/><rect class="cls-7" x="11.81" y="50.84" width="2.12" height="1.29"/></g><g><rect class="cls-5" x="16.57" y="50.84" width="4.46" height="1.29"/><rect class="cls-7" x="18.9" y="50.84" width="2.12" height="1.29"/></g></g><g><g><rect class="cls-5" x="7.2" y="48.73" width="1.91" height="1.29"/><rect class="cls-6" x="8.2" y="48.73" width=".91" height="1.29"/></g><g><rect class="cls-5" x="14.38" y="48.73" width="1.91" height="1.29"/><rect class="cls-6" x="15.38" y="48.73" width=".91" height="1.29"/></g><g><rect class="cls-5" x="21.57" y="48.73" width="1.91" height="1.29"/><rect class="cls-6" x="22.57" y="48.73" width=".91" height="1.29"/></g><g><rect class="cls-5" x="9.47" y="48.73" width="4.46" height="1.29"/><rect class="cls-7" x="11.81" y="48.73" width="2.12" height="1.29"/></g><g><rect class="cls-5" x="16.57" y="48.73" width="4.46" height="1.29"/><rect class="cls-7" x="18.9" y="48.73" width="2.12" height="1.29"/></g></g><g><g><rect class="cls-5" x="7.2" y="46.63" width="1.91" height="1.29"/><rect class="cls-6" x="8.2" y="46.63" width=".91" height="1.29"/></g><g><rect class="cls-5" x="14.38" y="46.63" width="1.91" height="1.29"/><rect class="cls-6" x="15.38" y="46.63" width=".91" height="1.29"/></g><g><rect class="cls-5" x="21.57" y="46.63" width="1.91" height="1.29"/><rect class="cls-6" x="22.57" y="46.63" width=".91" height="1.29"/></g><g><rect class="cls-5" x="9.47" y="46.63" width="4.46" height="1.29"/><rect class="cls-7" x="11.81" y="46.63" width="2.12" height="1.29"/></g><g><rect class="cls-5" x="16.57" y="46.63" width="4.46" height="1.29"/><rect class="cls-7" x="18.9" y="46.63" width="2.12" height="1.29"/></g></g><g><g><rect class="cls-5" x="7.2" y="44.52" width="1.91" height="1.29"/><rect class="cls-6" x="8.2" y="44.52" width=".91" height="1.29"/></g><g><rect class="cls-5" x="14.38" y="44.52" width="1.91" height="1.29"/><rect class="cls-6" x="15.38" y="44.52" width=".91" height="1.29"/></g><g><rect class="cls-5" x="21.57" y="44.52" width="1.91" height="1.29"/><rect class="cls-6" x="22.57" y="44.52" width=".91" height="1.29"/></g><g><rect class="cls-5" x="9.47" y="44.52" width="4.46" height="1.29"/><rect class="cls-7" x="11.81" y="44.52" width="2.12" height="1.29"/></g><g><rect class="cls-5" x="16.57" y="44.52" width="4.46" height="1.29"/><rect class="cls-7" x="18.9" y="44.52" width="2.12" height="1.29"/></g></g><g><g><rect class="cls-5" x="7.2" y="42.41" width="1.91" height="1.29"/><rect class="cls-6" x="8.2" y="42.41" width=".91" height="1.29"/></g><g><rect class="cls-5" x="14.38" y="42.41" width="1.91" height="1.29"/><rect class="cls-6" x="15.38" y="42.41" width=".91" height="1.29"/></g><g><rect class="cls-5" x="21.57" y="42.41" width="1.91" height="1.29"/><rect class="cls-6" x="22.57" y="42.41" width=".91" height="1.29"/></g><g><rect class="cls-5" x="9.47" y="42.41" width="4.46" height="1.29"/><rect class="cls-7" x="11.81" y="42.41" width="2.12" height="1.29"/></g><g><rect class="cls-5" x="16.57" y="42.41" width="4.46" height="1.29"/><rect class="cls-7" x="18.9" y="42.41" width="2.12" height="1.29"/></g></g><g><g><rect class="cls-5" x="9.04" y="38.19" width="1.47" height="1.29"/><rect class="cls-6" x="9.81" y="38.19" width=".7" height="1.29"/></g><g><rect class="cls-5" x="14.59" y="38.19" width="1.47" height="1.29"/><rect class="cls-6" x="15.36" y="38.19" width=".7" height="1.29"/></g><g><rect class="cls-5" x="10.8" y="38.19" width="3.44" height="1.29"/><rect class="cls-7" x="11.72" y="38.19" width="1.64" height="1.29"/></g><g><rect class="cls-5" x="16.27" y="38.19" width="5.25" height="1.29"/><rect class="cls-7" x="18.95" y="38.19" width="2.08" height="1.29"/></g></g><g><g><rect class="cls-5" x="9.04" y="40.13" width="1.47" height="1.29"/><rect class="cls-6" x="9.81" y="40.13" width=".7" height="1.29"/></g><g><rect class="cls-5" x="14.59" y="40.13" width="1.47" height="1.29"/><rect class="cls-6" x="15.36" y="40.13" width=".7" height="1.29"/></g><g><rect class="cls-5" x="10.8" y="40.13" width="3.44" height="1.29"/><rect class="cls-7" x="11.72" y="40.13" width="1.64" height="1.29"/></g><g><rect class="cls-5" x="16.27" y="40.13" width="5.25" height="1.29"/><rect class="cls-7" x="18.95" y="40.13" width="2.08" height="1.29"/></g></g><g><g><rect class="cls-5" x="9.04" y="36.09" width="1.47" height="1.29"/><rect class="cls-6" x="9.81" y="36.09" width=".7" height="1.29"/></g><g><rect class="cls-5" x="14.59" y="36.09" width="1.47" height="1.29"/><rect class="cls-6" x="15.36" y="36.09" width=".7" height="1.29"/></g><g><rect class="cls-5" x="10.8" y="36.09" width="3.44" height="1.29"/><rect class="cls-7" x="11.72" y="36.09" width="1.64" height="1.29"/></g><g><rect class="cls-5" x="16.27" y="36.09" width="5.25" height="1.29"/><rect class="cls-7" x="18.95" y="36.09" width="2.08" height="1.29"/></g></g><g><g><rect class="cls-5" x="14.35" y="33.98" width="1.95" height="1.29"/><rect class="cls-6" x="15.37" y="33.98" width=".93" height="1.29"/></g><g><rect class="cls-5" x="9.03" y="33.98" width="4.85" height="1.29"/><rect class="cls-7" x="11.71" y="33.98" width="2.17" height="1.29"/></g><g><rect class="cls-5" x="16.61" y="33.98" width="5" height="1.29"/><rect class="cls-7" x="18.97" y="33.98" width="2.17" height="1.29"/></g></g><g><g><rect class="cls-5" x="14.35" y="31.87" width="1.95" height="1.29"/><rect class="cls-6" x="15.37" y="31.87" width=".93" height="1.29"/></g><g><rect class="cls-5" x="9.03" y="31.87" width="4.85" height="1.29"/><rect class="cls-7" x="11.71" y="31.87" width="2.17" height="1.29"/></g><g><rect class="cls-5" x="16.61" y="31.87" width="5" height="1.29"/><rect class="cls-7" x="18.97" y="31.87" width="2.17" height="1.29"/></g></g><g><g><rect class="cls-5" x="14.35" y="29.76" width="1.95" height="1.29"/><rect class="cls-6" x="15.37" y="29.76" width=".93" height="1.29"/></g><g><rect class="cls-5" x="9.03" y="29.76" width="4.85" height="1.29"/><rect class="cls-7" x="11.71" y="29.76" width="2.17" height="1.29"/></g><g><rect class="cls-5" x="16.61" y="29.76" width="5" height="1.29"/><rect class="cls-7" x="18.97" y="29.76" width="2.17" height="1.29"/></g></g><g><g><rect class="cls-5" x="14.61" y="27.6" width="1.52" height="1.29"/><rect class="cls-6" x="15.4" y="27.6" width=".72" height="1.29"/></g><g><rect class="cls-5" x="10.71" y="27.6" width="3.54" height="1.29"/><rect class="cls-7" x="12.56" y="27.6" width="1.68" height="1.29"/></g><g><rect class="cls-5" x="16.34" y="27.6" width="3.54" height="1.29"/><rect class="cls-7" x="18.19" y="27.6" width="1.68" height="1.29"/></g></g><g><g><rect class="cls-5" x="14.61" y="25.84" width="1.52" height="1.29"/><rect class="cls-6" x="15.4" y="25.84" width=".72" height="1.29"/></g><g><rect class="cls-5" x="10.71" y="25.84" width="3.54" height="1.29"/><rect class="cls-7" x="12.56" y="25.84" width="1.68" height="1.29"/></g><g><rect class="cls-5" x="16.34" y="25.84" width="3.54" height="1.29"/><rect class="cls-7" x="18.19" y="25.84" width="1.68" height="1.29"/></g></g><g><g><rect class="cls-5" x="14.61" y="24.08" width="1.52" height="1.29"/><rect class="cls-6" x="15.4" y="24.08" width=".72" height="1.29"/></g><g><rect class="cls-5" x="10.71" y="24.08" width="3.54" height="1.29"/><rect class="cls-7" x="12.56" y="24.08" width="1.68" height="1.29"/></g><g><rect class="cls-5" x="16.34" y="24.08" width="3.54" height="1.29"/><rect class="cls-7" x="18.19" y="24.08" width="1.68" height="1.29"/></g></g><g><g><rect class="cls-5" x="14.61" y="22.33" width="1.52" height="1.29"/><rect class="cls-6" x="15.4" y="22.33" width=".72" height="1.29"/></g><g><rect class="cls-5" x="10.71" y="22.33" width="3.54" height="1.29"/><rect class="cls-7" x="12.56" y="22.33" width="1.68" height="1.29"/></g><g><rect class="cls-5" x="16.34" y="22.33" width="3.54" height="1.29"/><rect class="cls-7" x="18.19" y="22.33" width="1.68" height="1.29"/></g></g><g><g><rect class="cls-5" x="14.61" y="20.57" width="1.52" height="1.29"/><rect class="cls-6" x="15.4" y="20.57" width=".72" height="1.29"/></g><g><rect class="cls-5" x="10.71" y="20.57" width="3.54" height="1.29"/><rect class="cls-7" x="12.56" y="20.57" width="1.68" height="1.29"/></g><g><rect class="cls-5" x="16.34" y="20.57" width="3.54" height="1.29"/><rect class="cls-7" x="18.19" y="20.57" width="1.68" height="1.29"/></g></g><g><g><rect class="cls-5" x="14.31" y="18.76" width="2.03" height="1.54"/><rect class="cls-7" x="15.68" y="18.76" width=".66" height="1.54"/></g><g><rect class="cls-5" x="11.88" y="18.76" width="2.03" height="1.54"/><rect class="cls-6" x="12.94" y="18.76" width=".96" height="1.54"/></g><g><rect class="cls-5" x="16.74" y="18.76" width="2.03" height="1.54"/><rect class="cls-7" x="17.8" y="18.76" width=".96" height="1.54"/></g></g><g><g><rect class="cls-5" x="14.31" y="16.94" width="2.03" height="1.54"/><rect class="cls-7" x="15.68" y="16.94" width=".66" height="1.54"/></g><g><rect class="cls-5" x="11.88" y="16.94" width="2.03" height="1.54"/><rect class="cls-6" x="12.94" y="16.94" width=".96" height="1.54"/></g><g><rect class="cls-5" x="16.74" y="16.94" width="2.03" height="1.54"/><rect class="cls-7" x="17.8" y="16.94" width=".96" height="1.54"/></g></g><g><g><rect class="cls-5" x="14.31" y="15.12" width="2.03" height="1.54"/><rect class="cls-7" x="15.68" y="15.12" width=".66" height="1.54"/></g><g><rect class="cls-5" x="11.88" y="15.12" width="2.03" height="1.54"/><rect class="cls-6" x="12.94" y="15.12" width=".96" height="1.54"/></g><g><rect class="cls-5" x="16.74" y="15.12" width="2.03" height="1.54"/><rect class="cls-7" x="17.8" y="15.12" width=".96" height="1.54"/></g></g><g><rect class="cls-5" x="14.4" y="10.79" width="1.84" height="1.29"/><rect class="cls-7" x="15.37" y="10.79" width=".88" height="1.29"/></g><g><rect class="cls-5" x="16.51" y="10.79" width="1.14" height="1.29"/><rect class="cls-7" x="17.11" y="10.79" width=".54" height="1.29"/></g><g><rect class="cls-5" x="13.02" y="10.79" width="1.14" height="1.29"/><rect class="cls-6" x="13.62" y="10.79" width=".54" height="1.29"/></g><g><rect class="cls-5" x="14.4" y="12.31" width="1.84" height="1.29"/><rect class="cls-7" x="15.37" y="12.31" width=".88" height="1.29"/></g><g><rect class="cls-5" x="16.51" y="12.31" width="1.14" height="1.29"/><rect class="cls-7" x="17.11" y="12.31" width=".54" height="1.29"/></g><g><rect class="cls-5" x="13.02" y="12.31" width="1.14" height="1.29"/><rect class="cls-6" x="13.62" y="12.31" width=".54" height="1.29"/></g><g><rect class="cls-5" x="14.4" y="13.83" width="1.84" height="1.29"/><rect class="cls-7" x="15.37" y="13.83" width=".88" height="1.29"/></g><g><rect class="cls-5" x="16.51" y="13.83" width="1.14" height="1.29"/><rect class="cls-7" x="17.11" y="13.83" width=".54" height="1.29"/></g><g><rect class="cls-5" x="13.02" y="13.83" width="1.14" height="1.29"/><rect class="cls-6" x="13.62" y="13.83" width=".54" height="1.29"/></g><path class="cls-1" d="M9.04,42.41v-13.55h1.72v-8.27h1.15v-5.47h1.15v-4.32h1.37c-.22-.23-.36-.55-.36-.89,0-.6,.41-1.1,.97-1.25V0h.64V8.66c.3,.08,.56,.26,.73,.51-.15,.21-.24,.46-.24,.74s.09,.53,.24,.74c-.04,.05-.08,.11-.13,.15h-1.12v4.32h-1.15v5.47h-1.15v8.27h-1.72v13.55h-1.86v37.45h-2.11V42.41h1.86Z"/><polyline class="cls-2" points="22.13 79.52 19.76 79.52 19.76 42.37 22.13 42.37"/><rect class="cls-2" x="11.59" y="48.87" width="2.37" height="37.15"/><polyline class="cls-2" points="20.42 42.4 18.05 42.4 18.05 29.08 20.42 29.08"/><polyline class="cls-2" points="19.36 29.04 16.99 29.04 16.99 20.58 19.36 20.58"/><polyline class="cls-2" points="12.95 42.57 11.46 42.57 11.46 28.95 12.95 28.95"/><rect class="cls-3" y="76.59" width="13.7" height="9.52"/><rect class="cls-3" x="9.75" y="79.72" width="13.7" height="6.38"/><g><rect class="cls-4" x=".26" y="78.19" width="1.58" height="4.39"/><rect class="cls-4" x=".26" y="83.63" width="1.58" height="1.41"/></g><g><rect class="cls-4" x="3.33" y="78.19" width="1.58" height="4.39"/><rect class="cls-4" x="3.33" y="83.63" width="1.58" height="1.41"/></g><g><rect class="cls-4" x="6.41" y="78.19" width="1.58" height="4.39"/><rect class="cls-4" x="6.41" y="83.63" width="1.58" height="1.41"/></g><g><rect class="cls-4" x="9.48" y="78.19" width="1.58" height="4.39"/><rect class="cls-4" x="9.48" y="83.63" width="1.58" height="1.41"/></g><g><rect class="cls-4" x="14.23" y="80.35" width="1.58" height="2.57"/><rect class="cls-4" x="14.23" y="83.83" width="1.58" height="1.21"/></g><g><rect class="cls-4" x="17.04" y="80.35" width="1.58" height="2.57"/><rect class="cls-4" x="17.04" y="83.83" width="1.58" height="1.21"/></g><rect class="cls-2" x="10.46" y="76.62" width="3.41" height="9.4"/><rect class="cls-2" x="19.95" y="79.61" width="3.41" height="6.41"/></g><g><g><rect class="cls-3" x="47.01" width=".64" height="17.2"/><rect class="cls-3" x="39.16" y="42.41" width="16.34" height="37.45"/><rect class="cls-3" x="41.02" y="28.86" width="12.62" height="13.55"/><rect class="cls-3" x="42.74" y="20.59" width="9.18" height="8.54"/><rect class="cls-3" x="43.89" y="15.12" width="6.88" height="6.55"/><rect class="cls-3" x="45.04" y="10.8" width="4.59" height="4.35"/><circle class="cls-3" cx="47.33" cy="9.91" r="1.29"/></g><g><g><rect class="cls-5" x="53.54" y="78.25" width="1.91" height="1.29"/><rect class="cls-6" x="53.54" y="78.25" width=".91" height="1.29"/></g><g><rect class="cls-5" x="46.36" y="78.25" width="1.91" height="1.29"/><rect class="cls-6" x="46.36" y="78.25" width=".91" height="1.29"/></g><g><rect class="cls-5" x="39.17" y="78.25" width="1.91" height="1.29"/><rect class="cls-6" x="39.17" y="78.25" width=".91" height="1.29"/></g><g><rect class="cls-5" x="48.72" y="78.25" width="4.46" height="1.29"/><rect class="cls-7" x="48.72" y="78.25" width="2.12" height="1.29"/></g><g><rect class="cls-5" x="41.63" y="78.25" width="4.46" height="1.29"/><rect class="cls-7" x="41.63" y="78.25" width="2.12" height="1.29"/></g></g><g><g><rect class="cls-5" x="53.54" y="76.14" width="1.91" height="1.29"/><rect class="cls-6" x="53.54" y="76.14" width=".91" height="1.29"/></g><g><rect class="cls-5" x="46.36" y="76.14" width="1.91" height="1.29"/><rect class="cls-6" x="46.36" y="76.14" width=".91" height="1.29"/></g><g><rect class="cls-5" x="39.17" y="76.14" width="1.91" height="1.29"/><rect class="cls-6" x="39.17" y="76.14" width=".91" height="1.29"/></g><g><rect class="cls-5" x="48.72" y="76.14" width="4.46" height="1.29"/><rect class="cls-7" x="48.72" y="76.14" width="2.12" height="1.29"/></g><g><rect class="cls-5" x="41.63" y="76.14" width="4.46" height="1.29"/><rect class="cls-7" x="41.63" y="76.14" width="2.12" height="1.29"/></g></g><g><g><rect class="cls-5" x="53.54" y="74.03" width="1.91" height="1.29"/><rect class="cls-6" x="53.54" y="74.03" width=".91" height="1.29"/></g><g><rect class="cls-5" x="46.36" y="74.03" width="1.91" height="1.29"/><rect class="cls-6" x="46.36" y="74.03" width=".91" height="1.29"/></g><g><rect class="cls-5" x="39.17" y="74.03" width="1.91" height="1.29"/><rect class="cls-6" x="39.17" y="74.03" width=".91" height="1.29"/></g><g><rect class="cls-5" x="48.72" y="74.03" width="4.46" height="1.29"/><rect class="cls-7" x="48.72" y="74.03" width="2.12" height="1.29"/></g><g><rect class="cls-5" x="41.63" y="74.03" width="4.46" height="1.29"/><rect class="cls-7" x="41.63" y="74.03" width="2.12" height="1.29"/></g></g><g><g><rect class="cls-5" x="53.54" y="71.92" width="1.91" height="1.29"/><rect class="cls-6" x="53.54" y="71.92" width=".91" height="1.29"/></g><g><rect class="cls-5" x="46.36" y="71.92" width="1.91" height="1.29"/><rect class="cls-6" x="46.36" y="71.92" width=".91" height="1.29"/></g><g><rect class="cls-5" x="39.17" y="71.92" width="1.91" height="1.29"/><rect class="cls-6" x="39.17" y="71.92" width=".91" height="1.29"/></g><g><rect class="cls-5" x="48.72" y="71.92" width="4.46" height="1.29"/><rect class="cls-7" x="48.72" y="71.92" width="2.12" height="1.29"/></g><g><rect class="cls-5" x="41.63" y="71.92" width="4.46" height="1.29"/><rect class="cls-7" x="41.63" y="71.92" width="2.12" height="1.29"/></g></g><g><g><rect class="cls-5" x="53.54" y="69.81" width="1.91" height="1.29"/><rect class="cls-6" x="53.54" y="69.81" width=".91" height="1.29"/></g><g><rect class="cls-5" x="46.36" y="69.81" width="1.91" height="1.29"/><rect class="cls-6" x="46.36" y="69.81" width=".91" height="1.29"/></g><g><rect class="cls-5" x="39.17" y="69.81" width="1.91" height="1.29"/><rect class="cls-6" x="39.17" y="69.81" width=".91" height="1.29"/></g><g><rect class="cls-5" x="48.72" y="69.81" width="4.46" height="1.29"/><rect class="cls-7" x="48.72" y="69.81" width="2.12" height="1.29"/></g><g><rect class="cls-5" x="41.63" y="69.81" width="4.46" height="1.29"/><rect class="cls-7" x="41.63" y="69.81" width="2.12" height="1.29"/></g></g><g><g><rect class="cls-5" x="53.54" y="67.71" width="1.91" height="1.29"/><rect class="cls-6" x="53.54" y="67.71" width=".91" height="1.29"/></g><g><rect class="cls-5" x="46.36" y="67.71" width="1.91" height="1.29"/><rect class="cls-6" x="46.36" y="67.71" width=".91" height="1.29"/></g><g><rect class="cls-5" x="39.17" y="67.71" width="1.91" height="1.29"/><rect class="cls-6" x="39.17" y="67.71" width=".91" height="1.29"/></g><g><rect class="cls-5" x="48.72" y="67.71" width="4.46" height="1.29"/><rect class="cls-7" x="48.72" y="67.71" width="2.12" height="1.29"/></g><g><rect class="cls-5" x="41.63" y="67.71" width="4.46" height="1.29"/><rect class="cls-7" x="41.63" y="67.71" width="2.12" height="1.29"/></g></g><g><g><rect class="cls-5" x="53.54" y="65.6" width="1.91" height="1.29"/><rect class="cls-6" x="53.54" y="65.6" width=".91" height="1.29"/></g><g><rect class="cls-5" x="46.36" y="65.6" width="1.91" height="1.29"/><rect class="cls-6" x="46.36" y="65.6" width=".91" height="1.29"/></g><g><rect class="cls-5" x="39.17" y="65.6" width="1.91" height="1.29"/><rect class="cls-6" x="39.17" y="65.6" width=".91" height="1.29"/></g><g><rect class="cls-5" x="48.72" y="65.6" width="4.46" height="1.29"/><rect class="cls-7" x="48.72" y="65.6" width="2.12" height="1.29"/></g><g><rect class="cls-5" x="41.63" y="65.6" width="4.46" height="1.29"/><rect class="cls-7" x="41.63" y="65.6" width="2.12" height="1.29"/></g></g><g><g><rect class="cls-5" x="53.54" y="63.49" width="1.91" height="1.29"/><rect class="cls-6" x="53.54" y="63.49" width=".91" height="1.29"/></g><g><rect class="cls-5" x="46.36" y="63.49" width="1.91" height="1.29"/><rect class="cls-6" x="46.36" y="63.49" width=".91" height="1.29"/></g><g><rect class="cls-5" x="39.17" y="63.49" width="1.91" height="1.29"/><rect class="cls-6" x="39.17" y="63.49" width=".91" height="1.29"/></g><g><rect class="cls-5" x="48.72" y="63.49" width="4.46" height="1.29"/><rect class="cls-7" x="48.72" y="63.49" width="2.12" height="1.29"/></g><g><rect class="cls-5" x="41.63" y="63.49" width="4.46" height="1.29"/><rect class="cls-7" x="41.63" y="63.49" width="2.12" height="1.29"/></g></g><g><g><rect class="cls-5" x="53.54" y="61.38" width="1.91" height="1.29"/><rect class="cls-6" x="53.54" y="61.38" width=".91" height="1.29"/></g><g><rect class="cls-5" x="46.36" y="61.38" width="1.91" height="1.29"/><rect class="cls-6" x="46.36" y="61.38" width=".91" height="1.29"/></g><g><rect class="cls-5" x="39.17" y="61.38" width="1.91" height="1.29"/><rect class="cls-6" x="39.17" y="61.38" width=".91" height="1.29"/></g><g><rect class="cls-5" x="48.72" y="61.38" width="4.46" height="1.29"/><rect class="cls-7" x="48.72" y="61.38" width="2.12" height="1.29"/></g><g><rect class="cls-5" x="41.63" y="61.38" width="4.46" height="1.29"/><rect class="cls-7" x="41.63" y="61.38" width="2.12" height="1.29"/></g></g><g><g><rect class="cls-5" x="53.54" y="59.27" width="1.91" height="1.29"/><rect class="cls-6" x="53.54" y="59.27" width=".91" height="1.29"/></g><g><rect class="cls-5" x="46.36" y="59.27" width="1.91" height="1.29"/><rect class="cls-6" x="46.36" y="59.27" width=".91" height="1.29"/></g><g><rect class="cls-5" x="39.17" y="59.27" width="1.91" height="1.29"/><rect class="cls-6" x="39.17" y="59.27" width=".91" height="1.29"/></g><g><rect class="cls-5" x="48.72" y="59.27" width="4.46" height="1.29"/><rect class="cls-7" x="48.72" y="59.27" width="2.12" height="1.29"/></g><g><rect class="cls-5" x="41.63" y="59.27" width="4.46" height="1.29"/><rect class="cls-7" x="41.63" y="59.27" width="2.12" height="1.29"/></g></g><g><g><rect class="cls-5" x="53.54" y="57.17" width="1.91" height="1.29"/><rect class="cls-6" x="53.54" y="57.17" width=".91" height="1.29"/></g><g><rect class="cls-5" x="46.36" y="57.17" width="1.91" height="1.29"/><rect class="cls-6" x="46.36" y="57.17" width=".91" height="1.29"/></g><g><rect class="cls-5" x="39.17" y="57.17" width="1.91" height="1.29"/><rect class="cls-6" x="39.17" y="57.17" width=".91" height="1.29"/></g><g><rect class="cls-5" x="48.72" y="57.17" width="4.46" height="1.29"/><rect class="cls-7" x="48.72" y="57.17" width="2.12" height="1.29"/></g><g><rect class="cls-5" x="41.63" y="57.17" width="4.46" height="1.29"/><rect class="cls-7" x="41.63" y="57.17" width="2.12" height="1.29"/></g></g><g><g><rect class="cls-5" x="53.54" y="55.06" width="1.91" height="1.29"/><rect class="cls-6" x="53.54" y="55.06" width=".91" height="1.29"/></g><g><rect class="cls-5" x="46.36" y="55.06" width="1.91" height="1.29"/><rect class="cls-6" x="46.36" y="55.06" width=".91" height="1.29"/></g><g><rect class="cls-5" x="39.17" y="55.06" width="1.91" height="1.29"/><rect class="cls-6" x="39.17" y="55.06" width=".91" height="1.29"/></g><g><rect class="cls-5" x="48.72" y="55.06" width="4.46" height="1.29"/><rect class="cls-7" x="48.72" y="55.06" width="2.12" height="1.29"/></g><g><rect class="cls-5" x="41.63" y="55.06" width="4.46" height="1.29"/><rect class="cls-7" x="41.63" y="55.06" width="2.12" height="1.29"/></g></g><g><g><rect class="cls-5" x="53.54" y="52.95" width="1.91" height="1.29"/><rect class="cls-6" x="53.54" y="52.95" width=".91" height="1.29"/></g><g><rect class="cls-5" x="46.36" y="52.95" width="1.91" height="1.29"/><rect class="cls-6" x="46.36" y="52.95" width=".91" height="1.29"/></g><g><rect class="cls-5" x="39.17" y="52.95" width="1.91" height="1.29"/><rect class="cls-6" x="39.17" y="52.95" width=".91" height="1.29"/></g><g><rect class="cls-5" x="48.72" y="52.95" width="4.46" height="1.29"/><rect class="cls-7" x="48.72" y="52.95" width="2.12" height="1.29"/></g><g><rect class="cls-5" x="41.63" y="52.95" width="4.46" height="1.29"/><rect class="cls-7" x="41.63" y="52.95" width="2.12" height="1.29"/></g></g><g><g><rect class="cls-5" x="53.54" y="50.84" width="1.91" height="1.29"/><rect class="cls-6" x="53.54" y="50.84" width=".91" height="1.29"/></g><g><rect class="cls-5" x="46.36" y="50.84" width="1.91" height="1.29"/><rect class="cls-6" x="46.36" y="50.84" width=".91" height="1.29"/></g><g><rect class="cls-5" x="39.17" y="50.84" width="1.91" height="1.29"/><rect class="cls-6" x="39.17" y="50.84" width=".91" height="1.29"/></g><g><rect class="cls-5" x="48.72" y="50.84" width="4.46" height="1.29"/><rect class="cls-7" x="48.72" y="50.84" width="2.12" height="1.29"/></g><g><rect class="cls-5" x="41.63" y="50.84" width="4.46" height="1.29"/><rect class="cls-7" x="41.63" y="50.84" width="2.12" height="1.29"/></g></g><g><g><rect class="cls-5" x="53.54" y="48.73" width="1.91" height="1.29"/><rect class="cls-6" x="53.54" y="48.73" width=".91" height="1.29"/></g><g><rect class="cls-5" x="46.36" y="48.73" width="1.91" height="1.29"/><rect class="cls-6" x="46.36" y="48.73" width=".91" height="1.29"/></g><g><rect class="cls-5" x="39.17" y="48.73" width="1.91" height="1.29"/><rect class="cls-6" x="39.17" y="48.73" width=".91" height="1.29"/></g><g><rect class="cls-5" x="48.72" y="48.73" width="4.46" height="1.29"/><rect class="cls-7" x="48.72" y="48.73" width="2.12" height="1.29"/></g><g><rect class="cls-5" x="41.63" y="48.73" width="4.46" height="1.29"/><rect class="cls-7" x="41.63" y="48.73" width="2.12" height="1.29"/></g></g><g><g><rect class="cls-5" x="53.54" y="46.63" width="1.91" height="1.29"/><rect class="cls-6" x="53.54" y="46.63" width=".91" height="1.29"/></g><g><rect class="cls-5" x="46.36" y="46.63" width="1.91" height="1.29"/><rect class="cls-6" x="46.36" y="46.63" width=".91" height="1.29"/></g><g><rect class="cls-5" x="39.17" y="46.63" width="1.91" height="1.29"/><rect class="cls-6" x="39.17" y="46.63" width=".91" height="1.29"/></g><g><rect class="cls-5" x="48.72" y="46.63" width="4.46" height="1.29"/><rect class="cls-7" x="48.72" y="46.63" width="2.12" height="1.29"/></g><g><rect class="cls-5" x="41.63" y="46.63" width="4.46" height="1.29"/><rect class="cls-7" x="41.63" y="46.63" width="2.12" height="1.29"/></g></g><g><g><rect class="cls-5" x="53.54" y="44.52" width="1.91" height="1.29"/><rect class="cls-6" x="53.54" y="44.52" width=".91" height="1.29"/></g><g><rect class="cls-5" x="46.36" y="44.52" width="1.91" height="1.29"/><rect class="cls-6" x="46.36" y="44.52" width=".91" height="1.29"/></g><g><rect class="cls-5" x="39.17" y="44.52" width="1.91" height="1.29"/><rect class="cls-6" x="39.17" y="44.52" width=".91" height="1.29"/></g><g><rect class="cls-5" x="48.72" y="44.52" width="4.46" height="1.29"/><rect class="cls-7" x="48.72" y="44.52" width="2.12" height="1.29"/></g><g><rect class="cls-5" x="41.63" y="44.52" width="4.46" height="1.29"/><rect class="cls-7" x="41.63" y="44.52" width="2.12" height="1.29"/></g></g><g><g><rect class="cls-5" x="53.54" y="42.41" width="1.91" height="1.29"/><rect class="cls-6" x="53.54" y="42.41" width=".91" height="1.29"/></g><g><rect class="cls-5" x="46.36" y="42.41" width="1.91" height="1.29"/><rect class="cls-6" x="46.36" y="42.41" width=".91" height="1.29"/></g><g><rect class="cls-5" x="39.17" y="42.41" width="1.91" height="1.29"/><rect class="cls-6" x="39.17" y="42.41" width=".91" height="1.29"/></g><g><rect class="cls-5" x="48.72" y="42.41" width="4.46" height="1.29"/><rect class="cls-7" x="48.72" y="42.41" width="2.12" height="1.29"/></g><g><rect class="cls-5" x="41.63" y="42.41" width="4.46" height="1.29"/><rect class="cls-7" x="41.63" y="42.41" width="2.12" height="1.29"/></g></g><g><g><rect class="cls-5" x="52.13" y="38.19" width="1.47" height="1.29"/><rect class="cls-6" x="52.13" y="38.19" width=".7" height="1.29"/></g><g><rect class="cls-5" x="46.59" y="38.19" width="1.47" height="1.29"/><rect class="cls-6" x="46.59" y="38.19" width=".7" height="1.29"/></g><g><rect class="cls-5" x="48.41" y="38.19" width="3.44" height="1.29"/><rect class="cls-7" x="49.29" y="38.19" width="1.64" height="1.29"/></g><g><rect class="cls-5" x="41.13" y="38.19" width="5.25" height="1.29"/><rect class="cls-7" x="41.62" y="38.19" width="2.08" height="1.29"/></g></g><g><g><rect class="cls-5" x="52.13" y="40.13" width="1.47" height="1.29"/><rect class="cls-6" x="52.13" y="40.13" width=".7" height="1.29"/></g><g><rect class="cls-5" x="46.59" y="40.13" width="1.47" height="1.29"/><rect class="cls-6" x="46.59" y="40.13" width=".7" height="1.29"/></g><g><rect class="cls-5" x="48.41" y="40.13" width="3.44" height="1.29"/><rect class="cls-7" x="49.29" y="40.13" width="1.64" height="1.29"/></g><g><rect class="cls-5" x="41.13" y="40.13" width="5.25" height="1.29"/><rect class="cls-7" x="41.62" y="40.13" width="2.08" height="1.29"/></g></g><g><g><rect class="cls-5" x="52.13" y="36.09" width="1.47" height="1.29"/><rect class="cls-6" x="52.13" y="36.09" width=".7" height="1.29"/></g><g><rect class="cls-5" x="46.59" y="36.09" width="1.47" height="1.29"/><rect class="cls-6" x="46.59" y="36.09" width=".7" height="1.29"/></g><g><rect class="cls-5" x="48.41" y="36.09" width="3.44" height="1.29"/><rect class="cls-7" x="49.29" y="36.09" width="1.64" height="1.29"/></g><g><rect class="cls-5" x="41.13" y="36.09" width="5.25" height="1.29"/><rect class="cls-7" x="41.62" y="36.09" width="2.08" height="1.29"/></g></g><g><g><rect class="cls-5" x="46.35" y="33.98" width="1.95" height="1.29"/><rect class="cls-6" x="46.35" y="33.98" width=".93" height="1.29"/></g><g><rect class="cls-5" x="48.77" y="33.98" width="4.85" height="1.29"/><rect class="cls-7" x="48.77" y="33.98" width="2.17" height="1.29"/></g><g><rect class="cls-5" x="41.04" y="33.98" width="5" height="1.29"/><rect class="cls-7" x="41.51" y="33.98" width="2.17" height="1.29"/></g></g><g><g><rect class="cls-5" x="46.35" y="31.87" width="1.95" height="1.29"/><rect class="cls-6" x="46.35" y="31.87" width=".93" height="1.29"/></g><g><rect class="cls-5" x="48.77" y="31.87" width="4.85" height="1.29"/><rect class="cls-7" x="48.77" y="31.87" width="2.17" height="1.29"/></g><g><rect class="cls-5" x="41.04" y="31.87" width="5" height="1.29"/><rect class="cls-7" x="41.51" y="31.87" width="2.17" height="1.29"/></g></g><g><g><rect class="cls-5" x="46.35" y="29.76" width="1.95" height="1.29"/><rect class="cls-6" x="46.35" y="29.76" width=".93" height="1.29"/></g><g><rect class="cls-5" x="48.77" y="29.76" width="4.85" height="1.29"/><rect class="cls-7" x="48.77" y="29.76" width="2.17" height="1.29"/></g><g><rect class="cls-5" x="41.04" y="29.76" width="5" height="1.29"/><rect class="cls-7" x="41.51" y="29.76" width="2.17" height="1.29"/></g></g><g><g><rect class="cls-5" x="46.53" y="27.6" width="1.52" height="1.29"/><rect class="cls-6" x="46.53" y="27.6" width=".72" height="1.29"/></g><g><rect class="cls-5" x="48.4" y="27.6" width="3.54" height="1.29"/><rect class="cls-7" x="48.4" y="27.6" width="1.68" height="1.29"/></g><g><rect class="cls-5" x="42.77" y="27.6" width="3.54" height="1.29"/><rect class="cls-7" x="42.77" y="27.6" width="1.68" height="1.29"/></g></g><g><g><rect class="cls-5" x="46.53" y="25.84" width="1.52" height="1.29"/><rect class="cls-6" x="46.53" y="25.84" width=".72" height="1.29"/></g><g><rect class="cls-5" x="48.4" y="25.84" width="3.54" height="1.29"/><rect class="cls-7" x="48.4" y="25.84" width="1.68" height="1.29"/></g><g><rect class="cls-5" x="42.77" y="25.84" width="3.54" height="1.29"/><rect class="cls-7" x="42.77" y="25.84" width="1.68" height="1.29"/></g></g><g><g><rect class="cls-5" x="46.53" y="24.08" width="1.52" height="1.29"/><rect class="cls-6" x="46.53" y="24.08" width=".72" height="1.29"/></g><g><rect class="cls-5" x="48.4" y="24.08" width="3.54" height="1.29"/><rect class="cls-7" x="48.4" y="24.08" width="1.68" height="1.29"/></g><g><rect class="cls-5" x="42.77" y="24.08" width="3.54" height="1.29"/><rect class="cls-7" x="42.77" y="24.08" width="1.68" height="1.29"/></g></g><g><g><rect class="cls-5" x="46.53" y="22.33" width="1.52" height="1.29"/><rect class="cls-6" x="46.53" y="22.33" width=".72" height="1.29"/></g><g><rect class="cls-5" x="48.4" y="22.33" width="3.54" height="1.29"/><rect class="cls-7" x="48.4" y="22.33" width="1.68" height="1.29"/></g><g><rect class="cls-5" x="42.77" y="22.33" width="3.54" height="1.29"/><rect class="cls-7" x="42.77" y="22.33" width="1.68" height="1.29"/></g></g><g><g><rect class="cls-5" x="46.53" y="20.57" width="1.52" height="1.29"/><rect class="cls-6" x="46.53" y="20.57" width=".72" height="1.29"/></g><g><rect class="cls-5" x="48.4" y="20.57" width="3.54" height="1.29"/><rect class="cls-7" x="48.4" y="20.57" width="1.68" height="1.29"/></g><g><rect class="cls-5" x="42.77" y="20.57" width="3.54" height="1.29"/><rect class="cls-7" x="42.77" y="20.57" width="1.68" height="1.29"/></g></g><g><g><rect class="cls-5" x="46.31" y="18.76" width="2.03" height="1.54"/><rect class="cls-7" x="46.31" y="18.76" width=".66" height="1.54"/></g><g><rect class="cls-5" x="48.74" y="18.76" width="2.03" height="1.54"/><rect class="cls-6" x="48.74" y="18.76" width=".96" height="1.54"/></g><g><rect class="cls-5" x="43.89" y="18.76" width="2.03" height="1.54"/><rect class="cls-7" x="43.89" y="18.76" width=".96" height="1.54"/></g></g><g><g><rect class="cls-5" x="46.31" y="16.94" width="2.03" height="1.54"/><rect class="cls-7" x="46.31" y="16.94" width=".66" height="1.54"/></g><g><rect class="cls-5" x="48.74" y="16.94" width="2.03" height="1.54"/><rect class="cls-6" x="48.74" y="16.94" width=".96" height="1.54"/></g><g><rect class="cls-5" x="43.89" y="16.94" width="2.03" height="1.54"/><rect class="cls-7" x="43.89" y="16.94" width=".96" height="1.54"/></g></g><g><g><rect class="cls-5" x="46.31" y="15.12" width="2.03" height="1.54"/><rect class="cls-7" x="46.31" y="15.12" width=".66" height="1.54"/></g><g><rect class="cls-5" x="48.74" y="15.12" width="2.03" height="1.54"/><rect class="cls-6" x="48.74" y="15.12" width=".96" height="1.54"/></g><g><rect class="cls-5" x="43.89" y="15.12" width="2.03" height="1.54"/><rect class="cls-7" x="43.89" y="15.12" width=".96" height="1.54"/></g></g><g><rect class="cls-5" x="46.4" y="10.79" width="1.84" height="1.29"/><rect class="cls-7" x="46.4" y="10.79" width=".88" height="1.29"/></g><g><rect class="cls-5" x="45" y="10.79" width="1.14" height="1.29"/><rect class="cls-7" x="45" y="10.79" width=".54" height="1.29"/></g><g><rect class="cls-5" x="48.48" y="10.79" width="1.14" height="1.29"/><rect class="cls-6" x="48.48" y="10.79" width=".54" height="1.29"/></g><g><rect class="cls-5" x="46.4" y="12.31" width="1.84" height="1.29"/><rect class="cls-7" x="46.4" y="12.31" width=".88" height="1.29"/></g><g><rect class="cls-5" x="45" y="12.31" width="1.14" height="1.29"/><rect class="cls-7" x="45" y="12.31" width=".54" height="1.29"/></g><g><rect class="cls-5" x="48.48" y="12.31" width="1.14" height="1.29"/><rect class="cls-6" x="48.48" y="12.31" width=".54" height="1.29"/></g><g><rect class="cls-5" x="46.4" y="13.83" width="1.84" height="1.29"/><rect class="cls-7" x="46.4" y="13.83" width=".88" height="1.29"/></g><g><rect class="cls-5" x="45" y="13.83" width="1.14" height="1.29"/><rect class="cls-7" x="45" y="13.83" width=".54" height="1.29"/></g><g><rect class="cls-5" x="48.48" y="13.83" width="1.14" height="1.29"/><rect class="cls-6" x="48.48" y="13.83" width=".54" height="1.29"/></g><path class="cls-1" d="M53.61,42.41v-13.55h-1.72v-8.27h-1.15v-5.47h-1.15v-4.32h-1.37c.22-.23,.36-.55,.36-.89,0-.6-.41-1.1-.97-1.25V0h-.64V8.66c-.3,.08-.56,.26-.73,.51,.15,.21,.24,.46,.24,.74s-.09,.53-.24,.74c.04,.05,.08,.11,.13,.15h1.12v4.32h1.15v5.47h1.15v8.27h1.72v13.55h1.86v37.45h2.11V42.41h-1.86Z"/><rect class="cls-2" x="40.52" y="42.37" width="2.37" height="37.15"/><rect class="cls-2" x="48.69" y="48.87" width="2.37" height="37.15"/><rect class="cls-2" x="42.23" y="29.08" width="2.37" height="13.32"/><rect class="cls-2" x="43.29" y="20.58" width="2.37" height="8.47"/><rect class="cls-2" x="49.7" y="29.35" width="1.48" height="13.22"/><rect class="cls-3" x="48.95" y="76.59" width="13.7" height="9.52"/><rect class="cls-3" x="39.2" y="79.72" width="13.7" height="6.38"/><g><rect class="cls-4" x="57.74" y="78.19" width="1.58" height="4.39"/><rect class="cls-4" x="57.74" y="83.63" width="1.58" height="1.41"/></g><g><rect class="cls-4" x="54.66" y="78.19" width="1.58" height="4.39"/><rect class="cls-4" x="54.66" y="83.63" width="1.58" height="1.41"/></g><g><rect class="cls-4" x="51.59" y="78.19" width="1.58" height="4.39"/><rect class="cls-4" x="51.59" y="83.63" width="1.58" height="1.41"/></g><g><rect class="cls-4" x="46.84" y="80.35" width="1.58" height="2.57"/><rect class="cls-4" x="46.84" y="83.83" width="1.58" height="1.21"/></g><g><rect class="cls-4" x="44.03" y="80.35" width="1.58" height="2.57"/><rect class="cls-4" x="44.03" y="83.83" width="1.58" height="1.21"/></g><rect class="cls-2" x="59.15" y="76.62" width="3.41" height="9.4"/><rect class="cls-2" x="41.58" y="79.61" width="7.45" height="6.41"/></g><rect class="cls-3" x="23.39" y="52.66" width="1.17" height="2.69"/><polygon class="cls-3" points="22.22 55.12 22.92 55.12 29.95 49.03 29.25 49.03 22.22 55.12"/></g><path class="cls-3" d="M24.76,79.72c0-1.75,2.95-3.17,6.59-3.17s6.59,1.42,6.59,3.17"/></g></g></g></g></svg>