<?xml version="1.0" encoding="UTF-8"?><svg id="_이어_2" xmlns="http://www.w3.org/2000/svg" viewBox="0 0 81.58 84.11"><defs><style>.cls-1{fill:#3a3022;}.cls-2{fill:#5a5c60;}.cls-3{fill:#ffbf3e;}.cls-4{fill:#665849;}.cls-5{fill:#7a6b58;}.cls-6{fill:#e0a96c;}.cls-7{fill:#66696d;}.cls-8,.cls-9,.cls-10,.cls-11{fill:none;stroke-miterlimit:10;}.cls-8,.cls-9,.cls-11{stroke-width:.44px;}.cls-8,.cls-10{stroke:#5a5c60;}.cls-12{fill:#514333;}.cls-13{fill:#7f6f60;}.cls-14{fill:#b5804d;}.cls-15{fill:#2b2319;}.cls-16{fill:#93856f;}.cls-17{fill:#932e24;}.cls-18{fill:#594a3d;}.cls-19{fill:#f2bd7c;}.cls-20{fill:#908369;}.cls-21{fill:#303235;}.cls-22{fill:#cc965c;}.cls-9{stroke:#3a3022;}.cls-23{fill:#f9c995;}.cls-24{fill:#635740;}.cls-25{fill:#4e5154;}.cls-26{fill:#ffcd5f;}.cls-27{fill:#7c1f1a;}.cls-28{fill:#493e2c;}.cls-10{stroke-width:1.09px;}.cls-29{fill:#ffd6a9;}.cls-11{stroke:#b5804d;}.cls-30{fill:#242628;}.cls-31{fill:#4f432f;}.cls-32{fill:#fccd9d;}.cls-33{fill:#a5977e;}</style></defs><g id="Czech"><g><g><g><path class="cls-27" d="M70.97,61.49l-3.52-6.57,13.86,6.57s-10.36-.03-10.35,0Z"/><rect class="cls-19" x="70.96" y="62.49" width="10.35" height="21.06"/><rect class="cls-6" x="70.96" y="62.49" width="5.26" height="21.06"/><g><rect class="cls-22" x="70.99" y="61.41" width="10.31" height="1.88"/><rect class="cls-14" x="70.97" y="61.41" width="5.25" height="1.88"/><rect class="cls-23" x="70.7" y="61.62" width="10.87" height=".98"/><rect class="cls-19" x="70.7" y="61.62" width="5.52" height=".98"/></g><g><rect class="cls-30" x="72.39" y="75.48" width="3.29" height="2.35" transform="translate(-2.63 150.69) rotate(-90)"/><polygon class="cls-14" points="73.81 75.02 73.81 75.85 72.88 75.85 72.88 76.27 73.81 76.27 73.81 77.05 72.88 77.05 72.88 77.47 73.81 77.47 73.81 78.3 74.25 78.3 74.25 77.47 75.21 77.47 75.21 77.05 74.25 77.05 74.25 76.27 75.21 76.27 75.21 75.85 74.25 75.85 74.25 75.02 73.81 75.02"/><rect class="cls-11" x="72.39" y="75.48" width="3.29" height="2.35" transform="translate(-2.63 150.69) rotate(-90)"/></g><g><rect class="cls-30" x="76.25" y="75.48" width="3.29" height="2.35" transform="translate(1.24 154.56) rotate(-90)"/><polygon class="cls-14" points="77.67 75.02 77.67 75.85 76.74 75.85 76.74 76.27 77.67 76.27 77.67 77.05 76.74 77.05 76.74 77.47 77.67 77.47 77.67 78.3 78.12 78.3 78.12 77.47 79.07 77.47 79.07 77.05 78.12 77.05 78.12 76.27 79.07 76.27 79.07 75.85 78.12 75.85 78.12 75.02 77.67 75.02"/><rect class="cls-11" x="76.25" y="75.48" width="3.29" height="2.35" transform="translate(1.24 154.56) rotate(-90)"/></g><g><rect class="cls-30" x="72.39" y="70.45" width="3.29" height="2.35" transform="translate(2.4 145.66) rotate(-90)"/><polygon class="cls-14" points="73.81 69.99 73.81 70.82 72.88 70.82 72.88 71.24 73.81 71.24 73.81 72.02 72.88 72.02 72.88 72.44 73.81 72.44 73.81 73.27 74.25 73.27 74.25 72.44 75.21 72.44 75.21 72.02 74.25 72.02 74.25 71.24 75.21 71.24 75.21 70.82 74.25 70.82 74.25 69.99 73.81 69.99"/><rect class="cls-11" x="72.39" y="70.45" width="3.29" height="2.35" transform="translate(2.4 145.66) rotate(-90)"/></g><g><rect class="cls-30" x="76.25" y="70.45" width="3.29" height="2.35" transform="translate(6.27 149.53) rotate(-90)"/><polygon class="cls-14" points="77.67 69.99 77.67 70.82 76.74 70.82 76.74 71.24 77.67 71.24 77.67 72.02 76.74 72.02 76.74 72.44 77.67 72.44 77.67 73.27 78.12 73.27 78.12 72.44 79.07 72.44 79.07 72.02 78.12 72.02 78.12 71.24 79.07 71.24 79.07 70.82 78.12 70.82 78.12 69.99 77.67 69.99"/><rect class="cls-11" x="76.25" y="70.45" width="3.29" height="2.35" transform="translate(6.27 149.53) rotate(-90)"/></g><g><rect class="cls-30" x="72.39" y="65.54" width="3.29" height="2.35" transform="translate(7.32 140.75) rotate(-90)"/><polygon class="cls-14" points="73.81 65.07 73.81 65.91 72.88 65.91 72.88 66.33 73.81 66.33 73.81 67.1 72.88 67.1 72.88 67.53 73.81 67.53 73.81 68.36 74.25 68.36 74.25 67.53 75.21 67.53 75.21 67.1 74.25 67.1 74.25 66.33 75.21 66.33 75.21 65.91 74.25 65.91 74.25 65.07 73.81 65.07"/><rect class="cls-11" x="72.39" y="65.54" width="3.29" height="2.35" transform="translate(7.32 140.75) rotate(-90)"/></g><g><rect class="cls-30" x="76.25" y="65.54" width="3.29" height="2.35" transform="translate(11.18 144.61) rotate(-90)"/><polygon class="cls-14" points="77.67 65.07 77.67 65.91 76.74 65.91 76.74 66.33 77.67 66.33 77.67 67.1 76.74 67.1 76.74 67.53 77.67 67.53 77.67 68.36 78.12 68.36 78.12 67.53 79.07 67.53 79.07 67.1 78.12 67.1 78.12 66.33 79.07 66.33 79.07 65.91 78.12 65.91 78.12 65.07 77.67 65.07"/><rect class="cls-11" x="76.25" y="65.54" width="3.29" height="2.35" transform="translate(11.18 144.61) rotate(-90)"/></g><g><rect class="cls-19" x="73.93" y="59.2" width="3.34" height="2.45"/><polygon class="cls-19" points="75.63 57.57 73.3 59.2 77.9 59.2 75.63 57.57"/></g><g><path d="M76.26,60.98v-1.32c0-.3-.28-.55-.63-.55s-.63,.25-.63,.55v1.32h1.26Z"/><path class="cls-8" d="M76.26,60.98v-1.32c0-.3-.28-.55-.63-.55s-.63,.25-.63,.55v1.32h1.26Z"/><rect class="cls-2" x="74.69" y="60.9" width="1.89" height=".4"/></g></g><path class="cls-30" d="M78.04,83.58v-2.01c0-.89-1.31-1.71-1.85-1.71s-1.85,.82-1.85,1.71v2.01h3.7Z"/></g><rect class="cls-19" x=".91" y="60.95" width="17.81" height="22.61"/><rect class="cls-6" x=".91" y="60.95" width="9.15" height="22.61"/><rect class="cls-22" x=".91" y="60.95" width="17.81" height="1.44"/><rect class="cls-14" x=".91" y="60.95" width="9.15" height="1.44"/><rect class="cls-19" y="59.92" width="19.63" height="1.85"/><g><rect class="cls-22" x=".91" y="68.28" width="17.81" height="1.7"/><rect class="cls-14" x=".91" y="68.28" width="9.15" height="1.7"/><rect class="cls-23" y="68.48" width="19.63" height=".89"/><rect class="cls-19" y="68.48" width="10.07" height=".89"/></g><g><rect class="cls-22" x=".91" y="75.88" width="17.81" height="1.7"/><rect class="cls-14" x=".91" y="75.88" width="9.15" height="1.7"/><rect class="cls-23" y="76.07" width="19.63" height=".89"/><rect class="cls-19" y="76.07" width="10.07" height=".89"/></g><polygon class="cls-21" points="12.26 48.15 7.58 48.15 2.93 59.99 16.9 59.99 12.26 48.15"/><polygon class="cls-30" points="10.08 48.15 7.58 48.15 2.93 59.99 10.08 59.99 10.08 48.15"/><path class="cls-23" d="M11.61,83.56v-3.31c0-.91-.74-1.65-1.65-1.65s-1.65,.74-1.65,1.65v3.31h3.29Z"/><path class="cls-14" d="M11.75,83.56h-.27v-3.31c0-.83-.68-1.51-1.51-1.51s-1.51,.68-1.51,1.51v3.31h-.27v-3.31c0-.98,.8-1.78,1.78-1.78s1.78,.8,1.78,1.78v3.31Z"/><rect class="cls-30" x="8.85" y="80.31" width="2.21" height="3.3"/><g><rect class="cls-30" x="2.51" y="79.36" width="4.27" height="3.11"/><polygon class="cls-14" points="6.77 80.74 5.69 80.74 5.69 79.36 5.14 79.36 5.14 80.74 4.14 80.74 4.14 79.36 3.59 79.36 3.59 80.74 2.51 80.74 2.51 81.29 3.59 81.29 3.59 82.47 4.14 82.47 4.14 81.29 5.14 81.29 5.14 82.47 5.69 82.47 5.69 81.29 6.77 81.29 6.77 80.74"/><rect class="cls-11" x="2.51" y="79.36" width="4.27" height="3.11"/></g><g><rect class="cls-30" x="12.94" y="79.36" width="4.27" height="3.11"/><polygon class="cls-14" points="17.2 80.74 16.12 80.74 16.12 79.36 15.57 79.36 15.57 80.74 14.57 80.74 14.57 79.36 14.02 79.36 14.02 80.74 12.94 80.74 12.94 81.29 14.02 81.29 14.02 82.47 14.57 82.47 14.57 81.29 15.57 81.29 15.57 82.47 16.12 82.47 16.12 81.29 17.2 81.29 17.2 80.74"/><rect class="cls-11" x="12.94" y="79.36" width="4.27" height="3.11"/></g><g><path class="cls-30" d="M11.25,75.03v-2.93c0-.67-.55-1.23-1.23-1.23s-1.23,.55-1.23,1.23v2.93h2.45Z"/><path class="cls-11" d="M11.25,75.03v-2.93c0-.67-.55-1.23-1.23-1.23s-1.23,.55-1.23,1.23v2.93h2.45Z"/><path class="cls-14" d="M8.8,72.08h2.45c0-.67-.56-1.21-1.23-1.21s-1.22,.54-1.23,1.21Z"/><polygon class="cls-14" points="10.34 73.23 10.34 71.85 9.79 71.85 9.79 73.23 9.79 73.77 9.79 74.95 10.34 74.95 10.34 73.77 10.34 73.23"/></g><g><path class="cls-30" d="M16.35,75.03v-2.93c0-.67-.55-1.23-1.23-1.23s-1.23,.55-1.23,1.23v2.93h2.45Z"/><path class="cls-11" d="M16.35,75.03v-2.93c0-.67-.55-1.23-1.23-1.23s-1.23,.55-1.23,1.23v2.93h2.45Z"/><path class="cls-14" d="M13.9,72.08h2.45c0-.67-.56-1.21-1.23-1.21s-1.22,.54-1.23,1.21Z"/><polygon class="cls-14" points="15.44 73.23 15.44 71.85 14.89 71.85 14.89 73.23 14.89 73.77 14.89 74.95 15.44 74.95 15.44 73.77 15.44 73.23"/></g><g><path class="cls-30" d="M5.92,75.03v-2.93c0-.67-.55-1.23-1.23-1.23s-1.23,.55-1.23,1.23v2.93h2.45Z"/><path class="cls-11" d="M5.92,75.03v-2.93c0-.67-.55-1.23-1.23-1.23s-1.23,.55-1.23,1.23v2.93h2.45Z"/><path class="cls-14" d="M3.47,72.08h2.45c0-.67-.56-1.21-1.23-1.21s-1.22,.54-1.23,1.21Z"/><polygon class="cls-14" points="5.01 73.23 5.01 71.85 4.46 71.85 4.46 73.23 4.46 73.77 4.46 74.95 5.01 74.95 5.01 73.77 5.01 73.23"/></g><g><path class="cls-30" d="M11.25,67.43v-2.93c0-.67-.55-1.23-1.23-1.23s-1.23,.55-1.23,1.23v2.93h2.45Z"/><path class="cls-11" d="M11.25,67.43v-2.93c0-.67-.55-1.23-1.23-1.23s-1.23,.55-1.23,1.23v2.93h2.45Z"/><path class="cls-14" d="M8.8,64.49h2.45c0-.67-.56-1.21-1.23-1.21s-1.22,.54-1.23,1.21Z"/><polygon class="cls-14" points="10.34 65.63 10.34 64.25 9.79 64.25 9.79 65.63 9.79 66.18 9.79 67.36 10.34 67.36 10.34 66.18 10.34 65.63"/></g><g><path class="cls-30" d="M16.35,67.43v-2.93c0-.67-.55-1.23-1.23-1.23s-1.23,.55-1.23,1.23v2.93h2.45Z"/><path class="cls-11" d="M16.35,67.43v-2.93c0-.67-.55-1.23-1.23-1.23s-1.23,.55-1.23,1.23v2.93h2.45Z"/><path class="cls-14" d="M13.9,64.49h2.45c0-.67-.56-1.21-1.23-1.21s-1.22,.54-1.23,1.21Z"/><polygon class="cls-14" points="15.44 65.63 15.44 64.25 14.89 64.25 14.89 65.63 14.89 66.18 14.89 67.36 15.44 67.36 15.44 66.18 15.44 65.63"/></g><g><path class="cls-30" d="M5.92,67.43v-2.93c0-.67-.55-1.23-1.23-1.23s-1.23,.55-1.23,1.23v2.93h2.45Z"/><path class="cls-11" d="M5.92,67.43v-2.93c0-.67-.55-1.23-1.23-1.23s-1.23,.55-1.23,1.23v2.93h2.45Z"/><path class="cls-14" d="M3.47,64.49h2.45c0-.67-.56-1.21-1.23-1.21s-1.22,.54-1.23,1.21Z"/><polygon class="cls-14" points="5.01 65.63 5.01 64.25 4.46 64.25 4.46 65.63 4.46 66.18 4.46 67.36 5.01 67.36 5.01 66.18 5.01 65.63"/></g><rect x="7.58" y="47.62" width="4.68" height=".55"/><g><path d="M10.48,52.1v-1.29c0-.3-.24-.54-.54-.54s-.54,.24-.54,.54v1.29h1.08Z"/><path class="cls-8" d="M10.48,52.1v-1.29c0-.3-.24-.54-.54-.54s-.54,.24-.54,.54v1.29h1.08Z"/><rect class="cls-2" x="9.13" y="52.02" width="1.63" height=".39"/></g><g><path d="M7.6,57.64v-1.29c0-.3-.24-.54-.54-.54s-.54,.24-.54,.54v1.29h1.08Z"/><path class="cls-8" d="M7.6,57.64v-1.29c0-.3-.24-.54-.54-.54s-.54,.24-.54,.54v1.29h1.08Z"/><rect class="cls-2" x="6.25" y="57.56" width="1.63" height=".39"/></g><g><path d="M13.27,57.64v-1.29c0-.3-.24-.54-.54-.54s-.54,.24-.54,.54v1.29h1.08Z"/><path class="cls-8" d="M13.27,57.64v-1.29c0-.3-.24-.54-.54-.54s-.54,.24-.54,.54v1.29h1.08Z"/><rect class="cls-2" x="11.92" y="57.56" width="1.63" height=".39"/></g><g><rect class="cls-20" x="33.45" y="40.59" width="35.37" height="42.84"/><rect class="cls-5" x="33.45" y="40.59" width="17.63" height="42.84"/><rect class="cls-18" x="33.45" y="40.59" width="3.3" height="42.84"/><rect class="cls-4" x="35.22" y="40.59" width="1.53" height="42.84"/><rect class="cls-30" x="36.35" y="40.59" width=".4" height="42.84"/><rect class="cls-18" x="65.53" y="40.59" width="3.3" height="42.84"/><rect class="cls-30" x="65.49" y="40.59" width=".39" height="42.84"/><rect class="cls-4" x="67.31" y="40.59" width="1.53" height="42.84"/><polygon class="cls-1" points="55.87 36.09 55.87 31.16 55.27 31.16 55.27 35.02 54.87 35.02 54.87 30.22 54.26 30.22 54.26 33.99 53.87 33.99 53.87 28.44 52.98 28.44 52.98 27.44 52.47 27.44 52.47 24.39 51.71 24.39 51.71 27.44 51.45 27.44 51.45 23.29 50.58 23.29 50.58 27.44 50.3 27.44 50.3 24.39 49.54 24.39 49.54 27.44 49.04 27.44 49.04 28.44 48.22 28.44 48.22 33.99 47.88 33.99 47.88 30.22 47.27 30.22 47.27 35.02 46.88 35.02 46.88 31.16 46.27 31.16 46.27 36.09 45.51 36.09 45.51 40.63 56.53 40.63 56.53 36.09 55.87 36.09"/><polygon class="cls-15" points="51.05 23.29 50.58 23.29 50.58 27.44 50.3 27.44 50.3 24.39 49.54 24.39 49.54 27.44 49.04 27.44 49.04 28.44 48.22 28.44 48.22 33.99 47.88 33.99 47.88 30.22 47.27 30.22 47.27 35.02 46.88 35.02 46.88 31.16 46.27 31.16 46.27 36.09 45.51 36.09 45.51 40.63 51.05 40.63 51.05 23.29"/><path class="cls-26" d="M53.32,31.56c0,1.25-1.01,2.27-2.27,2.27s-2.27-1.01-2.27-2.27,1.01-2.27,2.27-2.27,2.27,1.01,2.27,2.27Z"/><path class="cls-3" d="M51.05,29.29c-1.25,0-2.25,1.02-2.25,2.27s1.01,2.26,2.25,2.27v-4.53Z"/><path d="M50.98,23.75c-.07,0-.13-.06-.13-.13v-4.89c0-.07,.06-.13,.13-.13s.13,.06,.13,.13v4.89c0,.07-.06,.13-.13,.13Z"/><path d="M53.43,21.31h-4.89c-.07,0-.13-.06-.13-.13s.06-.13,.13-.13h4.89c.07,0,.13,.06,.13,.13s-.06,.13-.13,.13Z"/><g><path d="M37.17,9.23c-.07,0-.13-.06-.13-.13v-3.57c0-.07,.06-.13,.13-.13s.13,.06,.13,.13v3.57c0,.07-.06,.13-.13,.13Z"/><path d="M37.57,6.56c0,.23-.18,.42-.4,.42s-.4-.19-.4-.42,.18-.42,.4-.42,.4,.19,.4,.42Z"/><path d="M43.15,9.23c-.07,0-.13-.06-.13-.13v-3.57c0-.07,.06-.13,.13-.13s.13,.06,.13,.13v3.57c0,.07-.06,.13-.13,.13Z"/><path d="M43.55,6.56c0,.23-.18,.42-.4,.42s-.4-.19-.4-.42,.18-.42,.4-.42,.4,.19,.4,.42Z"/><path d="M40.12,3.84c-.07,0-.13-.06-.13-.13V.13c0-.07,.06-.13,.13-.13s.13,.06,.13,.13V3.7c0,.07-.06,.13-.13,.13Z"/><rect class="cls-33" x="35.06" y="24.85" width="10.46" height="15.77"/><rect class="cls-28" x="35.06" y="24.85" width="10.46" height="1.11"/><rect class="cls-16" x="35.06" y="24.85" width="5.31" height="15.77"/><rect class="cls-1" x="35.06" y="24.85" width="5.31" height="1.11"/><rect class="cls-28" x="35.06" y="38.16" width="10.46" height=".35"/><rect class="cls-1" x="35.06" y="38.16" width="5.31" height=".35"/><g><polygon points="33.63 24.49 35.06 25.92 35.06 24.49 33.63 24.49"/><g><rect class="cls-21" x="33.63" y="20.88" width="1.47" height="3.62"/><rect class="cls-30" x="33.63" y="20.88" width="1.47" height=".28"/><g><polygon class="cls-21" points="34.32 16.09 33.39 20.19 32.98 20.9 35.72 20.9 35.32 20.19 34.32 16.09"/><polygon class="cls-30" points="34.32 16.09 33.39 20.19 32.98 20.9 34.32 20.9 34.32 16.09"/><polygon points="34.32 16.09 32.98 20.9 33.69 20.9 34.32 16.09"/><polygon points="34.32 16.09 35.72 20.9 34.98 20.9 34.32 16.09"/></g><path d="M34.66,23.62v-1.39c0-.15-.12-.28-.27-.28s-.27,.13-.27,.28v1.39h.54Z"/></g></g><g><polygon points="46.93 24.49 45.51 25.92 45.51 24.49 46.93 24.49"/><g><rect class="cls-21" x="45.46" y="20.88" width="1.47" height="3.62" transform="translate(92.4 45.37) rotate(180)"/><rect class="cls-30" x="45.46" y="20.88" width="1.47" height=".28" transform="translate(92.4 42.03) rotate(180)"/><g><polygon class="cls-21" points="46.25 16.09 47.18 20.19 47.58 20.9 44.85 20.9 45.25 20.19 46.25 16.09"/><polygon class="cls-30" points="46.25 16.09 47.18 20.19 47.58 20.9 46.24 20.9 46.25 16.09"/><polygon points="46.25 16.09 47.58 20.9 46.88 20.9 46.25 16.09"/><polygon points="46.25 16.09 44.85 20.9 45.58 20.9 46.25 16.09"/></g><path d="M45.91,23.62v-1.39c0-.15,.12-.28,.27-.28s.27,.13,.27,.28v1.39h-.54Z"/></g></g><g><polygon class="cls-21" points="40.13 3.01 35.9 21.64 34.05 24.85 46.48 24.85 44.66 21.64 40.13 3.01"/><polygon class="cls-30" points="40.13 3.01 35.9 21.64 34.05 24.85 40.33 24.85 40.13 3.01"/><polygon points="40.13 3.01 35.9 21.64 34.05 24.85 37.25 24.85 40.13 3.01"/><polygon points="40.13 3.01 44.66 21.64 46.48 24.85 43.14 24.85 40.13 3.01"/></g><g><polygon points="36.5 14.1 37.64 15.25 37.93 14.1 36.5 14.1"/><g><rect class="cls-21" x="36.5" y="11.43" width="1.38" height="2.67"/><g><polygon class="cls-21" points="37.16 6.21 36.62 11.08 36.39 12.06 37.96 12.06 37.73 11.08 37.16 6.21"/><polygon class="cls-30" points="37.16 6.21 36.62 11.08 36.39 12.06 37.16 12.06 37.16 6.21"/><polygon points="37.16 6.21 36.39 12.06 36.79 12.06 37.16 6.21"/><polygon points="37.16 6.21 37.96 12.06 37.54 12.06 37.16 6.21"/></g></g><path d="M37.44,14.16v-1.39c0-.15-.12-.28-.27-.28s-.27,.13-.27,.28v1.39h.54Z"/></g><g><polygon points="43.83 14.1 42.69 15.25 42.4 14.1 43.83 14.1"/><g><rect class="cls-21" x="42.45" y="11.43" width="1.38" height="2.67" transform="translate(86.28 25.53) rotate(180)"/><g><polygon class="cls-21" points="43.18 6.21 43.71 11.08 43.95 12.06 42.37 12.06 42.6 11.08 43.18 6.21"/><polygon class="cls-30" points="43.18 6.21 43.71 11.08 43.95 12.06 43.17 12.06 43.18 6.21"/><polygon points="43.18 6.21 43.95 12.06 43.54 12.06 43.18 6.21"/><polygon points="43.18 6.21 42.37 12.06 42.79 12.06 43.18 6.21"/></g></g><path d="M43.43,14.16v-1.39c0-.15-.12-.28-.27-.28s-.27,.13-.27,.28v1.39h.54Z"/></g><g><polygon points="40.89 14.1 40.22 15.25 39.46 14.1 40.89 14.1"/><g><rect class="cls-7" x="39.5" y="11.43" width="1.38" height="2.67" transform="translate(80.39 25.53) rotate(180)"/><g><polygon class="cls-21" points="40.23 6.21 40.76 11.08 41 12.06 39.42 12.06 39.65 11.08 40.23 6.21"/><polygon class="cls-30" points="40.23 6.21 40.76 11.08 41 12.06 40.23 12.06 40.23 6.21"/><polygon class="cls-25" points="40.23 6.21 41 12.06 40.59 12.06 40.23 6.21"/><polygon class="cls-25" points="40.23 6.21 39.42 12.06 39.85 12.06 40.23 6.21"/></g></g><path d="M40.49,14.13v-1.39c0-.15-.12-.28-.27-.28s-.27,.13-.27,.28v1.39h.54Z"/></g><path d="M40.52,2.74c0,.23-.18,.42-.4,.42s-.4-.19-.4-.42,.18-.42,.4-.42,.4,.19,.4,.42Z"/><g><polygon points="36.1 24.49 36.84 25.92 37.53 24.49 36.1 24.49"/><g><rect class="cls-7" x="36.1" y="20.88" width="1.47" height="3.62"/><rect class="cls-30" x="36.1" y="20.88" width="1.47" height=".28"/><g><polygon class="cls-21" points="36.79 16.09 35.86 20.19 35.45 20.9 38.19 20.9 37.79 20.19 36.79 16.09"/><polygon class="cls-30" points="36.79 16.09 35.86 20.19 35.45 20.9 36.79 20.9 36.79 16.09"/><polygon points="36.79 16.09 35.45 20.9 36.15 20.9 36.79 16.09"/><polygon class="cls-25" points="36.79 16.09 38.19 20.9 37.45 20.9 36.79 16.09"/></g><path d="M37.13,23.62v-1.39c0-.15-.12-.28-.27-.28s-.27,.13-.27,.28v1.39h.54Z"/></g></g><g><polygon points="44.37 24.49 43.66 25.92 42.94 24.49 44.37 24.49"/><g><rect class="cls-7" x="42.9" y="20.88" width="1.47" height="3.62" transform="translate(87.27 45.37) rotate(180)"/><rect class="cls-30" x="42.9" y="20.88" width="1.47" height=".28" transform="translate(87.27 42.03) rotate(180)"/><g><polygon class="cls-21" points="43.68 16.09 44.62 20.19 45.02 20.9 42.29 20.9 42.69 20.19 43.68 16.09"/><polygon class="cls-30" points="43.68 16.09 44.62 20.19 45.02 20.9 43.68 20.9 43.68 16.09"/><polygon points="43.68 16.09 45.02 20.9 44.32 20.9 43.68 16.09"/><polygon class="cls-25" points="43.68 16.09 42.29 20.9 43.02 20.9 43.68 16.09"/></g><path d="M43.34,23.62v-1.39c0-.15,.12-.28,.27-.28s.27,.13,.27,.28v1.39h-.54Z"/></g></g><g><path d="M41.31,34.74v-4.97c0-.48-.43-.88-.97-.88s-.97,.4-.97,.88v4.97h1.93Z"/><path class="cls-8" d="M41.31,34.74v-4.97c0-.48-.43-.88-.97-.88s-.97,.4-.97,.88v4.97h1.93Z"/><rect class="cls-2" x="38.9" y="34.61" width="2.9" height=".64"/></g><g><rect class="cls-12" x="35.06" y="25.96" width=".96" height="1"/><rect class="cls-12" x="36.01" y="25.96" width=".96" height="1"/><rect class="cls-12" x="36.97" y="25.96" width=".96" height="1"/><rect class="cls-12" x="35.06" y="26.96" width=".96" height="1"/><rect class="cls-12" x="36.02" y="26.96" width=".96" height="1"/><rect class="cls-12" x="35.06" y="27.96" width=".96" height="1"/></g><g><rect class="cls-13" x="44.56" y="25.96" width=".96" height="1" transform="translate(90.08 52.92) rotate(180)"/><rect class="cls-13" x="43.61" y="25.96" width=".96" height="1" transform="translate(88.18 52.92) rotate(180)"/><rect class="cls-13" x="42.65" y="25.96" width=".96" height="1" transform="translate(86.27 52.92) rotate(180)"/><rect class="cls-13" x="44.56" y="26.96" width=".96" height="1" transform="translate(90.08 54.91) rotate(180)"/><rect class="cls-13" x="43.6" y="26.96" width=".96" height="1" transform="translate(88.16 54.91) rotate(180)"/><rect class="cls-13" x="44.56" y="27.96" width=".96" height="1" transform="translate(90.08 56.91) rotate(180)"/></g><path class="cls-30" d="M41.1,40.62v-.73c0-.32-.53-.62-.75-.62s-.75,.3-.75,.62v.73h1.49Z"/></g><g><path d="M58.62,9.23c-.07,0-.13-.06-.13-.13v-3.57c0-.07,.06-.13,.13-.13s.13,.06,.13,.13v3.57c0,.07-.06,.13-.13,.13Z"/><path d="M59.03,6.56c0,.23-.18,.42-.4,.42s-.4-.19-.4-.42,.18-.42,.4-.42,.4,.19,.4,.42Z"/><path d="M64.61,9.23c-.07,0-.13-.06-.13-.13v-3.57c0-.07,.06-.13,.13-.13s.13,.06,.13,.13v3.57c0,.07-.06,.13-.13,.13Z"/><path d="M65.01,6.56c0,.23-.18,.42-.4,.42s-.4-.19-.4-.42,.18-.42,.4-.42,.4,.19,.4,.42Z"/><path d="M61.57,3.84c-.07,0-.13-.06-.13-.13V.13c0-.07,.06-.13,.13-.13s.13,.06,.13,.13V3.7c0,.07-.06,.13-.13,.13Z"/><rect class="cls-33" x="56.51" y="24.85" width="10.46" height="15.77"/><rect class="cls-28" x="56.51" y="24.85" width="10.46" height="1.11"/><rect class="cls-16" x="56.51" y="24.85" width="5.31" height="15.77"/><rect class="cls-1" x="56.51" y="24.85" width="5.31" height="1.11"/><rect class="cls-28" x="56.51" y="38.16" width="10.46" height=".35"/><rect class="cls-1" x="56.51" y="38.16" width="5.31" height=".35"/><g><polygon points="55.09 24.49 56.52 25.92 56.52 24.49 55.09 24.49"/><g><rect class="cls-21" x="55.09" y="20.88" width="1.47" height="3.62"/><rect class="cls-30" x="55.09" y="20.88" width="1.47" height=".28"/><g><polygon class="cls-21" points="55.77 16.09 54.84 20.19 54.44 20.9 57.17 20.9 56.77 20.19 55.77 16.09"/><polygon class="cls-30" points="55.77 16.09 54.84 20.19 54.44 20.9 55.78 20.9 55.77 16.09"/><polygon points="55.77 16.09 54.44 20.9 55.14 20.9 55.77 16.09"/><polygon points="55.77 16.09 57.17 20.9 56.44 20.9 55.77 16.09"/></g><path d="M56.11,23.62v-1.39c0-.15-.12-.28-.27-.28s-.27,.13-.27,.28v1.39h.54Z"/></g></g><g><polygon points="68.39 24.49 66.96 25.92 66.96 24.49 68.39 24.49"/><g><rect class="cls-21" x="66.92" y="20.88" width="1.47" height="3.62" transform="translate(135.3 45.37) rotate(180)"/><rect class="cls-30" x="66.92" y="20.88" width="1.47" height=".28" transform="translate(135.3 42.03) rotate(180)"/><g><polygon class="cls-21" points="67.7 16.09 68.63 20.19 69.04 20.9 66.3 20.9 66.7 20.19 67.7 16.09"/><polygon class="cls-30" points="67.7 16.09 68.63 20.19 69.04 20.9 67.7 20.9 67.7 16.09"/><polygon points="67.7 16.09 69.04 20.9 68.34 20.9 67.7 16.09"/><polygon points="67.7 16.09 66.3 20.9 67.04 20.9 67.7 16.09"/></g><path d="M67.36,23.62v-1.39c0-.15,.12-.28,.27-.28s.27,.13,.27,.28v1.39h-.54Z"/></g></g><g><polygon class="cls-21" points="61.58 3.01 57.35 21.64 55.51 24.85 67.93 24.85 66.12 21.64 61.58 3.01"/><polygon class="cls-30" points="61.58 3.01 57.35 21.64 55.51 24.85 61.78 24.85 61.58 3.01"/><polygon points="61.58 3.01 57.35 21.64 55.51 24.85 58.7 24.85 61.58 3.01"/><polygon points="61.58 3.01 66.12 21.64 67.93 24.85 64.6 24.85 61.58 3.01"/></g><g><polygon points="57.95 14.1 59.1 15.25 59.38 14.1 57.95 14.1"/><g><rect class="cls-21" x="57.96" y="11.43" width="1.38" height="2.67"/><g><polygon class="cls-21" points="58.61 6.21 58.07 11.08 57.84 12.06 59.42 12.06 59.19 11.08 58.61 6.21"/><polygon class="cls-30" points="58.61 6.21 58.07 11.08 57.84 12.06 58.61 12.06 58.61 6.21"/><polygon points="58.61 6.21 57.84 12.06 58.25 12.06 58.61 6.21"/><polygon points="58.61 6.21 59.42 12.06 58.99 12.06 58.61 6.21"/></g></g><path d="M58.89,14.16v-1.39c0-.15-.12-.28-.27-.28s-.27,.13-.27,.28v1.39h.54Z"/></g><g><polygon points="65.29 14.1 64.14 15.25 63.86 14.1 65.29 14.1"/><g><rect class="cls-21" x="63.91" y="11.43" width="1.38" height="2.67" transform="translate(129.19 25.53) rotate(180)"/><g><polygon class="cls-21" points="64.63 6.21 65.17 11.08 65.4 12.06 63.82 12.06 64.05 11.08 64.63 6.21"/><polygon class="cls-30" points="64.63 6.21 65.17 11.08 65.4 12.06 64.63 12.06 64.63 6.21"/><polygon points="64.63 6.21 65.4 12.06 64.99 12.06 64.63 6.21"/><polygon points="64.63 6.21 63.82 12.06 64.25 12.06 64.63 6.21"/></g></g><path d="M64.89,14.16v-1.39c0-.15-.12-.28-.27-.28s-.27,.13-.27,.28v1.39h.54Z"/></g><g><polygon points="62.34 14.1 61.67 15.25 60.91 14.1 62.34 14.1"/><g><rect class="cls-7" x="60.96" y="11.43" width="1.38" height="2.67" transform="translate(123.3 25.53) rotate(180)"/><g><polygon class="cls-21" points="61.68 6.21 62.22 11.08 62.45 12.06 60.88 12.06 61.11 11.08 61.68 6.21"/><polygon class="cls-30" points="61.68 6.21 62.22 11.08 62.45 12.06 61.68 12.06 61.68 6.21"/><polygon class="cls-25" points="61.68 6.21 62.45 12.06 62.05 12.06 61.68 6.21"/><polygon class="cls-25" points="61.68 6.21 60.88 12.06 61.3 12.06 61.68 6.21"/></g></g><path d="M61.94,14.13v-1.39c0-.15-.12-.28-.27-.28s-.27,.13-.27,.28v1.39h.54Z"/></g><path d="M61.98,2.74c0,.23-.18,.42-.4,.42s-.4-.19-.4-.42,.18-.42,.4-.42,.4,.19,.4,.42Z"/><g><polygon points="57.56 24.49 58.29 25.92 58.98 24.49 57.56 24.49"/><g><rect class="cls-7" x="57.55" y="20.88" width="1.47" height="3.62"/><rect class="cls-30" x="57.55" y="20.88" width="1.47" height=".28"/><g><polygon class="cls-21" points="58.24 16.09 57.31 20.19 56.9 20.9 59.64 20.9 59.24 20.19 58.24 16.09"/><polygon class="cls-30" points="58.24 16.09 57.31 20.19 56.9 20.9 58.24 20.9 58.24 16.09"/><polygon points="58.24 16.09 56.9 20.9 57.61 20.9 58.24 16.09"/><polygon class="cls-25" points="58.24 16.09 59.64 20.9 58.91 20.9 58.24 16.09"/></g><path d="M58.58,23.62v-1.39c0-.15-.12-.28-.27-.28s-.27,.13-.27,.28v1.39h.54Z"/></g></g><g><polygon points="65.82 24.49 65.12 25.92 64.4 24.49 65.82 24.49"/><g><rect class="cls-7" x="64.35" y="20.88" width="1.47" height="3.62" transform="translate(130.18 45.37) rotate(180)"/><rect class="cls-30" x="64.35" y="20.88" width="1.47" height=".28" transform="translate(130.18 42.03) rotate(180)"/><g><polygon class="cls-21" points="65.14 16.09 66.07 20.19 66.48 20.9 63.74 20.9 64.14 20.19 65.14 16.09"/><polygon class="cls-30" points="65.14 16.09 66.07 20.19 66.48 20.9 65.14 20.9 65.14 16.09"/><polygon points="65.14 16.09 66.48 20.9 65.77 20.9 65.14 16.09"/><polygon class="cls-25" points="65.14 16.09 63.74 20.9 64.47 20.9 65.14 16.09"/></g><path d="M64.8,23.62v-1.39c0-.15,.12-.28,.27-.28s.27,.13,.27,.28v1.39h-.54Z"/></g></g><g><path d="M62.77,34.74v-4.97c0-.48-.43-.88-.97-.88s-.97,.4-.97,.88v4.97h1.93Z"/><path class="cls-8" d="M62.77,34.74v-4.97c0-.48-.43-.88-.97-.88s-.97,.4-.97,.88v4.97h1.93Z"/><rect class="cls-2" x="60.35" y="34.61" width="2.9" height=".64"/></g><g><rect class="cls-12" x="56.51" y="25.96" width=".96" height="1"/><rect class="cls-12" x="57.46" y="25.96" width=".96" height="1"/><rect class="cls-12" x="58.42" y="25.96" width=".96" height="1"/><rect class="cls-12" x="56.51" y="26.96" width=".96" height="1"/><rect class="cls-12" x="57.47" y="26.96" width=".96" height="1"/><rect class="cls-12" x="56.51" y="27.96" width=".96" height="1"/></g><g><rect class="cls-13" x="66.01" y="25.96" width=".96" height="1" transform="translate(132.99 52.92) rotate(180)"/><rect class="cls-13" x="65.06" y="25.96" width=".96" height="1" transform="translate(131.09 52.92) rotate(180)"/><rect class="cls-13" x="64.11" y="25.96" width=".96" height="1" transform="translate(129.18 52.92) rotate(180)"/><rect class="cls-13" x="66.01" y="26.96" width=".96" height="1" transform="translate(132.99 54.91) rotate(180)"/><rect class="cls-13" x="65.06" y="26.96" width=".96" height="1" transform="translate(131.07 54.91) rotate(180)"/><rect class="cls-13" x="66.01" y="27.96" width=".96" height="1" transform="translate(132.99 56.91) rotate(180)"/></g><path class="cls-30" d="M62.56,40.62v-.73c0-.32-.53-.62-.75-.62s-.75,.3-.75,.62v.73h1.49Z"/></g><path class="cls-9" d="M53.01,31.56c0,1.08-.87,1.95-1.95,1.95s-1.95-.87-1.95-1.95,.87-1.95,1.95-1.95,1.95,.87,1.95,1.95Z"/><rect class="cls-24" x="32.84" y="40.59" width="36.57" height="1.48"/><rect class="cls-21" x="32.84" y="42.06" width="36.57" height=".7"/><rect class="cls-31" x="32.84" y="40.59" width="18.22" height="1.48"/><rect class="cls-30" x="32.84" y="42.06" width="18.22" height=".7"/><g><path d="M41.44,49.28v-1.96c0-.45-.42-.82-.93-.82s-.93,.37-.93,.82v1.96h1.87Z"/><path class="cls-8" d="M41.44,49.28v-1.96c0-.45-.42-.82-.93-.82s-.93,.37-.93,.82v1.96h1.87Z"/><rect class="cls-2" x="39.11" y="49.16" width="2.8" height=".59"/></g><g><path d="M41.44,55.74v-1.96c0-.45-.42-.82-.93-.82s-.93,.37-.93,.82v1.96h1.87Z"/><path class="cls-8" d="M41.44,55.74v-1.96c0-.45-.42-.82-.93-.82s-.93,.37-.93,.82v1.96h1.87Z"/><rect class="cls-2" x="39.11" y="55.62" width="2.8" height=".59"/></g><g><path d="M62.99,49.28v-1.96c0-.45-.42-.82-.93-.82s-.93,.37-.93,.82v1.96h1.87Z"/><path class="cls-8" d="M62.99,49.28v-1.96c0-.45-.42-.82-.93-.82s-.93,.37-.93,.82v1.96h1.87Z"/><rect class="cls-2" x="60.66" y="49.16" width="2.8" height=".59"/></g><g><path d="M62.99,55.74v-1.96c0-.45-.42-.82-.93-.82s-.93,.37-.93,.82v1.96h1.87Z"/><path class="cls-8" d="M62.99,55.74v-1.96c0-.45-.42-.82-.93-.82s-.93,.37-.93,.82v1.96h1.87Z"/><rect class="cls-2" x="60.66" y="55.62" width="2.8" height=".59"/></g><rect class="cls-30" x="36.66" y="50.95" width="28.87" height=".4"/><rect class="cls-30" x="36.66" y="57.78" width="28.87" height=".4"/><g><path d="M56.23,83.57V51.13c0-3.17-2.36-5.76-5.24-5.76s-5.24,2.59-5.24,5.76v32.44h10.48Z"/><path class="cls-10" d="M56.23,83.57V51.13c0-3.17-2.36-5.76-5.24-5.76s-5.24,2.59-5.24,5.76v32.44h10.48Z"/></g><rect class="cls-30" x="34.12" y="46.59" width=".67" height=".54"/><rect class="cls-30" x="35.05" y="52.76" width=".47" height=".54"/><rect class="cls-30" x="34.99" y="43.65" width=".74" height=".54"/><rect class="cls-30" x="66.4" y="43.65" width=".8" height=".54"/><rect class="cls-30" x="66.8" y="47.4" width=".74" height=".54"/><rect class="cls-30" x="67.67" y="51.22" width=".54" height=".54"/><rect class="cls-30" x="66.74" y="55.17" width="1" height=".54"/><rect class="cls-30" x="67.47" y="59.52" width=".6" height=".54"/><rect class="cls-30" x="66.4" y="62.47" width=".47" height=".54"/><rect class="cls-30" x="68.07" y="44.52" width=".33" height=".54"/><rect class="cls-30" x="33.92" y="55.84" width=".67" height=".54"/><rect class="cls-30" x="34.99" y="60.93" width="1.14" height=".54"/><rect class="cls-30" x="33.98" y="50.14" width=".67" height=".54"/><rect class="cls-30" x="34.38" y="66.42" width=".54" height=".54"/><rect class="cls-30" x="35.19" y="70.91" width=".33" height=".54"/><rect class="cls-30" x="34.12" y="75.53" width=".54" height=".54"/><rect class="cls-30" x="34.72" y="78.54" width=".6" height=".54"/><rect class="cls-30" x="66.53" y="68.16" width=".33" height=".54"/><rect class="cls-30" x="67.14" y="73.32" width=".67" height=".54"/><rect class="cls-30" x="66.94" y="77.4" width=".4" height=".54"/><rect class="cls-30" x="66.6" y="81.29" width=".4" height=".54"/><rect class="cls-30" x="33.98" y="81.76" width=".4" height=".54"/><rect class="cls-30" x="36.46" y="36.41" width=".8" height=".54"/><rect class="cls-30" x="35.46" y="31.06" width=".54" height=".54"/><rect class="cls-30" x="37.2" y="29.11" width=".47" height=".54"/><rect class="cls-30" x="58.5" y="29.65" width=".54" height=".54"/><rect class="cls-30" x="60.84" y="26.57" width=".54" height=".54"/><rect class="cls-30" x="57.29" y="35.54" width=".4" height=".54"/><rect class="cls-30" x="59.37" y="36.95" width="1.21" height=".54"/><rect class="cls-30" x="64.93" y="36.61" width=".54" height=".54"/><rect class="cls-30" x="65.06" y="31.66" width=".6" height=".54"/><rect class="cls-30" x="42.76" y="30.39" width="1" height=".54"/><rect class="cls-30" x="42.96" y="36.21" width=".6" height=".54"/><rect class="cls-30" x="37" y="33.6" width=".67" height=".54"/><rect class="cls-30" x="40.81" y="26.17" width=".6" height=".54"/><rect class="cls-30" x="42.69" y="39.76" width=".6" height=".54"/><rect class="cls-30" x="58.83" y="39.29" width=".4" height=".54"/><rect class="cls-30" x="64.86" y="39.23" width=".6" height=".54"/><rect class="cls-30" x="36.26" y="39.43" width=".67" height=".54"/></g><g><g><path class="cls-17" d="M21.71,68.2l3.83-5.39h16.71l3.53,5.39s-24.11-.03-24.07,0Z"/><path class="cls-27" d="M33.93,62.82h-8.38l-3.83,5.39s6.13-.01,12.21,0v-5.38Z"/><rect class="cls-19" x="21.69" y="68.15" width="24.07" height="15.4"/><rect class="cls-6" x="21.69" y="68.15" width="12.24" height="15.4"/><rect class="cls-19" x="23.28" y="66.63" width="20.7" height="1.54"/><rect class="cls-6" x="23.28" y="66.63" width="10.65" height="1.54"/><polygon class="cls-19" points="34.6 64.34 33.02 64.34 31.44 66.65 36.18 66.65 34.6 64.34"/><polygon class="cls-6" points="24.92 66.64 31.02 66.64 31.02 65.34 31.23 65.34 31.23 64.74 28.99 64.74 28.99 64.01 29.2 64.01 29.2 63.41 26.72 63.41 26.72 64.01 26.91 64.01 26.91 64.74 24.71 64.74 24.71 65.34 24.92 65.34 24.92 66.64"/><rect class="cls-14" x="24.92" y="65.35" width="6.1" height=".24"/><rect class="cls-14" x="26.9" y="64.01" width="2.08" height=".22"/><polygon class="cls-19" points="36.63 66.64 42.73 66.64 42.73 65.34 42.94 65.34 42.94 64.74 40.7 64.74 40.7 64.01 40.91 64.01 40.91 63.41 38.43 63.41 38.43 64.01 38.62 64.01 38.62 64.74 36.42 64.74 36.42 65.34 36.63 65.34 36.63 66.64"/><rect class="cls-14" x="36.63" y="65.35" width="6.1" height=".24"/><rect class="cls-14" x="38.61" y="64.01" width="2.08" height=".22"/><polygon class="cls-6" points="33.91 64.34 33.02 64.34 31.44 66.65 33.91 66.65 33.91 64.34"/><g><path d="M34.52,67.22v-1.17c0-.27-.29-.49-.64-.49s-.64,.22-.64,.49v1.17h1.28Z"/><path class="cls-8" d="M34.52,67.22v-1.17c0-.27-.29-.49-.64-.49s-.64,.22-.64,.49v1.17h1.28Z"/><rect class="cls-2" x="32.91" y="67.15" width="1.93" height=".35"/></g><g><rect class="cls-22" x="21.77" y="68.14" width="23.99" height="1.54"/><rect class="cls-14" x="21.73" y="68.14" width="12.22" height="1.54"/><rect class="cls-23" x="21.1" y="68.31" width="25.29" height=".8"/><rect class="cls-19" x="21.1" y="68.31" width="12.85" height=".8"/></g><g><rect class="cls-22" x="21.77" y="74.28" width="23.99" height="1.54"/><rect class="cls-14" x="21.73" y="74.28" width="12.22" height="1.54"/><rect class="cls-23" x="21.1" y="74.45" width="25.29" height=".8"/><rect class="cls-19" x="21.1" y="74.45" width="12.85" height=".8"/></g><g><rect class="cls-30" x="22.9" y="76.8" width="2.69" height="2.23" transform="translate(-53.66 102.16) rotate(-90)"/><polygon class="cls-14" points="24.04 76.57 24.04 77.25 23.15 77.25 23.15 77.6 24.04 77.6 24.04 78.23 23.15 78.23 23.15 78.58 24.04 78.58 24.04 79.26 24.46 79.26 24.46 78.58 25.36 78.58 25.36 78.23 24.46 78.23 24.46 77.6 25.36 77.6 25.36 77.25 24.46 77.25 24.46 76.57 24.04 76.57"/><rect class="cls-11" x="22.9" y="76.8" width="2.69" height="2.23" transform="translate(-53.66 102.16) rotate(-90)"/></g><g><rect class="cls-30" x="26.56" y="76.8" width="2.69" height="2.23" transform="translate(-50 105.82) rotate(-90)"/><polygon class="cls-14" points="27.7 76.57 27.7 77.25 26.81 77.25 26.81 77.6 27.7 77.6 27.7 78.23 26.81 78.23 26.81 78.58 27.7 78.58 27.7 79.26 28.12 79.26 28.12 78.58 29.02 78.58 29.02 78.23 28.12 78.23 28.12 77.6 29.02 77.6 29.02 77.25 28.12 77.25 28.12 76.57 27.7 76.57"/><rect class="cls-11" x="26.56" y="76.8" width="2.69" height="2.23" transform="translate(-50 105.82) rotate(-90)"/></g><g><rect class="cls-30" x="30.22" y="76.8" width="2.69" height="2.23" transform="translate(-46.35 109.48) rotate(-90)"/><polygon class="cls-14" points="31.35 76.57 31.35 77.25 30.47 77.25 30.47 77.6 31.35 77.6 31.35 78.23 30.47 78.23 30.47 78.58 31.35 78.58 31.35 79.26 31.77 79.26 31.77 78.58 32.68 78.58 32.68 78.23 31.77 78.23 31.77 77.6 32.68 77.6 32.68 77.25 31.77 77.25 31.77 76.57 31.35 76.57"/><rect class="cls-11" x="30.22" y="76.8" width="2.69" height="2.23" transform="translate(-46.35 109.48) rotate(-90)"/></g><g><rect class="cls-30" x="34.75" y="76.8" width="2.69" height="2.23" transform="translate(-41.82 114.01) rotate(-90)"/><polygon class="cls-14" points="35.88 76.57 35.88 77.25 35 77.25 35 77.6 35.88 77.6 35.88 78.23 35 78.23 35 78.58 35.88 78.58 35.88 79.26 36.3 79.26 36.3 78.58 37.21 78.58 37.21 78.23 36.3 78.23 36.3 77.6 37.21 77.6 37.21 77.25 36.3 77.25 36.3 76.57 35.88 76.57"/><rect class="cls-11" x="34.75" y="76.8" width="2.69" height="2.23" transform="translate(-41.82 114.01) rotate(-90)"/></g><g><rect class="cls-30" x="38.41" y="76.8" width="2.69" height="2.23" transform="translate(-38.16 117.66) rotate(-90)"/><polygon class="cls-14" points="39.54 76.57 39.54 77.25 38.66 77.25 38.66 77.6 39.54 77.6 39.54 78.23 38.66 78.23 38.66 78.58 39.54 78.58 39.54 79.26 39.96 79.26 39.96 78.58 40.87 78.58 40.87 78.23 39.96 78.23 39.96 77.6 40.87 77.6 40.87 77.25 39.96 77.25 39.96 76.57 39.54 76.57"/><rect class="cls-11" x="38.41" y="76.8" width="2.69" height="2.23" transform="translate(-38.16 117.66) rotate(-90)"/></g><g><rect class="cls-30" x="42.06" y="76.8" width="2.69" height="2.23" transform="translate(-34.5 121.32) rotate(-90)"/><polygon class="cls-14" points="43.2 76.57 43.2 77.25 42.32 77.25 42.32 77.6 43.2 77.6 43.2 78.23 42.32 78.23 42.32 78.58 43.2 78.58 43.2 79.26 43.62 79.26 43.62 78.58 44.52 78.58 44.52 78.23 43.62 78.23 43.62 77.6 44.52 77.6 44.52 77.25 43.62 77.25 43.62 76.57 43.2 76.57"/><rect class="cls-11" x="42.06" y="76.8" width="2.69" height="2.23" transform="translate(-34.5 121.32) rotate(-90)"/></g></g><path class="cls-30" d="M38.62,83.58v-1.78c0-.79-1.24-1.52-1.74-1.52s-1.74,.73-1.74,1.52v1.78h3.48Z"/><path class="cls-30" d="M31.81,83.58v-1.33c0-.59-1-1.13-1.41-1.13s-1.41,.54-1.41,1.13v1.33h2.82Z"/><path class="cls-30" d="M26.51,83.58v-1.33c0-.59-1-1.13-1.41-1.13s-1.41,.54-1.41,1.13v1.33h2.82Z"/><path class="cls-30" d="M43.96,83.58v-1.33c0-.59-1-1.13-1.41-1.13s-1.41,.54-1.41,1.13v1.33h2.82Z"/><g><g><rect class="cls-30" x="24.1" y="71.43" width="1.52" height="1.16"/><rect class="cls-8" x="24.1" y="71.43" width="1.52" height="1.16"/></g><g><rect class="cls-30" x="26.92" y="71.43" width="1.52" height="1.16"/><rect class="cls-8" x="26.92" y="71.43" width="1.52" height="1.16"/></g><g><rect class="cls-30" x="29.62" y="71.43" width="1.52" height="1.16"/><rect class="cls-8" x="29.62" y="71.43" width="1.52" height="1.16"/></g><g><rect class="cls-30" x="36.35" y="71.43" width="1.52" height="1.16"/><rect class="cls-8" x="36.35" y="71.43" width="1.52" height="1.16"/></g><g><rect class="cls-30" x="39.17" y="71.43" width="1.52" height="1.16"/><rect class="cls-8" x="39.17" y="71.43" width="1.52" height="1.16"/></g><g><rect class="cls-30" x="41.86" y="71.43" width="1.52" height="1.16"/><rect class="cls-8" x="41.86" y="71.43" width="1.52" height="1.16"/></g></g></g><g><g><path class="cls-17" d="M45.7,61.49l4.04-6.58h17.65l3.73,6.58s-25.46-.03-25.42,0Z"/><path class="cls-27" d="M58.6,54.92h-8.85l-4.04,6.58s6.47-.02,12.9-.01v-6.56Z"/><rect class="cls-29" x="45.68" y="62.49" width="25.42" height="21.06"/><rect class="cls-32" x="45.68" y="62.49" width="12.93" height="21.06"/><g><rect class="cls-22" x="45.76" y="61.41" width="25.33" height="1.88"/><rect class="cls-14" x="45.71" y="61.41" width="12.9" height="1.88"/><rect class="cls-23" x="45.05" y="61.62" width="26.71" height=".98"/><rect class="cls-19" x="45.05" y="61.62" width="13.57" height=".98"/></g><g><rect class="cls-30" x="46.73" y="75.48" width="3.29" height="2.35" transform="translate(-28.28 125.04) rotate(-90)"/><polygon class="cls-14" points="48.15 75.02 48.15 75.85 47.22 75.85 47.22 76.27 48.15 76.27 48.15 77.05 47.22 77.05 47.22 77.47 48.15 77.47 48.15 78.3 48.6 78.3 48.6 77.47 49.55 77.47 49.55 77.05 48.6 77.05 48.6 76.27 49.55 76.27 49.55 75.85 48.6 75.85 48.6 75.02 48.15 75.02"/><rect class="cls-11" x="46.73" y="75.48" width="3.29" height="2.35" transform="translate(-28.28 125.04) rotate(-90)"/></g><g><rect class="cls-30" x="50.6" y="75.48" width="3.29" height="2.35" transform="translate(-24.42 128.9) rotate(-90)"/><polygon class="cls-14" points="52.02 75.02 52.02 75.85 51.09 75.85 51.09 76.27 52.02 76.27 52.02 77.05 51.09 77.05 51.09 77.47 52.02 77.47 52.02 78.3 52.46 78.3 52.46 77.47 53.42 77.47 53.42 77.05 52.46 77.05 52.46 76.27 53.42 76.27 53.42 75.85 52.46 75.85 52.46 75.02 52.02 75.02"/><rect class="cls-11" x="50.6" y="75.48" width="3.29" height="2.35" transform="translate(-24.42 128.9) rotate(-90)"/></g><g><rect class="cls-30" x="54.46" y="75.48" width="3.29" height="2.35" transform="translate(-20.56 132.76) rotate(-90)"/><polygon class="cls-14" points="55.88 75.02 55.88 75.85 54.95 75.85 54.95 76.27 55.88 76.27 55.88 77.05 54.95 77.05 54.95 77.47 55.88 77.47 55.88 78.3 56.32 78.3 56.32 77.47 57.28 77.47 57.28 77.05 56.32 77.05 56.32 76.27 57.28 76.27 57.28 75.85 56.32 75.85 56.32 75.02 55.88 75.02"/><rect class="cls-11" x="54.46" y="75.48" width="3.29" height="2.35" transform="translate(-20.56 132.76) rotate(-90)"/></g><g><rect class="cls-30" x="59.24" y="75.48" width="3.29" height="2.35" transform="translate(-15.77 137.55) rotate(-90)"/><polygon class="cls-14" points="60.66 75.02 60.66 75.85 59.73 75.85 59.73 76.27 60.66 76.27 60.66 77.05 59.73 77.05 59.73 77.47 60.66 77.47 60.66 78.3 61.11 78.3 61.11 77.47 62.06 77.47 62.06 77.05 61.11 77.05 61.11 76.27 62.06 76.27 62.06 75.85 61.11 75.85 61.11 75.02 60.66 75.02"/><rect class="cls-11" x="59.24" y="75.48" width="3.29" height="2.35" transform="translate(-15.77 137.55) rotate(-90)"/></g><g><rect class="cls-30" x="63.11" y="75.48" width="3.29" height="2.35" transform="translate(-11.91 141.41) rotate(-90)"/><polygon class="cls-14" points="64.53 75.02 64.53 75.85 63.59 75.85 63.59 76.27 64.53 76.27 64.53 77.05 63.59 77.05 63.59 77.47 64.53 77.47 64.53 78.3 64.97 78.3 64.97 77.47 65.93 77.47 65.93 77.05 64.97 77.05 64.97 76.27 65.93 76.27 65.93 75.85 64.97 75.85 64.97 75.02 64.53 75.02"/><rect class="cls-11" x="63.11" y="75.48" width="3.29" height="2.35" transform="translate(-11.91 141.41) rotate(-90)"/></g><g><rect class="cls-30" x="66.97" y="75.48" width="3.29" height="2.35" transform="translate(-8.05 145.27) rotate(-90)"/><polygon class="cls-14" points="68.39 75.02 68.39 75.85 67.46 75.85 67.46 76.27 68.39 76.27 68.39 77.05 67.46 77.05 67.46 77.47 68.39 77.47 68.39 78.3 68.83 78.3 68.83 77.47 69.79 77.47 69.79 77.05 68.83 77.05 68.83 76.27 69.79 76.27 69.79 75.85 68.83 75.85 68.83 75.02 68.39 75.02"/><rect class="cls-11" x="66.97" y="75.48" width="3.29" height="2.35" transform="translate(-8.05 145.27) rotate(-90)"/></g><g><rect class="cls-30" x="46.73" y="70.45" width="3.29" height="2.35" transform="translate(-23.25 120.01) rotate(-90)"/><polygon class="cls-14" points="48.15 69.99 48.15 70.82 47.22 70.82 47.22 71.24 48.15 71.24 48.15 72.02 47.22 72.02 47.22 72.44 48.15 72.44 48.15 73.27 48.6 73.27 48.6 72.44 49.55 72.44 49.55 72.02 48.6 72.02 48.6 71.24 49.55 71.24 49.55 70.82 48.6 70.82 48.6 69.99 48.15 69.99"/><rect class="cls-11" x="46.73" y="70.45" width="3.29" height="2.35" transform="translate(-23.25 120.01) rotate(-90)"/></g><g><rect class="cls-30" x="50.6" y="70.45" width="3.29" height="2.35" transform="translate(-19.39 123.87) rotate(-90)"/><polygon class="cls-14" points="52.02 69.99 52.02 70.82 51.09 70.82 51.09 71.24 52.02 71.24 52.02 72.02 51.09 72.02 51.09 72.44 52.02 72.44 52.02 73.27 52.46 73.27 52.46 72.44 53.42 72.44 53.42 72.02 52.46 72.02 52.46 71.24 53.42 71.24 53.42 70.82 52.46 70.82 52.46 69.99 52.02 69.99"/><rect class="cls-11" x="50.6" y="70.45" width="3.29" height="2.35" transform="translate(-19.39 123.87) rotate(-90)"/></g><g><rect class="cls-30" x="54.46" y="70.45" width="3.29" height="2.35" transform="translate(-15.53 127.73) rotate(-90)"/><polygon class="cls-14" points="55.88 69.99 55.88 70.82 54.95 70.82 54.95 71.24 55.88 71.24 55.88 72.02 54.95 72.02 54.95 72.44 55.88 72.44 55.88 73.27 56.32 73.27 56.32 72.44 57.28 72.44 57.28 72.02 56.32 72.02 56.32 71.24 57.28 71.24 57.28 70.82 56.32 70.82 56.32 69.99 55.88 69.99"/><rect class="cls-11" x="54.46" y="70.45" width="3.29" height="2.35" transform="translate(-15.53 127.73) rotate(-90)"/></g><g><rect class="cls-30" x="59.24" y="70.45" width="3.29" height="2.35" transform="translate(-10.74 132.52) rotate(-90)"/><polygon class="cls-14" points="60.66 69.99 60.66 70.82 59.73 70.82 59.73 71.24 60.66 71.24 60.66 72.02 59.73 72.02 59.73 72.44 60.66 72.44 60.66 73.27 61.11 73.27 61.11 72.44 62.06 72.44 62.06 72.02 61.11 72.02 61.11 71.24 62.06 71.24 62.06 70.82 61.11 70.82 61.11 69.99 60.66 69.99"/><rect class="cls-11" x="59.24" y="70.45" width="3.29" height="2.35" transform="translate(-10.74 132.52) rotate(-90)"/></g><g><rect class="cls-30" x="63.11" y="70.45" width="3.29" height="2.35" transform="translate(-6.88 136.38) rotate(-90)"/><polygon class="cls-14" points="64.53 69.99 64.53 70.82 63.59 70.82 63.59 71.24 64.53 71.24 64.53 72.02 63.59 72.02 63.59 72.44 64.53 72.44 64.53 73.27 64.97 73.27 64.97 72.44 65.93 72.44 65.93 72.02 64.97 72.02 64.97 71.24 65.93 71.24 65.93 70.82 64.97 70.82 64.97 69.99 64.53 69.99"/><rect class="cls-11" x="63.11" y="70.45" width="3.29" height="2.35" transform="translate(-6.88 136.38) rotate(-90)"/></g><g><rect class="cls-30" x="66.97" y="70.45" width="3.29" height="2.35" transform="translate(-3.02 140.24) rotate(-90)"/><polygon class="cls-14" points="68.39 69.99 68.39 70.82 67.46 70.82 67.46 71.24 68.39 71.24 68.39 72.02 67.46 72.02 67.46 72.44 68.39 72.44 68.39 73.27 68.83 73.27 68.83 72.44 69.79 72.44 69.79 72.02 68.83 72.02 68.83 71.24 69.79 71.24 69.79 70.82 68.83 70.82 68.83 69.99 68.39 69.99"/><rect class="cls-11" x="66.97" y="70.45" width="3.29" height="2.35" transform="translate(-3.02 140.24) rotate(-90)"/></g><g><rect class="cls-30" x="46.73" y="65.54" width="3.29" height="2.35" transform="translate(-18.34 115.09) rotate(-90)"/><polygon class="cls-14" points="48.15 65.07 48.15 65.91 47.22 65.91 47.22 66.33 48.15 66.33 48.15 67.1 47.22 67.1 47.22 67.53 48.15 67.53 48.15 68.36 48.6 68.36 48.6 67.53 49.55 67.53 49.55 67.1 48.6 67.1 48.6 66.33 49.55 66.33 49.55 65.91 48.6 65.91 48.6 65.07 48.15 65.07"/><rect class="cls-11" x="46.73" y="65.54" width="3.29" height="2.35" transform="translate(-18.34 115.09) rotate(-90)"/></g><g><rect class="cls-30" x="50.6" y="65.54" width="3.29" height="2.35" transform="translate(-14.47 118.96) rotate(-90)"/><polygon class="cls-14" points="52.02 65.07 52.02 65.91 51.09 65.91 51.09 66.33 52.02 66.33 52.02 67.1 51.09 67.1 51.09 67.53 52.02 67.53 52.02 68.36 52.46 68.36 52.46 67.53 53.42 67.53 53.42 67.1 52.46 67.1 52.46 66.33 53.42 66.33 53.42 65.91 52.46 65.91 52.46 65.07 52.02 65.07"/><rect class="cls-11" x="50.6" y="65.54" width="3.29" height="2.35" transform="translate(-14.47 118.96) rotate(-90)"/></g><g><rect class="cls-30" x="54.46" y="65.54" width="3.29" height="2.35" transform="translate(-10.61 122.82) rotate(-90)"/><polygon class="cls-14" points="55.88 65.07 55.88 65.91 54.95 65.91 54.95 66.33 55.88 66.33 55.88 67.1 54.95 67.1 54.95 67.53 55.88 67.53 55.88 68.36 56.32 68.36 56.32 67.53 57.28 67.53 57.28 67.1 56.32 67.1 56.32 66.33 57.28 66.33 57.28 65.91 56.32 65.91 56.32 65.07 55.88 65.07"/><rect class="cls-11" x="54.46" y="65.54" width="3.29" height="2.35" transform="translate(-10.61 122.82) rotate(-90)"/></g><g><rect class="cls-30" x="59.24" y="65.54" width="3.29" height="2.35" transform="translate(-5.83 127.6) rotate(-90)"/><polygon class="cls-14" points="60.66 65.07 60.66 65.91 59.73 65.91 59.73 66.33 60.66 66.33 60.66 67.1 59.73 67.1 59.73 67.53 60.66 67.53 60.66 68.36 61.11 68.36 61.11 67.53 62.06 67.53 62.06 67.1 61.11 67.1 61.11 66.33 62.06 66.33 62.06 65.91 61.11 65.91 61.11 65.07 60.66 65.07"/><rect class="cls-11" x="59.24" y="65.54" width="3.29" height="2.35" transform="translate(-5.83 127.6) rotate(-90)"/></g><g><rect class="cls-30" x="63.11" y="65.54" width="3.29" height="2.35" transform="translate(-1.97 131.46) rotate(-90)"/><polygon class="cls-14" points="64.53 65.07 64.53 65.91 63.59 65.91 63.59 66.33 64.53 66.33 64.53 67.1 63.59 67.1 63.59 67.53 64.53 67.53 64.53 68.36 64.97 68.36 64.97 67.53 65.93 67.53 65.93 67.1 64.97 67.1 64.97 66.33 65.93 66.33 65.93 65.91 64.97 65.91 64.97 65.07 64.53 65.07"/><rect class="cls-11" x="63.11" y="65.54" width="3.29" height="2.35" transform="translate(-1.97 131.46) rotate(-90)"/></g><g><rect class="cls-30" x="66.97" y="65.54" width="3.29" height="2.35" transform="translate(1.9 135.33) rotate(-90)"/><polygon class="cls-14" points="68.39 65.07 68.39 65.91 67.46 65.91 67.46 66.33 68.39 66.33 68.39 67.1 67.46 67.1 67.46 67.53 68.39 67.53 68.39 68.36 68.83 68.36 68.83 67.53 69.79 67.53 69.79 67.1 68.83 67.1 68.83 66.33 69.79 66.33 69.79 65.91 68.83 65.91 68.83 65.07 68.39 65.07"/><rect class="cls-11" x="66.97" y="65.54" width="3.29" height="2.35" transform="translate(1.9 135.33) rotate(-90)"/></g><g><rect class="cls-19" x="49.78" y="59.01" width="3.6" height="2.65"/><polygon class="cls-19" points="51.61 57.25 49.09 59.01 54.06 59.01 51.61 57.25"/></g><polygon class="cls-23" points="58.64 57.25 56.12 59.01 56.81 59.01 56.81 61.66 60.4 61.66 60.4 59.01 61.09 59.01 58.64 57.25"/><g><rect class="cls-23" x="63.83" y="59.01" width="3.6" height="2.65"/><polygon class="cls-23" points="65.66 57.25 63.15 59.01 68.12 59.01 65.66 57.25"/></g><polygon class="cls-19" points="58.58 61.66 58.58 57.29 56.12 59.01 56.81 59.01 56.81 61.66 58.58 61.66"/><g><path d="M52.29,60.93v-1.43c0-.33-.31-.6-.68-.6s-.68,.27-.68,.6v1.43h1.36Z"/><path class="cls-8" d="M52.29,60.93v-1.43c0-.33-.31-.6-.68-.6s-.68,.27-.68,.6v1.43h1.36Z"/><rect class="cls-2" x="50.6" y="60.84" width="2.04" height=".43"/></g><g><path d="M59.32,60.93v-1.43c0-.33-.31-.6-.68-.6s-.68,.27-.68,.6v1.43h1.36Z"/><path class="cls-8" d="M59.32,60.93v-1.43c0-.33-.31-.6-.68-.6s-.68,.27-.68,.6v1.43h1.36Z"/><rect class="cls-2" x="57.63" y="60.84" width="2.04" height=".43"/></g><g><path d="M66.35,60.93v-1.43c0-.33-.31-.6-.68-.6s-.68,.27-.68,.6v1.43h1.36Z"/><path class="cls-8" d="M66.35,60.93v-1.43c0-.33-.31-.6-.68-.6s-.68,.27-.68,.6v1.43h1.36Z"/><rect class="cls-2" x="64.65" y="60.84" width="2.04" height=".43"/></g></g><path class="cls-30" d="M63.55,83.58v-2.17c0-.97-1.31-1.85-1.84-1.85s-1.84,.89-1.84,1.85v2.17h3.67Z"/><path class="cls-30" d="M56.36,83.58v-1.62c0-.72-1.06-1.38-1.49-1.38s-1.49,.66-1.49,1.38v1.62h2.98Z"/><path class="cls-30" d="M50.77,83.58v-1.62c0-.72-1.06-1.38-1.49-1.38s-1.49,.66-1.49,1.38v1.62h2.98Z"/><path class="cls-30" d="M69.19,83.58v-1.62c0-.72-1.06-1.38-1.49-1.38s-1.49,.66-1.49,1.38v1.62h2.98Z"/></g></g></g></svg>