<?xml version="1.0" encoding="UTF-8"?><svg id="_이어_2" xmlns="http://www.w3.org/2000/svg" viewBox="0 0 190.52 95.66"><defs><style>.cls-1{fill:#a10136;}</style></defs><g id="USA"><polygon class="cls-1" points="190.45 20.12 190.42 20.13 190.16 18.82 189.86 18.74 189.64 18.78 189.45 18.79 189.21 18.6 189.11 18.39 189.03 18.08 188.97 17.76 188.96 17.51 189.02 17.24 189.09 17.14 189.07 17.07 188.82 16.87 188.55 16.72 188.29 16.62 188.08 16.48 187.93 16.22 187.91 16 187.98 15.17 187.94 11.24 187.84 10.67 187.54 10.15 187.12 9.72 186.73 9.49 186.33 9.43 185.86 9.51 184.87 9.86 184.35 9.93 183.92 9.75 183.79 9.5 183.78 9.27 183.75 9.06 183.57 8.89 183.27 8.83 183.05 8.94 180.89 11.83 180.76 12.09 180.54 12.7 180.28 13.31 179.96 13.89 179.79 14.35 179.67 15.29 179.57 15.74 179.47 15.95 179.33 16.16 178.81 16.77 177.96 18.19 177.84 18.33 177.69 18.34 177.61 18.25 177.55 18.14 177.46 18.1 177.27 18.16 176.7 18.42 176.57 18.43 176.34 18.36 176.21 18.39 176.08 18.51 176 18.67 175.94 18.83 175.87 18.98 175.58 19.35 175.35 19.51 175.02 19.54 165.12 19.54 164.08 19.72 163.15 20.28 159.36 23.67 158.39 24.99 158.1 25.28 157.71 25.41 152.51 25.51 151.47 25.71 150.38 26.11 150.57 26.55 150.85 27.81 150.97 28.03 151.1 28.21 151.18 28.4 151.15 28.64 150.79 29.01 146.8 30.73 143.45 31.51 142.37 31.98 140.32 33.22 139.23 33.53 138.14 33.23 137.74 32.94 137.43 32.59 137.25 32.17 137.24 31.65 137.39 31.24 137.63 30.97 138.28 30.53 138.99 29.76 139.39 28.93 140 27.05 140.38 26.11 140.48 25.66 140.49 25.14 139.39 18.93 139.23 18.37 139 17.98 138.65 17.68 136.43 16.35 135.97 15.97 135.99 15.7 136.14 15.42 136.08 14.98 135.76 14.67 135.39 14.69 135 14.82 134.62 14.82 134.09 14.3 134.07 13.6 133.99 13.05 133.32 12.93 132.7 13.1 132.46 13.03 132.14 12.72 131.85 12.28 131.46 11.42 131.11 11.04 130.3 10.49 120.58 5.29 119.53 5.14 118.57 5.49 117.61 6.02 116.58 6.36 115.67 6.43 115.18 6.42 114.8 6.35 114.63 6.24 114.37 5.95 114.2 5.85 114.01 5.83 112.95 5.91 112.33 5.89 112.08 5.84 111.94 5.74 111.87 5.61 111.78 5.49 111.6 5.42 111.17 5.49 110.37 5.98 109.93 6.11 109.39 6 108.94 5.72 108.52 5.38 108.08 5.07 107.9 4.98 107.73 4.91 107.54 4.86 107.34 4.84 107.15 4.9 106.81 5.11 106.65 5.11 106.56 4.98 106.32 4.47 106.23 4.31 106.02 4.15 105.77 4 104.82 3.61 104.38 3.52 103.93 3.49 103.47 3.54 103.47 3.54 102.97 3.9 102.5 3.91 102.04 3.71 101.57 3.47 101.01 3.32 99.77 3.13 99.27 2.88 98.81 2.06 98.69 1.14 98.44 .37 97.6 0 97.58 1.79 6.34 1.78 6.53 2.4 6.62 2.58 6.72 2.67 6.85 2.75 6.96 2.8 7 2.81 7.12 3.01 7.25 3.33 7.34 3.68 7.3 3.98 7.13 4.13 6.96 4.13 6.85 4.16 6.84 4.39 7.46 4.93 7.62 5.14 7.3 5.28 7.23 5.53 7.36 5.8 7.65 5.99 7.58 5.53 8.01 6.04 8.09 6.18 8.08 6.36 8.02 6.5 7.93 6.65 7.86 6.83 7.73 7.48 7.7 7.77 7.75 8.68 7.7 9 7.59 9.16 7.6 9.07 7.5 8.85 7.34 8.67 7.31 8.81 7.28 8.96 7.26 9.11 7.27 9.25 7.4 9.11 7.56 9.19 7.53 9.24 7.21 9.58 7.09 9.75 7.01 9.95 6.91 10.13 6.75 10.27 6.51 10.32 5.56 10.22 5.82 9.73 5.98 9.52 6.21 9.35 6.25 9.47 6.38 9.75 6.41 9.87 6.45 9.76 6.56 9.54 6.61 9.44 6.99 9.55 7.07 9.15 6.95 8.56 6.72 8.12 6.91 7.9 7.15 7.47 7.25 7.01 7.01 6.7 6.82 7.34 5.7 8.41 5.43 9.07 5.8 9.03 5.92 8.99 5.67 9.21 5.45 9.29 5.28 9.21 5.21 8.96 5.32 8.55 5.62 8.09 6.24 7.31 6.28 7.43 6.29 7.49 6.3 7.57 6.66 7.11 6.66 6.7 6.5 6.28 6.38 5.75 6.03 6.01 5.78 5.97 5.54 5.81 5.24 5.68 4.89 5.67 4.09 5.74 3.7 5.73 3.16 5.66 2.7 5.57 2.25 5.44 .42 4.72 0 4.63 .08 5.08 .06 5.98 .14 6.43 .34 6.8 .85 7.45 1.06 7.82 1.33 8.59 1.88 11.03 2.02 10.74 2.24 10.76 2.53 10.91 2.86 11 2.36 11.24 2.12 11.41 2.1 11.63 2.3 12.03 2.39 12.14 2.51 12.22 2.61 12.31 2.69 12.46 2.7 12.65 2.65 12.88 2.52 13.3 2.41 13.13 2.31 12.95 2.24 12.76 2.2 12.56 2.18 13.62 2.1 13.96 2.86 13.96 3.58 14.01 3.95 14.1 4.56 14.38 4.92 14.5 4.6 14.53 4.33 14.45 4.07 14.33 3.79 14.25 3.43 14.27 3.07 14.32 2.73 14.34 2.38 14.22 2.55 14.84 2.6 15.59 2.52 17.87 1.85 24.21 1.39 26.35 1.48 26.33 1.69 26.29 1.23 26.72 .86 27.46 .65 28.28 .61 28.95 .68 29.16 .93 29.59 1 29.82 1.01 30.02 .96 30.45 .96 30.66 1.05 31.13 1.24 31.51 1.44 31.87 1.61 32.26 1.63 32.45 1.56 32.83 1.57 33.01 1.63 33.17 1.92 33.69 2.04 34.1 2.07 34.46 1.62 37.56 1.54 37.42 1.51 37.39 1.22 38.08 1.18 38.69 1.38 39.27 2.41 40.54 2.74 41.18 2.91 41.87 3.01 43.09 3.44 44.6 3.62 44.92 4.19 45.57 5.26 46.59 5.75 47.15 6.05 47.76 5.98 47.66 5.72 47.36 5.75 47.59 5.74 47.83 5.7 48.06 5.65 48.28 5.99 48.17 6.46 48.38 6.96 48.69 7.41 48.86 7.32 48.14 7.57 47.84 8.05 47.8 10.05 47.92 10.52 48.02 9.04 47.97 8.21 48.05 7.74 48.34 7.8 48.71 8.09 49.27 8.72 50.23 8.18 49.9 7.79 49.39 7.5 49.11 7.28 49.45 7.3 50.15 7.56 50.95 8 51.66 8.5 52.11 9.26 52.33 9.53 52.52 9.64 52.94 9.54 53.32 9.36 53.62 9.24 53.95 9.3 54.4 9.52 54.78 10.55 55.89 11.2 56.85 11.44 57.13 11.73 57.38 12.41 57.85 12.65 58.13 12.69 58.3 12.66 58.64 12.72 58.82 12.86 58.92 13.24 59.03 13.38 59.15 13.51 59.85 13.45 60.59 13.56 61.24 14.17 61.64 15 61.73 15.87 61.74 16.71 61.82 17.49 62.1 17.81 62.34 18.31 62.82 18.65 63.04 19.11 63.16 20.09 63.18 20.49 63.31 20.64 63.49 20.72 63.73 20.76 63.95 20.83 64.12 20.98 64.25 21.09 64.29 21.19 64.27 21.29 64.28 21.72 64.45 22.13 64.64 22.52 64.88 23.34 65.49 23.76 65.87 24.13 66.29 24.41 66.75 24.52 67.16 24.57 67.94 24.66 68.34 24.86 68.31 24.99 68.39 25.04 68.56 25.04 68.8 32.97 68.16 32.91 68.35 32.83 68.54 32.73 68.72 32.61 68.89 44.35 72.84 45.08 73.1 54.47 73.09 54.48 71.48 59.86 71.51 60.38 71.58 60.64 71.79 61.06 72.39 61.3 72.65 62.17 73.23 65.06 75.45 65.5 75.98 65.78 76.58 66.14 77.86 66.42 78.5 66.81 79.03 67.3 79.47 68.86 80.51 70.06 81.1 71.21 81.24 72.09 80.57 72.34 79.99 72.52 79.5 72.78 79.07 73.3 78.67 73.91 78.46 74.47 78.46 75.05 78.56 75.75 78.61 76.2 78.59 76.52 78.61 76.8 78.72 77.17 78.95 77.62 79.3 79.25 81.02 79.64 81.6 80.28 82.81 80.38 83.08 80.51 83.6 80.62 83.87 80.82 84.13 81.32 84.6 81.55 84.85 82.11 85.75 82.34 86.02 82.55 86.19 82.8 86.35 83.03 86.52 83.19 86.74 83.31 87.19 83.3 88.16 83.39 88.61 83.54 88.86 83.92 89.33 84.08 89.58 84.16 89.82 84.29 90.31 84.39 90.54 84.82 90.97 85.42 91.27 87.29 91.95 89.09 92.42 89.39 92.56 90 92.9 90.29 92.98 90.41 92.93 90.59 92.81 90.81 92.7 91.02 92.65 90.97 92.34 90.79 92.05 90.57 91.75 90.36 91.41 90.2 90.99 89.7 89.11 89.67 88.94 89.72 88.77 89.91 88.44 89.94 88.28 89.76 87.94 89.17 87.55 88.97 87.12 89.61 87.49 90.09 87.54 90.37 86.98 90.53 86.26 90.4 86.08 90.26 85.94 90.14 85.8 90.13 85.66 90.2 85.6 90.3 85.6 90.4 85.62 90.47 85.61 90.74 85.44 91.01 85.32 91.24 85.13 91.39 84.74 91.04 84.87 91.04 84.61 91.22 84.49 91.48 84.41 91.73 84.25 91.95 84.44 92.1 84.23 92.25 83.51 92.52 83.74 92.83 83.75 93.14 83.61 93.42 83.38 93.14 83.25 92.96 83.03 92.7 82.47 92.89 82.52 93.13 82.78 93.33 82.88 93.44 82.86 93.68 82.7 93.82 82.66 94.06 82.68 94.52 82.75 94.77 82.74 94.39 82.99 94.03 83.26 94.78 82.98 95.54 82.61 96.93 81.72 97.25 81.46 97.53 81.17 98.17 80.31 98.28 80.2 98.34 80.07 98.36 79.84 98.31 79.63 98.08 79.16 98.04 78.9 98.39 78.9 98.83 78.84 99.07 78.95 98.84 79.45 99.26 79.42 99.47 79.42 99.68 79.45 99.25 79.71 99.06 79.86 98.9 80.04 99.71 79.6 100.55 79.24 101.58 78.95 101.79 78.82 101.73 78.68 101.75 78.25 101.89 77.9 102.16 77.98 102.18 78.16 102.05 78.33 101.88 78.49 101.83 78.61 102.24 78.73 103.98 78.71 104.63 78.78 106.22 79.35 107.05 79.45 107.82 79.2 107.65 79.04 107.62 78.9 107.7 78.77 107.86 78.62 108.1 78.47 108.29 78.5 108.66 78.73 108.82 78.77 109.06 78.8 109.19 78.87 109.29 78.97 109.44 79.24 109.54 79.33 109.79 79.46 110.03 79.52 110.27 79.51 110.5 79.39 110.49 79.64 110.57 79.86 110.82 80.28 110.64 80.27 110.54 80.29 110.46 80.34 110.36 80.38 111.33 80.77 111.86 80.91 112.32 80.89 112.49 80.78 112.75 80.45 112.96 80.34 113.29 80.35 113.47 80.5 113.59 80.69 113.76 80.83 114.21 80.82 114.38 80.45 114.33 79.94 114.1 79.49 114.58 79.66 114.97 79.86 116.42 80.72 116.68 81.04 116.68 81.49 116.86 81.32 117.05 81.2 117.23 81.2 117.41 81.36 117.56 81.16 117.71 81 117.8 80.84 117.79 80.66 117.63 80.45 117.36 80.31 116.8 80.11 116.34 79.84 115.82 79.45 115.61 79.08 116.08 78.91 116.12 78.7 116.31 78.64 116.55 78.59 116.74 78.44 116.76 78.27 116.6 77.67 116.27 77.78 115.87 78.06 115.49 78.16 115.26 77.77 115.37 77.55 115.6 77.4 115.65 77.34 115.24 77.39 114.21 77.67 113.62 77.68 113.26 77.33 113.32 77.14 113.5 76.86 113.72 76.6 113.88 76.47 114.14 76.47 114.35 76.57 114.54 76.71 114.73 76.83 115.39 77.06 115.82 77.09 116.21 76.96 116.76 76.71 117.5 76.47 117.93 76.38 118.29 76.34 119.6 76.49 120.51 76.51 120.67 76.48 120.84 76.35 120.94 76.16 121.1 75.58 121.19 75.35 121.37 75.57 121.44 75.79 121.47 76.03 121.52 76.29 121.59 76.39 121.83 76.64 121.92 76.79 121.55 76.88 121.21 77 122.13 76.96 122.4 76.89 122.57 76.79 122.88 76.53 123.05 76.42 122.88 76.72 123.35 76.63 124.03 76.04 124.29 76.04 124.4 75.9 124.46 75.84 124.54 75.79 124.62 76.12 124.44 76.31 124.15 76.44 123.87 76.62 125.77 76.18 126.82 76.09 127.42 76.38 127.15 76.32 126.88 76.32 126.6 76.35 126.33 76.4 127.9 77.01 128.36 77.1 128.68 77.11 128.83 76.96 128.97 76.85 129.14 76.81 129.03 77.04 129.05 77.21 129.05 77.32 128.9 77.39 129.68 78.01 129.99 78.38 130.02 78.69 130.17 78.87 131.27 78.77 132.5 78.4 133.25 78.08 133.25 78.03 133.31 77.88 133.4 77.7 133.5 77.58 133.84 77.45 134.15 77.47 134.45 77.58 134.75 77.71 135.37 78.1 135.86 78.62 136.76 79.77 137.29 80.23 137.9 80.67 138.45 81.15 138.83 81.73 138.94 82.31 138.89 82.92 138.3 85.18 138.28 85.75 138.53 86.13 138.84 86.16 138.99 85.91 138.98 85.55 138.81 85.23 139.06 85.26 139.36 85.41 139.59 85.6 139.69 85.77 139.57 86.08 139.29 86.46 138.96 86.78 138.68 86.96 139.05 87.43 139.53 88.57 139.87 89.06 140.27 89.34 140.43 89.23 140.6 89.02 141 88.96 140.87 89.27 140.77 89.75 140.77 90.22 140.94 90.49 141.1 90.46 141.27 90.31 141.44 90.12 141.61 89.98 141.35 90.38 141.3 90.62 141.53 91.18 141.83 92.17 142.07 92.55 142.52 92.92 142.92 93.19 143.03 93.29 143.33 93.67 143.68 94.22 144.39 95.13 144.46 95.35 144.19 95.13 143.92 95.09 143.78 95.22 143.88 95.5 144.15 95.64 144.54 95.66 144.96 95.61 145.31 95.55 146.06 95.2 146.55 94.57 146.86 93.79 147.12 92.95 147.23 93.12 147.41 90.43 147.3 89.17 146.83 87.87 145.63 85.16 145.15 83.69 144.88 82.29 145.14 82.62 145.2 82.97 145.21 83.36 145.36 83.8 145.49 83.45 145.64 83.14 145.61 83.75 145.64 84.37 145.8 84.96 146.14 85.47 145.94 84.77 145.81 83.47 145.69 82.86 145.31 82.03 143.9 79.54 143.35 77.89 142.82 75.48 142.59 74.83 142.88 73.55 143.17 73.58 143.3 73.43 143.28 73.21 143.09 73 143.3 72.91 143.48 72.76 143.63 72.58 143.76 72.37 143.49 72.34 143.67 72.18 143.72 72.02 143.71 71.86 143.75 71.68 143.88 71.54 144.04 71.47 144.1 71.36 143.97 71.13 144.32 71.02 144.61 70.8 144.83 70.53 144.99 70.26 145.06 70.15 145.16 70.05 145.25 69.95 145.3 69.81 145.26 69.69 145.14 69.51 145.03 69.3 145 69.11 145.06 69.21 145.23 69.4 145.3 69.5 145.35 69.44 145.46 69.35 145.51 69.29 145.71 69.61 145.98 69.46 146.02 69.13 145.55 68.88 147.05 68.66 147.79 68.38 147.87 67.82 148.32 67.86 148.69 67.64 149.3 67.03 149.5 66.92 149.73 66.83 149.95 66.72 150.11 66.53 150.16 66.31 150.1 66.09 150.08 65.87 150.2 65.61 150.2 65.79 150.22 65.92 150.31 66.21 150.56 65.5 151.03 64.83 151.64 64.27 152.3 63.88 153.05 63.73 153.74 63.7 154.23 63.48 154.4 62.74 154.46 62.95 154.48 63.17 154.49 63.38 154.49 63.6 154.78 62.89 155.15 62.31 155.64 61.83 156.3 61.4 156.22 61.22 156.17 61.03 156.17 60.83 156.19 60.63 156.26 60.85 156.37 60.98 156.52 61.03 156.72 61.06 156.81 61.02 157.12 60.8 157.25 60.73 157.39 60.72 157.69 60.75 157.83 60.74 158.35 60.65 158.84 60.51 159.28 60.27 159.66 59.85 159.04 59.64 158.43 59.7 157.84 59.63 157.32 59.03 157.81 59.37 158.29 59.54 158.69 59.42 158.95 58.86 159.04 58.56 158.82 58.35 158.5 58.14 157.73 57.89 157.42 57.63 157.73 57.78 158.03 57.88 158.34 57.92 158.67 57.93 158.77 57.87 158.82 57.65 158.89 57.61 158.97 57.66 159.05 57.73 159.11 57.8 159.12 57.83 159.16 57.87 159.57 58.1 159.85 58.21 160.09 58.24 160.33 58.2 160.58 58.11 161.02 57.8 161.46 57.3 161.72 56.73 161.61 56.22 161.23 56.02 161 56.3 160.82 56.74 160.58 57.01 160.63 56.39 160.53 56.08 160.23 55.99 159.04 56.04 158.64 55.94 158.45 55.61 158.43 54.98 158.62 55.62 159.08 55.64 159.63 55.43 160.1 55.4 159.96 55.12 160.06 55.18 160.36 55.29 160.36 55.17 160.38 54.91 160.37 54.79 160.95 55.04 161.22 55.19 161.45 55.42 161.28 54.85 161.08 54.37 160.97 53.89 161.03 53.35 161.41 54.1 161.96 55.75 162.39 56.53 161.61 54.68 161.09 52.91 160.8 52.49 160.3 52.3 159.98 52.31 159.72 52.36 159.47 52.39 159.22 52.32 159.03 52.14 158.76 51.57 158.64 51.39 158.19 51.21 157.16 51.01 156.72 50.8 157.69 50.9 158.16 51.02 158.59 51.22 159.05 51.71 159.35 51.97 159.63 52.04 159.8 51.72 159.35 51.17 158.72 50.58 158.35 50.13 158.65 50.44 159.08 50.82 159.44 50.96 159.53 50.58 159.64 50.62 159.88 50.66 159.98 50.69 160.02 50.46 159.98 50.27 159.85 50.12 159.64 50.03 159.85 49.88 159.07 49.49 158.42 48.89 157.19 47.6 157.77 47.92 158.67 49.09 159.23 49.45 159.52 49.48 159.74 49.4 159.88 49.22 159.94 48.92 159.88 48.63 159.7 48.4 159.45 48.21 159.17 48.03 158.84 47.87 158.14 47.6 157.83 47.43 157.68 47.29 157.45 46.96 157.29 46.84 157.16 46.83 156.86 46.93 156.75 46.92 156.52 46.41 156.81 45.88 157.25 45.33 157.45 44.78 157.4 45.28 156.8 46.09 156.77 46.5 156.92 46.68 157.06 46.63 157.22 46.52 157.42 46.53 157.54 46.63 157.92 47.12 157.98 46.84 157.99 46.74 158.29 47.14 158.76 47.39 159.27 47.6 159.73 47.9 159.58 47.34 158.77 46.46 158.62 45.87 158.76 46.21 158.95 46.51 159.22 46.73 159.55 46.82 159.23 46.1 159.13 45.74 159.09 45.31 159.17 44.68 159.15 44.39 159.01 44.08 159.38 44.2 159.34 43.94 158.97 43.28 159.31 43.42 159.51 43.31 159.76 42.74 159.94 43.06 159.96 42.96 160.02 42.73 160.04 42.6 160.12 42.8 160.14 42.84 160.45 42.67 160.68 42.16 160.99 42.02 160.95 42.34 161.27 42.32 161.16 42.41 160.96 42.62 160.84 42.71 160.95 42.75 161.16 42.83 161.26 42.85 160.75 42.92 160.33 43.15 160.1 43.55 160.14 44.09 160.42 43.86 160.31 44.22 159.84 44.39 159.76 44.7 159.99 44.6 160.14 44.63 160.22 44.76 160.23 44.95 160.15 45.03 159.98 45.11 159.81 45.26 159.73 45.49 160 45.32 160.28 45.44 160.85 45.91 160 46.08 160.03 46.55 160.49 46.96 160.9 46.96 160.96 47.12 161.05 47.04 161.32 46.85 161.32 47.05 161.28 47.24 161.2 47.42 161.09 47.59 161.33 47.71 161.46 47.88 161.47 48.1 161.35 48.35 161.52 48.33 161.98 48.41 161.64 49.11 161.14 49.91 160.84 50.73 161.07 51.47 161.63 50.42 161.85 50.09 161.92 50.02 162.13 49.92 162.21 49.86 162.26 49.72 162.46 49.09 162.79 48.41 163.86 46.6 163.88 46.67 163.9 46.77 163.91 46.83 164.03 46.53 164.02 46.23 163.85 46.01 163.54 45.96 163.85 45.58 163.77 45.24 163.2 44.57 163.08 44.36 162.31 42.35 162.26 42.03 162.33 41.72 162.56 41.37 162.89 41.1 163.62 40.73 163.91 40.43 163.52 40.91 162.92 41.25 162.46 41.69 162.47 42.45 163.03 43.1 163.75 43.4 164.29 43.76 164.31 44.54 164.75 44.38 165.03 44.02 165.24 43.58 165.47 43.18 165.72 42.96 165.97 42.8 166.13 42.57 166.12 42.17 166.57 42.03 166.84 41.5 167.02 40.86 167.25 40.39 167.2 40.8 167.2 41.21 167.51 39.87 167.59 39.15 167.46 38.55 166.89 38.66 166.59 38.5 166.64 37.99 167.44 37.08 167.69 36.54 167.75 35.96 167.56 35.32 167.86 35.75 167.86 36.29 167.7 36.85 167.5 37.34 168.47 36.55 169.54 35.89 170.69 35.43 175.04 34.94 175.36 34.87 175.65 34.73 175.9 34.49 175.99 34.22 176.06 33.79 176.1 33.36 176.08 33.08 176.38 33.42 176.47 33.55 176.57 33.48 176.79 33.35 176.88 33.29 176.75 33.54 176.7 33.81 176.72 34.08 176.81 34.34 178.32 33.44 178.45 33.53 178.51 33.72 178.5 34.16 180.51 33.64 180.87 33.47 180.95 32.98 180.73 32.41 180.34 31.97 179.87 31.86 180.02 32.09 180.22 32.15 180.47 32.36 180.65 32.66 180.66 32.96 180.37 33.23 179.9 33.31 179.4 33.25 179.04 33.1 178.85 32.85 178.74 32.52 178.59 31.99 178.28 31.53 177.99 31.3 177.66 31.14 177.21 30.87 177.39 30.65 177.74 30.14 177.92 29.95 178.55 29.7 178.66 29.59 178.33 29.36 178.09 29.13 177.95 28.86 178.01 28.38 178.23 27.85 178.81 26.92 179.55 26.05 179.84 25.59 179.78 25.25 179.97 24.98 180.2 24.75 180.47 24.58 180.78 24.47 180.76 24.62 180.75 24.76 180.95 24.72 181.05 24.72 181.14 24.75 181.3 24.83 181.35 24.39 181.34 24.24 181.39 24.31 181.56 24.49 181.59 24.3 181.65 24.16 181.81 23.89 181.9 24.24 181.91 24.37 182.03 24.19 182.09 24.08 182.13 23.93 182.16 24.02 182.23 24.2 182.25 24.3 182.69 24.03 183.09 23.85 183.44 23.62 183.76 23.21 183.86 22.92 184 22.26 184.1 22.01 184.23 21.87 184.61 21.58 184.75 21.42 184.72 21.53 184.68 21.8 184.65 21.92 184.72 21.93 184.86 21.96 184.93 21.97 184.82 22.08 184.74 22.19 184.67 22.3 184.59 22.41 184.85 22.41 185.1 22.48 185.32 22.6 185.51 22.76 185.54 22.48 185.59 22.21 185.67 21.95 185.79 21.69 186.09 21.85 186.47 21.75 186.83 21.75 187.09 22.22 187.69 21.53 187.88 21.38 188.02 21.36 188.35 21.44 188.51 21.42 188.69 21.32 189.05 21.03 189.3 20.92 189.61 20.88 189.82 20.9 190.02 20.85 190.28 20.64 190.49 20.41 190.52 20.31 190.48 20.24 190.45 20.12"/></g></svg>