<?xml version="1.0" encoding="UTF-8"?><svg id="_이어_2" xmlns="http://www.w3.org/2000/svg" viewBox="0 0 125.63 88.84"><defs><style>.cls-1{fill:#a10136;}</style></defs><g id="USA"><polygon class="cls-1" points="124.82 83.16 124.32 83.04 124.26 82.97 124.07 82.7 123.99 82.61 120.26 81.12 120.12 81.12 119.81 81.18 119.69 81.15 119.65 81.05 119.55 80.67 119.48 80.52 119.36 80.38 119.24 80.27 119.05 80.16 118.76 80.05 118.83 79.87 118.93 79.51 119 79.34 117.99 79.13 118.23 78.56 118 77.96 117.13 76.84 114 72.12 113.5 71.6 111.85 70.44 111.48 70.06 110.92 69.29 110.54 68.93 109.61 68.24 109.27 67.86 109 67.3 108.93 66.99 108.93 66.82 108.86 66.66 108.58 66.36 108.13 65.95 107.86 65.75 107.63 65.65 107.31 65.71 106.19 66.28 104.84 66.61 105.03 66.92 104.97 67.19 104.73 67.35 104.36 67.35 104.36 68.05 104.29 68.38 104.11 68.68 103.87 68.84 103.61 68.91 103.31 68.94 103 69.01 102.51 69.28 101.92 69.67 101.35 70 100.88 70.07 100.84 68.95 100 67.91 97.91 66.3 97.67 66.08 97.08 65.41 96.87 65.2 96.66 65.05 96.14 64.74 95.61 64.32 95.55 63.92 95.67 63.45 95.73 62.8 94.49 62.81 94.1 62.87 93.77 63.02 93.15 63.46 92.84 63.59 92.46 63.55 91.67 63.17 91.28 63.07 91.16 63.12 91.09 63.25 91.04 63.39 90.95 63.46 89.38 63.03 89.38 10.23 89.04 10.21 88.36 10.25 88.04 10.22 87.57 10.07 85.17 9.03 83.48 8 82.5 7.69 81.69 7.64 80.86 7.69 79.18 7.96 77.38 8.41 76.9 8.43 76.37 8.36 74.98 7.97 73.71 7.41 73.28 7.3 70.84 7.05 68.8 7.11 67.76 6.99 67.37 6.88 67.11 6.74 66.56 6.36 65.8 6.06 65.55 6.1 65.1 6.28 64.87 6.3 64.52 6.19 63.78 5.79 63.42 5.62 62.49 5.36 61.56 5.22 61 5.19 60.51 5.19 60.03 5.26 59.49 5.39 58.93 5.48 58.51 5.42 58.1 5.28 57.58 5.16 57.08 5.19 56.09 5.55 55.62 5.68 55.04 5.69 53.24 5.48 53.42 5.34 53.58 5.19 53.71 5.02 53.82 4.83 52.86 4.77 51.97 4.54 51.63 4.09 52.29 3.36 51.87 3.07 51.4 2.97 50.41 2.97 50.07 2.9 49.39 2.71 49.05 2.67 48.81 2.7 48.31 2.84 45.94 3.25 44.9 3.23 43.86 2.87 44.14 2.55 44.1 2.26 43.83 2.03 43.45 1.84 43.02 1.72 42.72 1.75 42.46 1.89 41.23 2.88 40.87 3.06 40.36 3.17 40.05 3.07 39.78 2.87 39.37 2.68 40.05 2.45 40.77 2.11 41.13 1.69 40.75 1.21 40.08 .98 39.31 .88 38.57 .72 37.98 .32 38.24 .12 38.37 .05 38.55 0 37.7 .12 36.86 .72 35.41 2.08 34.53 2.64 34.05 2.88 33.58 3.06 33.1 3.15 32.11 3.17 29.83 3.5 29.41 3.67 29.18 3.74 28.98 3.7 28.85 3.53 28.96 3.44 29.13 3.38 29.21 3.29 29.11 3.06 28.91 3 28.6 3.09 27.7 3.53 26.37 4.39 26.72 4.42 26.95 4.58 27.16 4.79 27.44 4.97 27.72 5.04 28.67 5.04 27.25 5.21 27.12 5.46 27.08 5.84 27.09 6.53 26.98 6.32 26.81 6.2 26.59 6.17 26.33 6.2 26.57 5.68 26.55 5.49 26.29 5.35 26.42 5.22 26.64 4.91 26.76 4.78 25.94 4.72 25.07 5.17 24.23 5.81 23.5 6.29 22.99 6.45 21.42 6.77 20.22 7.19 19.79 7.26 20.83 6.67 20.56 6.32 20.3 6.36 17.04 9.62 16.67 10.09 16.39 10.62 16.18 11.1 15.97 11.45 15.68 11.75 15.21 12.12 13.14 13.15 10.85 13.6 6.14 13.62 6.17 14.36 5.9 15.25 5.39 15.94 4.69 16.08 5.03 15.83 4.82 15.88 4.62 15.96 4.42 16.05 4.23 16.15 5.66 16.45 6.12 16.61 7.62 17.35 9.32 17.99 12.52 19.84 13.21 20.49 14.07 22.05 14.67 22.75 15.58 23.24 16.7 23.49 17.81 23.43 18.69 23.01 18.92 23.4 20.58 23.49 21.29 23.76 20.79 24.24 20.54 24.72 20.57 25.21 20.9 25.71 21.1 25.89 21.33 26.08 21.59 26.24 21.84 26.34 22.17 26.32 22.48 26.17 22.78 25.98 23.11 25.81 23.38 25.74 23.59 25.73 23.8 25.76 24.05 25.81 24.18 25.87 24.43 26.03 24.57 26.08 24.77 26.08 25.21 26.01 25.4 26.04 25.64 26.19 25.81 26.41 25.91 26.69 25.89 26.98 25.7 27.26 25.38 27.44 24.99 27.54 24.57 27.56 23.98 27.42 22.93 26.87 22.31 26.78 22.01 26.82 21.75 26.89 21.49 26.93 21.21 26.91 20.85 26.75 20.47 26.48 20.14 26.14 19.94 25.79 19.93 25.65 19.96 25.33 19.94 25.2 19.87 25.07 19.78 25.01 19.69 24.95 19.6 24.85 19.41 24.49 19.21 24.2 18.95 24.03 18.56 24.03 18.23 24.15 18.09 24.33 18.11 24.57 18.28 24.88 18.5 25.13 18.73 25.24 18.99 25.31 19.3 25.46 19.6 25.7 19.91 26.04 20.18 26.42 20.37 26.74 20.45 27.09 20.45 27.31 20.56 27.44 20.94 27.51 21.38 27.51 21.76 27.49 22.15 27.52 22.61 27.72 22.91 27.92 23.08 28.13 23.18 28.41 23.23 28.81 23.03 28.63 22.66 28.44 22.24 28.3 21.93 28.24 21.52 28.42 21.26 28.8 21.05 29.25 20.75 29.64 20.4 29.83 20.05 29.84 19.24 29.71 18.96 29.73 18.38 29.84 18.1 29.85 17.87 29.79 17.46 29.62 17.25 29.56 16.34 29.56 15.43 29.64 14.56 29.55 13.78 29.02 13.48 28.7 13.48 28.62 13.49 28.41 13.53 28.34 13.72 28.21 13.78 28.15 13.79 28.02 13.75 27.75 13.76 27.62 14.09 26.86 14.1 26.52 13.78 26.27 13.99 26.24 14.21 26.23 14.42 26.24 14.63 26.27 13.63 25.85 12.34 26.1 10.05 27.08 8.59 27.42 8.11 27.64 7.59 28.02 7.48 28.32 7.73 28.62 8.28 28.97 7.93 29.31 7.47 29.38 6.97 29.3 6.04 29.05 5.83 29.05 5.51 29.14 5.25 29.27 4.59 29.66 4.36 29.84 4.18 30.04 3.88 30.52 3.71 30.73 3.45 30.94 3.25 31.04 2.74 31.2 2.37 31.34 2.17 31.46 1.67 31.92 1.41 32.11 .51 32.55 .5 32.43 .45 32.19 .45 32.07 0 32.83 .57 33.53 1.58 34.08 2.44 34.42 3.58 34.7 5.65 35 6.1 35.15 6.43 35.46 6.23 35.41 6.02 35.39 5.82 35.4 5.62 35.46 5.4 35.61 5.32 35.77 5.26 35.95 5.1 36.12 4.79 36.25 4.43 36.28 4.07 36.24 3.76 36.16 4.11 36.54 4.9 37.23 5.23 37.59 5.41 37.97 5.37 38.29 5.28 38.63 5.32 39.04 5.98 39.74 7.13 40.13 9.41 40.5 10.19 40.55 10.88 40.38 11.58 40.11 12.36 39.87 13.42 39.76 14.43 39.89 15.38 40.24 16.26 40.83 16.42 40.55 16.57 40.24 16.1 40.1 15.85 39.82 15.91 39.61 16.38 39.67 16.79 39.99 17.38 40.94 17.61 41.12 17.91 40.9 19.02 39.6 19.36 39.36 19.73 39.15 20.54 38.61 20.74 38.5 20.92 38.48 21.3 38.54 21.52 38.53 21.81 38.42 22.02 38.26 22.22 38.07 22.48 37.9 22.86 37.8 23.18 37.87 23.47 38.1 23.71 38.51 23.81 39.56 23.11 40 22.21 40.27 21.72 40.77 22.23 40.81 22.71 41.09 23.12 41.51 23.4 41.95 23.59 42.42 23.97 43.78 24.04 44.3 23.7 45.3 22.86 45.95 21.79 46.3 20.76 46.42 20.29 46.42 20.08 46.4 19.85 46.35 19.68 46.22 19.57 46.06 19.41 45.96 19.1 46.03 18.76 46.31 18.02 47.26 17.68 47.63 16.87 48.27 16.41 48.52 15.9 48.61 15.45 48.55 15.11 48.48 14.77 48.52 14.3 48.8 14.52 48.55 14.64 48.38 14.69 48.27 14.49 48 14.18 47.79 13.82 47.63 13.48 47.55 13.12 47.52 12.7 47.54 12.3 47.64 11.99 47.82 11.79 48.12 11.86 48.3 12.03 48.46 12.16 48.72 11.33 48.78 10.84 49.27 10.68 50 10.82 50.83 10.97 50.7 11.13 50.58 11.31 50.48 11.49 50.39 11.37 50.65 11.18 50.85 10.93 50.99 10.65 51.04 10.72 51.16 10.78 51.26 10.84 51.37 10.93 51.46 10.86 51.54 9.72 51.56 8.51 52.41 7.8 53.57 8.11 54.56 6.9 54.77 6.57 54.93 6.74 55.16 6.95 55.31 7.46 55.53 7.06 55.66 6.68 55.71 6.39 55.82 6.29 56.12 6.36 56.41 6.49 56.46 6.66 56.4 6.94 56.39 7.07 56.37 7.22 56.37 7.34 56.41 7.46 56.57 7.43 56.68 7.35 56.78 7.32 56.89 7.3 57 7.24 57.1 7.2 57.23 7.24 57.41 7.37 57.52 7.71 57.61 7.85 57.69 7.95 57.94 8 58.24 8.09 58.54 8.26 58.75 8.68 58.8 8.84 58.45 8.97 58.03 9.33 57.86 9.23 57.94 9.07 58.15 8.99 58.24 9.18 58.39 9.36 58.44 9.54 58.4 9.71 58.27 9.72 58.61 9.92 58.74 10.23 58.75 10.56 58.7 10.37 58.91 9.55 59.48 9.84 59.68 10.15 59.72 10.49 59.69 10.84 59.68 11.14 59.74 11.74 59.93 12.04 60 12.4 60.05 12.8 60.07 13.2 60.05 13.54 59.97 13.9 59.77 14.17 59.58 14.45 59.55 14.8 59.82 14.53 59.92 14.01 59.99 13.74 60.09 14.55 60.21 15.01 60.34 15.27 60.55 15.22 60.9 14.9 61.17 14.49 61.31 14.17 61.29 13.98 61.1 13.86 60.86 13.71 60.66 13.44 60.56 13.18 60.69 12.49 61.29 12.2 61.49 12.4 60.9 12.23 60.46 11.78 60.16 11.13 59.98 10.54 60.12 9.98 60.6 8.96 61.76 9.13 61.78 9.62 61.81 9.76 61.84 9.89 61.97 9.92 62.06 9.92 62.15 9.96 62.24 10.22 62.48 10.49 62.66 11.13 63.01 11.47 63.26 12.56 64.3 12.8 64.6 13.09 65.1 13.35 65.35 14.15 65.63 15.14 65.6 16.14 65.37 17.69 64.75 18.04 64.58 18.27 64.39 18.4 64.02 18.34 63.65 18.12 63.35 17.78 63.19 18.36 62.62 18.92 61.78 19.51 61.09 20.21 61 19.7 61.37 19.18 61.96 18.81 62.62 18.74 63.2 18.82 63.32 19.12 63.55 19.24 63.66 19.32 63.84 19.49 64.42 20.37 66.2 20.5 66.7 20.48 67.21 20.3 67.82 20.01 68.32 19.96 68.59 20.1 68.92 20.35 69.16 20.59 69.18 20.85 69.11 21.21 69.1 20.85 69.46 20.81 69.78 20.89 70.12 20.9 70.54 20.71 70.88 20.37 71.1 19.56 71.42 20.67 71.56 21.23 71.55 21.76 71.38 22.08 71.17 22.61 70.72 22.97 70.52 23.24 70.43 23.78 70.31 24.03 70.23 24.24 70.1 24.65 69.78 24.87 69.65 25.36 69.54 25.68 69.68 25.98 69.97 26.41 70.27 26.88 70.42 27.17 70.34 27.43 70.2 27.81 70.16 28.25 70.4 28.69 70.91 29.38 71.89 29.73 72.27 30.12 72.53 30.47 72.51 30.7 72.04 30.68 71.76 30.48 71.16 30.44 70.87 30.51 70.58 30.61 70.33 30.65 70.07 30.57 69.78 30.91 69.98 31.13 69.85 31.3 69.57 31.52 69.34 31.89 69.26 32.27 69.34 32.64 69.53 32.98 69.76 32.02 69.69 31.67 69.85 31.59 70.4 31.79 70.93 32.19 71.29 32.69 71.46 33.21 71.43 34.35 71.06 35.43 70.54 36.39 69.85 37.18 68.98 36.66 70.03 36.5 70.58 36.63 70.97 35.59 71.58 35.13 71.98 34.85 72.48 34.81 73.02 35.05 73.31 35.91 73.65 35.11 73.85 34.71 74.18 34.52 74.72 34.34 76.01 34.38 76.44 34.59 76.8 35.02 77.06 34.68 77.15 34.06 76.96 33.68 77 33.24 77.25 31.42 78.83 31.21 79.06 31.07 79.29 31.04 79.46 31.04 79.85 31.01 79.98 30.95 80.14 30.98 80.22 30.97 80.26 30.79 80.31 30.57 80.32 30.39 80.25 30.27 80.12 30.22 79.94 29.82 80.13 29.08 80.63 28.69 80.84 27.07 81.48 26.08 82.03 25.64 82.34 25.27 82.72 25.03 83.2 24.97 83.65 25.12 83.79 25.37 83.87 25.62 84.18 25.65 84.42 25.47 84.42 24.95 84.24 24.62 84.16 24.45 84.14 24.27 84.17 24.17 84.28 24.17 84.58 24.06 84.64 23.88 84.58 23.68 84.46 23.5 84.3 23.4 84.16 23.41 84.03 23.49 83.88 23.59 83.78 23.7 83.79 23.51 83.74 22.91 83.79 22.61 83.7 22.75 83.55 21.3 83.83 20.07 84.52 17.26 86.86 17.1 86.96 16.93 87 16.62 86.98 16.47 86.99 15.98 87.25 15.77 87.58 15.63 88.54 15.99 88.45 16.24 88.23 16.37 87.93 16.34 87.57 16.66 87.66 17.16 87.97 17.46 88.01 17.77 87.9 17.88 87.74 17.91 87.55 17.98 87.34 18 87.12 17.97 86.89 18.02 86.78 18.33 86.88 18.52 87.02 18.61 87.19 18.62 87.36 18.53 87.51 19.1 87.56 19.79 87.22 20.42 86.7 20.83 86.24 21.17 85.72 21.56 85.29 22.05 85.16 22.67 85.53 22.1 85.52 21.82 85.85 21.95 86.18 22.65 86.2 22.94 86.09 23.42 85.79 23.68 85.66 23.78 85.66 24.11 85.71 24.24 85.72 24.64 85.51 24.72 85.5 24.95 85.53 25.05 85.51 25.15 85.45 25.29 85.24 25.38 85.17 26.7 84.5 27.22 84.32 27.52 84.37 27.68 84.66 27.77 85.18 28.01 84.97 28.32 84.48 28.55 84.26 29.04 84.07 30.16 83.87 30.64 83.66 30.89 83.44 31.24 83.02 31.46 82.91 31.41 82.98 31.48 83.1 31.59 83.21 31.71 83.26 31.85 83.19 32.34 82.79 32.19 82.54 31.98 82.37 31.72 82.29 31.42 82.3 31.84 81.87 32.37 81.65 33.48 81.39 32.99 81.31 33.27 81.1 33.56 81.02 33.85 80.99 34.16 80.93 34.54 80.82 35.24 80.43 37.71 79.35 38.05 79.13 38.37 78.77 38.42 78.44 38.38 78.11 38.46 77.76 38.71 77.5 39.02 77.42 39.31 77.42 39.56 77.37 39.63 77.28 39.69 77.03 39.73 76.96 39.86 76.93 40.2 76.86 40.31 76.82 41.5 75.92 42.22 75.48 43.07 74.77 43.15 74.68 43.23 74.6 43.41 74.5 43.66 74.43 44.2 74.41 44.45 74.35 44.52 74.28 44.52 74.09 44.57 74.03 44.72 74 45.08 73.94 45.21 73.89 45.6 73.7 45.7 73.55 45.77 73.19 45.69 73.17 45.5 73.11 46.03 72.8 46.84 71.94 47.35 71.54 47.91 71.2 48.39 70.8 48.59 70.34 48.3 69.81 47.99 69.6 47.62 69.46 46.43 69.17 46.16 69.07 46.02 68.88 45.98 68.5 46.18 67.93 46.66 67.44 47.75 66.56 47.54 66.46 47.82 66.24 48.19 66.01 48.48 65.97 48.49 66.29 49.08 66.2 49.52 65.89 49.59 65.55 49.06 65.39 49.55 65.22 50.09 65.13 50.58 64.96 50.91 64.54 50.89 64.05 50.58 63.65 50.12 63.33 49.66 63.09 50.09 63.08 50.47 63.19 50.87 63.27 51.36 63.15 51.83 62.85 52 62.56 52.06 62.22 52.2 61.8 52.56 61.4 53.54 60.9 53.89 60.62 53.89 60.51 53.86 60.05 53.9 59.85 54.08 59.63 54.32 59.47 55.73 58.75 57.12 57.89 57.44 57.74 57.72 57.67 57.86 57.7 58.07 57.86 58.2 57.9 58.83 57.92 59.29 57.84 59.67 57.64 60.49 56.96 60.89 56.73 61.34 56.62 61.88 56.62 61.03 57.06 60.64 57.31 60.27 57.61 60.08 57.84 59.93 58.04 59.75 58.23 59.49 58.38 59.86 58.71 60.3 58.99 60.77 59.23 61.23 59.41 62.09 59.55 62.48 59.68 62.72 59.97 62.13 59.89 60.98 59.59 60.38 59.52 60.11 59.55 59.57 59.67 59.29 59.66 59.08 59.57 58.69 59.26 58.51 59.17 58.01 59.23 57.52 59.48 56.61 60.1 55.68 60.5 55.38 60.76 55.21 61.2 55.18 61.75 55.21 62.27 55.17 62.79 54.96 63.35 54.66 63.79 53.99 64.62 53.74 65.1 53.64 65.62 53.76 66.02 54.1 66.28 54.67 66.37 55.08 66.24 55.87 65.76 56.21 65.76 55.85 66.25 55.48 66.65 55.05 66.98 54.52 67.25 53.67 67.56 53.29 67.83 53.19 68.25 53.43 68.54 53.86 68.63 54.32 68.6 54.67 68.55 55.41 68.52 55.69 68.44 55.71 68.2 55.9 68.23 56.36 68.4 56.54 68.42 56.62 68.33 56.84 67.99 56.94 67.87 57.2 67.6 57.62 67.02 57.79 66.85 59.13 66.64 59.76 66.33 59.61 65.73 59.83 65.75 60.22 65.85 60.38 65.81 60.4 65.7 60.42 65.46 60.48 65.2 60.61 65 60.71 65.19 60.94 65.78 61.51 64.48 61.66 64.04 61.86 64.4 62.1 64.52 62.69 64.54 63.68 64.8 64.06 64.82 64.79 64.68 65.49 63.82 65.53 63.58 65.52 63.01 65.59 62.74 65.76 62.56 66.21 62.32 66.34 62.15 66.17 61.73 65.48 61.69 64.68 61.85 64.16 62.03 64.43 61.78 64.74 61.7 65.03 61.67 65.26 61.54 65.44 61.17 65.32 60.95 65.05 60.8 64.78 60.61 64.53 60.31 64.57 60.24 64.82 60.2 65.15 60.03 65.43 59.68 65.52 59.32 65.37 59.12 64.91 59.24 65.11 59.01 65.33 58.93 65.57 58.91 65.84 58.86 66.18 58.71 66.77 58.31 67.09 58.13 66.49 58.92 66.33 59.34 66.47 59.74 66.8 59.92 67.17 59.87 67.5 59.65 67.7 59.33 68.2 59.57 68.51 59.58 69.34 59.3 69.89 59.17 70.15 59.07 70.82 58.73 71.17 58.6 71.54 58.57 71.93 58.69 71.17 58.91 70.9 59.1 70.77 59.47 70.8 59.82 70.97 60.06 71.23 60.22 71.58 60.32 71.43 60.42 71.14 60.66 70.99 60.76 71.23 60.86 71.44 60.8 71.64 60.71 71.89 60.68 72.02 60.72 72.32 60.86 72.43 60.98 72.53 61.07 72.63 61.13 72.93 61.2 73.95 61.18 73.82 61.44 73.64 61.68 73.44 61.9 73.21 62.09 73.72 62.22 74.87 62.59 75.36 62.61 75.84 62.35 76.72 61.43 77.2 61.08 76.77 61.72 76.58 62.35 76.71 62.91 77.29 63.33 78.53 63.77 79.1 64.09 78.95 64.35 79.38 64.56 80 64.54 81.17 64.3 82.7 64.11 83.47 64.09 84.24 64.14 86.47 64.62 87.63 64.62 88.04 63.98 88.32 64.21 88.4 64.51 88.31 64.83 88.04 65.09 89.08 65.6 90.2 65.94 91.34 66.02 92.47 65.79 92.93 65.5 93.86 64.68 94.28 64.5 94.51 64.52 94.64 64.61 94.76 64.73 94.93 64.86 95.71 65.31 96.03 65.43 95.49 65.46 95.25 65.68 95.04 66.58 94.81 65.32 94.54 64.8 94.12 65.01 94.06 65.29 94.14 65.56 94.27 65.82 94.31 66.06 94.17 66.36 93.93 66.59 93.64 66.76 93.35 66.9 94.24 67.55 95.35 68.14 96.53 68.6 97.59 68.82 97.49 68.96 97.44 69.01 98.76 69.67 100.95 71.66 102.16 72.54 103.17 73.12 103.5 73.25 103.87 73.28 104.15 73.21 104.42 73.09 104.79 72.95 105.46 72.86 105.65 72.73 105.69 72.37 105.53 71.96 105.17 71.68 104.73 71.55 104.3 71.55 104.41 71.08 103.85 70.64 103.05 70.34 102.4 70.28 102.62 70.12 102.72 69.92 102.73 69.7 102.63 69.48 102.99 69.64 103.73 69.84 104.07 69.99 104.27 70.15 104.42 70.34 104.59 70.53 104.84 70.66 105.35 70.69 105.46 70.39 105.4 69.92 105.4 69.41 105.79 70.06 105.99 70.15 106.47 70.16 106.04 70.38 105.86 70.53 105.87 70.74 106.01 71.12 106.08 71.26 106.27 71.54 106.33 71.7 106.32 71.89 106.21 72.3 106.24 72.48 106.46 72.64 106.79 72.64 107.15 72.6 107.51 72.66 107.78 72.87 108 73.14 108.25 73.36 108.6 73.43 108.98 73.19 108.96 72.69 108.57 71.59 108.19 70.05 107.92 69.29 107.54 68.64 107.79 68.61 107.88 68.61 107.81 68.49 107.69 68.22 107.6 68.1 107.77 68.04 107.89 67.92 107.96 67.75 108 67.55 108.19 68.68 108.59 69.76 109.77 72.09 109.96 72.34 110.19 72.54 110.46 72.73 111.65 73.41 112.04 73.24 112.54 72.35 112.91 72.05 112.48 72.78 112.35 73.47 112.51 74.13 112.97 74.79 113.31 75.19 113.46 75.29 113.71 75.34 113.76 75.29 113.88 75.17 114.03 75.05 114.16 74.99 114.39 75 115.16 75.22 114.81 75.24 114.46 75.2 114.18 75.25 114.05 75.51 114.21 75.87 114.61 76.22 115.42 76.77 115.09 76.64 114.15 76.14 113.81 76.13 113.76 76.39 113.91 76.82 114.14 77.27 114.28 77.63 114.37 78.57 114.59 78.78 115.18 78.99 116.04 79.16 116.24 79.24 116.32 79.36 116.29 79.56 116.36 79.71 116.64 79.98 116.92 80.15 117.21 80.3 117.5 80.48 117.48 80.51 118.03 81.32 118.61 81.86 119.18 82.29 119.81 82.58 120.59 82.74 119.76 82.97 119.53 83.1 119.34 83.34 118.81 84.28 118.66 84.46 118.53 84.58 118.45 84.71 118.43 84.91 118.51 85.15 118.68 85.38 118.91 85.54 119.16 85.57 119.47 85.33 119.61 84.91 119.67 84.48 119.77 84.17 120.26 83.84 122.3 83.24 122.01 83.62 122.14 84.02 122.45 84.43 122.71 84.85 122.77 85.31 122.79 85.83 122.89 86.27 123.24 86.49 122.81 86.8 122.52 86.93 122.4 87.14 122.52 87.71 122.73 88.26 122.98 88.51 123.81 88.84 125 87.74 125.14 87.21 125.32 86.82 125.45 86.41 125.41 85.85 125.31 85.37 125.27 84.93 125.36 84.51 125.63 84.08 125.63 83.49 125.31 83.25 124.82 83.16"/></g></svg>