<?xml version="1.0" encoding="UTF-8"?><svg xmlns="http://www.w3.org/2000/svg" xmlns:xlink="http://www.w3.org/1999/xlink" viewBox="0 0 102.4 39.53"><defs><style>.cls-1{fill:url(#linear-gradient-3);}.cls-1,.cls-2,.cls-3,.cls-4{mix-blend-mode:multiply;}.cls-5{fill:url(#linear-gradient-2);}.cls-6{fill:#d7723b;}.cls-2{fill:url(#linear-gradient);}.cls-7{fill:#be5f2c;}.cls-8{mask:url(#mask-2);}.cls-9{isolation:isolate;}.cls-10{fill:#a1c7df;}.cls-11{mask:url(#mask-3);}.cls-3{fill:url(#radial-gradient-3);opacity:.5;}.cls-12{fill:url(#radial-gradient);}.cls-13{fill:#e67226;}.cls-14{fill:#c1612d;}.cls-15{filter:url(#luminosity-noclip-4);}.cls-16{fill:#f2b17c;}.cls-17{fill:#e4f3fa;mix-blend-mode:overlay;opacity:.6;}.cls-18{fill:url(#linear-gradient-5);}.cls-19{fill:#ea8135;}.cls-20{fill:#ee984e;}.cls-21{fill:url(#radial-gradient-2);}.cls-22{fill:none;}.cls-23{fill:#8b4c23;}.cls-24{filter:url(#luminosity-noclip-2);}.cls-25{mask:url(#mask-1);}.cls-26{mask:url(#mask);}.cls-27{fill:#ce6c33;}.cls-28{fill:#e68542;}.cls-29{fill:#b45828;}.cls-30{fill:url(#linear-gradient-4);}.cls-4{fill:#6a331d;opacity:.26;}</style><radialGradient id="radial-gradient" cx="29.66" cy="10.21" fx="29.66" fy="10.21" r="17.59" gradientTransform="matrix(1, 0, 0, 1, 0, 0)" gradientUnits="userSpaceOnUse"><stop offset="0" stop-color="#ee984e"/><stop offset=".88" stop-color="#ce6c33"/></radialGradient><radialGradient id="radial-gradient-2" cx="51.71" cy="15.27" fx="59.95" fy="24.56" r="12.42" gradientTransform="matrix(1, 0, 0, 1, 0, 0)" gradientUnits="userSpaceOnUse"><stop offset="0" stop-color="#f0aa50"/><stop offset=".88" stop-color="#ce6c33"/></radialGradient><filter id="luminosity-noclip-2" x="45.46" y=".1" width="54.89" height="33.01" color-interpolation-filters="sRGB" filterUnits="userSpaceOnUse"><feFlood flood-color="#fff" result="bg"/><feBlend in="SourceGraphic" in2="bg"/></filter><filter id="luminosity-noclip-3" x="45.46" y="-7759.29" width="54.89" height="32766" color-interpolation-filters="sRGB" filterUnits="userSpaceOnUse"><feFlood flood-color="#fff" result="bg"/><feBlend in="SourceGraphic" in2="bg"/></filter><mask id="mask-1" x="45.46" y="-7759.29" width="54.89" height="32766" maskUnits="userSpaceOnUse"/><linearGradient id="linear-gradient" x1="68.01" y1="14.86" x2="82.95" y2="48.98" gradientTransform="matrix(1, 0, 0, 1, 0, 0)" gradientUnits="userSpaceOnUse"><stop offset=".02" stop-color="#fff"/><stop offset=".06" stop-color="#f0f0f0"/><stop offset=".26" stop-color="#a8a8a8"/><stop offset=".46" stop-color="#6c6c6c"/><stop offset=".63" stop-color="#3d3d3d"/><stop offset=".79" stop-color="#1c1c1c"/><stop offset=".91" stop-color="#070707"/><stop offset="1" stop-color="#000"/></linearGradient><mask id="mask" x="45.46" y=".1" width="54.89" height="33.01" maskUnits="userSpaceOnUse"><g class="cls-24"><g class="cls-25"><path class="cls-2" d="M45.46,33.11s2.05-1.71,4.92-3.64c.34-.23,3.12,.13,3.53,.02,.39-.11,.24-3.55,.64-3.67,5-1.42,10.28-3.05,10.32-3.55,.08-.95,.1-1.56,.11-2.45,.03-2.7-.08-7.3-.09-8.16,0-.33-.02-.72,.29-.76,.23-.03,.13,.17,.28,.69,.15,.51,1.64-.4,1.64,.48,0,.62,.05,1.59,.06,2.64,.01,1.37-.02,2.87-.04,3.93-.05,1.87,.85,.33,1.01-.56,.16-.88-.04-9.6,0-10.95,.01-.42,.93-.08,2.17,.27,.73,.21,.61,.85,1.44,.91,2.25,.17,5.4-.29,5.45,.7,.05,.99,.15,16.47,.96,16.89,.81,.42,1.65-1.61,2.69-1.74,1.04-.13,2.02-.36,2.61-1.39,.59-1.03,1.52-8.38,1.77-9.54,.11-.53,.87-.35,1.68-.12,.41,.11,.11,1.02,.47,1.07,.5,.06,1.61-.8,1.68-1.25,.23-1.42,1.48-14.34,2.06-12.67,.58,1.68,1.92,.9,1.92,2.32s-.59,18.43,0,19.73c.59,1.3,7.32,10.76,7.32,10.76l-54.89,.06Z"/></g></g></mask><linearGradient id="linear-gradient-2" x1="68.01" y1="14.86" x2="82.95" y2="48.98" gradientTransform="matrix(1, 0, 0, 1, 0, 0)" gradientUnits="userSpaceOnUse"><stop offset=".02" stop-color="#ed9d4e"/><stop offset=".34" stop-color="#df8742"/><stop offset=".73" stop-color="#d27337"/><stop offset="1" stop-color="#ce6c33"/></linearGradient><filter id="luminosity-noclip-4" x="45.47" y=".11" width="54.89" height="33.01" color-interpolation-filters="sRGB" filterUnits="userSpaceOnUse"><feFlood flood-color="#fff" result="bg"/><feBlend in="SourceGraphic" in2="bg"/></filter><filter id="luminosity-noclip-5" x="45.47" y="-7759.29" width="54.89" height="32766" color-interpolation-filters="sRGB" filterUnits="userSpaceOnUse"><feFlood flood-color="#fff" result="bg"/><feBlend in="SourceGraphic" in2="bg"/></filter><mask id="mask-3" x="45.47" y="-7759.29" width="54.89" height="32766" maskUnits="userSpaceOnUse"/><linearGradient id="linear-gradient-3" x1="87.76" y1="17.39" x2="76.5" y2="16.95" gradientTransform="matrix(1, 0, 0, 1, 0, 0)" gradientUnits="userSpaceOnUse"><stop offset="0" stop-color="#fff"/><stop offset="0" stop-color="#fafafa"/><stop offset=".05" stop-color="#cbcbcb"/><stop offset=".1" stop-color="#a0a0a0"/><stop offset=".15" stop-color="#797979"/><stop offset=".2" stop-color="#585858"/><stop offset=".27" stop-color="#3c3c3c"/><stop offset=".34" stop-color="#262626"/><stop offset=".42" stop-color="#151515"/><stop offset=".52" stop-color="#080808"/><stop offset=".65" stop-color="#010101"/><stop offset="1" stop-color="#000"/></linearGradient><mask id="mask-2" x="45.47" y=".11" width="54.89" height="33.01" maskUnits="userSpaceOnUse"><g class="cls-15"><g class="cls-11"><path class="cls-1" d="M45.47,33.13s2.19-1.62,4.91-3.66c.33-.25,3.12,.13,3.53,.02,.39-.11,.26-3.54,.65-3.65,5-1.42,10.28-3.05,10.32-3.55,.08-.95,.1-1.56,.11-2.45,.03-2.7-.08-7.3-.09-8.16,0-.33-.02-.72,.29-.76,.23-.03,.13,.17,.28,.69,.15,.51,1.64-.4,1.64,.48,0,.61,.05,1.59,.06,2.64,.01,1.37-.02,2.87-.04,3.93-.05,1.87,.85,.33,1.01-.56,.16-.88-.04-9.6,0-10.95,.01-.42,.93-.08,2.17,.27,.73,.21,.61,.85,1.44,.91,2.25,.17,5.4-.29,5.45,.7,.05,.99,.15,16.47,.96,16.89s1.65-1.61,2.69-1.74c1.04-.13,2.02-.36,2.61-1.39,.59-1.02,1.52-8.38,1.77-9.54,.11-.53,.87-.35,1.68-.12,.41,.11,.11,1.02,.47,1.07,.5,.06,1.61-.8,1.68-1.25,.23-1.42,1.48-14.34,2.06-12.67,.58,1.68,1.92,.9,1.92,2.32s-.59,18.43,0,19.73c.59,1.3,7.32,10.76,7.32,10.76l-54.89,.06Z"/></g></g></mask><linearGradient id="linear-gradient-4" x1="87.76" y1="17.39" x2="76.5" y2="16.95" gradientTransform="matrix(1, 0, 0, 1, 0, 0)" gradientUnits="userSpaceOnUse"><stop offset="0" stop-color="#ce6c33"/><stop offset=".14" stop-color="#ce6c33"/><stop offset="1" stop-color="#ce6c33"/></linearGradient><linearGradient id="linear-gradient-5" x1=".5" y1="17.78" x2="42.8" y2="17.78" gradientTransform="matrix(1, 0, 0, 1, 0, 0)" gradientUnits="userSpaceOnUse"><stop offset="0" stop-color="#f2ae5e"/><stop offset=".23" stop-color="#efa051"/><stop offset=".7" stop-color="#eb893c"/><stop offset="1" stop-color="#ea8135"/></linearGradient><radialGradient id="radial-gradient-3" cx="173.74" cy="33.2" fx="173.74" fy="33.2" r="9.32" gradientTransform="translate(-90.91) scale(.72 1)" xlink:href="#radial-gradient"/></defs><g class="cls-9"><g id="_이어_2"><g id="USA"><g><path class="cls-23" d="M102.4,34.49c0,.92-.75,1.67-1.67,1.67H1.67c-.92,0-1.67-.75-1.67-1.67H0c0-.92,.75-1.67,1.67-1.67H100.74c.92,0,1.67,.75,1.67,1.67h0Z"/><path class="cls-23" d="M71.3,37.65c0,.92-.75,1.67-1.67,1.67H12.77c-.92,0-1.67-.75-1.67-1.67h0c0-.92,.75-1.67,1.67-1.67h56.86c.92,0,1.67,.75,1.67,1.67h0Z"/><path class="cls-23" d="M57.2,32.78s-14.4-1.45-14.44-.75c-.03,.6,3.35,2.93,3.35,3.14,0,.45-7.77-.15-10.31-.33-2.54-.18-13.52-.16-13.52-.16l28.55-5.69,6.36,3.78Z"/><path class="cls-10" d="M37.32,27.84h21.1l-10.95,4.83s7.2,1.03,7.31,1.74c.11,.71-15.32,1.87-15.38,2.48-.06,.61,5.63,2.63,5.63,2.63l-3.98-.55s-5.91-1.99-4.24-2.46c1.67-.47,6.43-.94,6.78-1.42,.43-.59,.6-1.25-.11-2.15-.71-.91-4.44-.57-4.44-.57l-1.71-4.53Z"/><path class="cls-23" d="M42.84,30.31s3.34,.53,3.38,1.23c.03,.6-.96,1.38-.96,1.59,0,.45,4.53,.9,7.07,.72,2.54-.18,10.02-.16,10.02-.16l15.4-1.47-28.55-5.69-6.36,3.78Z"/><g><path class="cls-12" d="M18.9,30.21l11.82-8.04,2.27-14.91s-.2-1.25,1.41-1.39c2.28-.2,7.66,.74,9.33,.58,1.67-.16,7.34-1.63,8.7-2.02,2.7-.76,3.51-1.28,3.93-.67,.2,.3-.46,10.78,2.18,14.55,2.76,3.94,8.82,4.29,8.82,4.29l15.11,5.09,8.21,2.23-71.77,.28Z"/><g><polygon class="cls-23" points="66.03 30.56 90.67 29.93 82.46 27.7 70.74 23.75 66.03 30.56"/><path class="cls-23" d="M56.35,3.76l-3.32,26.99,14.15-8.39s-3.62-4.56-4.06-5.8c-.44-1.24-1.54,1.06-2.24-.38-.34-.69-1.65-6.32-2.26-7.73-.17-.39-.25-.17-.35-.04-.07,.1,.04,.13-.35-1.41-.39-1.54-1.58-3.24-1.58-3.24Z"/><polygon class="cls-23" points="29.28 23.21 21.12 30.76 27.24 30.76 29.28 23.21"/></g><path class="cls-21" d="M52.59,4.62c-1.32,.14-5.88,2.02-5.88,2.02l2.97,16.44s.18,1.14,1.67,2.31c.57-5.58,1.28-20.56,1.24-20.76Z"/><path class="cls-27" d="M42.06,7.43c-.2-.33-.31-.37-.31-.37,0,0-.86,6.89-.46,8.92,.24,1.21,.48,1.49,.48,1.49,0,0,.33-9.78,.28-10.05Z"/><path class="cls-7" d="M52.81,4.55c-.19-.33-1.81,1.24-1.58,2.51,.48,2.66,.64,7.98,.38,9.5-.84,4.94-.3,9.96-.3,9.96,0,0,1.55-21.71,1.5-21.98Z"/><path class="cls-29" d="M43.87,6.45c-.22-.03-.8-.02-1.14-.04-.03,0-.91,.34-1.01,.67-.1,.32-.02,13.63-.02,13.57,0-.79,.26-10.26,.42-11.49,0-.08,.47,0,.48-.03,.05-.37-.45-1.89-.4-2.24,.88-.41,1.78-.45,1.68-.44Z"/></g><path class="cls-14" d="M34.91,29.49l4.46-1.79,17.66-.41,4.57,4.49s-16.16,1.71-16.16,1.33c0-.14,1.06-1.25,1.48-1.47,2.36-1.22,2.14-1.88-1.88-1.57-3.43,.27-10.14-.59-10.14-.59Z"/><g><g><g class="cls-26"><path class="cls-5" d="M45.46,33.11s2.05-1.71,4.92-3.64c.34-.23,3.12,.13,3.53,.02,.39-.11,.24-3.55,.64-3.67,5-1.42,10.28-3.05,10.32-3.55,.08-.95,.1-1.56,.11-2.45,.03-2.7-.08-7.3-.09-8.16,0-.33-.02-.72,.29-.76,.23-.03,.13,.17,.28,.69,.15,.51,1.64-.4,1.64,.48,0,.62,.05,1.59,.06,2.64,.01,1.37-.02,2.87-.04,3.93-.05,1.87,.85,.33,1.01-.56,.16-.88-.04-9.6,0-10.95,.01-.42,.93-.08,2.17,.27,.73,.21,.61,.85,1.44,.91,2.25,.17,5.4-.29,5.45,.7,.05,.99,.15,16.47,.96,16.89,.81,.42,1.65-1.61,2.69-1.74,1.04-.13,2.02-.36,2.61-1.39,.59-1.03,1.52-8.38,1.77-9.54,.11-.53,.87-.35,1.68-.12,.41,.11,.11,1.02,.47,1.07,.5,.06,1.61-.8,1.68-1.25,.23-1.42,1.48-14.34,2.06-12.67,.58,1.68,1.92,.9,1.92,2.32s-.59,18.43,0,19.73c.59,1.3,7.32,10.76,7.32,10.76l-54.89,.06Z"/></g><path class="cls-20" d="M68.1,18.2s-.03,.07-.07,.11h0s.33,.36,.85-.2c.52-.56,1.91-9.86,1.91-9.86l-.79-.57c-.08-.02-.91-.04-.93-.12-.15-.51-.43-.76-.66-.73-.31,.04-.29,.43-.29,.76,0,.86,.13,5.47,.09,8.16-.01,.89-.02,1.49-.11,2.45Z"/><path class="cls-28" d="M45.46,33.11s1.97-1.58,5.04-3.59c.35-.23,2.98,.18,3.39,.07,.39-.11,.26-3.65,.65-3.77,5-1.43,10.28-3.05,10.32-3.55,.08-.95,.1-1.56,.11-2.45,.03-2.7-.08-7.3-.09-8.16,0-.33-.02-.72,.29-.76,.23-.03,.13,.17,.28,.69,.15,.51,1.64-.4,1.64,.48,0,.61,.05,1.59,.06,2.64,.01,1.37-.02,2.87-.04,3.93-.05,1.87,.85,.33,1.01-.56,.16-.88-.04-9.6,0-10.95,.01-.42,.93-.08,2.17,.27,.73,.21,.61,.85,1.44,.91,2.25,.17,5.4-.29,5.45,.7,.05,.99,.15,16.47,.96,16.89,.81,.42,1.65-1.61,2.69-1.74,1.04-.13,2.02-.36,2.61-1.39,.59-1.02,1.52-8.38,1.77-9.54,.11-.53,.87-.35,1.68-.12,.41,.11,.11,1.02,.47,1.07,.5,.06,1.61-.8,1.68-1.25,.23-1.42,1.48-14.34,2.06-12.67,.58,1.68,1.92,.9,1.92,2.32s-.59,18.43,0,19.73c.59,1.3,7.32,10.76,7.32,10.76l-54.89,.06Z"/><g class="cls-8"><path class="cls-30" d="M45.47,33.13s2.19-1.62,4.91-3.66c.33-.25,3.12,.13,3.53,.02,.39-.11,.26-3.54,.65-3.65,5-1.42,10.28-3.05,10.32-3.55,.08-.95,.1-1.56,.11-2.45,.03-2.7-.08-7.3-.09-8.16,0-.33-.02-.72,.29-.76,.23-.03,.13,.17,.28,.69,.15,.51,1.64-.4,1.64,.48,0,.61,.05,1.59,.06,2.64,.01,1.37-.02,2.87-.04,3.93-.05,1.87,.85,.33,1.01-.56,.16-.88-.04-9.6,0-10.95,.01-.42,.93-.08,2.17,.27,.73,.21,.61,.85,1.44,.91,2.25,.17,5.4-.29,5.45,.7,.05,.99,.15,16.47,.96,16.89s1.65-1.61,2.69-1.74c1.04-.13,2.02-.36,2.61-1.39,.59-1.02,1.52-8.38,1.77-9.54,.11-.53,.87-.35,1.68-.12,.41,.11,.11,1.02,.47,1.07,.5,.06,1.61-.8,1.68-1.25,.23-1.42,1.48-14.34,2.06-12.67,.58,1.68,1.92,.9,1.92,2.32s-.59,18.43,0,19.73c.59,1.3,7.32,10.76,7.32,10.76l-54.89,.06Z"/></g><path class="cls-27" d="M67.04,11.71c-.15-.25-.6-.09-.6-.09,0,0-.08,7.14,.22,7.73,.11,.23,.66,.07,.66,.07,0,0-.1-.02-.15-.24-.05-.22-.02-.22-.04-.39-.02-.16,.15-6.82-.09-7.07Z"/><path class="cls-27" d="M77.38,8.92c-.15-.25-.6,.41-.6,.41,0,0-1.56,16.07,.24,16.73,1.79,.66,2.35-.66,2.35-.66,0,0-.75,.32-.97,.33-.22,.01-.46-.46-.57-1.22-.1-.76-.2-15.34-.44-15.6Z"/><path class="cls-27" d="M75.61,8.81c-.15-.25-.45,.07-.45,.07,0,0-.41,2.85-.35,4.44,.07,1.91,1.43,3.62,1.43,3.62,0,0,.33-4.35,.32-5.17-.04-.3-.82-1.33-.83-1.23-.01,.1-.08-1.53-.12-1.73Z"/><path class="cls-27" d="M71.47,8.77c-.15-.25-.24-.28-.24-.28,0,0-.66,2.88-.35,4.44,.18,.92,.44,1.25,.44,1.25,0,0,.18-5.21,.15-5.41Z"/><path class="cls-6" d="M73.75,8.25c-.75,0-1.37,0-1.6-.02-.61-.02-.74-.09-.85-.15-.14-.07-.3-.25-.43-.4,0,0,0-.01,0-.02-.03-.03-.08-.1-.18-.18h0s-.08-.06-.14-.09c-.19-.1-.49-.17-.6-.2-.11-.03-1.07-.32-1.47-.36-.07,.07,.23,.16,.33,.39,.1,.22,.13,.24,.38,.43,.04,.03,.1,.05,.18,.07h0c.1,.22,2.2,1.15,2.52,1.17,.36,.02,1.77,.16,3.03,0,2.3-.27,2.3,1.42,2.3,1.26,0-.26,0-1.32-.04-1.39-.11-.26-.45-.34-.5-.37-.46-.23-2.88-.17-2.92-.17Z"/><path class="cls-29" d="M71.75,8.21c-.22-.04-.1,0-.22-.04,0,0-.32,.31-.31,.5,.05,.99,.1,5.76,.1,5.72,0-.53,.16-5.33,.15-5.63,.06-.16,.31-.55,.29-.56Z"/><path class="cls-29" d="M87.45,14.08c-.13,.02,0,0-.12-.03,0,0-.16,.35-.2,.44-.04,.09,0,5.22,0,5.82,0,1,.11-5.38,.1-5.78,0-.39,.24-.44,.21-.45Z"/><path class="cls-14" d="M74.4,15.75c-.12-.02-2.8-.46-4.44-1.35-1.33-.73-1.7-1.95-1.75-1.96,0,0-.02,3.29-.01,3.48,0,.32-.03,1.93-.13,2.23-.36,1.15-.67,1.25-.65,1.27,.34,.28,.6,.68,.98,.53,.84-.32,2.04-2.08,1.52-3.71,.06-.16,4.5-.46,4.48-.47Z"/><path class="cls-14" d="M88.68,24.42c-.12-.02-1.43,.04-3.07-.86-1.33-.73-.59-8.76-.65-8.77-1.41,8.94-2.32,8.82-3.07,9.05-.75,.24-.9,.22-1.22,.2-.24-.02-2.43,2.18-2.4,2.2,.34,.28,14.79,.01,15.17-.14,.84-.32-4.73-1.68-4.76-1.69Z"/><path class="cls-29" d="M76.37,8.33c-.06,0-.02,0-.14-.02,0,0-.4,.31-.72,.48-.03,.01-.13-.11-.15-.1-.12,.07-.2,.14-.2,.19,.05,.99,.57,4.83,.57,4.79,0-.53-.03-4.53-.04-4.82,.06-.16,.7-.51,.68-.53Z"/><path class="cls-20" d="M64.88,22.18s-.03,.07-.07,.11h0s.33,1.78,.85,1.21c.52-.56-.01-11.79-.01-11.79l-.02-.07c-.08-.02-.14-.07-.17-.15-.15-.51-.05-.72-.28-.69-.31,.04-.29,.43-.29,.76,0,.86,.13,5.47,.09,8.16-.01,.89-.02,1.49-.11,2.45Z"/><path class="cls-14" d="M75.73,10.52l-.02,3.15c.26,.44,.49,3.23,.49,3.23,0,0,.33-4.35,.32-5.16-.04-.26-.64-1.08-.8-1.22Z"/><path class="cls-14" d="M54.56,25.72s14.78,1.2,21.16,1.3c6.38,.09,6.13,1.96,6.13,1.96l16.63,1.43s-17.11,.41-26.83,.65c-4.39,.11-7.17-.58-6.3-.03,2.81,1.77-11.34-1.66-11.34-1.66,0,0,.17-.69,.2-1.42,.04-.73,.17-1.88,.21-2,.07-.23,.14-.23,.14-.23Z"/><path class="cls-20" d="M67.2,27.37c-.5,.68,.58,1.05,3.86,.52,3.28-.52-6.06-5.76-6.24-5.61-.96,.76-8.01,2.79-10.26,3.44-.85,.25,13.14,.97,12.64,1.65Z"/></g><path class="cls-14" d="M93.02,2.14s-1.95-.32-2.19-.82c-.24-.5,.09-1.25,.17-1.32,.24-.03,.31,1.11,.74,.81,.65-.14,1.12,.95,1.28,1.33Z"/></g><g><path class="cls-18" d="M42.8,34.65l-6.21-11.48-.19-17.79s-.05-.64-.27-2c-.22-1.37-.83,.57-.99,.76-.16,.19-.82-.37-.83,.05-.08-.15,.03,2.11,.03,2.11v15.08s-.37,.52-.63,0c-.26-.52-.64,.34-.64,.34,0,0-.74-.26-.82-.68-.33-.37,.3-2.17,.3-3.85,0-.62,.05-1.52,.05-1.74-.16-.37-.59,.61-1.14,.71-.55,.1-.98-.16-1.24-.32-.26-.15-.81,0-.81,0V.91s-1.75,.46-2.82,.1c-.56-.04-1.43-.1-1.43-.1l-3.23,.05-3.65,.04s-.83-.12-2.05,.09c-1.45,.25,2.02,1.88-.33,1.86-2.35-.02-3.68,1.21-3.68,1.21l-.66,17.54L.5,34.53H21.93v-.05l20.87,.17Z"/><g><g><path class="cls-19" d="M29.28,.89c.02,.59,.13,10.91,0,14.93-.06,1.74-.4,2.5-.4,2.5,0,0-3.48-17.08-2.82-17.14,.66-.06,.8,1.23,1.49,.63,.03-.07,1.69-1.2,1.74-.93Z"/><path class="cls-20" d="M31.99,26.37c1.57,.53,3.51-4.72,4.47-3.02,2.12,3.76,4.19,7.34,6.38,11.31,.32,.58-11.55,.2-12.86,.03-.44-.06-8.18,0-8.18,0,0,0,5.44-12.72,6.13-13.31,.03-.07,3.87,3.59,4.07,4.99Z"/><path class="cls-19" d="M27.95,1.78c.02,.59-.05,9.15,.65,13.27,.29,1.72,.27,3.32,.27,3.32,0,0-3.48-17.12-2.82-17.18,.66-.06,.8,1.27,1.49,.68,.03-.07,.36-.35,.42-.08Z"/><path class="cls-19" d="M29.28,15.82c.02,.59-.71,4.05-1.36,5.55-1,1.5-4.35,9.21-4.35,9.21,0,0-1.6-10.74-.94-10.81,.66-.06,5.96-7.39,6.65-7.98,.03-.07-.05,3.76,0,4.03Z"/><path class="cls-13" d="M27.21,1.32c-.37,.13,.82,.25,.69,1.04-.11,.68-.14,1.51-.09,2.08,.05,.58,.53,6.21,.53,6.21,0,0-1.07-6.57-1.02-7.66,.03-.73-.95-1.68-.68-1.74,.2,.05,.25,.05,.57,.08Z"/></g><g><path class="cls-16" d="M11.42,21.87c.02,.64,2.87-10.55,2.72-13.41-.15-2.86-.73-4.85-.92-4.82-.26,.03-1.15,.48-1.14,.77,0,.72-.28,4.54-.31,6.8,0,.75-.39,9.22-.35,10.66Z"/><path class="cls-16" d="M34.21,21.55c.02,.64,1.26-9.71,1.11-12.57-.15-2.86-.22-4.66-.42-4.63-.26,.03-.66-.37-.72,0-.13,.71,.02,8.18,.03,10.51,0,.75-.04,5.24,0,6.68Z"/><path class="cls-19" d="M17.19,19.9c.02,.64-.66-9.38-.81-12.24-.15-2.86,0-4.62-.2-4.6-.26,.03-.61,.07-1.19,.1,.08,.78,.55,6.12,.58,7.36,.01,.46-.15,11.54,.3,12.44,.18,.37,1.35,1.28,1.32,.98-.16-1.82-.02-4.73,0-4.05Z"/><path class="cls-19" d="M23,5.51c.43-.48,.18-2.91-2.8-3.72-.41-.11-2.74-.67-2.94-.65-.14,.02-.7,.06-1.25,.06-.49,0-.94,.32-.55,.64,.13,.1,.34,.29,.65,.54,.11,.09,.28,.24,.34,.39l.02,.04c.67,.4,1.81,1.17,2.97,.98,.46-.07,2.73,2.61,3.55,1.71Z"/><path class="cls-16" d="M.36,34.7c-.38,.52,10.63-4.76,12.28-7.11,1.65-2.34,1.34-16.29,1.17-16.39-.23-.14-1.85,7.92-1.85,8.86,0,.72-4.3,5.96-5.38,7.41-.45,.6-5.36,6.06-6.22,7.22Z"/><path class="cls-16" d="M17.19,25.27c.02,.64,5.38-19.84,5.19-19.81-.26,.03-5.91-2.93-5.91-2.65,0,.72,.28,5.1,.26,7.37,0,.75,.42,13.65,.46,15.09Z"/><path class="cls-13" d="M16.47,2.96c-.37,.13,0,2.15,0,2.94,0,1.05,.36,10.58,.36,10.58,0,0-.79-10.05-.75-11.14,.03-.73-.44-2.18-.17-2.24,.23,0,.04-.13,.55-.13Z"/></g></g></g><path class="cls-17" d="M43.43,31.89c.23-.01,2.32-.13,2.33-.06,0,.07-1.67,.13-1.68,.19-.01,.06,1.55,0,1.56,.07,0,.08-.83,.11-.83,.14,0,.03,.68,.04,.69,.13,.01,.1-.45,.1-.75,.14-.33,.05-.59,.13-.16,.26,.44,.13-1.1,.01-.96-.05,.15-.07,.96-.2,.71-.26-.47-.09-1.21-.19-1.15-.26,.06-.07,.77-.04,.79-.1,.03-.06-.77-.2-.55-.21Z"/><path class="cls-17" d="M45.06,34.43c.43-.02,2.35-.55,2.5-.52,.26,.03-1.23,.25-1.25,.36-.02,.11,2.99-.02,3,.14,.02,.15-1.29,.36-2.12,.59-.3,.08-2.73,.67-3.61,.73,1.09-.19,3.35-.8,2-.73-.11,0,1.89-.24,1.4-.33-1.79,0-2.37-.21-1.93-.23Z"/><polygon class="cls-20" points="47.46 27.74 44.67 30.23 48.43 30.23 48.68 28.63 47.97 29.35 47.46 27.74"/><g><path class="cls-22" d="M40.96,14.96h0Z"/><path class="cls-4" d="M40.94,14.96h0Z"/></g><path class="cls-3" d="M38.98,27.56c-.22,.06,.66,.68-.38,.98-.18,.05,1.14,.38,.31,.38h-3.84c.83,.24,.65,.26,1.57,.43,.53,.1,2.61,.32,2.31,.76-.35,.52-10.47,.37-9.35,.45,.38,.03,9.81,.38,9.88,.41,.03,.01,.23,.13-.22,.22-.59,.12-3,.23-2.96,.25,.25,.14,1.71,.14,1.75,.15,.37,.08,1.8-.88,1.86-.15,.06,.72-12.62,.58-12.87,.71-.25,.13,9.45,.68,10.25,.77,.8,.09,2.28,.49,1.12,.53-1.17,.04-8.66-.1-8.66-.1,0,0,5.26,.34,6.55,.39,1.29,.04-3.05,.72-6.28,.68-2.35-.03-3.9,.03-3.9,.03,0,0,.52,.31,4.82,.48,1.06,.04,3.06,0,4.58,.05,0,0,7.46,.18,7.31-.31-.31-.55-3.85-7.1-3.85-7.1Z"/></g></g></g></g></svg>