<?xml version="1.0" encoding="UTF-8"?><svg id="_이어_2" xmlns="http://www.w3.org/2000/svg" viewBox="0 0 12.03 11.98"><defs><style>.cls-1{fill:#a10136;}</style></defs><g id="taiwan"><path id="taiwan-2" class="cls-1" d="M9.17,.89l.28-.2L10.45,.07l.27-.07,.36,.06,.27,.14,.3,.24,.25,.29,.12,.28-.25,.33-.08,.33v.75l-.07,.36-.11,.34-.28,.67-.22,.68-.46,2.11-.26,.82-.35,.7-.9,1.36-.29,.61-.31,1.92-.35-.19-.16-.34-.09-.4-.13-.38-.21-.28-.78-.63-.61-1.76,.05-1.67,.56-1.65,.93-1.7,1.31-1.85,.23-.25ZM.4,2.99l.14-.1-.14-.24-.4,.17,.12,.14,.14,.06,.14-.02Z"/></g></svg>