<?xml version="1.0" encoding="UTF-8"?><svg id="_이어_2" xmlns="http://www.w3.org/2000/svg" viewBox="0 0 104.7 64.76"><defs><style>.cls-1{fill:#a10136;}</style></defs><g id="Mexico"><path id="mexico" class="cls-1" d="M12.05,3.32l.08,.05,.14,.15h-.2l-.07-.05-.04-.18,.1,.03Zm12.46,46.62l-.14,.02-.14,.19,.12,.1,.11,.07,.12,.02,.14-.05-.09-.23-.12-.12Zm63.52,.59h-.24l.46-.24,.23-.07h.23l-.46,.25-.22,.06Zm15.76-6.36l-.13,.33,.07,.43,.25-.21,.23-.27,.18-.3,.1-.3-.4,.1-.29,.22Zm-17.09,19.79l.09-.49,.04-.33-.04-.22-.21-.41-.05-.24,.07-.27,.17-.3,.37-.54,.56-1.1,.24-.28,.31-.18,.35-.07h3.73l-.03-.36,.04-.6-.09-.3-.09-.06-.33-.15-.12-.08-.04-.1-.06-.28-.06-.12-.3-.29-.71-.46-.34-.26-.75-.79-.29-.22h1.38l-.07-1.6,.08-.35,.35-.07,5.68,.08v-.42l.19-.09,.28,.05,.25,.02,.27-.07,.11-.06,.17-.14,.36-.5,.27-.58,.35-.44,.6-.06,.19-.37,.15-.37,.2-.32,.33-.22,.06,1.12,.16,.64,.38,.22,.25-.36,.54-2.05,.35-.91,.03-.24-.1-.11-.15,.05-.14,.11-.06,.06,.1-.36,.5-.41,.1-.38-.46,.07h-.23l-.15-.07-.02-.3,.24-.24,.31-.18,.18-.13,.06-.27-.05-.54,.02-.29,.13-.38,.21-.36,1.46-1.76,.27-.6,.04-.75-.21-.73-.4-.39-.57-.12-.71,.08,.58,.13,.15,.11-.28,.13h-.63l-1.34-.44-.63-.12-.93,.09-2.83,.75-1.19,.17-1.22,.27-1.04,.54-.65,.98-.13,.53-.07,.53-.04,1.08,.02,.5v.25l-.07,.23-.14,.19-.37,.34-.14,.21-.07,.31v.68l-.08,.3-.16,.23-.23,.21-.49,.36-.39,.23-.45,.22-.41,.25-.28,.32,.42-.24-.03,.39,.14,.22,.02,.22-.38,.38-.42,.25-.45,.11-.45-.08-.41-.32,.22-.25-.28-.13-.47-.05h-.35l-.86,.09-.41,.09-.4,.15-.69,.36-.36,.13-.47,.06-.95,.04-.45,.06-.48,.14-1.41,.56-.5,.09h-.44l-.28-.12-.23-.23-.29-.35-.33-.33-.4-.32-.43-.28-.44-.2-.43-.09-.91-.06-.43-.09,.47,.27-.33-.06-.33-.1-.29-.16-.21-.23,.13,.05,.37,.11-.36-.26-.28-.36-.5-.75-.49-.61-.18-.31-.53-1.33-.48-.79-1.23-1.5-.82-1.18-.69-1.39-.56-1.46-.41-1.39,.76,1.1,.22,.37,.08,.29v.56l.07,.35,.13-.57,.04-.33-.13-.29-.71-.99-.32-.51-.18-.57-.13-.62-.06-.53,.02-.42,.18-.93,.06-.56-.02-1.72,.18-2.14,.34-2.14,1.23-3.43,.23-1.17-.21,.05-.22,.12-.18,.12-.11,.05-.3-.08-.6-.34-.3-.13-1.8-.48-1.87-.67-.6-.3-.43-.43-.1-.23-.12-.49-.08-.24-.16-.26-.38-.47-.15-.25-.09-.45v-.97l-.11-.45-.17-.22-.23-.17-.24-.16-.21-.17-.23-.28-.56-.89-.23-.25-.5-.47-.2-.27-.12-.27-.13-.52-.1-.27-.64-1.21-.39-.57-1.64-1.72-.45-.36-.37-.23-.28-.1-.31-.02h-.45l-.7-.04-.58-.09h-.55l-.61,.21-.52,.4-.26,.43-.17,.49-.25,.57-.88,.68-1.15-.14-1.19-.59-1.57-1.05-.48-.44-.39-.52-.28-.64-.36-1.28-.28-.6-.45-.53-2.88-2.22-.88-.58-.24-.26-.42-.6-.25-.22-.52-.06-5.38-.03v1.6l-9.41,.02-.72-.26L11.77,.74l.12-.17,.1-.18,.08-.19,.06-.2L4.2,.65l.16,.47,.23,.5,.26,.47,.26,.41,.62,.56,.16,.29-.35,.14,.11,.2,.15,.42,.1,.22,.19,.25,.47,.45,.18,.27,.06,.19,.05,.4,.06,.18,.19,.24,.47,.41,.18,.25,.07,.28v.59l.09,.27,.14,.15,.35,.24,.14,.19,.07,.28v.63l.04,.24,.08,.2,.13,.22,.16,.22,.15,.18,.49,.4,1.67,.86,.45,.36,1.22,1.38,.82,.8,.34,.45,.16,.52-.03,.35-.12,.33-.14,.33-.11,.33-.11,.21-.13,.16v.09l.3-.02-.03,.26,.03,.25,.1,.22,.19,.19-.32-.04-.26-.15-.16-.24-.03-.31-.59,.25-.59,.02-1.25-.15,.21,.45,.44,.36,.5,.32,.4,.34,.11,.21,.17,.47,.12,.18,.21,.13,.22,.06,.23,.04,.22,.08,.8,.55,.58,.56,.19,.15,.46,.14,.55-.05,.5-.24,.29-.42,.28,1.08,.71,.69,.89,.54,.82,.63,.58,.93,.19,.97-.06,2.06,.2,.79,.48,.62,2.9,2.1,1.43,1.38,.83,.61,.32,.35,.26,.5,.36,1.18,.33,.29,.63-.16,.36-.24,.33-.31,.27-.36,.16-.38,.05-.27v-.22l-.07-.21-.14-.23-.05-.06-.11-.07-.05-.05-.41-.17-.08-.38-.71-1.03-.7-.76-.26-.22-.19-.08-.15,.09v.12l.02,.12-.05,.16-.02,.13-.05,.15-.11,.11-.04-.04-.18-.22-.07-.06-.44-.31-.27-.39-.14-.47-.05-.56,.02-.3,.05-.22v-.22l-.1-.32-.12-.2-.3-.36-.13-.19-.13-.32-.17-.7-.13-.31-.18-.2-.22-.17-.22-.2-.18-.3-.15-.53-.17-1.08-.15-.53-.22-.57-.25-.49-.32-.45-.45-.45-.08,.28,.06,.29,.15,.28,.18,.26-.33-.15-.28-.45-.47-1.05-.02-.2-.06-.12-.11-.1-.27-.13-.11-.09-.16-.29-.15-.64-.13-.28-.2-.2-.52-.34-.23-.19-.24-.3-.14-.27-.34-1.44-.1-.26-.03-.11v-.21l-.06-.1-.11-.07-.29-.06-.11-.06-.27-.37-.4-.72-.27-.27-.19-.14-.17-.14-.32-.33-.17-.25-.33-.66-.2-.29-.48-.47-1.58-1.22-.47-.52-.24-.54-.1-.59-.06-.67-.14-.63-.49-1.19-.19-.6v-.72l.16-.67,.03-.63-.36-.62,1.97,1.07,.57,.21,.37-.05,.32-.11,.44,.02,.24,.12,.15,.16,.11,.18,.13,.16,.19,.16,.18,.12,.22,.1,.3,.09,.35,.14,.46,.24,.26,.23-.26,.11,.11,1.23,.14,.42,.71,1.38,.4,.96,.74,1.29,.2,.53,.06,.12,.13,.15,.31,.29,.13,.17,.11,.26,.14,.53,.14,.26,.14,.15,.31,.26,.14,.14,.1,.14,.28,.5,.22,.25,.68,.54,1.02,1.34,.42,.35,.44,.17,1.46,.19-.22,.53v.55l.17,.54,.31,.48,.44,.37,.95,.44,.36,.34,.11,.25,.07,.28,.11,.26,.2,.21,.24,.07,.51-.04,.24,.04,.41,.31,.27,.45,.22,.48,.27,.42-.27-.19-.4,.45-.28,.54-.09,.59,.19,.59,.36,.34,.43,.07,.44-.15,.39-.32-.12,.25-.41,.45v.16l.14,.04,.15-.05,.14-.06h.12l.25,.07,.11,.06,.26,.18,.59,.52,.31,.21,.69,.29,.33,.17,.25,.24-.21,.05-.21-.02-.2-.08-.18-.12,.39,.67,.44,.58,.52,.48,.62,.36,.21,.04h.22l.17,.09,.04,.24-.13,.15-.25-.08-.28-.17-.24-.12,1.8,1.41,.8,.76,3.8,4.4,.28,.45,.2,.48,.27,1.61,.18,.5,.31,.49,.62,.61,.15,.32-.02,.52-.13,.45-.2,.41-.27,.37-.35,.33,.28,.1,.33,.15,.23,.23v.33l-.2,.17-.26,.04h-.27l-.21,.07-.27,.23-.05,.12,.07,.14,.23,.83,.23,.53,.3,.5,1.47,1.7,.44,.34,2.88,1.49,.85,.74,.41,.46,.35,.34,.41,.27,2.13,.78,.53,.15,.49,.08,1.05,.08,.45,.11,.45,.28,.8,.83,.42,.34,5.77,2.85,.61,.17,1.27,.25,.62,.17,.46,.21,.84,.52,1.01,.47,1.03,.57,.52,.23,.65,.16,1.28,.19,1.25,.46,.6,.16,.62,.05,.64-.1,1.21-.44,2.32-1.05,1.19-.35-.78-.17,.19-.28,.25-.15,.22,.06,.09,.34,.17-.11,.17-.06h.17l.16,.08-.08,.07-.23,.23,.51,.2,1.74,.52-1.27-.77,.04-.14,.68,.19,.76,.51,5.63,5.26,.16-.32,.13-.48ZM20.82,29.46l.06,.25-.17-.27-.12-.29-.15-.24-.28-.13,.18-.43,.12-.45,.15-.93,.05,.4-.15,.81v.41l.06,.29,.25,.58Zm7.29,.94l.25,.44,.07,.15-.17,.05-.11-.14-.05-.24v-.25Zm-7.8-17.86l.18,.71-.15,.6-.14,.17-.28,.03-.33-.11-.13-.2v-.27l.12-.56,.13-.3,.21-.21h.31l.09,.14Zm3.85,11.54l-.02,.09v.08l.03,.16h-.11l-.05-.05-.06,.16-.23,.44,.09-.56,.11-.2,.24-.12Zm-6.95-11.74l.05,.16,.08,.58-.47-.24-.51-.46-.37-.58-.07-.59,.34,.11,.15,.21,.08,.26,.12,.26,.14,.09,.32,.07,.13,.13Zm22.03,27.71l.05,.2-.07,.25-.18-.09-.12-.13-.06-.17v-.21l.23,.03,.15,.13Zm-17.21-9.98l.08,.32-.99-.68,.35-.03,.33,.14,.24,.25Zm3.92-1.9l.03,.24-.22-.12-.17-.17-.1-.2v-.23l.2,.11,.16,.16,.1,.21Zm-15.23-12.01v.32l-.08,.32-.44-.17-.12-.08,.19-.24,.08-.25,.04-.25,.09-.24,.16,.29,.09,.31ZM.45,12.95l.05,.35-.12,.31-.23-.46-.09-.23-.06-.25,.27,.02,.18,.25Zm104.13,28.49l-.07-.06,.03,.1,.05,.08,.06,.07,.05,.07-.04-.1-.03-.09-.04-.07Z"/></g></svg>