<?xml version="1.0" encoding="UTF-8"?><svg id="_이어_2" xmlns="http://www.w3.org/2000/svg" viewBox="0 0 51.74 89.9"><defs><style>.cls-1{fill:#528723;}.cls-2{fill:#645248;}.cls-3{fill:#7f706c;}.cls-4{fill:#5b4b43;}.cls-5{fill:#75625a;}.cls-6{fill:#73a042;}.cls-7{fill:none;}.cls-8{fill:#72605d;}.cls-9{fill:#7c6965;}.cls-10{fill:#897974;}.cls-11{fill:#7d6a61;}</style></defs><g id="Thailand"><g><path class="cls-9" d="M40.76,69.19c-.03,1.6,.56,2.1-.14,3.62-.67,1.47-1.43,2.9-2,4.4-.43,1.11-1.03,2.31-1.21,3.52-.2,1.32-.11,2.32-.5,3.59-.32,1.04-.47,2.97-1.28,3.79-.71,.73-2.14,.63-3.18,.53-2.66-.26-5.21-.22-7.91,.13-2.03,.26-5.27,.85-6.94-.57-1.89-1.6-3.12-3.06-2.98-5.73,.13-2.5-.3-4.34-.83-6.71-.65-2.94-1.28-5.86,.49-8.52,4.68-7.04,15.38-8.16,22.6-5.42l3.89,7.38Z"/><path class="cls-10" d="M46.26,38.62c1.12,4.52-.22,9.81-1.07,14.08-.94,4.71,.01,9.86-1.74,14.35-.49,1.27-.28,2.14-.15,3.5,.08,.81,.16,1.93-.7,2.39-.7,.37-1.76-.64-2.64-.93-1.65-.54-1.61-1.09-2.55-2.42-.79-1.12-1.56-1.6-2.68-.93-1.32,.79-1.44,1.27-3.12,1.2-1.28-.05-2.88,.18-3.6,1.37-.43,.72-.45,2.69-1.87,2.77-1.11,.07-1.42-1.85-2.51-2.29-2.01-.81-2.14,1.11-3.16,2.15-.57,.58-.79,.63-1.57,.7-.63,.06-1.21-.39-1.64-.37-1.84,.1-1.26,2.49-2.79,2.64-.62-1.23-.88-1.77-.95-3.19-2.6-.62-2.13-4.37-2.43-6.46-.39-2.77-2.03-5.93-3.13-8.41-1.21-2.74-1.01-5.54-1.67-8.32-.64-2.68-1.4-5.2,.9-7.2,3.93-3.43,9.1-5.24,14.02-6.48,3.05-.77,6.04-.83,9.21-.83,2.78,0,6.72-.83,9.26,0l6.57,2.68Z"/><path class="cls-11" d="M2.53,22.13c-.1-.39,0-.98,.03-1.37,.87-.48,2.4,.2,3.56,0,.51,1.04,.5,2.23,.98,3.24,.58,1.22,1.59,1.72,1.89,3.13,1.78-.26,2.73,.81,3.22,2.41,1.43-.06,1.68-2.17,3.18-2.59,1.29-.36,3.32,.28,4.62,.62,1.36,.36,3.19,1.79,4.65,1.05,1.29-.66,1.57-3.36,1.63-4.65,2.04-1.43,5.7,1.77,6.03-1.61,3.13-1.84,3.63,1.75,6,2.42,2.89,.82,3.52-4.21,5.63-5.9,1.93,1.87,1.11,4.92,2.05,7.26,.5,1.24,1.09,2.1,1.41,3.36,.35,1.36,.22,2.65,.34,4.07,.27,3,1.35,6.06-2.03,7.64-.58,.27-1.52,.74-2.15,.76-1.06,.03-1.14-.77-1.9-.93-1.48-.3-2.81,1.75-3.95,2.35-1.64,.86-2.98,1.04-4.64,2.27-1.22,.9-3.05,3.69-4.63,3.01-.64-.28-.83-1.13-1.4-1.61-.65-.55-1.42-.21-1.68-1.03-1.13-.12-2.03,.57-2.37,1.59-1.32,.59-3-.48-4.39-.77-1.92-.41-2.93-.3-4.67-.04-1.93,.28-2.84-.34-4.58,.69-1.21,.72-2.48,2.45-3.99,2.13-.44-.95,.2-1.49,.12-2.38-.1-1.1-.62-1.28-.96-2.2-.63-1.68-.55-3.84-.82-5.64-.53-3.53-1.38-7.22-1.23-10.83-.33,.06-.43-.18-.57-.23l.6-6.24Z"/><path class="cls-2" d="M44.11,20.79c0-3.08-.25-4.92-1.78-7.51-1.13-1.92-2.9-5.04-4.93-6.04-1.18-.59-2.53-.63-3.76-1.37-1.26-.75-2.36-1.75-3.88-1.97-1.45-.22-3.18,.26-4.8,.26-1.4,0-3.08,.26-4.45,0-1.64-.31-2.42-1.33-4.17-.9-1.38,.33-3.33,1.05-4.49,1.88-1.27,.9-.99,2.26-2.11,3.21-.94,.8-2.15,.77-3.16,1.48-1.39,.98-1.27,2.35-1.5,3.89-.23,1.52-1.07,2.48-1.64,3.83-.4,.93-.69,2.09-.94,3.12-.36,1.46,.06,1.98,.41,3.24,.24,.87-.32,2.24,.03,2.81,.25-.6,.02-1.5,.27-2.16,.23-.61,.75-1.06,1.1-1.59,2.19-.69,2.11,5.98,3.71,7.04,.03-1.06,.97-2.31,2.01-1.4,.67,.59,.65,2.5,1.4,3.19,1.37,1.26,1.57-.46,2.48-.95,2.01-1.07,1.25,1.24,1.87,1.79,1.14,1.01,2.32-5.73,4.34-4.97,.89,.33,1.35,2.51,1.73,3.29,.25,.51,.76,.95,.97,1.34,.23,.44,.11,1.32,.36,1.76,1.14,2,2.02-2.92,2.29-3.73,.42-1.28,.75-1.62,2.06-1.88,1.21-.23,2.3,.39,3.29,.28,.89-.1,1.6-1.06,2.72-1.08,1.04-.02,1.59,.32,2.42,.91,1.6,1.12,2.73,2.18,4.63,.81,.07-.05,.01-.82,.02-.93,.03-.39,.09-.8,.2-1.18,.12-.42,.3-.85,.68-1.1,.34-.22,.75-.21,.93-.64,.37-.89,.7-1.86,1.01-2.78,.18-.54,.66-1.36,.66-1.94Z"/><path class="cls-8" d="M25.67,86.91c-.9-4.9-1.03-9.89-.92-14.85,.08-3.48,.48-7,.15-10.47-.04-.25-.09-.5-.13-.75-4.21,.8-8.11,2.84-10.47,6.4-1.77,2.66-1.14,5.58-.49,8.52,.52,2.37,.96,4.2,.83,6.71-.14,2.67,1.1,4.13,2.98,5.73,1.67,1.42,4.91,.83,6.94,.57,.5-.07,1-.12,1.49-.16-.15-.56-.27-1.13-.38-1.7Z"/><path class="cls-3" d="M24.75,72.06c.08-3.48,.48-7,.15-10.47-.65-3.92-1.95-7.68-2.89-11.53-.63-2.57-1.09-5.21-1.24-7.85-.1-1.83,.06-3.61,.29-5.4-4.87,1.24-9.96,3.04-13.85,6.44-2.3,2-1.54,4.52-.9,7.2,.66,2.77,.46,5.57,1.67,8.32,1.1,2.49,2.73,5.64,3.13,8.41,.3,2.09-.18,5.83,2.43,6.46,.07,1.42,.33,1.96,.95,3.19,1.53-.15,.95-2.55,2.79-2.64,.42-.02,1.01,.43,1.64,.37,.78-.07,1-.12,1.57-.7,1.02-1.04,1.15-2.96,3.16-2.15,.46,.18,.78,.63,1.08,1.09,0-.25,0-.49,.01-.74Z"/><path class="cls-5" d="M20.77,42.21c-.13-2.35,.18-4.64,.5-6.95,.29-2.32,.45-4.65,.52-6.97-.62-.27-1.22-.58-1.75-.72-1.29-.34-3.33-.98-4.62-.62-1.51,.42-1.76,2.53-3.18,2.59-.5-1.6-1.44-2.67-3.22-2.41-.3-1.41-1.32-1.91-1.89-3.13-.48-1.01-.47-2.2-.98-3.24-1.16,.21-2.69-.47-3.56,0-.04,.39-.14,.98-.04,1.37l-.6,6.24c.14,.05,.24,.29,.57,.23-.16,3.61,.7,7.3,1.23,10.83,.27,1.8,.19,3.96,.82,5.64,.34,.92,.86,1.1,.96,2.2,.08,.89-.56,1.42-.12,2.38,1.5,.32,2.78-1.42,3.99-2.13,1.74-1.03,2.66-.41,4.58-.69,1.74-.25,2.75-.36,4.67,.04,.89,.19,1.9,.69,2.85,.88-.36-1.83-.62-3.68-.73-5.53Z"/><path class="cls-4" d="M20.31,6.21c-.1-.73-.2-1.45-.3-2.18-1.3-.39-2.09-1.15-3.65-.78-1.38,.33-3.33,1.05-4.49,1.88-1.27,.9-.99,2.26-2.11,3.21-.94,.8-2.15,.77-3.16,1.48-1.39,.98-1.27,2.35-1.5,3.89-.23,1.52-1.07,2.48-1.64,3.83-.4,.93-.69,2.09-.94,3.12-.36,1.46,.06,1.98,.41,3.24,.24,.87-.32,2.24,.03,2.81,.25-.6,.02-1.5,.27-2.16,.23-.61,.75-1.06,1.1-1.59,2.19-.69,2.11,5.98,3.71,7.04,.03-1.06,.97-2.31,2.01-1.4,.67,.59,.65,2.5,1.4,3.19,1.37,1.26,1.57-.46,2.48-.95,2.01-1.07,1.25,1.24,1.87,1.79,1.14,1.01,2.32-5.73,4.34-4.97,.76,.29,1.21,1.91,1.56,2.87,.47-8.11-.33-16.26-1.38-24.3Z"/><path class="cls-6" d="M41.7,41.9c-.3-.23-.6-.5-1.06-.37-.02,.02-.07,.13-.09,.15-.65-.53-.67-.01-1.3,.06-.47,.05-2.12-1.01-1.93,.3-.51-.01-1.23,.48-1.3,1-.44,.01-1.92,.7-1.15,1.14-.48,.16-.88,.66-.92,1.16-1.21,.2-.84,1.25,.29,1.15,.03-.16,.15-.27,.18-.42,.39,.78,1.05,.65,1.75,.34,.16-.82,.84,.22,1.17,.23,.34,.01,.88-.57,.93-.9,.85-.06,1.8,.83,2.08-.31,.68,.2,1.32,.03,1.38-.76,.51,0,1.09,0,1-.69,.9-.23,.94-1.65-.06-1.68,.05-.19-.05-.22-.04-.39-.17-.04-.31-.11-.5-.1,.16,.2,.34,.16,.59,.16l-1-.08Z"/><path class="cls-6" d="M27.85,3.29c-.26-.36-.5-.76-1.06-.77-.03,.02-.12,.12-.15,.14-.55-.8-.74-.23-1.48-.37-.54-.1-2.04-1.83-2.26-.3-.56-.18-1.54,.13-1.79,.68-.5-.13-2.38,.15-1.66,.9-.59,.02-1.2,.44-1.42,.99-1.41-.18-1.35,1.11-.06,1.38,.09-.16,.26-.25,.34-.41,.17,1,.96,1.08,1.84,.97,.45-.87,.86,.53,1.23,.65,.38,.13,1.17-.34,1.33-.7,.97,.22,1.73,1.52,2.42,.34,.69,.45,1.46,.47,1.79-.4,.57,.18,1.21,.36,1.34-.44,1.08,.05,1.6-1.52,.49-1.9,.11-.2,.02-.26,.09-.45-.18-.1-.31-.23-.52-.27,.12,.27,.32,.28,.6,.37l-1.09-.42Z"/><path class="cls-1" d="M21.54,6.24c-.26-.36-.5-.76-1.06-.77-.03,.02-.12,.12-.15,.14-.55-.8-.74-.23-1.48-.37-.54-.1-2.04-1.83-2.26-.3-.56-.18-1.54,.13-1.79,.68-.5-.13-2.38,.15-1.66,.9-.59,.02-1.2,.44-1.42,.99-1.41-.18-1.35,1.11-.06,1.38,.09-.16,.26-.25,.34-.41,.17,1,.96,1.08,1.84,.97,.45-.87,.86,.53,1.23,.65,.38,.13,1.17-.34,1.33-.7,.97,.22,1.73,1.52,2.42,.34,.69,.45,1.46,.47,1.79-.4,.57,.18,1.21,.36,1.34-.44,1.08,.05,1.6-1.52,.49-1.9,.11-.2,.02-.26,.09-.45-.18-.1-.31-.23-.52-.27,.12,.27,.32,.28,.6,.37l-1.09-.42Z"/><path class="cls-1" d="M35.03,43.7c-.24-.12-.82-.43-.89,.03-.32,.04-1-.19-.88,.42-.32,.04-1.43-.5-1.46,.15-.24-.11-.41-.33-.72-.38-.33-.05-.35,.09-.61,.14-.37,.08-.71-.24-.77,.32-.02,.16,.05,.59,.15,.72-.24,.02-.47-.02-.68,.09-.07,.04-.06,.2-.11,.23-.1,.06-.25-.02-.35,.02-.17,.08-.38,.35-.32,.53,.04,.12,.31,.15,.41,.28-.02,0-.04,0-.05,0-.04,.66,.19,.66,.75,.69,.12,.64-.31,.59-.79,.61,.01,.11-.03,.22,.02,.33-.72-.06-.71,.73-.19,.96,.24,.1,.67,.22,.96,.2,.22-.01,.88-.18,.52-.5,.25,0,1.01,.13,1.17-.04,.08-.09,0-.57-.02-.69,.48,.09,.64-.24,.58-.65,.4,.02,.56,.35,.82-.07,.11-.17,.13-.46,.12-.65,.74-.04,1.49,.02,1.5-.88,.51-.01,1.38-.32,1.3-.98,0-.1,0,.04,0,.06l-.46-.96Z"/><path class="cls-1" d="M9.65,13.13c-.1,.29-.37,1.02,.18,1.02,.1,.36-.07,1.18,.62,.95,.09,.37-.35,1.73,.41,1.66-.08,.3-.32,.52-.32,.9,0,.39,.16,.39,.26,.69,.15,.42-.17,.86,.48,.84,.19,0,.68-.15,.81-.29,.06,.27,.04,.54,.21,.77,.05,.07,.24,.03,.29,.09,.08,.11,.01,.29,.08,.4,.11,.18,.46,.39,.67,.28,.13-.07,.12-.38,.26-.52,0,.02,0,.04,.01,.06,.77-.06,.74-.32,.68-.98,.72-.24,.73,.27,.83,.81,.13-.03,.26,0,.38-.08,.04,.84,.96,.71,1.13,.07,.08-.29,.15-.8,.08-1.14-.05-.26-.35-.99-.66-.52-.03-.29,0-1.19-.23-1.34-.12-.08-.66,.08-.79,.13,.03-.57-.37-.71-.84-.57-.04-.46,.31-.7-.21-.94-.21-.1-.55-.08-.77-.03-.16-.85-.2-1.72-1.25-1.59-.09-.58-.59-1.54-1.34-1.35-.12,.02,.04,0,.06,0l-1.04,.68Z"/><path class="cls-1" d="M22.84,15.05c.03,.31,.06,1.08,.57,.87,.23,.29,.41,1.11,.95,.63,.23,.3,.37,1.73,1.03,1.36,.04,.31-.09,.6,.06,.95,.15,.36,.3,.3,.51,.53,.31,.32,.19,.85,.78,.58,.17-.08,.56-.41,.63-.58,.16,.23,.26,.48,.5,.62,.08,.04,.24-.07,.3-.03,.12,.07,.13,.26,.23,.33,.18,.12,.58,.17,.72,0,.09-.11-.04-.4,.03-.57,0,.02,.02,.04,.04,.05,.69-.36,.55-.59,.24-1.17,.56-.5,.77-.04,1.08,.41,.1-.08,.24-.1,.32-.22,.37,.75,1.16,.27,1.07-.39-.04-.3-.18-.8-.37-1.08-.15-.22-.71-.77-.81-.21-.15-.26-.48-1.09-.75-1.14-.14-.03-.58,.34-.67,.43-.2-.53-.62-.5-1-.19-.22-.41,0-.77-.56-.78-.23,0-.53,.15-.72,.28-.48-.71-.87-1.5-1.78-.96-.32-.5-1.15-1.18-1.76-.7-.1,.06,.04-.02,.06-.03l-.68,1.04Z"/><path class="cls-6" d="M4.55,41.44c-.24-.05-.48-.09-.73-.06,.03,.09,0,.21,.05,.31-.32-.02-.68-.09-.74,.27-.63-.13-.63,.41-.3,.75-.71-.08-.79,.08-.76,.67,.03,.58,.27,.48,.55,.99-.56,.54,.38,1.18,.9,1.16-.06,.56,.76,.71,1.21,.67,.02,.07,.02,.17,.02,.25,.43,.11,.25,.55,.66,.75,.32,.15,.75-.1,1.13,.01,0,.09,.03,.22,.02,.31,.25,.09,.47,.26,.72,.36-.03,.32-.28,.52-.23,.85,.33,.04,.57,.29,.71,.53-.26,.18-.39,.49-.39,.8,.46,.06,1.56,0,1-.7,1.18-.04,.3-.27,.47-1.07,.49,.04,.86-.07,.72-.67-.29-.02-.62-.1-.67-.42,.05-.02,.14-.05,.2-.07,.11-.41-.63-1.14-.99-1.28,.62-.51,.35-1.09-.22-1.26,.05,0,.15-.01,.2-.01,.1-.42-.03-.81-.44-1,.54,.06,.78-.62,.65-1.07-.15-.53-.82-.73-1.33-.88,.03-.18-.06-.42-.03-.58-.35-.06-.72-.21-1.05-.17-.26-.59-.96,.03-1,.29l-.34,.27Z"/><path class="cls-6" d="M22.79,15.82c-.24-.05-.48-.09-.73-.06,.03,.09,0,.22,.05,.31-.32-.02-.68-.09-.74,.27-.63-.13-.63,.41-.3,.75-.71-.08-.79,.08-.76,.67,.03,.58,.27,.48,.55,.99-.56,.54,.38,1.18,.9,1.16-.06,.56,.76,.71,1.21,.67,.02,.07,.02,.17,.02,.25,.43,.11,.25,.56,.66,.75,.32,.15,.75-.1,1.13,.01-.01,.09,.03,.22,.02,.31,.25,.1,.47,.26,.72,.36-.03,.32-.28,.52-.23,.85,.33,.04,.57,.29,.71,.53-.26,.18-.39,.49-.39,.8,.46,.06,1.56,0,1-.7,1.18-.04,.3-.27,.47-1.07,.49,.04,.86-.07,.72-.67-.29-.02-.62-.1-.67-.42,.05-.02,.14-.05,.2-.07,.11-.41-.63-1.14-.99-1.28,.62-.51,.35-1.09-.22-1.26,.05,0,.15-.01,.2-.01,.1-.42-.03-.81-.44-1,.54,.06,.78-.62,.65-1.07-.15-.53-.82-.73-1.33-.88,.03-.18-.06-.42-.03-.58-.35-.06-.72-.21-1.05-.17-.26-.59-.96,.03-1,.29l-.34,.27Z"/><path class="cls-1" d="M5.63,47.17c-.36-.07-.57-.21-.97-.2-.05,.14-.07,.26,.02,.37-.5,0-.62,.17-.79,.61-.03,.07,.02,.15-.01,.22-.04,.07-.21,.07-.23,.17-.04,.17,.19,.37,.34,.48-.43,.21-.09,.96,.37,.9-.02,.33,.22,.75,.6,.66,.01-.06,.07-.1,.08-.16,.22,.3,1.01,.48,1-.07,.39,.07,.71,.14,.69-.37,.28,0,.55,.05,.52-.33,.63,.08,.66-.98,.23-1.05,.39,.12,.77-.96,.24-1.1,.03-.42-.26-.8-.71-.73,.02,0,.06,.04,.09,.06-.06-.27-.54-.43-.8-.43,.04,.45-.73-.06-.67,.43,.08,0,.19,.05,.26,.04l-.27,.5Z"/><path class="cls-6" d="M13.94,46.84c.08-.39,.49-.41,.76-.24,.29-.7,.83-.13,1.29,0,.2-.72,1.45-.78,1.71-.1,.18-.04,.45-.16,.67-.09,.2,.07,.23,.27,.42,.35,.31,.12,1.12-.06,1.15,.49,.61,.09,1.18-.18,1.24,.72-.16,.04-.32,.01-.44-.09-.09,.07-.25,.24-.36,.27-.24,.05-.34-.18-.5-.21-.34-.05-.81,.31-1.06-.15-.09,.14-.25,.53-.36,.59-.18,.11-.66,.06-.81-.08,.02,.53-.89,.49-1.08,.08-.34,.29-.74,.17-1.05-.09-.12-.1-.08-.28-.32-.36-.17-.06-.28,.1-.45,.05-.18-.06-.23-.27-.4-.32-.19-.05-.35,.1-.55,.08-.24-.02-.93-.21-.93-.43-.14-.02-.22-.1-.34-.15,.03-.13,.11-.21,.22-.28,.27-.09,.59-.03,.89-.03h.31Z"/><path class="cls-1" d="M10.19,30.87c.08-.39,.49-.41,.76-.24,.29-.7,.83-.12,1.29,0,.2-.72,1.45-.78,1.71-.1,.18-.04,.45-.16,.67-.08,.2,.07,.23,.27,.42,.35,.31,.12,1.12-.06,1.15,.49,.61,.09,1.18-.18,1.24,.72-.16,.04-.32,.01-.44-.09-.09,.07-.25,.24-.36,.27-.24,.05-.34-.18-.5-.21-.34-.05-.81,.31-1.06-.15-.09,.14-.25,.53-.36,.59-.18,.11-.66,.06-.81-.08,.02,.53-.89,.49-1.08,.08-.34,.29-.74,.17-1.05-.09-.12-.1-.08-.28-.32-.36-.17-.06-.28,.1-.45,.05-.18-.06-.23-.27-.4-.32-.19-.05-.35,.1-.55,.08-.24-.02-.93-.21-.93-.43-.14-.02-.22-.1-.34-.15,.03-.13,.11-.22,.22-.28,.27-.09,.59-.04,.89-.04h.31Z"/><path class="cls-6" d="M28.38,28.09c.01-.41,.42-.47,.71-.34,.17-.74,.8-.25,1.27-.2,.09-.74,1.31-1,1.68-.36,.17-.07,.42-.22,.64-.19,.21,.03,.27,.23,.47,.28,.32,.07,1.09-.23,1.21,.3,.62,0,1.14-.36,1.34,.51-.16,.06-.31,.06-.45-.02-.08,.08-.2,.28-.31,.32-.23,.08-.36-.13-.53-.12-.35,0-.75,.43-1.07,.02-.07,.15-.16,.56-.26,.64-.16,.14-.64,.17-.81,.05,.11,.52-.8,.62-1.05,.25-.29,.34-.71,.28-1.05,.07-.13-.08-.13-.26-.38-.3-.17-.03-.26,.15-.43,.12-.19-.03-.27-.23-.44-.25-.19-.02-.33,.15-.53,.17-.24,.01-.95-.06-.99-.28-.14,0-.23-.07-.36-.09,0-.13,.07-.25,.17-.33,.25-.13,.58-.15,.87-.19l.31-.05Z"/><path class="cls-6" d="M44.15,63.69c-.28-.31-.48,.25-.15,.45-.2,.03-.44,.09-.46,.33-.24-.05-.38,.06-.49,.24-.15,.26-.03,.28,0,.56-.12,.01-.22,.08-.27,.19-.04,.11,.07,.2,.06,.26-.02,.14-.13,.15-.21,.21-.04,.02-.09,.01-.13,.04-.06,.04-.05,.14-.11,.18-.21,.16-.51-.08-.77,.1-.16,.1-.41,.5-.11,.56,0,.02,0,.06,0,.08-.08,.04-.29,.1-.33,.19-.04,.1,.06,.15,.1,.25,.05,.12,.02,.25,.15,.33,.1,.06,.2,0,.3,.07,.36,.23,.04,.42,.24,.63,.09,.09,.44,.23,.56,.24-.21,0-.13,.43-.03,.54,.13,.14,.32,.02,.5,.09-.02-.07,0-.1-.09-.16,.25,.09,.38-.04,.46-.26,.07-.17,.04-.15,0-.3-.03-.11-.1-.15-.05-.28,.07,0,.14,0,.22,.02,.02-.12,.07-.23,.13-.33,.08-.13,.15-.13,.24-.23,.22-.23,.02-.37-.08-.62,.43,.04,.19-.74,.23-.96,.03-.19,.15-.29,.1-.51-.02-.1-.08-.17-.09-.27,0-.07,.04-.15,.03-.22,.12-.07,.21-.3,.11-.4,.16-.17,.13-.34,.18-.55-.2-.14,.27-.48,0-.67,.12-.47-.39-.23-.25-.03l-.03,.22Z"/><path class="cls-6" d="M45.65,27.42c-.47,.23-.02,1.13,.38,1.26-.57,.31-.82,.31-.72,1.05-.53,.15-.53,.94-.04,1.16-.3,.47-1.03,1.85-.15,1.97,.41,1.12-2.09,.42-1.71,1.95-.59,.31,.22,1,.29,1.25,.02,.07-.27,.28-.21,.44,.06,.14,.24,.06,.29,.15,.13,.25,.37,.26,.34,.65,.51,.06,.26,.68,.85,.76-.13,.98,1.91,.73,2.47,.78-.26,0-.24-.07-.37-.16,.64-.14,1.02,.34,1.68,.17,.02-.08,.06-.23,.06-.32,.21-.15,.22-.06,.25-.36,.59,.02,1.13,.06,1.34-.54,.15-.43,.03-.86-.58-.69,.78,.07,.38-1.2-.3-.97,.23-.01,.11-.61-.01-.88,.41-.03,.55,.16,.81-.14,.22-.25,0-.58,.24-.79,.09-.53-.29-.72-.76-.6,.55,.27,.51-.5,.43-.83-.26,0-.53,.05-.79,.04-.05-.78-.93-.48-1.45-.47-.4-.58,.01-1.05,.39-1.51,.21-.25,.58-.13,.55-.65-.02-.45-.35-.52-.65-.8,.35-.38,1.14-.57,1-1.24-.52-.16-1.49-.82-1.73-1.33-.1,0-.2-.04-.28-.05,.16-.56,.07-1.45-.58-1.56-.13,.07-.3,.45-.37,.5-.09,.07-.54,.16-.57,.26-.06,.21,.27,.34,.32,.55,.05,.21-.08,.47-.03,.75-.16,.07-.26,.16-.42,.18,.26-.09,.47-.25,.76-.27l-.72,.27Z"/><path class="cls-1" d="M48.34,31.83c-.24-.32,.57-.2,.73-.05,.13-.25,.92-.39,1.02,0,.24-.11,1.09-.07,.97,.35,.18,.02,.61,.31,.41,.48,0,.14,.03,.13-.04,.26,.2,.09,.54,.51,.11,.48,.16,.21,.1,.73-.24,.73-.08,.17-.34,.14-.48,.02-.07,.16-.31,.13-.46,.07-.25,.25-.62,.12-.59-.25-.16,.1-.5,.06-.56-.18,.13-.05,.13-.08,.18-.18-.38,.02-.42-.04-.63-.32-.04-.05,.02-.15-.03-.2-.09-.09-.24-.02-.32-.08-.09-.07-.17-.09-.21-.21,.03-.01,.07-.03,.1-.05-.12-.13-.32-.2-.4-.36,.05-.05,.09-.05,.16-.05l.26-.43Z"/><path class="cls-1" d="M44,35.71c-.22-.03-.75-.19-.62,.25-.18-.03-.75-.2-.66,.16-.18-.07-1.25-.15-.91,.12-.52,.29-.17,.61-.04,.98,.1,.3-.19,.82,.28,.95-.4,.44-.2,.69,.22,.9-.17,.52,.4,.41,.69,.53,.13,.05,.2,.18,.35,.24,.2,.08,.53-.01,.74-.02,.01,.14,.36,.43,.48,.48,.34,.15,.68-.04,.89-.3,.27,.17,.56,.25,.88,.18,0-.06,.04-.1,.04-.16,.42-.02,.8-.18,.75-.6,.44,.04,.4-.56,.3-.83,.41-.45-.27-.66-.46-.87-.13-.13-.21-.6-.53-.32-.15-.2-.46-.18-.67-.09-.01-.27-.25-.64-.55-.56-.07-.16-.27-.22-.44-.22-.04-.12-.05-.14-.17-.18,.07,.02,.09,.07,.14,.12l-.71-.74Z"/><path class="cls-6" d="M33.48,5.45c-.66,.01-1.44-.27-2.07-.34-.39-.04-2.7-.03-1.47,.88-.11,0-.3,.04-.38,.03,0,.58,.5,1.02,1.03,1.22-.82,1.91,1.88,1.4,2.8,1.52,.97,.13,1.79,2.13,2.79,1.01,.45,.69,1.85,1.72,2.63,1.05,.28,.28,.58,.55,.91,.73-.23,.59,.02,1.1,.72,1.16-.22,1,1.07,1.5,1.79,1.67,.33-.6,0-.62-.06-1.08-.06-.4,.2-.92,.15-1.23-.14-.78-.59-.44-.98-.98-.16-.22-.05-.46-.16-.63-.15-.23-.46-.44-.61-.65-.29-.42-.33-.81-.73-1.22-.28-.29-.82-.35-1.05-.65-.11-.15,.09-.47-.01-.61-.21-.28-.42-.32-.7-.54-.46-.36-.96-.72-1.68-.72-.1-.3-.33-.48-.64-.54-.09-.9-.47-.84-1.18-.99-.48-.1-1.86-.58-1.79,.02l.71,.89Z"/><path class="cls-6" d="M3.68,16.7c-.4,.19-.57,.91-.14,1.16-.78,.14-2.15,1.28-1.09,1.99-.01,.06-.09,.31-.12,.39-.38,.01-1.01,1.29-.6,1.5-.34,.17-.96,.89-.34,1.13-.1,.79,.46,1.32,1.02,1.53-.28,.53,.17,.77,.26,1.19,.06,.26-.13,.49-.05,.76,.11,.36,.35,.31,.5,.55,.22,.37,.03,.96,.49,1.22,.62,.36,.86-.5,.35-.72,.1-.4,.18-.83,.06-1.25,.99-.08,.22-1.69,.44-2.02,.18-.28,.62-.15,.62-.78,0-.4-.19-.59-.4-.91,.06,0,.22-.06,.32-.06,.27-.82,.21-1.58-.44-2.12,.46-.03,.67,.07,.97-.3,.38-.46,.05-.74-.09-1.12-.26-.71-.12-.19,.29-.67,.27-.31,.19-.75,.48-1.06-1.29-.44-.9-.29-.6-1.29,.12-.4,.29-1.16-.14-1.41,.22-.35,.38-1.31-.11-1.4-.07,.31-.14,.61-.3,.92-.13,.25-.39,.36-.5,.57-.28,.52-.27,1.22-.62,1.73l-.27,.47Z"/><path class="cls-7" d="M5.43,20.92c.08-.01,.16,0,.23,.04,.01,.14,0,.2-.12,.26,.24,.06,.15,.24,.26,.36,.12,.13,.46,.12,.27,.35,.08,.08,.29,.21,.33,.31,.05,.13-.04,.23-.03,.33,.02,.2,.1,.4,.26,.55,.29,.27,.59,.43,.64,.88,.46,.14,.31,.54,.07,.78,.07,.11,.2,.29,.2,.43,0,.22-.21,.26-.26,.41-.12,.32,.12,.46-.34,.56-.11,.02-.33,.06-.44,.03-.23-.06-.21-.27-.39-.36-.15-.07-.16,.03-.3,.02-.19-.01-.33-.09-.53-.2,.19-.25-.17-.32-.21-.54,0-.05,.11-.2,.1-.31,0-.11-.11-.24-.16-.33,0,0,.05-.02,.06-.03-.13-.11-.33-.08-.45-.23-.1-.13-.13-.35-.19-.5-.11-.29-.06-.25-.04-.51,.03-.26-.08-.35-.13-.56-.07-.28,.15-.6,.29-.88,.09-.17,.23-.21,.14-.44-.05-.13-.41-.45-.54-.51,0-.19,0-.38,0-.57,0-.31-.05-.44,.27-.39,.24,.04,.21,.14,.38,.29,.1,.1,.25,.17,.39,.28,.01,.03,0,.06,0,.09"/><path class="cls-1" d="M5.12,19.51c-.18-.12-.94-.1-.61,.24-.11,.11-.4,.26-.45,.43-.06,.24,.13,.21,.15,.37,.02,.1-.16,.12-.11,.24,.03,.08,.2,.16,.27,.22-.36,.19-.07,.4,.11,.54-.13,.15-.34,.46-.14,.61-.26,.38-.36,.5,.1,.77-.3,.32,.01,.29,.06,.5,.05,.21-.1,.27-.06,.49,.03,.02,.06,0,.09,0-.03,.36,.73,.31,.96,.42,.14,.07,.22,.22,.39,.27-.32,.4,.4,.43,.38,.74,.27,.13,.37,0,.6-.06,.36-.09,.45-.02,.12-.34,.12-.14,.19-.46-.02-.54,.07-.23-.06-.41-.26-.56,.28-.11,.13-.5,.06-.7,.58-.06-.51-.84-.51-.86,0-.09,.21-.24,.24-.38,.04-.2-.05-.42-.1-.6,.32,0,.09-.42,0-.55,.12-.21,0-.4,.2-.55,.15-.11,.55-.05,.36-.4,.46,.04,.06-.58-.09-.71,.36-.28-.43-.53-.64-.53,0-.03,0-.07,0-.1-.14-.03-.29-.06-.42-.02-.25-.35-1.14-.24-.75,.08-.31-.03-.23,.32-.12,.47l.17,.5Z"/><path class="cls-6" d="M37.21,21.12c-.21,.54-1.1,2.14,.11,2.48-.29,.46,.01,.79,.29,1.15,.21,.27,.27,.31,.41,.59,.1,.21,.07,.4,.21,.59,.18,.08,.22,.91,.24,1.15,.03,.4-.07,.45,.07,.86,.1,.3,.24,.45,.4,.7,.35,.54,.25,.51,.15,1.12-.07,.41-.16,1.36,.39,1.35,.26,.31,.27,.88,.6,1.05,.6-.32,.51-1.32,.16-1.93,.08,0,.17-.02,.25-.02,.39-.56,.2-1.07,.21-1.6,0-.27,.17-.33,.14-.6-.04-.37-.35-.62-.32-1,1.25-.35,.35-1.14,.92-1.89,.06-.07,.39-.03,.53-.2,.04-.05,.05-.43,.06-.48,.05-.53-.1-.55-.38-.97,.38-.24,.43-.88,.22-1.29,.53-.61-.5-1.37-1.07-1.47-.02,.04-.04,.08-.05,.12-.49-.21-.77-.99-1.43-.67-.23-.52-1.65-.52-1.5,.2-.22-.02-.51,.01-.66,.08l.07,.67Z"/><path class="cls-1" d="M37.08,23.91c-.18-.01-.17,0-.21,0-.02,.1,0,.17,.1,.22-.14-.03-.41,.06-.26,.22-.1,.02-.15,.08-.13,.18,.02,.01,.05,.02,.07,.03-.09,.01-.24,0-.2,.15,.01,.01,.04,.02,.06,.03-.18,.25,.07,.5,.32,.56-.07,.09-.1,.2,.02,.25,0,.02,0,.08-.02,.1,.1,.03,.14,.09,.2,.14,.12,.09,.17,.1,.3,.16,.26,.13,.04,.21,.18,.42-.21,.04-.12,.41,.05,.43-.15,.18,.07,.25,.21,.31-.02,.04,0,.11,0,.15,.26,.06,.27,.07,.24,.3,0,.08-.03,.2-.02,.29,0,.06,.1,.06,.11,.11,0,.04-.06,.09-.05,.13,0,.06,.05,.21,.05,.27,0,.1-.09,.16-.06,.29,.02,.09,.2,.27,.27,.34,.07,0,.11,.05,.17,.07,.02,.35,.06,.76,.43,.87-.01,.05,.02,.12,0,.17,.09,0,.18,0,.26,0-.1-.15-.02-.4-.09-.58,.15-.16,.42-.52,.39-.76-.02-.13-.11-.12-.16-.21-.04-.08-.04-.14-.07-.23-.06-.17-.21-.27-.27-.42-.06-.15,.01-.26,.04-.39,.01-.07,.04-.12,.03-.2,0-.09-.08-.14-.08-.22-.01-.12,.01-.23-.01-.33-.02-.08-.07-.27-.13-.34,.12-.11,.04-.29-.03-.41,.17-.13,.05-.39-.15-.41,.04-.1,.02-.17-.05-.25-.05-.06-.17-.04-.21-.1-.03-.04-.02-.15-.03-.2-.04-.17-.01-.13,0-.29,0-.16,.05-.31-.15-.39,.02-.26-.15-.44-.42-.4,.02-.06,0-.12,.01-.18-.03,0-.05-.02-.08-.03,.18-.41-.7-.81-.72-.27,.01,0,.08,0,.1,0-.06,.05-.17,.12,.02,.2v.2Z"/><path class="cls-6" d="M8.38,57.06c-.21,.54-1.1,2.14,.11,2.48-.29,.46,.01,.79,.29,1.15,.21,.27,.27,.31,.41,.59,.1,.21,.07,.4,.21,.59,.18,.08,.22,.91,.24,1.15,.03,.4-.07,.45,.07,.86,.1,.3,.24,.45,.4,.7,.35,.54,.25,.51,.15,1.12-.07,.41-.16,1.36,.39,1.35,.26,.31,.27,.88,.6,1.05,.6-.32,.51-1.32,.16-1.93,.08,0,.17-.02,.25-.02,.39-.56,.2-1.07,.21-1.6,0-.27,.17-.33,.14-.6-.04-.37-.35-.62-.32-1,1.25-.35,.35-1.14,.92-1.89,.05-.07,.39-.03,.53-.2,.04-.05,.05-.43,.06-.48,.05-.53-.1-.55-.38-.97,.38-.24,.43-.88,.22-1.29,.53-.61-.5-1.37-1.07-1.47-.02,.04-.04,.08-.05,.12-.49-.21-.77-.99-1.43-.67-.23-.52-1.65-.52-1.5,.2-.22-.02-.51,.01-.66,.08l.07,.67Z"/><path class="cls-1" d="M8.03,59.85s-.06,0-.1,0c-.02,.1,.06,.17,.15,.22-.14-.03-.38,.06-.23,.22-.09,.02-.14,.08-.12,.18,.02,.01,.05,.02,.07,.03-.09,.01-.24,0-.2,.15,.01,.01,.04,.02,.06,.03-.18,.25,.07,.5,.32,.56-.07,.09-.1,.2,.02,.25-.01,.02,0,.08-.02,.1,.1,.03,.14,.09,.2,.14,.12,.09,.17,.1,.3,.16,.26,.13,.04,.21,.18,.42-.21,.04-.12,.41,.05,.43-.15,.18,.07,.25,.21,.31-.02,.04,0,.11,0,.15,.26,.06,.27,.07,.24,.3,0,.08-.03,.2-.02,.29,0,.06,.1,.06,.11,.11,0,.04-.05,.09-.05,.13,0,.06,.05,.21,.05,.27,0,.1-.09,.16-.06,.29,.02,.09,.2,.27,.27,.34,.07,0,.11,.05,.17,.07,.02,.35,.06,.76,.43,.87-.01,.05,.02,.12,0,.17,.09,0,.18,0,.26,0-.1-.15-.02-.4-.09-.58,.15-.16,.42-.52,.38-.77-.02-.13-.11-.12-.16-.21-.04-.08-.04-.14-.07-.23-.06-.17-.21-.27-.27-.42-.06-.15,.01-.26,.04-.39,.01-.07,.04-.12,.03-.2,0-.09-.08-.14-.08-.22-.01-.12,.01-.23-.01-.33-.02-.08-.07-.27-.13-.34,.12-.11,.04-.29-.03-.41,.17-.13,.05-.39-.15-.41,.04-.1,.02-.17-.05-.25-.05-.06-.17-.04-.21-.1-.03-.04-.02-.15-.03-.2-.04-.17-.01-.13,0-.29,0-.16,.05-.31-.15-.39,.02-.26-.15-.44-.42-.4,.02-.06,0-.12,.01-.18-.03,0-.05-.02-.08-.03,.18-.41-.7-.81-.72-.27,.01,0-.02,0-.01,0-.06,.05-.09,.12-.09,.2v.2Z"/><path class="cls-6" d="M19.98,89.31c.41,.05,.82-.58,.8-.95-.02-.57-.47-.41-.66-.78,1.37-.24,1.65-.78,.59-1.55-.56-.41-.35-.53-.61-.99-.36-.62-1.2-.63-1.79-.9,.05-.78-.95-1.27-1.56-1.4-.73-.15-1.2,.28-1.79,.47-.21,.07-1.66,.16-.9,.62-.82,.06-.28,.7,.06,.91-.97-.11-.57,.49-.19,.87-.35,.41,.67,.66,1.01,.77-.12,.25-.61,.64-.53,.93,.07,.28,.36,.15,.53,.35,.17,.21,.08,.51,.41,.73,.28,.18,.62,.09,.89,.19,.32,.12,.53,.36,.9,.46,.37,.1,.46,.03,.75,.21,.22,.14,.21,.36,.47,.47,.31,.14,.69,.04,1,.19,0-.09,.03-.09,.08-.13l.54-.47Z"/><path class="cls-1" d="M21.72,89.17s-.15,0-.19,0c-.01-.05-.03-.13-.02-.18-.35-.02-.71,.03-1.05-.06-.18-.05-.19-.24-.34-.29-.18-.06-.5,.09-.66-.02-.15-.11-.12-.46-.22-.58-.15-.19-.23-.11-.45-.28-.6-.44-.73-.37-.66-1.06,.02-.16,.23-.2,.24-.4,.01-.25-.25-.43-.27-.67-.05-.46,.21-.71,.66-.99,.24-.16,.68-.19,.97-.29,.59-.22,.92-.48,1.28,.13,.48-.69,1.38,.09,1.91,.29,.38,.14,.62,0,.89,.31,.1,.11,.22,.68,.21,.88,.4,.01,1-.11,1.01,.4,.06,.02,.13-.01,.18,.02,0,.78-.1,.5,.56,.73,.44,.15,.78,.32,1.12,.74-.22,.31,.21,.84-.45,1.02,.27,1.39-1.85,.15-2.2,.06-.22,.4-1.35,.44-1.64,.53l-.87-.27Z"/><path class="cls-1" d="M35.84,87.79c-.78-.27-.2-.75-.13-1.3,.02-.13-.07-.25-.04-.4,.02-.12,.27-.11,.26-.27,0-.21-.7-.73-.15-.81,.05-.23-.1-.37-.12-.57-.03-.26,.07-.36,.11-.55,.07-.28,.24-.69,.17-.97-.07-.3-.49-.4-.52-.67-.03-.26,.24-.26,.27-.45,.03-.2-.14-.39-.14-.59,0-.2,.1-.25,.1-.43,0-.29-.15-.54-.09-.84,.03-.16,.19-.2,.16-.51-.04-.45-.04-.81-.03-1.25,0-.26,0-.28-.1-.54-.12-.33-.27-.46-.13-.75,0-.02,.25-.18,.31-.28,.2-.34,.12-.93,.64-.89,.13-.27,.14-.41,.48-.39,.32,.02,.28,.31,.58,.32,0,.07-.03,.09-.03,.14,.15,.14,.11,.37-.03,.52,.05,.25,.32,.55,.31,.81,.24-.03,.33,.17,.35,.39,.28,.11,.07,.52,.48,.46,.06,.15,.19,.26,.36,.29,.07-.19,.08-.16,.27-.16,.06,.37-.22,.58-.16,.93,.04,.23,.5,.63,.09,.73,.06,.25-.05,.45-.31,.48,.19,.31,.06,.75,.12,1.1-.2,.02-.4,.78-.66,.91,0,.53-.31,.56-.46,1.02-.17,.55,.07,1.02-.62,1.21,0,.25,.08,.46,.03,.7,0,.01-.15,.19-.17,.27-.04,.15,0,.35-.01,.5-.02,.49-.08,.94-.31,1.33-.13,.09-.02,.24,.1,.37-.2,.1-.25,.33-.5,.4l-.49-.27Z"/><path class="cls-6" d="M35.26,80.01c.02-.06,.06-.06,.04-.14-.15-.15-.33-.24-.48-.04,.02,.03,.05,.07,.07,.1-.13,.11-.2,.2-.22,.31-.35,0-.55,.38-.36,.67-.24,.07-.2,.23-.17,.42,.01,.06,.21,.08,.23,.13,.05,.08-.02,.17,.02,.26,.03,.06,.17,.1,.19,.18,.01,.08-.07,.19-.05,.27,.05,.18-.04,.35,.23,.4-.06,.32-.08,.53,.26,.65-.15,.18-.17,.42,.1,.47-.08,.33,.2,.49,.18,.84,0,.09-.08,.31-.08,.4,0,.13,.11,.27,.11,.37,0,.3-.16,.59-.17,.87,0,.25,.04,.6,.05,.9,.04,.01,.08,0,.12,.01,.02,.46-.18,1.11,.41,1.18-.04-.39,.32-.41,.45-.7,.05-.12-.03-.32,0-.45,.04-.15,.19-.26,.22-.49,.11-.78,.19-1.54,.27-2.34,.04-.36,.23-.65,.27-.97,.05-.41-.23-.66-.27-.98-.04-.38,.13-.76-.04-1.12-.11-.23-.38-.42-.41-.62l-.98-.58Z"/><path class="cls-6" d="M32.58,69.53c-.27,0-.56,.08-.78,.09-.17,0-.35-.08-.53-.1-.36-.04-.68,.16-.99,.17-.18,0-.26-.16-.48-.07-.13,.06-.19,.22-.32,.27-.4,.16-.72-.08-.88,.46-.56,.03-.92,.04-1.17,.57-.05,.1-.01,.3-.06,.38-.06,.09-.22,.07-.28,.16-.13,.19-.04,.5-.03,.7-.14,0-.39-.04-.51,.04-.25,.17-.02,.29-.06,.47-.06,.3-.62,.27-.57,.63,.16,.04,.43,.2,.59,.17,.13-.02,.12-.18,.21-.19,.21-.03,.21,.07,.37,.13,.31,.11,.19,.12,.48-.13,.08-.07,.19-.04,.26-.14,.05-.06,.02-.24,.07-.33,.68,.02,.21-.37,.49-.75,.09-.12,.22-.11,.37-.17,.22-.09,.14-.03,.28-.23,.12-.17,.21-.63,.39-.71,.17-.08,.25,.09,.41,.08,.24-.02,.2-.12,.38-.2,.16-.07,.28-.04,.47-.07,.18-.03,.22-.11,.38-.16,.14-.04,.28,0,.41-.04,.15-.05,.22-.18,.37-.24,.27-.1,.6-.07,.87-.17,.25-.09,.15-.09,.3-.23,.07-.06,.24-.14,.3-.21,.07-.07,.12-.08,.13-.19-.15-.1-.35-.1-.5-.03,0,.03,.03,.05,.07,.06l-.47-.03Z"/><path class="cls-6" d="M19.05,74.39c-.19-.17-.45-.07-.65-.11-.08-.02-.09-.04-.15-.06-.1-.04-.15,.01-.22,0-.08-.02-.12-.1-.22-.11-.08-.01-.16,.01-.23-.01-.09-.03-.37-.19-.43-.06-.14,0-.31,.01-.44,.04-.12,.02-.1,.05-.17,.13-.03,.03-.08,.06-.11,.1-.04,.05,0,.11-.02,.16-.03,.06-.07,.06-.12,.09-.06,.04-.17,.15-.09,.22,.04-.08,.08-.03,.13-.06,.07-.03,.08-.08,.13-.11,.06-.04,.19-.09,.26-.1,.13-.01,.18,.09,.3,.09,.12,0,.25-.11,.37-.1,.11,0,.18,.16,.24,.24,.08,.1,.12,.13,.25,.13,.05,0,.12,.03,.16,.03,.06,0,.07-.06,.12-.06,.06,0,.11,.06,.17,.07,.07,0,.14-.05,.2-.04,.06,0,.11,.11,.19,.08,.05-.02,.03-.08,.06-.11,.05-.06,.23-.08,.31-.08-.04-.19,.29-.04,.3-.23-.06-.03-.14-.03-.21-.02,.02,.03,.04,.04,.07,.05l-.22-.13Z"/><path class="cls-1" d="M4.22,5.36c-.23-.06-.25,.13-.43,.13-.19,0-.33-.19-.58-.12-.29,.08-.16,.16-.33,.31-.22,.18-.62,.18-.87,.42-.02,.02-.09,.22-.13,.27-.12,.16-.34,.25-.44,.45-.12,.23-.19,.5-.34,.74-.11,.16-.03,.15-.27,.28-.18,.09-.35,.07-.43,.26-.07,.16,.04,.51-.04,.7-.08,.21-.34,.42-.36,.7,.23,.1,.58,.04,.84,.04,.5,0,.47-.11,.5-.57,.24,.16,.7,.18,.96,.2,.13,.01,.31,.02,.44-.02,.24-.07,.24-.24,.37-.34,.16-.12,.41-.2,.64-.25-.03-.16,.06-.29,.2-.36,.07-.04,.21,.02,.3,0,.11-.04,.12-.12,.22-.15,.47-.16,.9-.05,1.36,.09,.24-.55,1.14,.46,1.25,.67,.17,.33,.33,.71,.43,1.07-.11-.14-.27-.34-.29-.53,0-.06,.1-.23,.07-.37-.06-.31-.18-.65-.31-.91-.27-.55,.17-.35,.57-.69,.09-.08,.11-.22,.21-.31,.14-.12,.33-.15,.49-.24-.08-.34-.5-.38-.8-.36,.11-.51-.74-.44-1.05-.47,.28-.54-.85-.73-1.21-.73l-.97,.13Z"/><path class="cls-1" d="M33.52,.13c.23-.06,.25,.13,.43,.13,.19,0,.33-.19,.58-.12,.29,.08,.16,.16,.33,.31,.22,.18,.62,.18,.87,.42,.02,.02,.09,.22,.13,.27,.12,.16,.34,.25,.44,.45,.12,.23,.19,.5,.34,.74,.11,.16,.03,.15,.27,.28,.18,.09,.35,.07,.43,.26,.07,.16-.04,.5,.04,.7,.08,.21,.34,.42,.36,.7-.23,.1-.58,.04-.84,.04-.5,0-.47-.11-.5-.57-.24,.16-.7,.18-.96,.2-.13,.01-.31,.02-.44-.02-.24-.07-.24-.24-.37-.34-.16-.12-.41-.2-.64-.25,.03-.16-.06-.29-.2-.36-.07-.04-.21,.02-.3,0-.11-.04-.12-.12-.22-.15-.47-.16-.9-.05-1.36,.09-.24-.55-1.14,.46-1.25,.67-.17,.33-.33,.71-.43,1.07,.11-.14,.27-.34,.29-.53,0-.06-.1-.23-.07-.37,.06-.31,.18-.65,.31-.91,.27-.55-.17-.35-.57-.69-.09-.08-.11-.22-.21-.31-.14-.12-.33-.15-.49-.24,.08-.34,.5-.38,.8-.36-.11-.51,.74-.44,1.05-.47-.28-.54,.85-.73,1.21-.73l.97,.13Z"/><path class="cls-1" d="M47,11.68c.23-.02,.23,.17,.4,.2,.18,.03,.36-.14,.6-.03,.28,.12,.13,.18,.28,.35,.19,.22,.58,.27,.79,.55,.02,.03,.06,.23,.08,.28,.1,.18,.29,.3,.37,.51,.08,.24,.11,.53,.23,.78,.08,.17,.01,.16,.23,.32,.16,.12,.33,.12,.39,.32,.05,.17-.12,.49-.07,.7,.05,.22,.27,.47,.24,.75-.25,.06-.58-.05-.84-.09-.49-.08-.44-.18-.41-.64-.26,.12-.72,.06-.98,.05-.13,0-.31-.03-.43-.09-.23-.11-.2-.27-.31-.39-.14-.15-.37-.26-.59-.35,.05-.16-.01-.29-.14-.39-.07-.05-.21,0-.29-.05-.11-.05-.1-.14-.19-.19-.44-.23-.88-.19-1.36-.12-.16-.58-1.19,.28-1.34,.47-.22,.3-.43,.65-.59,.99,.13-.12,.32-.3,.37-.48,.02-.06-.07-.24-.01-.38,.11-.3,.28-.61,.45-.85,.35-.51-.12-.37-.46-.77-.08-.09-.07-.24-.16-.34-.12-.14-.3-.2-.45-.32,.13-.32,.55-.3,.84-.24-.03-.52,.8-.32,1.11-.3-.19-.58,.96-.59,1.3-.54l.94,.28Z"/></g></g></svg>