<?xml version="1.0" encoding="UTF-8"?><svg id="_이어_2" xmlns="http://www.w3.org/2000/svg" viewBox="0 0 336.82 231.93"><defs><style>.cls-1{fill:#a10136;}</style></defs><g id="USA"><path id="united_states" class="cls-1" d="M115.76,80.24l-.41-.26-.47-.18-.39,.1-.16,.58,.25,.35,.76,.87-.41,.36-.14,.56,.17,.44,.51,.02,.16-.04,.04,.02,.03-.04,.12-.22,.12-.31,.02-.31v-.3l.05-.3,.33-.75-.11-.24-.46-.36Zm-2.27,.4l-.1-.53-.26-.78-.32-.74-.43-.66-.57-.55-.45-.31-.29-.1-.26,.11-1.22,1.1,.05,.32,.08,.31,.02,.3-.11,.3,.45-.16,.24-.36,.17-.36,.24-.18,.23,.13,.4,.66,.29,.2-.14,.11-.17,.18-.13,.2-.02,.19,.12,.19,.13-.02,.15-.07,.18,.04,.07,.12v.26l.14,.12,.19,.08,.18,.06,.18,.02,.19-.03-.26,.53,.14,.67,.37,.54,.44,.12,.17-.42v-.8l-.1-.83Zm-57.03-18.29l.09-.22-.09-.11-.06-.04-.09-.02-.04,.21-.07,.2-.11,.19-.14,.17,.21-.07,.17-.13,.13-.18Zm58.11,16.63l.13-.12,.2-.26,.12-.13,.69-.52,.15-.44-.03-.48-.19-.49-.56-.92-.32-.66-.12-.5,.34,.06,.32,.42,.48,1.14,.39,.43-.17-.6-.24-.66-.33-.61-.42-.47-.33-.17-.32-.04h-.34l-.38-.1-.31-.2-.47-.56-.32-.23,.03,.36,.44,1.01,.1,.43,.11,.89,.09,.43,.17,.41,.4,.74,.08,.4-.08,.4-.17,.37-.13,.37,.06,.39,.22,.16h.23l.23-.11,.23-.16Zm2.01,1.36l.07,.23,.04,.26,.02,.32,.05,.3,.14,.21,.27,.06h.9l.25-.08,.13-.36-.15-.41-.47-.71,.57,.36,.36,.31,.21-.05,.12-.71-.3-.42-.57-.21-1.95-.27-.4,.03-.17,.21,.08,.11,.17,.11,.19,.1,.13,.09,.16,.2,.1,.16,.07,.16Zm-6.55-2.84l.2-.25v-.32l-.02-.32,.09-.26,.51-.06,1.23,.82,.5,.08,.17-.23v-.33l-.1-.32-.15-.23-.27-.13-.67-.06-.32-.13,.27-.16h.26l.27,.04,.29-.09,.21-.26,.03-.34-.1-.34-.19-.28-.67-.28-.64,.19-.54,.26-.37-.08,.29-.26v-.36l-.24-.34-.37-.18-.34,.06-.4,.21-.32,.28-.12,.28-.32-.28-.14-.15-.13-.16-.18,.35-.5,.47-.13,.4,.21,.29,.25,.25,.87,.71,.18,.23,.51,.84,.23,.28,.29,.18,.35-.05Zm9.95,5.55l.25,.29,.63,.26,.08,.09,.04,.1,.09,.09,.21,.04,.14-.03,.11-.04,.11-.02,.14,.03,.13-1.03-.08-.44-.34-.44-.39-.26-.27,.05-.22,.28-.27,.43-.37,.43v.18Zm0-2.35l-.53-.39-.09,.28-.14,.31-.09,.3,.07,.24,.24,.08,.33-.07,.59-.23-.16-.29-.22-.23Zm-50.98-16.83l-.3,.12-.2,.33,.32,.07,.3-.02,.29-.09,.27-.16-.33-.19-.35-.05Zm1.04-.47l.05,.24,.08-.06,.2-.45,.1-.28,.03-.27-.02-.27-.06-.28-.06,.05-.13,.16-.04,.07-.05-.07-.02-.05-.24,.64-.12,.21,.05,.15v.13l.06,.08h.17Zm11.06,1.5l-.28,.32-.24,.35,.31-.17,.39-.28,.35-.32,.2-.27-.4,.13-.33,.25Zm37.86,17.45l.38,.19,.44-.04,.28-.33-.07-.36-.33-.13-.43,.07-.36,.23,.09,.37Zm-48.85-20.15h0v0Zm8.7,.36l-.19,.08-.14,.13,.04,.17h.17l.2-.05,.12-.12-.06-.19h-.12Zm-4.37-.37l-.6,.08-.1,.44,.31,.35,.55-.03,.6-.25,.46-.33-.49-.15-.73-.11Zm-1.95,.54h-.3l-.17,.14-.51,.84-.45,.42-.5,.39-.45,.43-.3,.53,.33,.12,.37-.15,.35-.27,1.57-1.5,.25-.35,.03-.22-.05-.22-.16-.15Zm41.86,10.85l.24-.09-.23-.18-.41-.23-.38-.1-.14,.21,.18,.26,.36,.13h.38Zm46.67,104.02l.39,.39,.32-.16-.04-.27-.68,.04ZM10.3,28.09l.23-.21-.6,.29-.27,.18-.21,.23,.29-.13,.29-.17,.27-.19ZM160.52,177.39l-.13,.11,.11,.02h.33l-.22-.13h-.09Zm1.9-.01h-.3l.21,.28,.32,.08,.36-.06,.33-.16-.92-.14Zm4.7,2.43l-.23-.12-.27-.1,.11,.21,.17,.23,.24,.16,.33,.02-.15-.23-.2-.17Zm-3.59,.55l-.11-.04-.17,.02,.08,.14,.1,.06,.12,.02h.15l-.09-.11-.08-.09Zm2.98,.98l.14,.26,.16,.24,.21,.16h.28l-.61-.57-.18-.09ZM26.69,71.63l.43-.54,.27-.42-.38,.11-.35,.15-.33,.18-.31,.2,.25,.54,.42-.21Zm97.67,15.65l-.3-.39-.23-.16-.18,.08-.04,.18v.23l-.05,.23v.28l.31,.11,.36,.32,.31,.17,.17-.32-.1-.3-.25-.44Zm-2.22-.33h-.21l-.42-.11,.14-.46-.41-.31-.62-.18-.48-.06,.33-.36h.31l.37,.17,.5,.16-.4-.42-.65-.9-.36-.43-.27-.22-.82-.4-.27-.17-.1-.08-.04-.07-.08-.12-.07-.15-.05-.16-.07-.16-.13-.15-.22-.07-.38-.07-.38-.04-.22,.02-.16,.19,.03,.16,.09,.15,.02,.17-.1,.22-.16,.19-.2,.17-.23,.17,.3,.19,.9-.32,.39,.18,.07,.35-.26,.19-.62,.15-.35,.16-.06,.1,.92,.45,1.08,.28-.13,.21,.04,.11,.09,.1,.04,.17,.02,.07,.11,.16,.03,.08h-.27l-.04,.03v.19l.02,.1,.1,.16,.53,.52,.4,.3,.17-.05,.05-.18,.04-.08,.16,.16,.19,.48,.14,.2,.11,.05,.3,.05,.12,.05,.13,.16,.2,.39,.15,.15,.3,.14,.2-.02,.13-.17,.11-.31,.03-.22-.09-1.25-.07-.14Zm-4.32-1.07l.17-.19-.21-.16h-.47l-.5,.08-.32,.11,.2,.19,.12,.23,.03,.26-.06,.28,1.05-.82Zm2.22,2.39l-.13-.02-.15,.02-.16-.03-.24-.12-.15-.12-.18-.23-.27-.44-.43-.58-.48-.33-.44,.31,.1,.13,.1,.06,.11,.05,.12,.08,.2,.19,.2,.24,.15,.21,.25,.43,.31,.42,.25,.28,.27,.24,.26,.09,.18-.07,.17-.17,.11-.23-.03-.26-.12-.15Zm-50.93-28.36l-.06,.33h.57l-.19-.5-.32,.17Zm56.45,25.06l-.32-.77-.75-.34-.64,.14-.28,.4-.27,1.04-.48,.78-.05,.38,.24,.53,.23-.32,.57-.43,.24-.28,.09,.4,.31,.31,.41,.11,.39-.21,.28-.81,.02-.93Zm2.37-1.81l-.5-.13-.06-.07-.19-.27-.08-.09-3.73-1.48h-.14l-.31,.05-.12-.03-.04-.1-.09-.39-.07-.15-.12-.14-.13-.12-.18-.11-.29-.11,.07-.17,.1-.36,.07-.17-1.01-.22,.24-.57-.23-.6-.88-1.12-3.12-4.72-.5-.52-1.66-1.17-.36-.37-.57-.77-.37-.36-.94-.69-.34-.38-.27-.56-.07-.31v-.17l-.07-.16-.27-.3-.45-.41-.27-.2-.23-.1-.32,.07-1.12,.57-1.36,.33,.19,.31-.06,.27-.24,.16h-.37v.7l-.06,.33-.19,.3-.24,.16-.27,.07-.29,.04-.31,.07-.5,.27-.58,.39-.57,.33-.48,.08-.04-1.12-.83-1.05-2.09-1.6-.24-.22-.59-.67-.22-.21-.21-.15-.52-.31-.52-.43-.07-.4,.13-.47,.06-.65h-1.24l-.39,.07-.33,.15-.62,.44-.31,.13-.38-.04-.79-.38-.39-.11-.12,.06-.07,.13-.06,.14-.08,.07-1.57-.43V10.23l-.34-.02-.68,.03-.32-.03-.47-.15-2.4-1.04-1.69-1.04-.99-.31-.81-.05-.83,.05-1.68,.26-1.8,.45-.49,.02-.52-.08-1.39-.38-1.27-.56-.43-.11-2.44-.25-2.04,.05-1.04-.12-.38-.11-.27-.14-.55-.37-.76-.3-.25,.04-.45,.18-.23,.02-.34-.11-.74-.41-.36-.17-.93-.26-.93-.14-.56-.04h-.49l-.48,.07-.54,.13-.57,.09-.42-.06-.4-.13-.53-.12-.5,.03-.99,.36-.47,.13-.58,.02-1.8-.22,.18-.13,.16-.15,.13-.17,.11-.19-.96-.06-.89-.23-.35-.45,.67-.73-.43-.29-.47-.1h-.99l-.34-.07-.68-.19-.34-.04-.25,.03-.5,.14-2.37,.41-1.04-.02-1.03-.35,.28-.33-.05-.28-.27-.24-.38-.18-.43-.12-.3,.03-.26,.15-1.23,.99-.35,.18-.51,.11-.31-.1-.27-.2-.41-.19,.68-.24,.72-.33,.36-.42-.38-.49-.67-.22-.76-.1-.74-.16-.6-.4,.26-.19,.13-.07,.17-.05-.85,.12-.84,.6-1.45,1.36-.88,.55-.48,.24-.47,.18-.49,.09-.99,.03-2.28,.32-.42,.18-.23,.07-.19-.04-.13-.17,.1-.09,.17-.06,.08-.09-.1-.23-.2-.05-.31,.09-.9,.44-1.33,.85,.34,.03,.23,.16,.21,.21,.29,.19,.28,.07h.95l-1.41,.16-.13,.25-.04,.38v.7l-.1-.22-.17-.12-.22-.03-.26,.03,.24-.51-.02-.2-.26-.13,.13-.13,.22-.31,.13-.13-.82-.07-.87,.46-.84,.64-.73,.47-.51,.16-1.58,.32-1.19,.42-.43,.07,1.03-.6-.26-.34-.27,.03-3.25,3.26-.37,.48-.28,.53-.2,.48-.21,.35-.3,.31-.47,.36-2.07,1.03-2.3,.45h-4.71l.03,.75-.27,.89-.51,.69-.7,.14,.34-.25-.21,.05-.2,.07-.2,.09-.19,.11,1.43,.3,.45,.16,1.51,.74,1.69,.64,3.2,1.84,.69,.66,.87,1.56,.59,.7,.91,.49,1.12,.25,1.11-.06,.88-.42,.24,.39,1.66,.09,.71,.27-.49,.48-.25,.48,.02,.49,.33,.5,.2,.18,.24,.19,.26,.16,.25,.09,.33-.02,.3-.15,.3-.19,.33-.16,.27-.07h.42l.25,.07,.13,.05,.25,.16,.13,.05h.2l.44-.07,.19,.03,.24,.15,.18,.23,.09,.27-.02,.3-.18,.27-.32,.18-.4,.1-.41,.03-.59-.14-1.05-.55-.62-.1-.29,.04-.26,.07-.26,.04-.28-.02-.36-.16-.38-.27-.33-.34-.2-.35v-.15l.02-.32-.02-.13-.08-.13-.08-.06-.09-.05-.09-.1-.2-.36-.19-.29-.26-.17h-.4l-.32,.12-.14,.18,.02,.24,.17,.31,.23,.25,.23,.11,.26,.07,.31,.15,.3,.24,.31,.34,.27,.37,.18,.33,.08,.35v.22l.11,.13,.38,.07h.44l.38-.02,.39,.04,.46,.2,.29,.2,.18,.21,.09,.28,.05,.4-.2-.18-.38-.19-.41-.15-.31-.05-.41,.18-.26,.38-.22,.45-.29,.39-.36,.19h-.35l-.81-.12-.28,.02-.57,.11h-.28l-.23-.04-.41-.17-.21-.06h-.91l-.91,.08-.87-.09-.78-.53-.3-.33v-.08l.02-.21,.04-.08,.19-.12,.06-.07v-.13l-.04-.27v-.12l.35-.76v-.35l-.31-.25,.21-.03h.42l.21,.04-.99-.42-1.29,.25-2.3,.98-1.46,.34-.49,.22-.52,.38-.11,.3,.25,.29,.55,.35-.35,.34-.46,.07-.5-.08-.93-.25h-.21l-.32,.09-.26,.12-.66,.4-.23,.17-.18,.2-.3,.47-.18,.21-.25,.21-.21,.1-.51,.16-.37,.15-.19,.11-.5,.46-.26,.19-.9,.44v-.12l-.05-.24v-.12l-.45,.76,.57,.7,1.01,.56,.86,.33,1.15,.28,2.07,.29,.44,.15,.33,.31-.2-.06-.2-.02-.2,.02-.2,.06-.22,.15-.08,.16-.06,.17-.16,.18-.31,.13-.36,.03-.36-.04-.3-.09,.35,.38,.79,.7,.33,.35,.17,.38-.04,.32-.09,.34,.04,.42,.66,.7,1.15,.39,2.28,.37,.78,.05,.69-.17,.69-.27,.78-.24,1.06-.11,1.01,.12,.95,.36,.88,.59,.16-.29,.14-.3-.47-.15-.25-.28,.06-.21,.47,.06,.4,.32,.59,.95,.23,.18,.29-.22,1.11-1.3,.35-.25,.37-.2,.81-.54,.2-.11,.18-.02,.38,.05h.22l.29-.12,.21-.16,.2-.18,.26-.17,.37-.1,.32,.07,.28,.24,.25,.41,.1,1.04-.7,.45-.9,.27-.49,.5,.51,.04,.48,.28,.4,.42,.28,.44,.19,.48,.38,1.36,.07,.52-.34,1-.84,.65-1.07,.35-1.04,.12h-.67l-.23-.07-.18-.13-.11-.16-.15-.1-.31,.07-.35,.28-.74,.94-.34,.37-.81,.65-.46,.24-.51,.09-.45-.06-.34-.07-.34,.04-.47,.28,.22-.25,.13-.17,.04-.11-.2-.26-.31-.21-.36-.15-.34-.09-.36-.03-.42,.02-.4,.09-.3,.18-.2,.3,.07,.18,.18,.16,.13,.26-.84,.06-.48,.48-.16,.74,.13,.82,.15-.13,.16-.12,.17-.1,.18-.09-.12,.26-.19,.2-.25,.13-.29,.05,.08,.12,.05,.11,.06,.1,.09,.1-.07,.08-1.14,.02-1.2,.84-.72,1.17,.31,.99-1.2,.21-.34,.16,.17,.23,.21,.15,.51,.22-.4,.13-.39,.05-.29,.11-.1,.3,.07,.29,.13,.04,.17-.05h.28l.14-.03h.15l.12,.04,.12,.15-.03,.11-.08,.1-.03,.12-.02,.11-.06,.1-.04,.13,.04,.18,.12,.11,.35,.08,.13,.09,.1,.24,.06,.31,.08,.3,.17,.21,.42,.06,.15-.35,.13-.42,.36-.17-.1,.08-.15,.2-.08,.09,.18,.15,.18,.05,.18-.04,.17-.13v.34l.22,.13h.31l.33-.04-.2,.22-.81,.57,.28,.2,.31,.04,.34-.03h.35l.3,.05,.6,.2,.3,.07,.36,.04,.4,.02,.4-.02,.34-.07,.36-.2,.28-.19,.27-.03,.35,.27-.26,.1-.53,.06-.26,.1,.81,.12,.46,.13,.26,.22-.05,.35-.32,.27-.41,.14-.31-.02-.19-.19-.12-.24-.15-.21-.28-.09-.26,.12-.68,.61-.29,.2,.2-.59-.17-.44-.45-.3-.65-.18-.59,.14-.56,.48-1.01,1.16,.17,.02,.48,.03,.14,.03,.13,.13,.03,.1v.08l.04,.09,.26,.25,.27,.18,.64,.35,.34,.25,1.09,1.04,.25,.29,.28,.5,.26,.25,.8,.28,.99-.03,1-.23,1.56-.62,.35-.17,.23-.2,.13-.37-.06-.37-.22-.3-.34-.16,.58-.57,.56-.84,.6-.69,.7-.09-.51,.37-.52,.59-.37,.66-.07,.58,.08,.12,.3,.23,.11,.11,.08,.17,.17,.59,.88,1.77,.13,.5-.02,.51-.18,.61-.29,.51-.05,.26,.14,.33,.25,.24,.23,.02,.27-.07h.36l-.36,.35-.04,.32,.08,.34v.42l-.18,.34-.34,.22-.82,.32,1.11,.14,.56-.02,.53-.16,.31-.21,.53-.45,.36-.2,.27-.09,.54-.12,.25-.08,.21-.13,.4-.32,.22-.13,.49-.11,.32,.14,.3,.28,.43,.3,.47,.14,.29-.08,.26-.14,.38-.04,.45,.25,.44,.5,.69,.99,.35,.37,.39,.26,.35-.02,.23-.47-.02-.27-.2-.6-.04-.3,.07-.29,.1-.25,.05-.25-.08-.29,.34,.2,.22-.14,.17-.28,.22-.23,.37-.08,.38,.08,.37,.19,.34,.23-.96-.07-.36,.16-.08,.54,.21,.53,.39,.36,.5,.17,.52-.03,1.14-.37,1.08-.52,.96-.69,.79-.87-.52,1.05-.16,.56,.13,.38-1.04,.61-.46,.41-.29,.49-.04,.54,.24,.29,.86,.35-.8,.19-.41,.34-.18,.54-.19,1.29,.05,.44,.21,.36,.43,.26-.35,.09-.62-.2-.38,.04-.44,.25-1.82,1.58-.21,.23-.14,.23-.03,.17v.39l-.03,.13-.06,.16,.03,.08v.04l-.2,.05h-.22l-.18-.06-.12-.13-.06-.18-.4,.19-.74,.49-.39,.22-1.62,.64-.99,.55-.44,.31-.37,.38-.24,.48-.06,.45,.15,.13,.26,.09,.25,.31,.03,.24h-.18l-.53-.18-.32-.08-.17-.02-.19,.03-.1,.11v.3l-.11,.06-.18-.05-.2-.12-.18-.16-.1-.15v-.12l.08-.15,.11-.1h.11l-.2-.04-.59,.05-.31-.08,.15-.16-1.45,.28-1.23,.69-2.82,2.34-.16,.1-.17,.04-.31-.02-.15,.02-.49,.26-.22,.33-.14,.95,.36-.09,.26-.22,.13-.3-.03-.36,.32,.09,.49,.32,.3,.04,.31-.11,.11-.16,.03-.2,.07-.21,.03-.22-.04-.22,.05-.12,.31,.11,.19,.14,.1,.16v.17l-.09,.16,.57,.05,.69-.34,.63-.51,.41-.47,.34-.52,.39-.43,.49-.13,.63,.38h-.57l-.29,.31,.13,.33,.7,.02,.29-.11,.48-.3,.27-.13h.1l.33,.05h.13l.39-.2h.09l.22,.02h.11l.09-.08,.14-.2,.09-.08,1.32-.66,.52-.19,.3,.05,.15,.29,.09,.53,.24-.22,.31-.49,.23-.21,.49-.19,1.11-.2,.48-.21,.25-.23,.35-.42,.22-.11-.04,.07,.06,.12,.12,.11,.12,.05,.13-.07,.49-.4-.15-.25-.21-.17-.26-.08h-.29l.42-.42,.53-.22,1.11-.26-.49-.08,.29-.2,.29-.08,.29-.03,.31-.06,.37-.11,.71-.39,2.46-1.08,.34-.21,.32-.37,.05-.33-.03-.33,.08-.35,.25-.26,.3-.07h.3l.24-.06,.07-.09,.07-.25,.04-.06,.14-.04,.34-.07,.11-.04,1.19-.9,.73-.43,.85-.71,.07-.09,.08-.08,.18-.1,.25-.06,.54-.03,.25-.06,.07-.07v-.19l.06-.06,.15-.04,.35-.06,.13-.05,.39-.19,.1-.15,.07-.36-.08-.02-.19-.06,.53-.31,.81-.86,.51-.4,.56-.34,.48-.4,.2-.46-.29-.53-.31-.21-.37-.14-1.19-.3-.27-.1-.14-.19-.04-.38,.2-.57,.48-.49,1.09-.89-.2-.1,.28-.21,.37-.23,.28-.05v.33l.6-.09,.44-.32,.07-.34-.53-.15,.49-.17,.55-.09,.49-.17,.32-.42v-.49l-.32-.4-.46-.32-.47-.24h.44l.38,.11,.4,.07,.49-.11,.47-.3,.17-.3,.06-.34,.14-.42,.36-.4,.98-.5,.35-.28v-.12l-.02-.46,.04-.19,.18-.22,.24-.17,1.42-.71,1.39-.87,.31-.15,.28-.07,.14,.03,.21,.16,.13,.04h.63l.46-.06,.38-.2,.81-.68,.4-.23,.45-.11h.55l-.85,.44-.39,.25-.37,.3-.19,.22-.15,.21-.17,.19-.26,.15,.37,.33,.44,.28,.47,.24,.46,.18,.86,.14,.39,.13,.24,.29-.59-.08-1.16-.3-.59-.07-.27,.03-.55,.12h-.27l-.21-.1-.39-.31-.18-.08-.5,.06-.5,.25-.91,.61-.92,.41-.31,.25-.17,.45-.03,.55,.02,.51-.04,.52-.21,.56-.3,.44-.67,.83-.25,.49-.1,.52,.11,.4,.34,.26,.57,.09,.41-.13,.79-.48h.34l-.36,.49-.37,.4-.43,.33-.54,.27-.85,.3-.38,.28-.09,.41,.24,.29,.42,.09,.46-.02,.35-.05,.75-.03,.27-.09,.02-.24,.19,.03,.46,.17,.18,.02,.09-.08,.22-.34,.1-.12,.26-.27,.42-.58,.17-.18,1.34-.21,.63-.31-.15-.6h.21l.39,.12,.16-.04,.02-.11,.02-.23,.06-.26,.13-.2,.1,.19,.23,.6,.57-1.31,.15-.44,.19,.36,.24,.12,.6,.02,.99,.26,.37,.02,.73-.14,.7-.86,.04-.24v-.57l.06-.26,.17-.18,.45-.24,.13-.18-.18-.42-.68-.04-.8,.16-.53,.18,.27-.25,.31-.08,.3-.04,.23-.13,.18-.37-.12-.22-.27-.15-.27-.19-.25-.3,.05-.08,.24-.03,.34-.17,.27-.35,.09-.36-.15-.2-.46,.12,.2-.23,.22-.08,.24-.02,.26-.05,.34-.15,.59-.4,.32-.18-.6,.79-.16,.42,.13,.39,.34,.19,.37-.05,.32-.22,.2-.33,.5,.24h.31l.83-.27,.55-.13,.26-.1,.67-.35,.35-.13,.37-.03,.39,.12-.77,.21-.26,.2-.13,.37,.03,.34,.16,.24,.27,.16,.35,.1-.15,.1-.29,.24-.15,.1,.24,.1,.21-.06,.21-.1,.24-.02,.14,.04,.3,.14,.11,.12,.1,.09,.1,.06,.3,.06,1.02-.02-.13,.26-.17,.24-.2,.22-.23,.19,.51,.12,1.15,.38,.49,.02,.48-.26,.89-.92,.47-.35-.42,.64-.2,.63,.14,.55,.57,.42,1.24,.44,.57,.32-.15,.26,.43,.21,.62-.02,1.18-.25,1.53-.18,.77-.02,.77,.05,2.24,.48h1.15l.41-.64,.28,.23,.09,.31-.1,.32-.27,.26,1.04,.52,1.12,.34,1.14,.08,1.13-.24,.46-.29,.94-.81,.41-.19,.23,.02,.14,.09,.12,.12,.17,.13,.79,.45,.32,.13-.54,.03-.24,.21-.2,.9-.23-1.25-.27-.52-.42,.21-.07,.27,.09,.27,.12,.26,.04,.24-.13,.3-.24,.23-.29,.18-.28,.14,.89,.64,1.11,.6,1.17,.46,1.07,.22-.1,.14-.05,.05,1.31,.66,2.19,2,1.21,.88,1.01,.58,.33,.12,.36,.04,.28-.07,.28-.13,.36-.14,.67-.09,.19-.13,.05-.36-.17-.42-.35-.28-.44-.13h-.43l.11-.46-.56-.44-.81-.3-.65-.06,.21-.17,.11-.2v-.22l-.09-.22,.36,.16,.74,.21,.35,.14,.2,.16,.15,.19,.17,.18,.25,.14,.5,.03,.11-.3-.06-.48v-.51l.39,.65,.2,.09h.49l-.43,.23-.18,.15v.2l.14,.38,.07,.15,.19,.28,.06,.16v.19l-.12,.42,.03,.17,.23,.16h.32l.37-.04,.36,.06,.27,.21,.22,.27,.25,.22,.34,.07,.38-.24v-.5l-.4-1.09-.39-1.54-.27-.76-.38-.65,.25-.03h.09l-.07-.12-.12-.27-.09-.12,.17-.07,.12-.12,.08-.16,.04-.21,.19,1.13,.4,1.08,1.19,2.33,.19,.25,.22,.21,.28,.19,1.19,.67,.39-.16,.49-.89,.37-.31-.43,.74-.13,.69,.17,.66,.46,.66,.33,.4,.16,.1,.25,.05,.05-.05,.12-.12,.15-.12,.13-.07h.23l.77,.23h-.35l-.36-.02-.28,.05-.12,.27,.16,.36,.4,.35,.81,.54-.33-.13-.94-.49-.33-.02-.06,.27,.16,.42,.22,.45,.14,.35,.1,.95,.21,.21,.59,.21,.86,.17,.2,.08,.09,.12-.03,.21,.07,.15,.28,.27,.29,.18,.29,.15,.29,.18-.03,.03,.55,.81,.58,.54,.56,.42,.63,.3,.78,.16-.83,.23-.22,.13-.19,.24-.53,.95-.15,.18-.13,.12-.09,.13-.02,.21,.08,.24,.17,.23,.23,.16,.25,.03,.31-.24,.13-.42,.06-.44,.1-.3,.49-.33,2.04-.6-.29,.38,.13,.39,.31,.41,.26,.43,.06,.46v.52l.12,.44,.35,.21-.43,.31-.3,.13-.12,.21,.11,.57,.22,.55,.25,.25,.83,.33,1.19-1.1,.13-.52,.19-.4,.13-.41-.04-.56-.11-.48-.04-.44,.09-.42,.27-.43v-.59l-.32-.24-.49-.09ZM.36,48.04l.3-.17,.22-.32,.16-.41-1.04-.11v.91l.17,.08,.19,.03Zm18.92,40.98l-.17-.06-.17-.1-.19-.19-.43-.62-.29-.27-.31-.13-.36-.02-.43,.08-.3,.11-.59,.3-.29,.11-.22,.02h-.44l-.22,.06-.28,.25-.85,.97-.19,.29,.38,.66,.71-.11,1.33-.81,.47-.1,1,.06,.47-.05,.78-.31,.32-.02,.55,.14-.14-.17-.16-.08Zm-9.32,2.37l-.35,.15,.14,.43,.3,.02,.3-.04,.6-.18-.45-.29-.55-.09Zm1.56-.34l-.2-.05-.23,.1,.07,.36,.17,.12,.25-.06,.31-.18-.19-.16-.19-.13Zm10.52-3.07l-.17,.14-.08,.19,.07,.17h.19l.21-.12,.13-.21-.16-.18h-.19Zm-1.1,2.18l-.24-.08-.25-.03,.11,.26,.21,.16,.27,.06,.29-.07-.18-.18-.21-.12Zm33.66-17.99l.26-.24,.14-.25-.26-.09-.29,.05-.23,.16-.06,.22,.17,.22,.27-.08Zm-26.71,14.39v-.14l.05-.17-.1,.08-.34,.2-.07-.27-.25,.08-.18,.36,.14,.55,.3-.07,.38-.02,.26-.07-.07-.21-.12-.31Zm.47-.21l-.16,.02-.15,.07,.12,.1,.15,.09,.16,.08,.15,.05,.05-.34-.16-.06-.16-.02Zm-25.04,7.84l-.59,.05-.31,.26-.42,.82v.05l-.07,.07-.15,.11-.21,.07h-.2l-.2,.03-.22,.16-.23,.35-.14,.35-.19,.35-.35,.33,.44-.09,3.12-2.1,.29-.33-.03-.29-.54-.18Zm148.96,23.97l-.05,.06-.03,.09-.03,.11,.2,.23,.11-.03v-.2l-.1-.3-.1,.03Zm-.01-.57l.17,.12h.1l.06-.05,.07-.11-.34-.12-.27,.09-.06,.2,.3,.2-.03-.33Zm84.93,82.84l-.33,.57-.23,.62-.11,.57,1.07-2.16-.41,.4ZM30.15,86.92l-.04-.06,.07-.13-.24,.12-.48,.35-.27,.13,.05,.23-.02,.22-.08,.21-.14,.19,.33-.19,.39-.29,.35-.33,.22-.3-.06-.1-.08-.05Zm-20.84,6.1l-.1,.1-.1,.12,.02,.06v.05l.03,.05,.05,.05,.12-.12,.11-.14,.08-.15,.05-.14-.14,.04-.11,.07Zm.87-27.86l1.11-.12-.04-.29-.12-.23-.13-.21-.09-.23v-.26l.04-.27,.02-.26-.08-.23-.19-.18-.18-.03-.2,.03-.23-.02-.2-.07-.4-.18-.21-.06h-.43l-.5,.1-.5,.17-.41,.2-.26,.2-.06,.11-.1,.06-.38,.06h-1.08l-.37,.09,.49,.55,.55,.41,.61,.33,1.73,.72,.58,.18,.43,.04,.08-.4,.5-.19Zm-1.63,28.29l-.2,.02-.21,.06,.17-.32,.27-.25,.61-.46-.41-.25-.21,.19-.18,.31-.33,.11-.26-.19-.05-.26-.15-.17-.57,.08-.28,.08-.29,.13-.19,.2,.02,.31,.21,.18,.34,.1,.37,.07,.29,.1-.26,.32-.38-.31-.26,.15-.4,.67-.39,.26-.51,.21-.53,.15-.47,.09-.33,.21,1,.21,1.49-.54,2.47-1.35-.18-.08-.2-.02Zm20.67,127.95l-.14,.18-.12,.21,.17,.06,.19-.14,.17-.24,.12-.26-.21,.05-.17,.13ZM48.47,81.36l.53,.12,.08-.28-.23-.2-.38,.36Zm3.8-2.73l-.44,.18-.2,.43,.29,.1,.41-.12,.44-.2,.4-.14-.39-.21-.51-.03Zm-4.81,2.64l-.29,.26-.18,.24,.28-.02,.39-.2,.32-.24,.07-.17-.27-.03-.32,.17Zm7.55-4.95l-.26-.13-.18-.19,.02-.12,.11-.11,.1-.12-.02-.13-.35-.19-.42,.06-.78,.36,.05-.47-.05-.16-.18-.19-.2-.1-.25-.05h-.26l-.22,.04,.15,.26-.02,.22-.13,.18-.17,.15-.16,.07-.56,.15-.16,.02-.22-.19-.18-.29-.22-.19-.35,.09-.2,.3,.15,.29,.55,.51-.13-.02h-.12l-.12,.03h-.12l.15,.86,.11,.4,.24,.38-.65-.53-.32-.65-.39-.43-.85,.14-.4,.19-.38,.26-.28,.35-.09,.46,.15,.47,.32,.58,.39,.54,.36,.35,.36-.09,.1-.3-.16-.29-.44-.04,.26-.15,.32-.06,.32,.03,.27,.12-.07,.09-.12,.19-.07,.08,.26-.07,.26,.03,.51,.17-.83,.79,.46-.08,.69-.5-.13-.46,.61-.16,1.85-.9,.58-.15,.29-.11,.14-.15-.09-.27-.3-.16-.37-.07-.28-.02,.6-.07,.98,.05,.82-.12,.12-.58-.13-.1-.24-.1Zm-10.68,7.98l.06-.22-.16-.1-.19,.07-.15,.17-.04,.18,.12,.12,.19-.05,.17-.17Zm11.17-11.58l-.37-.11-.23,.26-.36-.27-.2-.12-.21-.07h-.47l-.12,.18,.05,.24,.02,.16-.17,.16h-.27l-.3,.04-.35,.17-.34,.27-.6,.56,.78,.31,.72,.09,.64-.21,.53-.59,.12,.25,.25,.04,.28-.09,.23-.13v-.13l.07-.24,.12-.09,.19,.31,.28,.06,.23-.13,.15-.25,.05-.3-.34-.11-.41-.24Zm-3.53,2.51l-.16-.22-.26-.16-.28-.1-.02,.21,.19,.19,.54,.33v-.26Zm-12.49,149.84l.39,.54,.24-.17-.07-.36-.55-.02Zm6.52,3.88l-.31-.4-.3-.26-.37-.2-.5-.23-.69-.4-.29-.05-.23,.22v.18l.09,.43-.02,.22-.11,.19-.5,.53,.2,.48,.39,1.71,.15,.32,.25,.22,.41,.02,.23-.16,.61-.67,.3-.22,.95-.3,.44-.26,.16-.39-.13-.22-.74-.75ZM31.33,87.5l.02-.1v-.21l-.1-.32-.17,.26-.11,.24,.04,.17,.28,.05,.04-.09Zm5.88,135.77l-.18-.12-.19-.19-.09-.18-.07-.2-.11-.17-.19-.11-.18,.05-.48,.3-.27,.05,.14,.34,.2,.34,.27,.24,.36,.03-.12-.18,.13-.04,.2,.18,.28,.14,.32,.04,.33-.12-.18-.26-.18-.14Zm-5.47-135.36l.12,.05-.09-.25-.08-.08-.16-.04,.03,.17,.07,.1,.1,.06Zm11.11,137.5l-.34-.21-.71-.23-.49-.11-.24-.09-.14-.1h-.13l-.14,.27,.08,.2,.13,.12,.15,.1,.14,.14h.02l.21,.12h.03l.03,.11,.02,.3,.03,.08,.33,.06,.47-.06,.43-.16,.22-.24-.11-.29Zm-4.01-1.46l-.04,.08-.08,.24-.02,.09,.89,.05,.28,.11h.28l.26-.09,.2-.22-1.35-.16-.43-.11Zm-7.7-3.51l-.5,.32,.04,.52,.41,.31,.43-.02,.36-.28,.2-.46-.32-.41h-.61Zm120.54-102.03l.16,.06,.06-.14-.11-.21-.19-.2-.17-.08-.04,.16,.11,.23,.18,.18Zm.59,5.65l.02,.07,.06,.14,.03-.02,.03-.04,.02-.04v-.02l-.12-.26-.04,.11v.07Zm160.78,28.23l-.09,.25,.19-.04,.15-.08,.12-.12,.1-.15-.15-.12-.17,.07-.15,.19Zm23.68-17.92h-.03l-.26-1.3-.3-.08-.22,.04h-.2l-.23-.18-.1-.21-.08-.31-.05-.32-.02-.25,.06-.27,.07-.1-.03-.07-.24-.2-.27-.16-.26-.1-.21-.13-.15-.26-.02-.22,.07-.83-.04-3.93-.11-.58-.29-.52-.42-.43-.39-.23-.41-.06-.47,.07-.99,.35-.52,.08-.42-.18-.13-.25v-.24l-.04-.21-.18-.17-.3-.06-.22,.11-2.16,2.89-.13,.26-.22,.61-.26,.6-.32,.58-.17,.46-.13,.94-.1,.45-.1,.22-.14,.21-.51,.61-.86,1.42-.12,.14h-.15l-.08-.09-.06-.11-.09-.04-.19,.06-.57,.26h-.13l-.24-.06-.13,.03-.13,.12-.08,.16-.06,.17-.08,.15-.29,.37-.23,.16-.33,.03h-9.91l-1.04,.18-.92,.56-3.8,3.39-.96,1.32-.3,.29-.39,.13-5.2,.1-1.04,.2-1.09,.4,.19,.44,.28,1.26,.11,.22,.13,.18,.08,.19-.03,.24-.36,.36-3.99,1.72-3.34,.78-1.08,.48-2.05,1.24-1.09,.3-1.09-.29-.4-.3-.31-.35-.18-.42v-.51l.14-.42,.24-.27,.66-.44,.71-.76,.4-.83,.61-1.88,.38-.94,.1-.45v-.52l-1.09-6.21-.16-.57-.24-.38-.35-.3-2.22-1.33-.46-.39,.02-.27,.15-.28-.06-.44-.32-.31-.37,.02-.39,.13h-.38l-.52-.52-.03-.69-.08-.56-.67-.12-.63,.17-.23-.07-.32-.31-.29-.44-.39-.86-.34-.38-.81-.55-9.72-5.2-1.05-.15-.96,.36-.96,.52-1.04,.35-.91,.07h-.49l-.38-.08-.17-.11-.25-.29-.17-.1-.19-.02-1.05,.07-.62-.02-.26-.05-.13-.09-.07-.13-.09-.12-.19-.07-.43,.07-.8,.49-.44,.13-.54-.1-.45-.28-.42-.35-.44-.31-.17-.09-.18-.07-.19-.05-.2-.02-.19,.06-.34,.22h-.16l-.09-.13-.24-.51-.1-.16-.2-.16-.26-.15-.95-.39-.44-.09-.45-.02-.46,.05h0l-.49,.36h-.47l-.46-.19-.47-.25-.56-.15-1.23-.18-.5-.25-.47-.82-.12-.92-.24-.77-.84-.37-.02,1.79h-91.23l.18,.61,.1,.18,.1,.09,.13,.08,.11,.05h.04l.11,.21,.14,.32,.09,.35-.04,.3-.17,.15h-.17l-.12,.02v.23l.62,.54,.15,.21-.32,.14-.07,.25,.13,.27,.29,.19-.07-.45,.43,.5,.08,.14v.18l-.07,.14-.09,.15-.07,.18-.13,.65-.03,.29,.05,.91-.05,.32-.11,.16v-.08l-.09-.22-.16-.18-.04,.14-.03,.15v.29l.12-.14,.16,.08-.04,.05-.32,.33-.12,.18-.08,.19-.1,.18-.16,.15-.24,.05-.96-.1,.26-.49,.16-.22,.24-.17,.04,.12,.13,.29,.03,.12,.03-.11,.12-.21,.05-.11,.38,.11,.09-.4-.12-.59-.24-.44,.19-.22,.24-.43,.1-.46-.23-.31-.2,.64-1.12,1.07-.28,.66,.37-.04,.12-.04-.25,.22-.22,.08-.16-.08-.08-.26,.11-.41,.3-.46,.62-.78,.04,.12v.06l.02,.08,.36-.46v-.41l-.15-.43-.13-.53-.34,.26-.26-.03-.24-.16-.3-.12h-.35l-.79,.05h-.39l-.54-.07-.47-.09-.45-.13-1.82-.73-.42-.08,.08,.44-.02,.9,.09,.45,.2,.37,.51,.65,.21,.37,.27,.77,.56,2.44,.14-.3,.22,.02,.29,.15,.34,.09-.5,.24-.25,.17v.22l.18,.4,.1,.12,.11,.08,.11,.09,.08,.15v.19l-.04,.23-.13,.42-.12-.17-.09-.18-.07-.19-.05-.2-.02,1.06-.07,.34h.75l.72,.05,.37,.09,.62,.27,.36,.12-.32,.03-.27-.08-.26-.12-.28-.08h-.37l-.35,.07h-.35l-.35-.1,.17,.62,.05,.75-.07,2.28-.67,6.34-.46,2.14,.09-.02,.21-.03-.47,.43-.36,.74-.22,.82-.03,.67,.07,.21,.24,.43,.08,.22v.21l-.04,.43v.21l.09,.47,.18,.38,.21,.36,.17,.39,.02,.19-.06,.38v.18l.06,.16,.29,.52,.12,.4,.04,.37-.46,3.1-.08-.14-.03-.04-.29,.69-.04,.61,.2,.57,1.02,1.28,.34,.64,.17,.69,.1,1.21,.43,1.51,.18,.32,.57,.66,1.06,1.02,.49,.56,.31,.61-.08-.1-.26-.3,.03,.23v.24l-.04,.23-.05,.22,.34-.11,.47,.21,.5,.31,.45,.17-.09-.72,.25-.3,.48-.04,2,.12,.47,.1-1.48-.05-.82,.08-.48,.29,.07,.37,.29,.56,.63,.96-.54-.33-.39-.51-.28-.29-.22,.34v.7l.28,.8,.43,.71,.51,.45,.75,.22,.28,.19,.1,.42-.09,.38-.18,.3-.13,.32,.06,.45,.22,.38,1.02,1.11,.66,.95,.24,.29,.29,.24,.68,.48,.24,.27,.04,.17-.03,.35,.07,.18,.14,.09,.38,.12,.14,.12,.13,.69-.05,.75,.11,.65,.61,.39,.82,.09h.87l.85,.09,.78,.28,.32,.24,.5,.48,.33,.22,.46,.12,.98,.03,.4,.13,.16,.18,.07,.23,.04,.23,.07,.17,.15,.13,.11,.03h.2l.44,.16,.41,.2,.39,.24,.82,.61,.42,.38,.37,.42,.28,.47,.12,.4,.05,.78,.08,.4,.21-.03,.13,.08,.06,.17v.24l7.93-.65-.06,.2-.08,.19-.1,.18-.12,.17,11.75,3.95,.72,.26,9.4-.02v-1.6l5.39,.03,.52,.06,.25,.22,.42,.6,.24,.26,.88,.58,2.88,2.22,.45,.53,.28,.6,.36,1.28,.28,.64,.39,.52,.48,.44,1.57,1.05,1.19,.59,1.15,.14,.88-.68,.25-.57,.17-.49,.26-.43,.52-.4,.61-.22h.55l.58,.1,.7,.05h.77l.28,.11,.37,.23,.45,.36,1.64,1.72,.39,.57,.64,1.21,.1,.27,.13,.52,.12,.27,.2,.27,.5,.47,.23,.25,.56,.89,.23,.28,.21,.17,.24,.16,.23,.17,.17,.22,.11,.45v.97l.09,.45,.15,.25,.38,.47,.16,.26,.08,.24,.12,.49,.1,.23,.43,.43,.6,.3,1.87,.67,1.8,.48,.3,.13,.6,.34,.3,.08,.11-.05,.18-.12,.22-.12,.21-.05-.06-.31-.17-.29-.22-.3-.21-.35-.16-.42-.5-1.87-.02-.18,.05-.17,.19-.33,.02-.16-.18-.33-.59-.39-.2-.43,.64,.37,.48,.04,.28-.56,.17-.72-.13-.18-.14-.14-.12-.14v-.14l.06-.06h.1l.1,.02h.07l.27-.18,.27-.12,.23-.19,.15-.39-.35,.12v-.26l.18-.11,.26-.08,.25-.16,.22,.19,.15-.21,.15-.72,.27,.23h.31l.31-.13,.27-.23-.28-.13-.18-.22-.26-.57,.19,.05,.24,.26,.2,.1,.11-.02,.24-.16,.14-.04,.24,.02,.46,.08h.25l-.38,.24-.36,.27,.74-.28,.76-.37,1.39-.88,.32-.26,.28-.29,.64-.85,.11-.12,.06-.12,.02-.23-.05-.21-.23-.48-.05-.26h.36l.44-.05,.24,.11-.23,.5,.41-.03h.21l.21,.03-.43,.26-.19,.15-.15,.18,.8-.44,.85-.36,1.02-.29,.21-.12-.06-.15,.03-.43,.13-.35,.27,.08,.03,.18-.14,.17-.16,.15-.06,.12,.41,.12,1.74-.02,.66,.07,1.59,.57,.83,.1,.77-.25-.17-.16-.03-.14,.08-.13,.16-.15,.25-.15,.19,.02,.37,.23,.16,.05,.24,.03,.14,.07,.09,.1,.15,.26,.1,.1,.25,.12,.24,.07h.24l.23-.13v.25l.08,.22,.25,.42h-.18l-.11,.02-.08,.04-.09,.04,.97,.39,.53,.14,.46-.02,.17-.11,.26-.34,.21-.1h.33l.18,.15,.12,.19,.17,.14h.45l.17-.38-.05-.51-.23-.45,.48,.17,.39,.19,1.45,.87,.25,.31v.45l.18-.17,.18-.11h.18l.18,.15,.15-.2,.14-.16,.09-.15v-.18l-.17-.21-.27-.14-.56-.2-.46-.27-.52-.4-.21-.36,.47-.17,.04-.21,.19-.07,.24-.05,.19-.15,.02-.17-.16-.6-.33,.11-.41,.28-.37,.11-.23-.39,.11-.22,.22-.15,.05-.06-.4,.05-1.04,.29h-.59l-.36-.34,.06-.19,.18-.28,.22-.26,.16-.13h.26l.21,.09,.19,.14,.2,.12,.65,.23,.43,.03,.4-.13,.55-.25,.74-.24,.43-.09,.36-.04,1.31,.15h.91l.16-.02,.17-.13,.1-.19,.15-.58,.09-.23,.18,.22,.07,.23,.03,.24,.05,.25,.07,.11,.24,.25,.09,.15-.37,.09-.34,.13,.92-.05,.28-.07,.16-.1,.31-.26,.17-.11-.17,.3,.48-.1,.67-.59h.26l.11-.15,.06-.06,.08-.05,.08,.33-.18,.19-.3,.13-.28,.18,1.9-.43,1.06-.09,.6,.29-.27-.06h-.27l-.28,.03-.27,.06,1.57,.61,.46,.09h.32l.15-.15,.15-.11,.17-.05-.11,.24,.02,.16v.11l-.15,.08,.78,.62,.31,.36,.03,.32,.15,.18,1.11-.1,1.22-.37,.76-.31v-.05l.06-.15,.09-.17,.1-.12,.33-.13,.31,.02,.3,.11,.3,.13,.63,.39,.48,.52,.91,1.16,.53,.45,.6,.44,.55,.48,.38,.58,.11,.58-.05,.61-.6,2.26-.02,.57,.26,.38,.31,.02,.15-.24v-.36l-.18-.32,.25,.03,.29,.14,.24,.19,.1,.17-.12,.31-.28,.37-.33,.33-.28,.18,.37,.47,.48,1.13,.34,.49,.39,.28,.17-.1,.17-.22,.4-.06-.13,.31-.1,.48v.47l.17,.27,.17-.03,.17-.15,.17-.19,.17-.14-.25,.4-.05,.24,.22,.56,.3,.99,.24,.38,.45,.38,.41,.26,.11,.1,.3,.38,.34,.55,.71,.91,.07,.22-.27-.22-.27-.04-.14,.13,.11,.28,.27,.14,.39,.02,.42-.04,.34-.06,.76-.36,.48-.63,.32-.78,.26-.83,.11,.16,.18-2.69-.12-1.26-.47-1.3-1.2-2.71-.48-1.48-.27-1.4,.26,.33,.06,.35,.02,.39,.14,.45,.13-.35,.16-.31-.03,.61,.03,.62,.15,.59,.34,.51-.2-.69-.12-1.31-.13-.61-.38-.83-1.41-2.49-.55-1.65-.53-2.41-.24-.66,.3-1.28,.28,.03,.13-.15-.02-.23-.19-.21,.22-.09,.18-.14,.15-.18,.13-.21-.28-.03,.19-.16,.04-.15v-.16l.03-.18,.14-.14,.15-.08,.06-.11-.13-.23,.35-.11,.29-.22,.22-.27,.16-.27,.08-.11,.1-.1,.09-.11,.05-.14-.05-.11-.11-.18-.11-.21-.04-.2,.07,.1,.17,.19,.07,.1,.05-.06,.11-.1,.05-.05,.2,.32,.27-.15,.05-.33-.47-.25,1.5-.22,.74-.29,.08-.56,.45,.04,.37-.22,.61-.61,.2-.11,.23-.09,.22-.11,.17-.19,.04-.22-.05-.21-.02-.23,.12-.26v.18l.02,.13,.09,.29,.26-.72,.47-.67,.6-.56,.66-.39,.76-.15,.68-.03,.49-.22,.17-.74,.05,.21,.03,.22v.43l.3-.71,.37-.58,.49-.48,.66-.43-.08-.18-.04-.19v-.2l.02-.2,.07,.22,.11,.13,.15,.06,.2,.03,.09-.04,.31-.22,.12-.06h.58l.52-.09,.49-.13,.44-.24,.38-.42-.62-.21-.61,.06-.58-.07-.52-.6,.49,.34,.48,.17,.4-.13,.26-.55,.09-.3-.22-.22-.32-.21-.77-.25-.31-.26,.31,.16,.3,.09,.31,.04h.33l.1-.05,.05-.22,.07-.03,.08,.04,.08,.08,.06,.07,.02,.03,.04,.03,.41,.23,.28,.1,.24,.03,.24-.04,.26-.1,.43-.3,.44-.5,.26-.57-.12-.51-.37-.21-.23,.29-.19,.44-.24,.27,.05-.62-.1-.31-.3-.09-1.19,.05-.4-.1-.19-.32v-.64l.18,.65,.46,.02,.55-.21,.47-.03-.14-.28,.09,.05,.3,.11v-.12l.02-.25v-.13l.57,.25,.27,.15,.23,.23-.17-.56-.2-.48-.12-.48,.07-.55,.37,.76,.55,1.65,.44,.78-.78-1.85-.52-1.76-.29-.42-.51-.2h-.31l-.27,.06-.25,.03-.25-.06-.19-.19-.26-.56-.13-.18-.44-.19-1.03-.2-.44-.21,.96,.1,.47,.12,.43,.2,.46,.49,.3,.26,.29,.08,.17-.32-.45-.55-.63-.59-.37-.45,.3,.31,.43,.38,.36,.15,.09-.38,.11,.04,.23,.04,.11,.04,.04-.24-.04-.19-.13-.14-.21-.09,.2-.16-.78-.39-.65-.59-1.23-1.29,.58,.32,.9,1.17,.56,.36,.29,.03,.22-.08,.14-.19,.06-.29-.06-.29-.18-.23-.25-.19-.28-.18-.33-.16-.71-.27-.31-.17-.14-.14-.23-.33-.16-.12h-.13l-.3,.09h-.11l-.23-.53,.29-.53,.44-.54,.2-.55-.05,.5-.61,.82-.03,.41,.15,.18,.14-.05,.16-.11h.2l.12,.1,.38,.49,.06-.27v-.1l.31,.41,.47,.25,.51,.21,.45,.3-.15-.57-.8-.88-.16-.58,.14,.34,.2,.3,.26,.22,.34,.09-.32-.72-.1-.37-.03-.42,.07-.63-.02-.3-.14-.3,.37,.12-.04-.27-.37-.66,.34,.14,.2-.11,.25-.56,.18,.32,.02-.11,.06-.23v-.12l.1,.19,.02,.04,.31-.17,.23-.51,.31-.14-.04,.32,.32-.03-.11,.09-.21,.21-.11,.1,.11,.03,.21,.08,.1,.03-.51,.06-.42,.23-.23,.39,.04,.55,.28-.23-.1,.36-.47,.18-.08,.31,.23-.1,.15,.03,.08,.13,.02,.19-.08,.07-.17,.09-.17,.14-.08,.23,.27-.17,.29,.12,.57,.47-.85,.17,.03,.47,.45,.41h.42l.06,.16,.08-.08,.28-.19v.2l-.04,.19-.07,.18-.11,.17,.24,.12,.13,.17v.22l-.11,.25h.17l.46,.07-.34,.7-.5,.8-.3,.81,.23,.75,.56-1.05,.22-.34,.07-.06,.21-.11,.08-.06,.05-.13,.19-.63,.33-.68,1.07-1.8,.02,.06v.1l.03,.06,.12-.3-.02-.31-.16-.22-.31-.05,.31-.37-.08-.34-.57-.68-.12-.21-.77-2-.05-.32,.07-.31,.23-.35,.33-.27,.73-.37,.29-.3-.39,.47-.6,.35-.47,.44v.75l.57,.65,.72,.31,.54,.35,.02,.78,.44-.16,.28-.36,.21-.44,.22-.39,.26-.22,.25-.17,.16-.23-.02-.4,.46-.14,.26-.53,.19-.64,.22-.46-.05,.41v.41l.31-1.34,.07-.72-.12-.6-.57,.11-.31-.16,.06-.51,.8-.91,.25-.54,.06-.58-.19-.64,.3,.43v.54l-.16,.56-.2,.49,.96-.79,1.07-.66,1.15-.46,4.35-.49,.33-.07,.29-.14,.25-.25,.09-.27,.07-.43,.03-.43-.02-.28,.3,.34,.09,.13,.1-.07,.22-.13,.08-.06-.12,.25-.05,.27,.02,.27,.09,.26,1.51-.9,.13,.09,.05,.18v.44l2-.52,.37-.17,.07-.49-.21-.57-.39-.44-.47-.11,.15,.23,.2,.05,.24,.22,.18,.3v.3l-.28,.27-.48,.08-.5-.06-.36-.15-.19-.25-.12-.33-.15-.53-.31-.46-.29-.23-.34-.16-.44-.27,.18-.22,.35-.51,.19-.19,.63-.25,.11-.1-.33-.24-.24-.22-.14-.28,.05-.48,.23-.53,.58-.93,.74-.87,.29-.46-.06-.34,.19-.27,.23-.23,.27-.17,.31-.1-.02,.14v.14l.18-.04h.1l.09,.03,.16,.08,.05-.44v-.15l.04,.07,.17,.17,.03-.18,.06-.14,.17-.27,.08,.36v.12l.13-.18,.06-.11,.04-.14,.03,.09,.07,.18,.02,.09,.44-.27,.4-.18,.35-.23,.31-.42,.11-.29,.14-.65,.09-.26,.13-.14,.38-.29,.15-.16-.03,.11-.04,.26-.03,.12h.07l.15,.04h.07l-.11,.12-.08,.11-.07,.11-.08,.11h.26l.25,.07,.22,.12,.19,.16,.02-.27,.05-.27,.08-.27,.11-.26,.31,.16,.38-.11h.36l.25,.47,.6-.69,.19-.15,.13-.02,.33,.08h.16l.18-.12,.36-.29,.25-.11,.32-.04,.21,.02,.19-.04,.26-.22,.21-.23,.04-.1-.04-.06-.03-.13Zm-43.7,66.7l-.25-.63-.29-.54,.38,1.23,.5,1.18-.13-.59-.2-.65Zm-4.01-12.06v.23l.07,.24,.15-.87-.15,.18-.07,.22ZM153.34,119.03h-.25l-.32,.5,.2,.29,.25,.56,.18,.27,.34,.24,.24-.05v-.24l-.4-.34-.07,.25-.06-.31-.08-.28-.15-.22-.27-.12,.4-.29v-.26Zm.04,3.06l-.05,.12,.07,.16,.17,.16v-.36l-.02-.12-.18,.03Zm110.1,69.86v-.14l.04-.11,.05-.1,.03-.12-.52,.38,.2,.05,.2,.04Zm12.83,1.07v-.07l-.26-.3,.26,.37Zm32-22.4l.04,.03-.07-.21-.06-.07-.13-.06,.07,.15,.09,.1,.08,.06Zm-21.26,34.33v-.22l-.09-.31-.07-.13-.12-.11,.11,.39,.16,.37Zm1,7.05l-.05,.02-.03,.07h.09l.06-.04,.04-.04,.04-.03-.08,.02h-.07Zm-1.27-7.08l-.11-.17,.06,.22,.12,.13,.16,.04,.2-.05-.32-.09-.12-.09Zm45.61-68.57l-.17,.37,.31,.33,.02-.31,.11,.03h.09l.2-.07-.21-.46-.34,.11Zm-55.01,57.04h-.34l.33,.07,.32-.08,.31-.16,.29-.18-.61,.25-.3,.1Zm13.81,17.68l-.05,.07h.08l.05-.04,.04-.04,.04-.03-.1,.02-.06,.03Zm-2.64,.84h.14l.08-.05,.11-.14-.1-.17-.23,.36Zm.8-.52l-.1-.06,.03,.11,.05,.12,.11,.2,.15-.14-.14-.16-.08-.08Zm1.16-.04l-.17,.05-.16,.07h.35l.17-.08,.16-.1-.18,.02-.17,.04Zm-52.06-12.56l.36-.15,.38-.21,.34-.25,.24-.27-1.01,.61-.3,.26Zm6.17-4.04l-.52,.43,.3-.11,.28-.17,.26-.21,.23-.23-.28,.11-.27,.18Zm-6.71,4.48l-.23,.49,.2-.19,.18-.21,.14-.23,.07-.24-.2,.17-.16,.22Zm26.59-6.11l-.1,.18,.13-.16,.06-.08,.04-.1-.08,.07-.06,.08Zm.16-1.24l.08,.24,.03,.25v.26l-.08,.25,.11-.24,.03-.26-.05-.26-.13-.24Zm.62-.71l-.14-.03,.25,.14,.14,.04h.16l-.13-.06-.27-.08Zm-10.99,2.31l.46,.47,.22-.24-.12-.36-.56,.12Zm12.6-2.35l-.21,.03-.2,.06,.2,.03h.2l.2-.02,.2-.05-.19-.05h-.2Zm55.54-42.86h-.03l-.03,.2v.21l.07-.07,.03-.07v-.08l.03-.09v-.04l-.02-.04-.05-.03Zm.33-.19l-.09,.19-.15,.4,.25-.06,.12-.17,.03-.24-.02-.29-.13,.17Zm-2.96,2.34l-.31,.05-.27,.12-.24,.16-.25,.13-.29,.03,.24-.25,.78-.69-.36,.15-.66,.39-.36,.14-.36,.07-2.09,.12-.47,.12-.25,.29h-.38l-.42,.22-.32,.39-.07,.43,.18-.11,.18-.08,.18-.04h.18l-.24,.21-.1,.07,3.3-.68,3.29-1.31-.33,.08h-.54Zm4.99-1.64l-.57,.34,.24,.09,.26-.02,.55-.14-.22-.28-.26,.02Zm6.6-11.71l-.05-.06-.08,.19,.02,.07h.24l-.05-.06-.07-.13Zm-18.38,19.19l-.08,.23,.28-.41,.11-.22,.09-.23-.28,.42-.12,.22Zm13.94-7.04l-.12-.26-.06,.21-.14,.14-.2,.08-.24,.02,.2,.08,.21,.04h.22l.21-.04-.04-.14-.05-.14Zm-18.05,22.12l-.05-.19-.07-.19,.06,.58v.65l-.2,.56-.48,.28,.42-.07,.23-.33,.1-.45,.02-.45v-.2l-.04-.2Zm.62-8.66l.27-.43,.21-.47,.12-.44-.93,1.63,.32-.3Zm-4.48,12.33l-.12-.02,.1,.08,.1,.04,.22,.05-.2-.11-.1-.04Zm-12.54,34.76l-.48,.81,.59-.68,.25-.35,.24-.4-.31,.26-.29,.37Zm13.36-35.17l-.25,.31-.21,.33,.28-.27,.78-.89-.31,.23-.29,.28Zm1.66-1.36l-.16,.07-.16,.09,.17-.04,.34-.13,.16-.08-.17,.04-.17,.06Zm-15.69,37.45l-.05,.04-.04,.05,.07-.02,.03-.03,.02-.04,.04-.05-.03,.03-.05,.03Zm-55.21-7.35l-.09-1-.09,1.01,.14,1.03,.61,1.97v-.49l-.11-.53-.3-1-.17-.99Z"/></g></svg>