<svg xmlns="http://www.w3.org/2000/svg" width="744.135" height="697.51" viewBox="0 0 744.135 697.51">
  <g id="australia_maps" transform="translate(-588 -1936.5)">
    <g id="Layer_2" transform="translate(588.97 1937.5)">
      <g id="그룹_2605" data-name="그룹 2605" transform="translate(0.03)" opacity="0.7">
        <path id="패스_6525" data-name="패스 6525" d="M2068.416,80.625h1.4l5.164-7.519V71.5h-2.006l-1.053,2.708-3.41,5.415v.551l-1.3-.049-2.155,1.6-3.008,3.108v1.606l3.51-1.806Z" transform="translate(-1641.302 -57.911)" fill="#f1e2ae"/>
        <path id="패스_6526" data-name="패스 6526" d="M2094.042,327.345l3.044-3.308.039-1.994-1.955-.263-2.145,1.277.263-1.955-1.579-.563-1.542,2.442-2.03.753v5.452l-1.767,2.483,1.767.224,2.483-1.241.863,2.369h.753l.826-1.128.79,1.128h1.392l.94-1.241,2.481-.076-.412-1.241-4.287-1.767Z" transform="translate(-1660.66 -256.135)" fill="#f1e2ae"/>
        <path id="패스_6527" data-name="패스 6527" d="M2136.5,490.583l1.728,2.293h1.73l.79-1.692-.79-2.708-1.616-.977Z" transform="translate(-1700.561 -389.027)" fill="#f1e2ae"/>
        <path id="패스_6528" data-name="패스 6528" d="M1539.569,93.691l-3.987-5.564,7.146,7.633h1.767l6.317-4.626,2.669-3.31,1.279-2.33-1.392-.828-2.03-3.271-1.128.037-1.053.828h-2.294l-1.016,1.73-3.985.3-2.03,3.7-2.069-1.522-.339-2.557-2.142-3.422-2.218-.263.149,2.293,2.03,2.03.114,4.024-1.918-2.744-.565-1.243-1.39.526-2.181,1.806,2.781,3.761-2.9.3L1527.949,92l-.339,2.257,10.492.224Z" transform="translate(-1215.913 -64.859)" fill="#f1e2ae"/>
        <path id="패스_6529" data-name="패스 6529" d="M497.935,887.986l1.73-3.536h-1.73l-1.955,1.579.451,2.708Z" transform="translate(-395.783 -703.981)" fill="#f3d5c1"/>
        <path id="패스_6530" data-name="패스 6530" d="M1747.473,71.935V70.807l-1.167-.639.039-3.948-1.579.49-1.355,2.406,1.167,2.82Z" transform="translate(-1387.68 -53.708)" fill="#f1e2ae"/>
        <path id="패스_6531" data-name="패스 6531" d="M2065.18,318.14l.227,2.783,1.765-.751,1.318-3.2-1.506-.865Z" transform="translate(-1643.794 -252.609)" fill="#f1e2ae"/>
        <path id="패스_6532" data-name="패스 6532" d="M2238.96,341.209H2291.7a.6.6,0,0,1,.6.6v60.312h144.467l9.768-8.345a.6.6,0,0,1,.531-.129l2.508.6a.59.59,0,0,1,.166.067l2.018,1.192,2.124-.353,4.852-1.981a.609.609,0,0,1,.372-.027l5.231,1.283,4.628-.2h1.83a.6.6,0,0,1,.385.139l7.721,6.417a.6.6,0,0,1,.21.378l.385,2.7,1.02-.484,3.618-5.281a.592.592,0,0,1,.275-.218l8.246-3.279,3.946-2.987a.613.613,0,0,1,.181-.094l5.615-1.777a.587.587,0,0,1,.116-.024l7.266-.786,3.183-2.218a.692.692,0,0,1,.082-.049l7.33-3.538-1.151-10.357-3.61-4.212-2.206-3.61,1.6-3.61.4-4.012-1-1.4.8-2.608-2.808-4.411,2.206-6.017-.4-3.61-2.907.7v-2.908l-2.808-3.41.784-2.908h1.824l-1-2.206-4.058-1.5-5.269-6.017-.2-3.31-8.523-5.213.5-3.008-4.914-7.219h-6.317l-3.709-3.31-6.819-9.125-1-10.931-.5-1.2,1.3-.8-.1-4.613-3.51,1.906-3.51-3.108-5.315-4.511v-1.806l-2.506-2.206h-2.006l-.2,1.806,2.708,2.306-.8,3.008,1.906,3.31-1.5.1-3.107-3.912s-2.708-.1-2.708-.4-2.006-4.714-2.006-4.714l.2-1.5-2.708-2.608.5-7.019-3.41-4.713-.4-6.117-2.708-.9.3-1.5-5.515-1.4-2.006-3.912.5-3.11,4.614,2.508-.2-1.4-6.617-7.319-1.5-2.106-1.6,1.4-1,1.1-1.1-1-2.206-3.81-5.515-.5-1-2.106h-1.3l-1.806,1.2-2.106-1.2v-5.515l-2.106-3.71-1.1,1.4-2.908,1.3-4.012-2.708-2.608-4.411-2.106.7-1.4,2.006-7.321-4.913,1.2-8.223-.5-4.813-3.11-2.708-1.906,2.508-1-2.006.8-3.51s2.708-5.715,2.708-6.017-2.908-6.015-2.908-6.015l-1.1-5.013V164.6l-4.211-3.21-4.813-7.119v-7.219l-3.008-5.013-.5-4.713,1-1v-2.306l-1.8-2.708,1.4-1.5.2-2.708-6.919-5.715-4.913-3.31.6-3.31-1.906-2.406-2.608,1.7-3.909.4-3.11,3.41-5.013-.3-.4-5.213-3.812-6.819,1.3-8.723-.3-2.306-.3-7.119-1.3-.9v-1.3l1.1-.8-.1-1.3-6.217-5.013-2.908-.7.9-1.8,2.006-3.108-.4-2.006-4.211-1.2-1.4-2.106V59.121l-1.2-2.808V54.007l-4.613-2.808.5-1.3h.8l-.4-2.206h-2.608l-3.41,3.41-3.51,1.7V64.134l-1.606,3.912.6,5.013-1.906-.9-1.2.7-3.31,8.123,3.008,1.6.7,1.4,1.1,1.5-1.6-.5-1,.6-.6,2.406-1.6,2.106v2.508l2.908,2.808-.5,1.4-3.41,1.5-1.3,11.031,2.708,1.4-.4,5.113-1.5.7.5,6.919,2.106,3.912.1,2.908-4.913,7.119v5.113l-1,1.906v2.406l1,.4-.5,3.812-2.508,1.4v6.017l-3.812,4.311-2.106,1.4-2.406,8.623-4.312,2.708-7.421,3.108-5.715-1.3-7.119-5.815-4.212.2-5.113-9.325-2.708-.8-5.915-1.6-8.021-2.865v184.08Z" transform="translate(-1781.115 -38.959)" fill="#98b7f6"/>
        <path id="패스_6533" data-name="패스 6533" d="M1441.17,367.006h161.582V182.078l-4.913-4.309-3.61-.8-8.323-7.221-7.119-.7L1559.133,153l-2.506-4.01,2.406-2.308.3-2.606,3.31-2.508,2.808-8.925,1.6-1.8-.1-1.806-3.71-1,1.3-3.912,1.1-2.708,4.012-1.7,1.4-.2,1.4-1.706.1,1.806h1.706l2.808-4.613-2.408-3.61,3.11-1.3,2.106-.3.3-3.812,4.312-2.206-1.6-4.012-5.213,2.408-3.609-3.41,1.4-5.013-5.113,3.108-3.61,1.806,4.112,4.813-.5,1.6-5.113.8,1-3.61-1.2-2.006-2.708.9-1.5,1.9-1.506-2.106,6.317-7.921.4-1.906-4.011,4.212-4.511,2.106-4.414,5.013-2.106.7-5.815-7.019h-3.71l-1.1,2.006-4.312-1.806-1.7,1.1-1.6-2.908-3.11-.5-.7.8-1-.3V91.833l-1.5-.6-6.619,2.608-.5-2.206,1.706-2.006-1.706-.8-3.609,1.7-4.612-6.115-3.21,3.008-9.025-6.719-1.7,2.206-2.608-2.808-4.411,2.608,3.81,3.61-.1,2.908,1.4-.2,3.809-2.406,4.212.5,1.5,2.508-1.4,2.508,2.106,2.708-.2,4.411-2.708.8-.3,2.006-2.206-1.906-2.608.1-1.806,3.21-4.913-1.3-4.01,1.3-4.813-.7-1.906-5.215-1.7,2.808-2.408,2.106-2.306,1-3.41.4v2.006l-2.206.1-.5,3.51-3.008-.1-.9,2.908-3.61,3.01v3.71l1.5,3.108-.9,1.706-6.115,1.5-1.906,7.119,2.106,1.6-1,1.906-3.911,1.5-1.2-.2-1.7,1-.6,5.917,3.61,1.6,2.908-.3-2.006,2.006.7,1.2,2.106,1.606-1.1,1-2.608.1-2.106,2.308-2.006-1.406L1443.517,154l-2.347-.992Z" transform="translate(-1147.111 -64.756)" fill="#efd98f"/>
        <path id="패스_6534" data-name="패스 6534" d="M3398.344,1245.446v-.6l-1.153-2.808-3.008-2.157h-.853l3.51,6.017Z" transform="translate(-2699.939 -987.887)" fill="#b4caf6"/>
        <path id="패스_6535" data-name="패스 6535" d="M3341.259,1114.658l.351,1.355,1.053-.5,2.057-3.359-2.608-1.4-1.755-3.059-1.7.6v.653l-.853.6,2.808,2.957Z" transform="translate(-2655.74 -882.67)" fill="#b4caf6"/>
        <path id="패스_6536" data-name="패스 6536" d="M3573.93,1380.8l2.181,4.287V1380.8l5.491-9.927-2.408-1.2-.337-4.962-1.543.375.225,5.715-3.008,3.61.677,1.879-.075,2.408Z" transform="translate(-2843.689 -1087.246)" fill="#b4caf6"/>
        <path id="패스_6537" data-name="패스 6537" d="M2363.714,621.722l-1.4,2.106,2.257-.3,1.606,1.153a8.374,8.374,0,0,0,.953-1.2,7.844,7.844,0,0,0-1-1.153l-1.2-1.4-1.2.8Z" transform="translate(-1879.295 -495.224)" fill="#b4caf6"/>
        <path id="패스_6538" data-name="패스 6538" d="M3611.53,1590.411l1.014,3.159,1.016-.9-1.016,1.655v4.662l1.016,4.36,1.2-9.851-1.128-2.406-.075-4.138-2.03.377Z" transform="translate(-2873.616 -1264.139)" fill="#b4caf6"/>
        <path id="패스_6539" data-name="패스 6539" d="M2606.784,1.6l-.251-1.6-2.006.251L2602.37,0V.853l2.081,1.655Z" transform="translate(-2070.372 -1)" fill="#b4caf6"/>
        <path id="패스_6540" data-name="패스 6540" d="M2344.4,572.4l.7-2.857,5.515-.275-1.2-2.232-5.013-.9-6.166,4.511.2,1.755Z" transform="translate(-1860.129 -451.613)" fill="#b4caf6"/>
        <path id="패스_6541" data-name="패스 6541" d="M2599.908,39.013c0-.251,2.406-3.661,2.406-3.661l-1.453-.953-1,1.655-2.157,1.053.451,1.906s1.755.251,1.755,0Z" transform="translate(-2066.655 -28.381)" fill="#b4caf6"/>
        <path id="패스_6542" data-name="패스 6542" d="M1656.1,1492.08H1441.17V1609.6l18.191-2.42,12.032,1.2,3.108-.8,4.012-2.306,15.642,7.921,2.308,3.41,4.012.2,3.21-2.306,4.913.6,7.521,5.013h4.212l1.2-.9,5.013.9,2.608,2.506,1.7.9-2.608,3.712.2,1.1,6.517-2.306.5,5.313h-2.808l-2.006,2.608,2.808,3.008.3,4.112,8.221.9,3.21,4.311v6.919l5.113,2.708,5.715,16.344-2.808.8-1.1-2.406-1.5.6-.4,2.808,4.411.9,1.906,3.31h3.008l1.3,3.008,2.808-.9,1.906,2.306,2.106-2.908-3.71-3.41,2.106-3.41,3.21-.4-.7-3.61,10.229-12.534,2.508-1.4.5-2.506,5.815-.3,3.71-5.515,1.4-7.821,2.908-1.6,2.406-2.406-.1-4.011-.2-2.308,1.3-1.6,2.006,10.729,1.906,1.2-4.411,1.5-.5,4.311,2.206,3.108-3.71,2.708-2.306,7.421-.8.5v3.812l-1.3.9-.7,6.517,1.806,1.906-.6,5.213-.6,3.61-7.321-.4-2.206,2.206.1,3.41-2.106,1.4.3,1.6,6.417-1.6,2.306.4,3.31-3.308,2.306,1.4,1.706-.3,3.912-12.235s-.3-3.809-.2-4.111,3.108-5.615,3.108-5.615l2.206.1-.2,5.715,5.416,5.915-.2,13.237-3.31,2.406-4.112.4v3.81l4.714,1.806,3.21-.8,4.211.4,2.608-1.5.9-3.208,3.911-1.706,1.806-.9,3.31.7-.8,1.906-6.117,1.8-.1,2.006,7.621,8.723,6.217,8.423,2.508,8.021-4.312,3.809,2.006,6.617,9.527,11.733v6.317l3.61,1h7.821V1492.08Z" transform="translate(-1147.111 -1187.626)" fill="#d6b2d2"/>
        <path id="패스_6543" data-name="패스 6543" d="M3053.529,2901.723l-2.055-1.053-1.4,1.857,1.4,1.3,2.055-.853Z" transform="translate(-2427.72 -2308.799)" fill="#cfe3d3"/>
        <path id="패스_6544" data-name="패스 6544" d="M2826.758,3028.154c.1-.151-.653-5.114-.653-5.114l-.751.8v2.357l-1.1,1.655s.251,1.2.451,1.153A12.552,12.552,0,0,0,2826.758,3028.154Z" transform="translate(-2247.978 -2406.2)" fill="#cfe3d3"/>
        <path id="패스_6545" data-name="패스 6545" d="M3102.061,2947.448l3.359-1.553v-4.765l-.3-2.106-1.955,1-3.561-3.11-.3-3.561-1-.249-3.76,4.811.5,1.455,1.5.351,2.708,3.259v3.561Z" transform="translate(-2463.116 -2334.62)" fill="#cfe3d3"/>
        <path id="패스_6546" data-name="패스 6546" d="M2844.3,3021.608a20.842,20.842,0,0,0,0-2.508l-1.555.2-.551,1.3.551,2.155s1.455-.853,1.555-1.153Z" transform="translate(-2262.258 -2403.063)" fill="#cfe3d3"/>
        <path id="패스_6547" data-name="패스 6547" d="M3094.54,3004.584l1.3.551,2.257-1.5-.953-.251h-2.608Z" transform="translate(-2463.116 -2390.551)" fill="#cfe3d3"/>
        <path id="패스_6548" data-name="패스 6548" d="M3121.418,3003.38h-.251l-1.2,1.2-4.462.3-1.051,1.706.951,1.2h4.665l-2.91,1.3.1,1.906,2.206.2,1.453-1.3-1.1-.651,1.353-1.955,2.357.3.6-1.353-2.006-1.355Z" transform="translate(-2478.964 -2390.551)" fill="#cfe3d3"/>
        <path id="패스_6549" data-name="패스 6549" d="M2729.038,1696.87l-7.327,3.538-3.271,2.279a.585.585,0,0,1-.28.1l-7.36.8-5.458,1.728-3.928,2.973a.6.6,0,0,1-.141.08l-8.154,3.242-3.605,5.264a.625.625,0,0,1-.239.2l-1.906.9a.6.6,0,0,1-.257.057.617.617,0,0,1-.286-.071.6.6,0,0,1-.31-.445l-.467-3.281-7.376-6.13h-1.587l-4.687.2a.67.67,0,0,1-.169-.016l-5.126-1.257-4.732,1.932a.709.709,0,0,1-.128.037l-2.406.4a.612.612,0,0,1-.406-.075l-2.128-1.257-2.12-.508-9.7,8.29a.6.6,0,0,1-.392.145H2500.4v105.665l4.109,1.626,6.389.743a.522.522,0,0,1,.077.014l3.922.981,2.024-1.618a.6.6,0,0,1,.576-.1l5.113,1.806a.607.607,0,0,1,.278.2l3.008,3.911a.6.6,0,0,1,.114.249l1.328,6.638,1.626,2.208,3.567-3.3a.6.6,0,0,1,.5-.153l5.866.9a.6.6,0,0,1,.343.178l3.609,3.76a.6.6,0,0,1,.167.416v6.23l5.662,2.548a.67.67,0,0,1,.157.1l14.138,12.786a.624.624,0,0,1,.1.118l3.234,5,3.62,2.2,2.312-3.212.875-3.793a.6.6,0,0,1,.688-.457l8.874,1.5a.58.58,0,0,1,.182.061l7.525,3.985,6.095-.29,8.668-2.092a.563.563,0,0,1,.194-.014l8.423.751a.58.58,0,0,1,.194.051l2.7,1.216,2.43-1.62a.606.606,0,0,1,.422-.094l8.121,1.2a.6.6,0,0,1,.506.506l1.343,8.947,1.775,4.14a.559.559,0,0,1,.039.125l.992,5.238,32.309,12.683-1.251-2.918,1.806-2.608-2.206-3.41,2.206-6.819v-12.235l4.411-12.033,2.808-2.608,1.4-5.615,4.813-1.4,1.4-1.6-1.8-3.81,1.8-2.808v-11.031l6.017-4.411,1.806-3.41-4.011-3.61h4.011V1813.6l2.006-1.606,5.415-9.225a23.076,23.076,0,0,1,1-4.011c.4-.6,7.019-4.012,7.019-4.012l5.815-6.819,3.41-3.41-2.208-3.609,5.615-8.223v-4.813l2.408-3.21v-3.21l2.406-5.215-2.406-5.615,6.217-14.84v-11.631l3.008-6.417,4.813-6.619v-3.61l-2.406-2.734-.2-2.479,2.608-1.6-3.3-3.82Z" transform="translate(-1989.209 -1350.63)" fill="#efc2c4"/>
        <path id="패스_6550" data-name="패스 6550" d="M2631.548,2378.083a.6.6,0,0,1-.371-.449l-1.041-5.5-1.779-4.15a.612.612,0,0,1-.043-.147l-1.288-8.584-7.452-1.1-2.514,1.675a.6.6,0,0,1-.579.049l-2.916-1.312-8.223-.735-8.627,2.083a.712.712,0,0,1-.112.016l-6.317.3a.607.607,0,0,1-.31-.069l-7.586-4.016-8.219-1.394-.775,3.359a.613.613,0,0,1-.1.216l-2.708,3.76a.6.6,0,0,1-.8.163l-4.211-2.557a.634.634,0,0,1-.194-.187l-3.267-5.048-14.01-12.669-5.93-2.669a.6.6,0,0,1-.355-.549v-6.376l-3.3-3.438-5.377-.828-3.848,3.563a.6.6,0,0,1-.894-.086l-2.106-2.856a.577.577,0,0,1-.1-.239l-1.326-6.632-2.814-3.658-4.63-1.635-2,1.6a.607.607,0,0,1-.522.114l-4.173-1.045-6.429-.747a.558.558,0,0,1-.153-.039l-3.74-1.479v90.558l4.214,4.571.6,4.511,4.011-.7,3.41-4.211,9.125,3.01,6.317-.7,7.419,4.813,2.106,3.209,5.215,1.7,3.709,1.606,6.417-5.113,4.211-2.608,4.211-4.714,6.317-1.7,1.5-2.306-5.715-1,2.106-1.806,3.01-.5,2.206-2.206,5.114-.9,3.911,3.008-.1,2.708-6.819,4.312-4.111-.1,2.006,4.714,3.31-1.1,3.809-2.106-1.5,3.71,4.411.4,2.306,1.906,4.312-.2,2.106,6.417,2.006-.5,1.1-1.4,3.409,1,.6-3.31,2.306,1,.5,1.3-4.211,2.506,3.008,4.111,1.3-.8,1.2-6.719,3.709-3.108,1.906-.2,19.854-16.546,1.4-.6h27.475l4.011-6.217,4.411-1.806,1.449-1.447-33.456-13.135Z" transform="translate(-1989.216 -1841.458)" fill="#c7cb7e"/>
        <path id="패스_6551" data-name="패스 6551" d="M209.91,970.917a19.338,19.338,0,0,0,1.353-2.859l1.128-.922v-1.708l1.428-1.279-1.428-.828L208.48,967.3v3.61a8.9,8.9,0,0,0,1.428,0Z" transform="translate(-166.947 -766.758)" fill="#f3d5c1"/>
        <path id="패스_6552" data-name="패스 6552" d="M2119.362,2483.806l-2.457-3.059.351-2.708H2114.3l-3.159,2.306-6.266,1.053-1.153,1.1-1.755-1.2-1.906,1.3-3.61.451v1.706s3.51,4.914,3.709,4.862,2.457-.6,2.457-.6-.151-.8.051-.8h5.315l1.779-1.2,3.585,2.608,2.157-.6,2.255-3.31,2.608-.7,4.061,1.353,2.608-1v-1.528l-3.96-2.181-3.71,2.155Z" transform="translate(-1668.683 -1972.405)" fill="#e0c7dd"/>
        <path id="패스_6553" data-name="패스 6553" d="M292.886,347.3l-.963-.406-6.517-1.7-2.708-1.3-1.8.9-.8,1.6,3.41.6-7.421,1.4v-4.613L263.646,328.34l-5.815-.6-2.406-2.608-4.613-.3v1.5l2.306,1.3-.4,1.4h-2.406l-.5,4.212-2.608-1.3v-4.212l.9-1.3-3.008-.5-3.71,6.617-1.1-4.713-3.912-.1v1.7l2.206,1.906-2.908,4.212,1.5,2.908-2.106,2.206-2.808-2.808-.6-3.912-1.5.2v4.212l-3.61,1.6-2.908,2.508v-2.908l-2.206-.2,1.1,7.219,5.815,3.61-2.506.5-4.913-2.508-2.306,2.608-.5-2.406-.6-1.906-.9,1.5,1.2,4.613-1.2,1.3,2.306,1.4-1.4,1.1-3.81-1.3-1.7,3.41-3.61.2-.6,2.006.7,5.315,2.708-1.7,1.1.6-4.511,7.119,2.306,3.21-1.6,2.006-3.61-2.406-1.2-2.406-1.6-.1-3.41,2.408-.7-1.3-1.2-4.012-1.906-.8-3.108,2.306,2.306,4.311-3.71,2.106,1.706,2.808,4.913,2.506-.3,4.311-3.41-.7-1.2,1.806,1.4,3.71-1.5,1.1-7.219-12.535-3.51-3.31.9-2.106-.9-1.7-3.21,4.913.8,3.008-4.212-.6v3.71l-4.613,2.808-3.61,7.019,1.906,4.913-.6,3.108,3.108,2.006.7,2.106-10.027,7.019-1,3.912-2.106,1.806-1,6.017-8.623,9.025L138,439.347l-14.94,2.206-3.31,2.106-3.008-.3-2.608-1.806-3.008.4-6.317,7.421-10.229.8-3.81,1.5-2.206,3.81L80.347,457.8l-3.71-.2v-1.906l-5.515.1v-2.006l1.806-2.508-1.2-1.3-3.61,5.113L63.5,458.6l-3.81,1.1-2.006.3-3.21,2.206-5.715,6.819-2.608,2.006v2.206l-7.521,1.5L27,485.77v7.521l-3.985-.3-1.63-3.812-1.4-2.006.8-5.213-1.5-.7-4.012,6.517-3.71,7.521,4.112,7.321-.7,4.714-.9,2.206,1.4,1.7-.2,2.306-5.815,8.021v3.21l-1.5,3.108V534.2l5.315,4.511.7,6.819,7.621,11.833L23.794,570.1l-3.108-.4-2.808-6.317-1.3,1.4-.8,10.229-2.608-.3L7.951,564.183l-1.7,1.4L3.04,560.973l-1.2-6.819-.6-1.4-1.2.9,1.1,9.025,9.727,13.136L21.09,591.455s.7,12.133.7,12.435,7.821,11.031,7.821,11.031l.6,6.919,4.514,6.317,2.206,24.065,6.117,13.636.9,7.119,4.813,5.113.5,14.94.2,4.112s-.3,1.7-.5,2.508-.2,6.117-.2,6.117l.7,8.925-7.621,8.925-4.112-2.408-.8,1.906.1,17.748,2.808-.8,4.913-.4,6.819,5.013,4.312,6.417,7.421.5,2.406,3.208,16.546-.4,2.106.9,1.7-1.706,4.514,1.8,2.708-1.3,3.008-.3,1-2.608,1.806-.4,2.106-3.008,2.508-.3,4.311-5.113,7.721-.7,2.406-1.7,7.521-10.729,18.752-.3,12.635-2.508,3.41,2.306h5.315l.8,2.306,4.813-2.406,1.5.9,2.908-.9,7.921.2,2.506,2.206,3.31-2.206,2.306.1,3.61-1.2,5.715-7.421.8-7.721,3.008-4.714,9.425-.8,13.236-8.121,7.921-2.608,4.713-3.809,5.113.1,2.106,1.5,10.329-.7,3.008-.1,13.838-6.217,3.51-.4L290.427,681l2.467-.329V347.3Z" transform="translate(-1.03 -258.55)" fill="#fcb17d"/>
        <path id="패스_6554" data-name="패스 6554" d="M49.55,1457.435l.675-1.828-.751-6.444-1.6-2.432-.7-2.781-1,.1-2.055.826.124,1.957v1.728l1.679,2.91v3.308Z" transform="translate(-36.116 -1149.317)" fill="#f3d5c1"/>
        <path id="패스_6555" data-name="패스 6555" d="M13.737,1378.333c.037-.151-.112-3.047-.112-3.159a10.6,10.6,0,0,1,.941-1.165l.263-2.859-2.481.753v1.616s.339.375.339.526-.788.677-.714,1.165-1.092,6.468-1.092,6.468l-.3.753,1.655-.414s1.467-3.534,1.5-3.685Z" transform="translate(-9.427 -1091.372)" fill="#f3d5c1"/>
        <path id="패스_6556" data-name="패스 6556" d="M3116.774,3272.942l-1.1,3.159,1.606,2.055,1.053-1.1.9-3.961-.9-.653Z" transform="translate(-2479.935 -2604.71)" fill="#cfe3d3"/>
        <path id="패스_6557" data-name="패스 6557" d="M2883.774,3067.8l.6-1.7-1.2-5.213-.6-1.6,1.5-3.61-1.7-1.6-1.6-.7-.2-2.206-2.106-1-.212.2-4.5,4.309-1.806-1.8-4.614.4v2.006l-4.011,1.6-6.517-.8-3.31,3.61-.9,1.906-1.906-1.5-6.217-.6-14.34-9.325-1.8,2.406-3.81-3.208-2.206.8,1.1,2.406-2.006-1.706-3.008,1.3-.7,5.313-1.3,1.2,2.006,2.306.6,5.115,4.111,3.41-.5,6.619,6.017,4.112,1,5.113,5.515,6.217-2.206,1.2-3.912-5.916-1.1.3,1.1,7.621,3.71,3.51.8,6.117,4.514,4.811v2.808l2.206,1.4,2.508,6.017h1.4l1.7-1,2.907,1.5-1.353,3.008.853.7,3.61-3.108,5.013,2.106,4.211-4.411,1.2-2.508-1-2.708,3.51.5-1.806,3.812s2.808,2,2.808,1.5,1.3-6.117,1.3-6.117l-1.7-4.012,5.115-6.317,4.711-.6,1.3-1.906-.7-4.112,3.107-10.829,2.106-1.806,1.7,2.306-.9,3.51.9,2.206,2.106-4.663-.9-5.566-.2-13.136Z" transform="translate(-2241.722 -2427.141)" fill="#bedbc4"/>
        <path id="패스_6558" data-name="패스 6558" d="M2746.39,2917.052a9.071,9.071,0,0,0-1.655-.9l-.551,2.306-1.755,1.855.4,4.614,1.353,2.055-.6,2.408.251,1.755h3.108l2.306-3.81v-7.421s-2.859-2.708-2.859-2.859Z" transform="translate(-2182.853 -2321.121)" fill="#cfe3d3"/>
        <path id="패스_6559" data-name="패스 6559" d="M3088.015,3311.67l-.651,2.657a10.748,10.748,0,0,1-.853,1.355c0-.149-1.655-3.108-1.655-3.108l-2.357,1.855,3.259,5.715,3.561-.953.451-5.464,1.1-.7-.351-1.755-2.508.4Z" transform="translate(-2453.533 -2635.617)" fill="#cfe3d3"/>
      </g>
    </g>
    <text id="Western_Australia" data-name="Western Australia" transform="translate(692 2255)" fill="#797979" font-size="14" font-family="ArialMT, Arial" letter-spacing="-0.025em"><tspan x="0" y="0">Western Australia</tspan></text>
    <text id="Northern_Territory" data-name="Northern
Territory" transform="translate(938 2134)" fill="#797979" font-size="14" font-family="ArialMT, Arial" letter-spacing="-0.025em"><tspan x="0" y="0">Northern</tspan><tspan x="0" y="14">Territory</tspan></text>
    <text id="Queensland" transform="translate(1134 2198)" fill="#797979" font-size="14" font-family="ArialMT, Arial" letter-spacing="-0.025em"><tspan x="0" y="0">Queensland</tspan></text>
    <text id="South_Australia" data-name="South Australia" transform="translate(946 2318)" fill="#797979" font-size="14" font-family="ArialMT, Arial" letter-spacing="-0.025em"><tspan x="0" y="0">South Australia</tspan></text>
    <text id="New_South_Wales" data-name="New South Wales" transform="translate(1149 2373)" fill="#797979" font-size="14" font-family="ArialMT, Arial" letter-spacing="-0.025em"><tspan x="0" y="0">New South Wales</tspan></text>
    <text id="Victoria" transform="translate(1134 2482)" fill="#797979" font-size="14" font-family="ArialMT, Arial" letter-spacing="-0.025em"><tspan x="0" y="0">Victoria</tspan></text>
    <text id="Tasmania" transform="translate(1177 2594)" fill="#797979" font-size="12" font-family="ArialMT, Arial" letter-spacing="-0.025em"><tspan x="0" y="0">Tasmania</tspan></text>
  </g>
</svg>
