<svg xmlns="http://www.w3.org/2000/svg" width="381.791" height="381.802" viewBox="0 0 381.791 381.802">
  <g id="australia_graph" transform="translate(-431.055 -4580)">
    <g id="_레이어_1-2" transform="translate(431.055 4580)">
      <circle id="타원_139" data-name="타원 139" cx="190.895" cy="190.895" r="190.895" transform="translate(0 0)" fill="#3692d3"/>
      <path id="패스_6560" data-name="패스 6560" d="M190.9,190.9l13.333,190.432q-6.656.464-13.333.464C86.171,381.791,0,295.62,0,190.9S86.171,0,190.9,0q6.573,0,13.135.453L190.9,190.9Z" fill="#37d1b7"/>
      <path id="패스_6561" data-name="패스 6561" d="M190.9,190.9l18.786,189.968q-9.371.927-18.786.927C86.171,381.791,0,295.62,0,190.9S86.171,0,190.9,0c.85,0,1.689,0,2.528.022L190.9,190.906Z" fill="#989999"/>
      <path id="패스_6562" data-name="패스 6562" d="M190.9,190.855l23.963,189.383A191.093,191.093,0,0,1,190.9,381.75C86.171,381.75,0,295.58,0,190.855S78.422,7.09,178.092.39l12.8,190.465Z" transform="translate(0 0.04)" fill="#f7e87c"/>
      <path id="패스_6563" data-name="패스 6563" d="M190.9,190.3l26.424,189.063A190.631,190.631,0,0,1,190.9,381.21C86.171,381.2,0,295.029,0,190.3A191.37,191.37,0,0,1,142.3,5.7Z" transform="translate(0 0.591)" fill="#ca97e8"/>
      <path id="패스_6564" data-name="패스 6564" d="M190.9,189.02l29.7,188.566a191.179,191.179,0,0,1-29.7,2.329C86.171,379.916,0,293.745,0,189.02A191.156,191.156,0,0,1,105.939,18.07L190.9,189.02Z" transform="translate(0 1.875)" fill="#9ac965"/>
      <path id="패스_6565" data-name="패스 6565" d="M190.9,186.61l32.13,188.169a191.119,191.119,0,0,1-32.13,2.726C86.171,377.506,0,291.335,0,186.61A190.985,190.985,0,0,1,67.1,41.3L190.9,186.61Z" transform="translate(0 4.285)" fill="#a00224"/>
    </g>
    <text id="_42.1_" data-name="42.1%" transform="translate(504 4826)" fill="#fff" font-size="24" font-family="ArialMT, Arial" letter-spacing="-0.025em"><tspan x="0" y="0">42.1%</tspan></text>
    <text id="_47.6_" data-name="47.6%" transform="translate(706 4766)" fill="#fff" font-size="24" font-family="ArialMT, Arial" letter-spacing="-0.025em"><tspan x="0" y="0">47.6%</tspan></text>
  </g>
</svg>
