<svg xmlns="http://www.w3.org/2000/svg" xmlns:xlink="http://www.w3.org/1999/xlink" width="200" height="100" viewBox="0 0 200 100">
  <defs>
    <clipPath id="clip-path">
      <rect id="연세대학교로고" width="200" height="100" transform="translate(1370 4250)" fill="#fff"/>
    </clipPath>
  </defs>
  <g id="france_uv_logo04" transform="translate(-1370 -4250)" clip-path="url(#clip-path)">
    <g id="ecole_normale_logo" data-name="ecole normale_logo" transform="translate(1382.827 4261.509)">
      <path id="패스_6389" data-name="패스 6389" d="M15.519,13.438a.826.826,0,0,1-.138.536.472.472,0,0,1-.718-.009.818.818,0,0,1-.14-.528V10.772H13.8v2.666a1.29,1.29,0,0,0,.349.966,1.165,1.165,0,0,0,.877.342,1.15,1.15,0,0,0,.871-.341,1.289,1.289,0,0,0,.349-.967V10.772h-.723v2.666Z" transform="translate(-0.985 -0.284)"/>
      <path id="패스_6390" data-name="패스 6390" d="M19.625,13.268l-.016.006-1.137-2.5h-.729v3.918h.729v-2.5l.015-.005,1.138,2.5h.723V10.772h-.723Z" transform="translate(-1.86 -0.284)"/>
      <rect id="사각형_10656" data-name="사각형 10656" width="0.723" height="3.918" transform="translate(19.218 10.488)"/>
      <path id="패스_6391" data-name="패스 6391" d="M25.368,14.689l1.04-3.918h-.764L25.023,13.7,25,13.839H24.98l-.028-.15-.616-2.917h-.764l1.04,3.918Z" transform="translate(-3.153 -0.284)"/>
      <path id="패스_6392" data-name="패스 6392" d="M29.978,14.078h-1.47V12.97h1.25v-.611h-1.25v-.977h1.465v-.611H27.78v3.918h2.2Z" transform="translate(-4.087 -0.284)"/>
      <path id="패스_6393" data-name="패스 6393" d="M32.9,13.293a.783.783,0,0,1,.114.455v.266a3.309,3.309,0,0,0,.023.395.453.453,0,0,0,.112.28H33.9v-.057a.483.483,0,0,1-.126-.267,1.853,1.853,0,0,1-.035-.346v-.277a1.246,1.246,0,0,0-.127-.592.72.72,0,0,0-.413-.339.927.927,0,0,0,.38-.354,1.023,1.023,0,0,0,.131-.529,1.131,1.131,0,0,0-.313-.849,1.184,1.184,0,0,0-.863-.306H31.325v3.915h.726V13.131h.526a.38.38,0,0,1,.326.162m-.367-.772H32.05V11.385h.488a.389.389,0,0,1,.335.159.716.716,0,0,1,.115.428.635.635,0,0,1-.115.406.408.408,0,0,1-.337.143" transform="translate(-4.873 -0.284)"/>
      <path id="패스_6394" data-name="패스 6394" d="M36.533,12.386a1.871,1.871,0,0,1-.47-.278.416.416,0,0,1-.135-.319.509.509,0,0,1,.122-.349.478.478,0,0,1,.7.029.7.7,0,0,1,.128.436h.706l0-.016a1.133,1.133,0,0,0-.322-.852A1.16,1.16,0,0,0,36.4,10.7a1.24,1.24,0,0,0-.861.3,1,1,0,0,0-.337.784.983.983,0,0,0,.29.757,2.577,2.577,0,0,0,.87.483,1.138,1.138,0,0,1,.4.263.542.542,0,0,1,.113.362.515.515,0,0,1-.112.349.424.424,0,0,1-.341.129.568.568,0,0,1-.44-.158.764.764,0,0,1-.146-.522h-.708l-.005.016a1.124,1.124,0,0,0,.377.937,1.392,1.392,0,0,0,.922.327,1.24,1.24,0,0,0,.856-.288,1.014,1.014,0,0,0,.322-.8,1.106,1.106,0,0,0-.268-.781,1.965,1.965,0,0,0-.8-.478" transform="translate(-5.715 -0.268)"/>
      <rect id="사각형_10657" data-name="사각형 10657" width="0.723" height="3.918" transform="translate(32.505 10.488)"/>
      <path id="패스_6395" data-name="패스 6395" d="M40.616,11.382h.833v3.307h.726V11.382h.839v-.611h-2.4Z" transform="translate(-6.935 -0.284)"/>
      <path id="패스_6396" data-name="패스 6396" d="M46.388,9.508l-.007-.016h-.765l-.45.714.585,0Z" transform="translate(-7.944)"/>
      <path id="패스_6397" data-name="패스 6397" d="M45.044,14.078V12.97h1.25v-.611h-1.25v-.977h1.465v-.611H44.315v3.918h2.2v-.611Z" transform="translate(-7.755 -0.284)"/>
      <path id="패스_6398" data-name="패스 6398" d="M14.917,16.8H13.793v3.917h1.124a1.171,1.171,0,0,0,.946-.455,1.788,1.788,0,0,0,.373-1.173v-.659a1.8,1.8,0,0,0-.373-1.174,1.17,1.17,0,0,0-.946-.456m.593,2.289a1.442,1.442,0,0,1-.165.739.518.518,0,0,1-.469.279h-.355v-2.7h.355a.519.519,0,0,1,.469.277,1.431,1.431,0,0,1,.165.736Z" transform="translate(-0.984 -1.622)"/>
      <path id="패스_6399" data-name="패스 6399" d="M18.471,19h1.25v-.611h-1.25v-.977h1.464V16.8H17.743v3.917h2.2v-.611h-1.47Z" transform="translate(-1.86 -1.622)"/>
      <path id="패스_6400" data-name="패스 6400" d="M23.538,16.8h-.728v3.917h2v-.611H23.538Z" transform="translate(-2.984 -1.622)"/>
      <path id="패스_6401" data-name="패스 6401" d="M26.337,18.484h-.015L25.708,16.8h-.794l1.045,2.475v1.442h.727V19.328L27.748,16.8h-.79Z" transform="translate(-3.451 -1.622)"/>
      <path id="패스_6402" data-name="패스 6402" d="M30.1,16.733a1.2,1.2,0,0,0-.94.391,1.552,1.552,0,0,0-.353,1.078v1.1a1.54,1.54,0,0,0,.353,1.077,1.345,1.345,0,0,0,1.889,0A1.535,1.535,0,0,0,31.4,19.3V18.2a1.538,1.538,0,0,0-.357-1.078,1.222,1.222,0,0,0-.946-.391m.581,2.567a1.122,1.122,0,0,1-.148.639.54.54,0,0,1-.859,0,1.144,1.144,0,0,1-.145-.639V18.193a1.148,1.148,0,0,1,.143-.637.482.482,0,0,1,.429-.213.492.492,0,0,1,.432.214,1.119,1.119,0,0,1,.148.636Z" transform="translate(-4.315 -1.606)"/>
      <path id="패스_6403" data-name="패스 6403" d="M34.837,19.3l-.015.006-1.137-2.5h-.729v3.917h.729v-2.5l.015-.005,1.137,2.5h.723V16.8h-.723Z" transform="translate(-5.235 -1.622)"/>
      <path id="패스_6404" data-name="패스 6404" d="M37.705,56.551c0,3.646-.006,8.367-.006,8.41A10.966,10.966,0,0,1,26.743,75.911l-.063,0h0l-.062,0A10.967,10.967,0,0,1,15.657,64.961c0-.043,0-4.768-.005-8.41H13.633c0,3.64.006,8.36.006,8.411a12.984,12.984,0,0,0,12.97,12.968l.069,0,.069,0a12.984,12.984,0,0,0,12.97-12.968c0-.049,0-4.768.006-8.411Z" transform="translate(-0.949 -10.44)"/>
      <path id="패스_6405" data-name="패스 6405" d="M34.809,56.551c0,3.666-.006,8.39-.006,8.4A6.916,6.916,0,0,1,27.9,71.863l-.067,0h0l-.066,0a6.915,6.915,0,0,1-6.907-6.908c0-.014,0-4.739-.006-8.4H18.815l0,6.277c0,1.26,0,2.111,0,2.127a8.95,8.95,0,0,0,8.942,8.938h.128a8.951,8.951,0,0,0,8.943-8.938c0-.016,0-.867,0-2.127l0-6.277H34.809Z" transform="translate(-2.098 -10.44)"/>
      <path id="패스_6406" data-name="패스 6406" d="M31.9,56.551c0,3.727-.006,8.324-.006,8.338A2.914,2.914,0,0,1,29,67.8h-.03a2.915,2.915,0,0,1-2.889-2.912c0-.013,0-4.609-.006-8.338H24.041c0,3.729.006,8.324.006,8.338a4.952,4.952,0,0,0,4.939,4.947h0a4.953,4.953,0,0,0,4.939-4.947c0-.013,0-4.61.006-8.338Z" transform="translate(-3.257 -10.44)"/>
      <rect id="사각형_10658" data-name="사각형 10658" width="26.04" height="2.007" transform="translate(12.737 42.097)"/>
      <rect id="사각형_10659" data-name="사각형 10659" width="26.04" height="2.007" transform="translate(12.737 38.083)"/>
      <path id="패스_6407" data-name="패스 6407" d="M39.39,26.058a.975.975,0,0,0-.126-.168c-.083-.094-.294-.221-.395-.32s-.22-.264-.279-.3-.178-.233-.233-.277-.129-.353-.137-.388a.253.253,0,0,0-.124-.177,1.905,1.905,0,0,1-.29-.193c-.091-.076-.324-.3-.324-.3a3.006,3.006,0,0,0-.152-.578c-.091-.2-.128-.278-.171-.354a.533.533,0,0,1-.089-.21.439.439,0,0,0-.245.066,5.684,5.684,0,0,0-.486-.327,3.184,3.184,0,0,0-.651-.318.886.886,0,0,1-.333-.177,1.713,1.713,0,0,0-.312.015c-.1.013-.433.047-.61.074s-.61.1-.709.1a3.885,3.885,0,0,0-.568.09,2.95,2.95,0,0,0-.334.076,2.685,2.685,0,0,1-.541.161c-.2.025-.418.026-.664.065-.11.02-.528.187-.724.232a2.071,2.071,0,0,1-.208.036s.04.139.149.165a.446.446,0,0,1-.193.191,4.086,4.086,0,0,1-.46.2,3,3,0,0,0-.556.242.464.464,0,0,0,.174.179s.028.016-.131.1-.526.238-.691.313-.4.213-.514.269a3.364,3.364,0,0,0-.33.184c-.15.092-.074.086-.074.086a1.4,1.4,0,0,0,.182.024.351.351,0,0,1,.169.051s.012.058-.065.127a2.834,2.834,0,0,1-.445.395c-.129.087-.241.188-.383.287s-.287.269-.338.3l.152.134-.023.105a1.526,1.526,0,0,1-.253.128,10.813,10.813,0,0,1-2.3.174c-1.951-.027-2.489-.278-3.483-.324a7.251,7.251,0,0,0-2.643.451,2.684,2.684,0,0,0-.425.163,7.244,7.244,0,0,0-1.121.322c-1.264.485-3.471,2.311-4.088,2.571a2.355,2.355,0,0,1-1.385.216,1.579,1.579,0,0,1-.6-.162,2.169,2.169,0,0,0-.474-.66,6.174,6.174,0,0,0-1.145-.531,1.536,1.536,0,0,0,.147,1.05c.347.615,1.026.576,1.271.676a3.469,3.469,0,0,0,2.336.034,18.6,18.6,0,0,0,2.138-1.151,6.528,6.528,0,0,1,2.222-.674c-.035.132-.074.261-.114.375a14.483,14.483,0,0,1-1.157,2.243A15.055,15.055,0,0,1,15.187,32.4a1.976,1.976,0,0,1-.827.3c-.428.08-1.658.2-1.658.2a12.263,12.263,0,0,1-.489,1.77c-.111.273-.374.815-.374.815a2.4,2.4,0,0,1,.608.969,1.624,1.624,0,0,0,.288.435V38.8h0v.055h26.04V36.849h0c.049-.153.119-.5-.182-.641-.389-.186-.076-.332-.978-.675a4.26,4.26,0,0,1-.835-.357c-.145-.118-.926-1.21-1.314-1.669s-1.187-1.52-1.187-1.52l-.175-.418.032-.315c.049-.052.1-.1.149-.161a3.14,3.14,0,0,0,.417-.5c.148-.3.1-.007.187-.17a1.57,1.57,0,0,1,.448-.342,1.566,1.566,0,0,0,.273-.269.813.813,0,0,0,.049.237,1.692,1.692,0,0,0,.2-.216c.124-.151.082-.165.234-.318a2.554,2.554,0,0,0,.356-.646,1.923,1.923,0,0,1,.181-.29s.064.154.107.263a.738.738,0,0,0,.141-.192,2.062,2.062,0,0,1,.138-.33c.069-.111.121-.255.187-.283a1,1,0,0,1,.341-.117,1.885,1.885,0,0,1,.37.08c.121.029.178-.026.262.083a.628.628,0,0,0,.193.168s0-.017.1-.068a1.056,1.056,0,0,0,.2-.118c.093-.068.079-.1.149-.17a.462.462,0,0,0,.152-.27c.035-.123-.023-.2.038-.257s.18-.061.242-.207.041-.167.066-.191a.371.371,0,0,0,.04-.127.654.654,0,0,0,.195-.26.34.34,0,0,1,.1-.212.584.584,0,0,0-.272-.311M25.828,32.695c.182.084.637.28,1.13.467a1.379,1.379,0,0,1,.07.573,3.4,3.4,0,0,1-.686,1.45,9.3,9.3,0,0,0,.418.918,3.951,3.951,0,0,1,.488.547c.028.058.064.135.093.2H25.578a.4.4,0,0,0-.171-.383c-.1-.1-.18-.283-.415-.366-.823-.293-.81-.174-1.048-.365a3.449,3.449,0,0,1-.663-.567A4.855,4.855,0,0,1,23.02,33.6a8.79,8.79,0,0,0-.054-.993,5.194,5.194,0,0,1,2.862.09M13.68,34.433c.264-.109.847.114,1.43.008a14.6,14.6,0,0,0,2.588-.8A8.018,8.018,0,0,0,19,32.629a1.143,1.143,0,0,1,.433-.23s.258.277.777.736.7.675.877.824a1.786,1.786,0,0,1,.431.577,4.273,4.273,0,0,1,.092,1.221,4.758,4.758,0,0,1,1.07.519,2.161,2.161,0,0,1,.411.572H14.793a.464.464,0,0,0-.269-.549,3.027,3.027,0,0,0-.634-.332.557.557,0,0,1-.384-.384,2.3,2.3,0,0,1-.093-.644s.041-.414.268-.507m20.618.781a3.255,3.255,0,0,1,1.04.6,2.734,2.734,0,0,0,.891.4,1,1,0,0,1,.534.293c.231.212.3.3.449.34h-7.7a.392.392,0,0,0-.156-.441c-.123-.069-.229-.2-.367-.27-.531-.254-.59-.161-.812-.339-.125-.092-.208-.5-.208-.5s.972-.959,1.158-1.2c.234-.3.326-.423.43-.572a6.077,6.077,0,0,0,1.762-.351l.208-.122q.125.071.221.129c.39.231,1.372.645,1.718.92a5.579,5.579,0,0,1,.836,1.112" transform="translate(0 -2.781)"/>
      <rect id="사각형_10660" data-name="사각형 10660" width="0.339" height="57.639" transform="translate(56.123 9.85)"/>
      <path id="패스_6408" data-name="패스 6408" d="M91.522,31.717h28v3.8h-28v-3.8Zm0,11.091V39.085h28.039v3.723Zm28,3.721v3.8h-28v-3.8h28Z" transform="translate(-18.228 -4.93)"/>
      <path id="패스_6409" data-name="패스 6409" d="M132.384,31.717h20.9q7.1,0,7.1,3.8h-28v-3.8Zm0,7.369h7.269v3.721h-7.269Zm7.269,7.445v3.8l-7.269.04V46.531Zm13.628-7.445h7.145v3.721H153.28Zm0,7.445h7.1v3.8h-7.1Z" transform="translate(-27.293 -4.93)"/>
      <path id="패스_6410" data-name="패스 6410" d="M201.375,46.531q0,3.8-7.186,3.8H173.377v-3.8ZM180.561,31.716h20.814v3.8h-28q0-3.8,7.185-3.8m20.814,11.091h-28V39.086h28Z" transform="translate(-36.387 -4.93)"/>
      <path id="패스_6411" data-name="패스 6411" d="M151.587,60.972h2.741v.443H152.14V63.25h2.076v.444H152.14v1.982h2.284v.444h-2.837Z" transform="translate(-31.553 -11.42)"/>
      <path id="패스_6412" data-name="패스 6412" d="M156.645,60.972h.7l2.847,4.528h.014V60.972h.555V66.12h-.746l-2.8-4.441H157.2V66.12h-.553Z" transform="translate(-32.675 -11.42)"/>
      <path id="패스_6413" data-name="패스 6413" d="M163.392,65.436a2.353,2.353,0,0,0,1.234.3c.689,0,1.259-.324,1.259-1.054,0-1.01-2.565-1.136-2.565-2.485,0-.826.785-1.342,1.772-1.342a3.551,3.551,0,0,1,1.1.172l-.088.464a2.465,2.465,0,0,0-1.021-.193c-.577,0-1.21.223-1.21.886,0,1.034,2.565,1.039,2.565,2.544,0,1.041-.97,1.453-1.837,1.453a3.444,3.444,0,0,1-1.266-.221Z" transform="translate(-34.156 -11.395)"/>
      <path id="패스_6414" data-name="패스 6414" d="M171.563,60.972h1.386c2,0,2.8,1.063,2.8,2.567,0,1.865-1.354,2.58-3.206,2.58h-.977Zm.551,4.7h.457c1.588,0,2.622-.59,2.622-2.168s-1.019-2.094-2.268-2.094h-.812v4.262Z" transform="translate(-35.985 -11.42)"/>
      <path id="패스_6415" data-name="패스 6415" d="M178.494,60.972h2.742v.443h-2.189V63.25h2.076v.444h-2.076v1.982h2.285v.444h-2.838Z" transform="translate(-37.522 -11.42)"/>
      <path id="패스_6416" data-name="패스 6416" d="M186.447,60.972H187v4.7h2.246v.444h-2.8Z" transform="translate(-39.287 -11.42)"/>
      <path id="패스_6417" data-name="패스 6417" d="M191.254,63.938l-2.076-2.965h.642l1.708,2.516,1.756-2.516h.6l-2.076,2.965v2.181h-.554Z" transform="translate(-39.892 -11.421)"/>
      <path id="패스_6418" data-name="패스 6418" d="M198.367,60.859a2.406,2.406,0,0,1,2.46,2.66,2.47,2.47,0,1,1-4.924,0,2.408,2.408,0,0,1,2.464-2.66m-1.909,2.66a1.93,1.93,0,1,0,1.909-2.217,1.992,1.992,0,0,0-1.909,2.217" transform="translate(-41.384 -11.396)"/>
      <path id="패스_6419" data-name="패스 6419" d="M203.581,60.972h.7l2.847,4.528h.016V60.972h.554V66.12h-.745l-2.8-4.441h-.016V66.12h-.552Z" transform="translate(-43.088 -11.42)"/>
    </g>
  </g>
</svg>
